<?xml version="1.0" encoding="UTF-8"?>
<svg width="29px" height="29px" viewBox="0 0 29 29" version="1.1" xmlns="http://www.w3.org/2000/svg" xmlns:xlink="http://www.w3.org/1999/xlink">
    <!-- Generator: Sketch 58 (84663) - https://sketch.com -->
    <title>icons8-circled_down_2</title>
    <desc>Created with Sketch.</desc>
    <g id="Famosos-App" stroke="none" stroke-width="1" fill="none" fill-rule="evenodd">
        <g id="1---Web-Copy" transform="translate(-704.000000, -489.000000)" fill="#FFFFFF" fill-rule="nonzero">
            <g id="Group-25" transform="translate(110.000000, 127.000000)">
                <g id="Group-24">
                    <g id="Group-22">
                        <g id="Group-21" transform="translate(547.000000, 331.000000)">
                            <g id="icons8-circled_down_2" transform="translate(47.000000, 31.000000)">
                                <path d="M14.4,28.8 C22.3524,28.8 28.8,22.3524 28.8,14.4 C28.8,6.4476 22.3524,0 14.4,0 C6.4476,0 0,6.4476 0,14.4 C0,22.3524 6.4476,28.8 14.4,28.8 Z M8.7516,15.9516 C9.2208,15.4824 9.9792,15.4824 10.4484,15.9516 L13.2,18.7032 L13.2,7.2 C13.2,6.5376 13.7364,6 14.4,6 C15.0636,6 15.6,6.5376 15.6,7.2 L15.6,18.7032 L18.3516,15.9516 C18.8208,15.4824 19.5792,15.4824 20.0484,15.9516 C20.5176,16.4208 20.5176,17.1792 20.0484,17.6484 L15.2484,22.4484 C15.0144,22.6824 14.7072,22.8 14.4,22.8 C14.0928,22.8 13.7856,22.6824 13.5516,22.4484 L8.7516,17.6484 C8.2824,17.1792 8.2824,16.4208 8.7516,15.9516 Z" id="Shape"></path>
                            </g>
                        </g>
                    </g>
                </g>
            </g>
        </g>
    </g>
</svg>