<?xml version="1.0" encoding="UTF-8"?>
<svg width="187px" height="38px" viewBox="0 0 187 38" version="1.1" xmlns="http://www.w3.org/2000/svg" xmlns:xlink="http://www.w3.org/1999/xlink">
    <!-- Generator: Sketch 56.3 (81716) - https://sketch.com -->
    <title>Group 3</title>
    <desc>Created with Sketch.</desc>
    <g id="Famosos-App" stroke="none" stroke-width="1" fill="none" fill-rule="evenodd">
        <g id="1-copy-6" transform="translate(-626.000000, -125.000000)" fill="#303542" fill-rule="nonzero">
            <g id="Group-6" transform="translate(550.000000, 125.000000)">
                <g id="Group-3" transform="translate(76.000000, 0.000000)">
                    <g id="Group">
                        <path d="M0.154149033,21.327248 C-0.0916405088,19.1578612 0.00688106544,12.9176363 0.10540264,11.8359852 L2.37309089,11.8359852 C2.42238846,2.29066674 8.68317993,-1.39953369 17.9018256,0.470167861 C18.1976111,3.76674691 18.0004208,7.06332596 17.9018256,8.53940613 C14.8453763,8.39179811 13.5636394,8.83462216 13.8594249,12.5740253 C14.648186,12.4756199 16.4228985,12.4264172 17.5074451,12.5248226 C17.6060402,14.6897402 17.6060402,18.8227647 17.3102548,21.1352903 C15.8313277,21.1352903 14.8453763,21.0368849 13.8594249,20.9876822 C13.9087224,22.8573838 14.303103,31.2218381 14.0073176,36.9785508 C10.7043803,37.4213748 5.33094513,37.4705775 2.5209836,37.3229695 C2.22519818,30.9266221 2.17590061,27.8268537 2.22519818,21.3813036 C0.62277792,21.3813036 0.146801412,21.2913616 0.151119543,21.326446 L0.154149033,21.327248 Z M41.5975238,23.9890453 C41.5975238,28.4172858 41.5482262,34.4692145 41.5482262,36.6833347 C39.5763234,36.9293481 35.7804105,37.1753614 32.1816878,37.1753614 C32.0337951,36.6341321 31.7873072,35.6008759 31.6394145,34.7644305 C27.2519307,38.2578202 18.2304753,38.9466577 17.7374996,31.4678515 C16.8994409,19.3147914 30.554868,20.8400742 30.554868,20.8400742 C30.554868,20.1020341 30.7027607,17.3958872 27.9913943,17.3958872 C25.3293255,17.3958872 21.5334125,19.9052234 21.5334125,19.9052234 C19.413617,17.1498738 18.8713437,10.359905 18.8713437,10.359905 C18.8713437,10.359905 22.6179591,7.26013665 30.4069752,7.26013665 C41.5975238,7.26013665 41.5975238,18.2815353 41.5975238,23.9890453 Z M30.9492485,25.8587468 C28.5336676,25.8587468 27.0054429,27.0888136 27.6463113,29.1061232 C28.1885846,30.631406 30.3083801,30.188582 31.1957364,29.1553259 C31.0971412,27.925259 31.0971412,27.7284484 30.9492485,25.8587468 Z M54.151971,7.75216337 C54.2012685,9.22824354 54.2012685,10.7535264 54.2012685,12.1804039 C56.7647422,6.86651527 66.5256612,4.20957096 68.8919446,12.7216333 C70.3708717,9.86787828 72.6878575,8.44100078 76.3358778,8.44100078 C87.8222117,8.44100078 83.6812158,26.4491789 84.5192745,36.9785508 C79.8360053,37.2737668 75.9414972,37.1753614 73.3287259,36.9785508 C72.1455843,33.9279851 74.7583555,17.7403059 71.4554183,17.7403059 C68.6947543,17.7403059 69.877896,22.5621678 69.877896,36.8309427 C67.1665296,37.1261588 62.3846653,37.2245641 59.426811,37.1753614 C58.4408596,25.071504 60.7578454,16.067415 56.4689568,17.4450898 C54.8914345,17.9371166 55.4337078,20.1020341 55.4337078,26.9412056 C55.4337078,30.6806087 55.4830054,33.9279851 55.3844102,36.8309427 C51.5884973,37.1753614 48.0390722,37.1261588 44.1445641,37.1753614 C43.8487787,27.9744617 43.9966714,16.5594417 43.9966714,8.19498742 C45.6727888,7.85056872 50.6518434,7.65375803 54.151971,7.75216337 Z M112.010886,19.0195753 C112.602456,25.1207067 111.172827,32.0582835 107.672699,34.9612412 C104.221869,37.8641989 97.1723168,38.6514416 92.3904524,36.191308 C85.094412,32.4027022 83.9112703,15.4769829 90.4678472,9.81867561 C92.2918573,8.2441901 94.5595456,7.40774466 97.7638876,7.06332596 C106.24307,6.12847518 111.271422,11.2947558 112.010886,19.0195753 Z M98.3061609,26.1047602 C102.496454,27.4332323 104.172572,20.9876822 101.609098,18.3307379 C100.179469,16.8546578 96.6793411,17.0514684 95.9398775,19.5116021 C95.2990091,22.1193437 96.0877702,25.4159228 98.3061609,26.1047602 Z M132.009266,8.88382484 C131.466993,11.5899718 130.974017,14.0009028 129.938768,16.1658203 C128.459841,15.8214016 125.797772,14.4929295 124.910416,16.1658203 C123.579381,18.625954 127.86827,19.8560208 129.938768,21.7257223 C133.093812,24.5794773 133.685383,31.4186488 129.396495,35.4040652 C126.931616,37.7165908 118.698922,38.0118069 114.06495,36.486524 C113.818462,33.4359583 113.621272,31.3694461 113.621272,28.3188804 C115.297389,28.3680831 119.882064,29.6473526 120.57223,27.2856243 C121.065205,25.4159228 118.353839,23.7922346 117.269292,22.6113704 C115.543877,20.7416689 113.029701,19.1671834 113.621272,13.9024974 C114.410033,6.2760832 125.206201,5.43963777 132.009266,8.88382484 Z M186.550129,8.88382484 C186.007856,11.5899718 185.51488,14.0009028 184.479631,16.1658203 C183.000704,15.8214016 180.338635,14.4929295 179.451279,16.1658203 C178.120244,18.625954 182.409133,19.8560208 184.479631,21.7257223 C187.634676,24.5794773 188.226246,31.4186488 183.937358,35.4040652 C181.472479,37.7165908 173.239785,38.0118069 168.605813,36.486524 C168.359326,33.4359583 168.162135,31.3694461 168.162135,28.3188804 C169.838253,28.3680831 174.422927,29.6473526 175.113093,27.2856243 C175.606068,25.4159228 172.894702,23.7922346 171.810155,22.6113704 C170.08474,20.7416689 167.570564,19.1671834 168.162135,13.9024974 C168.950896,6.2760832 179.747064,5.43963777 186.550129,8.88382484 Z" id="famosos"></path>
                        <g id="icons8-popular_topic_filled" transform="translate(133.364341, 5.793486)">
                            <path d="M16.6705426,0 C7.48588905,0 0,6.42997697 0,14.4808858 C0,19.1513181 2.5594719,23.2192048 6.49494343,25.8754956 C6.48928052,26.0310825 6.50060562,26.2856787 6.29675388,27.0438106 C6.04193956,27.9858177 5.52664729,29.3097197 4.48473837,30.8033528 L3.74294489,31.8641719 L5.03966812,31.8641719 C9.52440649,31.8641719 12.1206848,28.9419695 12.5227261,28.47238 C13.8590875,28.7863825 15.2322553,28.9561136 16.6705426,28.9561136 C25.8523651,28.9561136 33.3410853,22.5261366 33.3410853,14.4780571 C33.3410853,6.42997697 25.8551962,0 16.6705426,0 Z M16.6139172,6.51767152 C16.9140326,6.51767152 17.1830031,6.70154662 17.2905919,6.981603 L18.9383931,11.2503382 L23.5109012,11.4964484 C23.8110166,11.5134218 24.0714938,11.711441 24.1649257,11.9971547 C24.2555265,12.2800398 24.1649257,12.5940424 23.9299297,12.7835755 L20.3738493,15.669003 L21.5544905,20.0876671 C21.6309351,20.3790389 21.523347,20.6873834 21.2798571,20.8627725 C21.0363679,21.0381609 20.7107711,21.0466476 20.461619,20.8854033 L16.6139172,18.3960149 L12.7690471,20.8854033 C12.6501332,20.9617825 12.511401,21.001386 12.3754998,21.001386 C12.2254425,21.001386 12.0753844,20.9561244 11.9479772,20.8627725 C11.7073191,20.6873834 11.5968992,20.3790389 11.6761749,20.0904965 L12.853985,15.669003 L9.29790455,12.7835755 C9.06574043,12.5940424 8.97230784,12.2828692 9.06574043,11.9971547 C9.1591723,11.7142697 9.41681843,11.5162505 9.71693314,11.499277 L14.2922723,11.2503382 L15.9372424,6.981603 C16.0448312,6.70154662 16.3166335,6.51767152 16.6139172,6.51767152 Z" id="Shape"></path>
                        </g>
                    </g>
                </g>
            </g>
        </g>
    </g>
</svg>