<svg width="13" height="12" viewBox="0 0 13 12" fill="none" xmlns="http://www.w3.org/2000/svg">
<path d="M11.9976 1.06089C11.6799 0.724555 11.3028 0.457752 10.8877 0.275722C10.4726 0.0936915 10.0276 0 9.57832 0C9.12899 0 8.68407 0.0936915 8.26897 0.275722C7.85386 0.457752 7.47671 0.724555 7.15907 1.06089L6.49983 1.75857L5.8406 1.06089C5.19898 0.381838 4.32874 0.000351975 3.42135 0.000351982C2.51395 0.000351989 1.64372 0.381838 1.00209 1.06089C0.360462 1.73994 6.76064e-09 2.66092 0 3.62124C-6.76064e-09 4.58157 0.360462 5.50255 1.00209 6.1816L1.66132 6.87928L6.49983 12L11.3383 6.87928L11.9976 6.1816C12.3154 5.84543 12.5675 5.44628 12.7395 5.00697C12.9115 4.56765 13 4.09678 13 3.62124C13 3.14571 12.9115 2.67484 12.7395 2.23552C12.5675 1.79621 12.3154 1.39706 11.9976 1.06089Z" fill="#FB177D"/>
</svg>
