<svg width="9" height="9" viewBox="0 0 9 9" fill="none" xmlns="http://www.w3.org/2000/svg">
<rect width="9" height="9" transform="matrix(-1 0 0 1 9 0)" fill="black"/>
<path d="M8.4375 4.77588V8.15088C8.4375 8.46138 8.18494 8.71338 7.875 8.71338H5.0625V4.77588H8.4375Z" fill="white"/>
<path d="M0.5625 2.52579H2.34225C2.21456 2.43861 2.10488 2.35198 2.02838 2.27436C1.57444 1.81817 1.57444 1.07567 2.02838 0.619481C2.46938 0.175106 3.23775 0.176231 3.67819 0.619481C3.92231 0.864168 4.56919 1.86036 4.47975 2.52579H4.52025C4.43138 1.86036 5.07825 0.864168 5.32181 0.619481C5.76281 0.176231 6.53119 0.176231 6.97163 0.619481C7.425 1.07567 7.425 1.81817 6.97219 2.27436C6.89512 2.35198 6.78544 2.43861 6.65775 2.52579H8.4375C8.74744 2.52579 9 2.77836 9 3.08829V3.93204C9 4.08729 8.874 4.21329 8.71875 4.21329H5.0625V3.08829H3.9375V4.21329H0.28125C0.126 4.21329 0 4.08729 0 3.93204V3.08829C0 2.77836 0.252 2.52579 0.5625 2.52579ZM5.09569 2.50723C5.09569 2.50723 5.11931 2.52579 5.19975 2.52579C5.58844 2.52579 6.33037 2.12192 6.57281 1.87779C6.8085 1.64042 6.8085 1.25342 6.57281 1.01604C6.45863 0.901293 6.30731 0.838293 6.14644 0.838293C5.98612 0.838293 5.83481 0.901293 5.72062 1.01604C5.3415 1.39742 4.96462 2.37167 5.09569 2.50723ZM3.80081 2.52579C3.88069 2.52579 3.90431 2.50779 3.90431 2.50723C4.03538 2.37167 3.6585 1.39742 3.27938 1.01604C3.05269 0.787106 2.65612 0.785981 2.42719 1.01604C2.19094 1.25342 2.19094 1.64042 2.42719 1.87779C2.66962 2.12192 3.41156 2.52579 3.80081 2.52579Z" fill="white"/>
<path d="M3.9375 4.77588V8.71338H1.125C0.8145 8.71338 0.5625 8.46138 0.5625 8.15088V4.77588H3.9375Z" fill="white"/>
</svg>
