<svg width="28" height="28" viewBox="0 0 28 28" fill="none" xmlns="http://www.w3.org/2000/svg">
<g clip-path="url(#clip0)">
<path d="M27.7211 11.822L23.9087 8.46094V4.61176C23.9087 4.15718 23.5398 3.78824 23.0852 3.78824H18.6079L14.5446 0.205882C14.2333 -0.0686275 13.7667 -0.0686275 13.4554 0.205882L9.39208 3.78824H4.91482C4.46024 3.78824 4.09129 4.15718 4.09129 4.61176V8.46094L0.278902 11.822C0.110024 11.9901 0 12.161 0 12.4397V27.1765C0 27.6217 0.361529 28 0.823529 28H27.1765C27.6374 28 28 27.6246 28 27.1765V12.4397C28 12.17 27.8884 11.9885 27.7211 11.822ZM26.3529 25.267L19.3057 18.6167C19.5033 18.4864 26.2362 14.0462 26.3529 13.9693V25.267ZM2.17631 12.3453C3.17855 11.4614 2.74076 11.8474 4.09129 10.657V13.608C3.00506 12.8922 2.75701 12.728 2.17631 12.3453ZM5.73835 5.43529H22.2616V14.6945C15.7435 18.9935 16.7694 18.3169 14 20.143C11.1696 18.2767 7.5572 15.8941 5.73835 14.6945C5.73835 11.1117 5.73835 8.56372 5.73835 5.43529ZM14 1.92157L16.1176 3.78824H11.8824L14 1.92157ZM25.8237 12.3453C25.2522 12.7219 24.9759 12.9048 23.9087 13.608C23.9087 13.261 23.9087 11.0066 23.9087 10.657C25.2592 11.8474 24.8215 11.4615 25.8237 12.3453ZM1.64706 13.9693C1.64838 13.9701 8.51634 18.4993 8.69427 18.6167L1.64706 25.267V13.9693ZM10.1069 19.5484L13.5465 21.8169C13.8226 21.9984 14.1773 21.9985 14.4535 21.8169L17.8931 19.5484L25.1039 26.3529H2.89608L10.1069 19.5484Z" fill="#3F3F3F"/>
<path d="M10.2354 10.299H17.7646C18.2192 10.299 18.5881 9.93008 18.5881 9.47549C18.5881 9.02035 18.2192 8.65196 17.7646 8.65196H10.2354C9.78078 8.65196 9.41183 9.02035 9.41183 9.47549C9.41183 9.93008 9.78078 10.299 10.2354 10.299Z" fill="#3F3F3F"/>
<path d="M10.2354 13.9907H17.7646C18.2222 13.9907 18.5881 13.6187 18.5881 13.1672C18.5881 12.7093 18.2166 12.3436 17.7646 12.3436H10.2354C9.78292 12.3436 9.41183 12.7099 9.41183 13.1672C9.41183 13.6188 9.77792 13.9907 10.2354 13.9907Z" fill="#3F3F3F"/>
</g>
<defs>
<clipPath id="clip0">
<rect width="28" height="28" fill="white"/>
</clipPath>
</defs>
</svg>
