<svg width="18" height="17" viewBox="0 0 18 17" fill="none" xmlns="http://www.w3.org/2000/svg">
<path d="M15.4202 0.215001L1.31797 8.18051C0.15183 8.84126 0.263699 10.5313 1.5112 11.0327L5.38592 12.6032V15.4056C5.38592 16.9462 7.39277 17.5804 8.32162 16.3552L9.80641 14.3929L13.5998 15.9269C13.7998 16.0066 14.01 16.0464 14.2201 16.0464C14.4981 16.0464 14.7727 15.9767 15.0202 15.8405C15.4541 15.6015 15.7524 15.1765 15.8304 14.695L17.844 1.83865C18.0508 0.507191 16.5931 -0.445748 15.4202 0.215001ZM7.01309 15.4056V13.2606L8.25382 13.762L7.01309 15.4056ZM14.2201 14.4526L9.00639 12.3442L13.7591 5.62716C14.1218 5.11251 13.4371 4.51485 12.9557 4.92325L5.78593 11.0426L2.13156 9.56177L16.2338 1.59294L14.2201 14.4526Z" fill="#FB177D"/>
</svg>
