<svg width="20" height="18" viewBox="0 0 20 18" fill="none" xmlns="http://www.w3.org/2000/svg">
<path d="M14.3497 8.34677L7.82814 4.46371C7.24269 4.14435 6.50531 4.55444 6.50531 5.22581V12.7742C6.50531 13.4419 7.23898 13.8556 7.82814 13.5363L14.3497 9.87097C14.9574 9.54073 14.9574 8.68064 14.3497 8.34677ZM19.252 9C19.252 4.02823 15.139 0 10.0625 0C4.98608 0 0.873047 4.02823 0.873047 9C0.873047 13.9718 4.98608 18 10.0625 18C15.139 18 19.252 13.9718 19.252 9ZM2.65165 9C2.65165 4.98992 5.96802 1.74194 10.0625 1.74194C14.157 1.74194 17.4734 4.98992 17.4734 9C17.4734 13.0101 14.157 16.2581 10.0625 16.2581C5.96802 16.2581 2.65165 13.0101 2.65165 9Z" fill="#FB177D"/>
</svg>
