<svg width="18" height="18" viewBox="0 0 18 18" fill="none" xmlns="http://www.w3.org/2000/svg">
<path d="M13.1988 8.34677L6.81169 4.46371C6.23831 4.14435 5.51613 4.55444 5.51613 5.22581V12.7742C5.51613 13.4419 6.23468 13.8556 6.81169 13.5363L13.1988 9.87097C13.794 9.54073 13.794 8.68064 13.1988 8.34677ZM18 9C18 4.02823 13.9718 0 9 0C4.02823 0 0 4.02823 0 9C0 13.9718 4.02823 18 9 18C13.9718 18 18 13.9718 18 9ZM1.74194 9C1.74194 4.98992 4.98992 1.74194 9 1.74194C13.0101 1.74194 16.2581 4.98992 16.2581 9C16.2581 13.0101 13.0101 16.2581 9 16.2581C4.98992 16.2581 1.74194 13.0101 1.74194 9Z" fill="white"/>
</svg>
