<svg width="24" height="25" viewBox="0 0 24 25" fill="none" xmlns="http://www.w3.org/2000/svg">
<path d="M12 0C5.37097 0 0 5.59476 0 12.5C0 19.4052 5.37097 25 12 25C18.629 25 24 19.4052 24 12.5C24 5.59476 18.629 0 12 0ZM12 22.5806C6.6629 22.5806 2.32258 18.0595 2.32258 12.5C2.32258 6.94052 6.6629 2.41935 12 2.41935C17.3371 2.41935 21.6774 6.94052 21.6774 12.5C21.6774 18.0595 17.3371 22.5806 12 22.5806ZM17.1097 14.9496C15.8565 15.3679 13.9935 15.6099 12 15.6099C10.0065 15.6099 8.14839 15.3679 6.89032 14.9496C6.41613 14.7933 5.95161 15.2167 6.03387 15.7208C6.41613 18.0998 9.48387 19.753 12 19.753C14.5161 19.753 17.579 18.0948 17.9661 15.7208C18.0435 15.2268 17.5935 14.7933 17.1097 14.9496ZM6.08226 12.0514C6.03387 12.3639 6.34355 12.6058 6.61452 12.4496L8.12903 11.628L9.64355 12.4496C9.91452 12.6058 10.2242 12.3639 10.1758 12.0514L9.88548 10.2923L11.1145 9.05242C11.3323 8.82561 11.2065 8.4375 10.9065 8.3871L9.21774 8.13508L8.46774 6.54234C8.32742 6.25 7.93548 6.25 7.79516 6.54234L7.04516 8.13508L5.35645 8.3871C5.05645 8.43246 4.92581 8.82057 5.14839 9.05242L6.37742 10.2923L6.08226 12.0514ZM18.6484 8.3871L16.9597 8.13508L16.2097 6.54234C16.0694 6.25 15.6774 6.25 15.5371 6.54234L14.7871 8.13508L13.0984 8.3871C12.7984 8.43246 12.6677 8.82057 12.8903 9.05242L14.1194 10.2923L13.829 12.0514C13.7806 12.3639 14.0903 12.6058 14.3613 12.4496L15.8758 11.628L17.3903 12.4496C17.6613 12.6058 17.971 12.3639 17.9226 12.0514L17.6323 10.2923L18.8613 9.05242C19.079 8.82057 18.9484 8.4375 18.6484 8.3871Z" fill="#FB177D"/>
</svg>
