<svg width="27" height="24" viewBox="0 0 27 24" fill="none" xmlns="http://www.w3.org/2000/svg">
<path d="M7.48044 11.6364H5.8181C5.38776 11.6364 5.03888 11.9853 5.03888 12.4156C5.03888 12.8459 5.38776 13.1948 5.8181 13.1948H7.48044C7.91078 13.1948 8.25966 12.8459 8.25966 12.4156C8.25966 11.9853 7.91078 11.6364 7.48044 11.6364Z" fill="#3F3F3F"/>
<path d="M7.48044 14.961H5.8181C5.38776 14.961 5.03888 15.3099 5.03888 15.7403C5.03888 16.1706 5.38776 16.5195 5.8181 16.5195H7.48044C7.91078 16.5195 8.25966 16.1706 8.25966 15.7403C8.25966 15.3099 7.91078 14.961 7.48044 14.961Z" fill="#3F3F3F"/>
<path d="M7.48044 18.2858H5.8181C5.38776 18.2858 5.03888 18.6347 5.03888 19.065C5.03888 19.4954 5.38776 19.8442 5.8181 19.8442H7.48044C7.91078 19.8442 8.25966 19.4954 8.25966 19.065C8.25966 18.6347 7.91078 18.2858 7.48044 18.2858Z" fill="#3F3F3F"/>
<path d="M14.1299 11.6364H12.4676C12.0373 11.6364 11.6884 11.9853 11.6884 12.4156C11.6884 12.8459 12.0373 13.1948 12.4676 13.1948H14.1299C14.5603 13.1948 14.9092 12.8459 14.9092 12.4156C14.9092 11.9853 14.5603 11.6364 14.1299 11.6364Z" fill="#3F3F3F"/>
<path d="M14.1299 14.961H12.4676C12.0373 14.961 11.6884 15.3099 11.6884 15.7403C11.6884 16.1706 12.0373 16.5195 12.4676 16.5195H14.1299C14.5603 16.5195 14.9092 16.1706 14.9092 15.7403C14.9092 15.3099 14.5603 14.961 14.1299 14.961Z" fill="#3F3F3F"/>
<path d="M14.1299 18.2858H12.4676C12.0373 18.2858 11.6884 18.6347 11.6884 19.065C11.6884 19.4954 12.0373 19.8442 12.4676 19.8442H14.1299C14.5603 19.8442 14.9092 19.4954 14.9092 19.065C14.9092 18.6347 14.5603 18.2858 14.1299 18.2858Z" fill="#3F3F3F"/>
<path d="M20.7793 11.6364H19.1169C18.6866 11.6364 18.3377 11.9853 18.3377 12.4156C18.3377 12.8459 18.6866 13.1948 19.1169 13.1948H20.7793C21.2096 13.1948 21.5585 12.8459 21.5585 12.4156C21.5585 11.9853 21.2096 11.6364 20.7793 11.6364Z" fill="#3F3F3F"/>
<path d="M20.7793 14.961H19.1169C18.6866 14.961 18.3377 15.3099 18.3377 15.7403C18.3377 16.1706 18.6866 16.5195 19.1169 16.5195H20.7793C21.2096 16.5195 21.5585 16.1706 21.5585 15.7403C21.5585 15.3099 21.2096 14.961 20.7793 14.961Z" fill="#3F3F3F"/>
<path d="M20.7793 18.2858H19.1169C18.6866 18.2858 18.3377 18.6347 18.3377 19.065C18.3377 19.4954 18.6866 19.8442 19.1169 19.8442H20.7793C21.2096 19.8442 21.5585 19.4954 21.5585 19.065C21.5585 18.6347 21.2096 18.2858 20.7793 18.2858Z" fill="#3F3F3F"/>
<path d="M24.2598 2.07792H22.3896V0.779221C22.3896 0.348883 22.0407 0 21.6104 0C21.1801 0 20.8312 0.348883 20.8312 0.779221V2.07792H14.0779V0.779221C14.0779 0.348883 13.729 0 13.2987 0C12.8684 0 12.5195 0.348883 12.5195 0.779221V2.07792H5.76624V0.779221C5.76624 0.348883 5.41735 0 4.98702 0C4.55668 0 4.2078 0.348883 4.2078 0.779221V2.07792H2.33766C1.04868 2.07792 0 3.1266 0 4.41559V21.6624C0 22.9513 1.04868 24 2.33766 24H24.2598C25.5487 24 26.5974 22.9513 26.5974 21.6624C26.5974 21.1594 26.5974 4.85325 26.5974 4.41559C26.5974 3.1266 25.5487 2.07792 24.2598 2.07792ZM1.55844 4.41559C1.55844 3.98592 1.908 3.63637 2.33766 3.63637H4.2078V4.93507C4.2078 5.36541 4.55668 5.71429 4.98702 5.71429C5.41735 5.71429 5.76624 5.36541 5.76624 4.93507V3.63637H12.5195V4.93507C12.5195 5.36541 12.8684 5.71429 13.2987 5.71429C13.729 5.71429 14.0779 5.36541 14.0779 4.93507V3.63637H20.8312V4.93507C20.8312 5.36541 21.1801 5.71429 21.6104 5.71429C22.0407 5.71429 22.3896 5.36541 22.3896 4.93507V3.63637H24.2598C24.6894 3.63637 25.039 3.98592 25.039 4.41559V7.48053H1.55844V4.41559ZM24.2598 22.4416H2.33766C1.908 22.4416 1.55844 22.092 1.55844 21.6624V9.03897H25.039V21.6624C25.039 22.092 24.6894 22.4416 24.2598 22.4416Z" fill="#3F3F3F"/>
</svg>
