<svg width="23" height="23" viewBox="0 0 23 23" fill="none" xmlns="http://www.w3.org/2000/svg">
<path d="M14.1953 10.7812C14.1947 10.2572 13.9863 9.7548 13.6157 9.38425C13.2452 9.0137 12.7428 8.80527 12.2188 8.80469H10.7812C10.543 8.80469 10.3144 8.71003 10.146 8.54154C9.97747 8.37305 9.88281 8.14453 9.88281 7.90625C9.88281 7.66797 9.97747 7.43945 10.146 7.27096C10.3144 7.10247 10.543 7.00781 10.7812 7.00781H12.5781C12.721 7.00797 12.8581 7.06481 12.9591 7.16587C13.0602 7.26693 13.117 7.40395 13.1172 7.54688C13.1172 7.68984 13.174 7.82696 13.2751 7.92805C13.3762 8.02914 13.5133 8.08594 13.6562 8.08594C13.7992 8.08594 13.9363 8.02914 14.0374 7.92805C14.1385 7.82696 14.1953 7.68984 14.1953 7.54688C14.1948 7.11812 14.0243 6.70705 13.7211 6.40388C13.4179 6.1007 13.0069 5.93016 12.5781 5.92969H12.0391V5.03125C12.0391 4.88828 11.9823 4.75117 11.8812 4.65008C11.7801 4.54898 11.643 4.49219 11.5 4.49219C11.357 4.49219 11.2199 4.54898 11.1188 4.65008C11.0177 4.75117 10.9609 4.88828 10.9609 5.03125V5.92969H10.7812C10.257 5.92969 9.75429 6.13793 9.38361 6.50861C9.01293 6.87929 8.80469 7.38203 8.80469 7.90625C8.80469 8.43047 9.01293 8.93321 9.38361 9.30389C9.75429 9.67457 10.257 9.88281 10.7812 9.88281H12.2188C12.457 9.88281 12.6856 9.97747 12.854 10.146C13.0225 10.3144 13.1172 10.543 13.1172 10.7812C13.1172 11.0195 13.0225 11.2481 12.854 11.4165C12.6856 11.585 12.457 11.6797 12.2188 11.6797H10.4219C10.279 11.6795 10.1419 11.6227 10.0409 11.5216C9.93981 11.4206 9.88297 11.2835 9.88281 11.1406C9.88281 10.9977 9.82602 10.8605 9.72492 10.7595C9.62383 10.6584 9.48672 10.6016 9.34375 10.6016C9.20078 10.6016 9.06367 10.6584 8.96258 10.7595C8.86148 10.8605 8.80469 10.9977 8.80469 11.1406C8.80516 11.5694 8.9757 11.9804 9.27888 12.2836C9.58205 12.5868 9.99312 12.7573 10.4219 12.7578H10.9609V13.6562C10.9609 13.7992 11.0177 13.9363 11.1188 14.0374C11.2199 14.1385 11.357 14.1953 11.5 14.1953C11.643 14.1953 11.7801 14.1385 11.8812 14.0374C11.9823 13.9363 12.0391 13.7992 12.0391 13.6562V12.7578H12.2188C12.7428 12.7572 13.2452 12.5488 13.6157 12.1782C13.9863 11.8077 14.1947 11.3053 14.1953 10.7812Z" fill="#303541"/>
<path d="M20.1149 12.4748C20.4799 11.4713 20.6658 10.4115 20.6641 9.34375C20.6641 4.29067 16.5531 0.179688 11.5 0.179688C6.44692 0.179688 2.33594 4.29067 2.33594 9.34375C2.33594 14.3968 6.44692 18.5078 11.5 18.5078C11.6072 18.5078 11.7145 18.5054 11.8215 18.5017C12.0281 19.3987 12.4537 20.2306 13.0603 20.9229C13.667 21.6152 14.4357 22.1463 15.2978 22.4689C16.16 22.7915 17.0886 22.8954 18.0007 22.7713C18.9127 22.6472 19.7799 22.299 20.5245 21.7579C21.2691 21.2168 21.868 20.4996 22.2677 19.6704C22.6673 18.8412 22.8553 17.9259 22.8147 17.0063C22.7741 16.0867 22.5063 15.1915 22.0352 14.4007C21.564 13.6099 20.9043 12.9483 20.1149 12.4748ZM11.5 17.4297C7.04141 17.4297 3.41406 13.8023 3.41406 9.34375C3.41406 4.88516 7.04141 1.25781 11.5 1.25781C15.9586 1.25781 19.5859 4.88516 19.5859 9.34375C19.5873 10.2511 19.4352 11.1521 19.1361 12.0086C18.7958 11.8858 18.4443 11.7966 18.0865 11.7425C18.3671 10.974 18.5097 10.1619 18.5078 9.34375C18.5078 5.47962 15.3641 2.33594 11.5 2.33594C7.63586 2.33594 4.49219 5.47962 4.49219 9.34375C4.49219 13.2079 7.63586 16.3516 11.5 16.3516C11.5845 16.3516 11.6689 16.3501 11.7533 16.3471C11.7043 16.6456 11.6797 16.9475 11.6797 17.25C11.6797 17.3094 11.6809 17.3686 11.6828 17.4276C11.6219 17.429 11.561 17.4297 11.5 17.4297ZM12.0525 15.2471C11.8699 15.264 11.6853 15.2734 11.5 15.2734C8.23036 15.2734 5.57031 12.6134 5.57031 9.34375C5.57031 6.07411 8.23036 3.41406 11.5 3.41406C14.7696 3.41406 17.4297 6.07411 17.4297 9.34375C17.4319 10.1499 17.268 10.9479 16.9481 11.688C15.8763 11.7476 14.8443 12.1151 13.976 12.7463C13.1077 13.3776 12.4399 14.2459 12.0525 15.2471ZM17.25 21.7422C16.3615 21.7422 15.493 21.4787 14.7543 20.9851C14.0155 20.4915 13.4398 19.7899 13.0998 18.9691C12.7598 18.1482 12.6708 17.245 12.8441 16.3736C13.0175 15.5022 13.4453 14.7018 14.0735 14.0735C14.7018 13.4453 15.5022 13.0175 16.3736 12.8441C17.245 12.6708 18.1482 12.7598 18.9691 13.0998C19.7899 13.4398 20.4915 14.0155 20.9851 14.7543C21.4787 15.493 21.7422 16.3615 21.7422 17.25C21.7408 18.441 21.2671 19.5828 20.425 20.425C19.5828 21.2671 18.441 21.7408 17.25 21.7422Z" fill="#303541"/>
<path d="M18.6875 18.8672H16.1719C16.029 18.867 15.8919 18.8102 15.7909 18.7091C15.6898 18.6081 15.633 18.4711 15.6328 18.3281V16.8906C15.633 16.7477 15.6898 16.6107 15.7909 16.5096C15.8919 16.4086 16.029 16.3517 16.1719 16.3516H17.3861L16.8688 16.8688C16.8181 16.9188 16.7778 16.9782 16.7501 17.0438C16.7225 17.1094 16.7081 17.1798 16.7078 17.2509C16.7075 17.3221 16.7214 17.3926 16.7484 17.4584C16.7755 17.5242 16.8154 17.584 16.8657 17.6343C16.916 17.6846 16.9758 17.7245 17.0416 17.7516C17.1074 17.7787 17.1779 17.7925 17.2491 17.7922C17.3203 17.7919 17.3906 17.7775 17.4562 17.7499C17.5218 17.7222 17.5813 17.6819 17.6312 17.6312L19.0687 16.1937C19.1697 16.0926 19.2265 15.9555 19.2265 15.8125C19.2265 15.6695 19.1697 15.5324 19.0687 15.4313L17.6312 13.9938C17.5298 13.8941 17.3931 13.8385 17.2509 13.8391C17.1087 13.8396 16.9725 13.8964 16.8719 13.9969C16.7714 14.0975 16.7146 14.2337 16.714 14.3759C16.7135 14.5181 16.7691 14.6548 16.8688 14.7562L17.3861 15.2734H16.1719C15.7431 15.2739 15.3321 15.4445 15.0289 15.7476C14.7257 16.0508 14.5552 16.4619 14.5547 16.8906V18.3281C14.5552 18.7569 14.7257 19.168 15.0289 19.4711C15.3321 19.7743 15.7431 19.9448 16.1719 19.9453H18.6875C18.8305 19.9453 18.9676 19.8885 19.0687 19.7874C19.1698 19.6863 19.2266 19.5492 19.2266 19.4063C19.2266 19.2633 19.1698 19.1262 19.0687 19.0251C18.9676 18.924 18.8305 18.8672 18.6875 18.8672Z" fill="#303541"/>
</svg>
