<svg width="26" height="23" viewBox="0 0 26 23" fill="none" xmlns="http://www.w3.org/2000/svg">
<path d="M12.426 11.2534C12.742 11.5858 13.2566 11.5858 13.577 11.2534L18.4924 6.12356C19.9187 4.63222 19.8374 2.16162 18.2396 0.787068C16.8494 -0.412296 14.7777 -0.19668 13.5048 1.13295L12.9993 1.65852L12.4983 1.13744C11.2254 -0.19668 9.15366 -0.412296 7.76346 0.787068C6.17015 2.16162 6.08439 4.63222 7.5107 6.12356L12.426 11.2534ZM25.5156 14.7392C24.983 14.2586 24.1525 14.29 23.5928 14.7392L19.4222 18.0588C18.9121 18.4676 18.2757 18.6877 17.6167 18.6877H12.2771C11.8799 18.6877 11.5549 18.3643 11.5549 17.969C11.5549 17.5737 11.8799 17.2502 12.2771 17.2502H15.8113C16.5289 17.2502 17.197 16.7606 17.3143 16.0554C17.4633 15.157 16.7682 14.3754 15.888 14.3754H8.66619C7.44751 14.3754 6.26945 14.7931 5.32158 15.5568L3.22274 17.2502H0.722182C0.324982 17.2502 0 17.5737 0 17.969V22.2813C0 22.6766 0.324982 23 0.722182 23H16.8268C17.4813 23 18.1177 22.7799 18.6323 22.3711L25.4569 16.9358C26.143 16.3923 26.1972 15.3501 25.5156 14.7392Z" fill="#328FFF"/>
</svg>
