<svg width="26" height="26" viewBox="0 0 26 26" fill="none" xmlns="http://www.w3.org/2000/svg">
<path d="M25.2566 3.55443C24.8741 3.17128 24.2535 3.17062 23.871 3.5528L12.1155 15.2773L7.87415 10.6708C7.50766 10.2729 6.88803 10.2471 6.48955 10.6136C6.09137 10.9801 6.06588 11.6 6.43237 11.9982L11.3645 17.3546C11.5452 17.551 11.798 17.665 12.0645 17.6705C12.0717 17.6708 12.0786 17.6708 12.0854 17.6708C12.3445 17.6708 12.5937 17.5679 12.7772 17.385L25.2546 4.9403C25.6381 4.55817 25.6388 3.93757 25.2566 3.55443Z" fill="#3F3F3F"/>
<path d="M25.0201 12.0201C24.4788 12.0201 24.0402 12.4587 24.0402 13C24.0402 19.0878 19.0878 24.0402 13 24.0402C6.91255 24.0402 1.9598 19.0878 1.9598 13C1.9598 6.91255 6.91255 1.9598 13 1.9598C13.5412 1.9598 13.9799 1.52115 13.9799 0.979926C13.9799 0.438648 13.5412 0 13 0C5.83172 0 0 5.83172 0 13C0 20.168 5.83172 26 13 26C20.168 26 26 20.168 26 13C26 12.4588 25.5614 12.0201 25.0201 12.0201Z" fill="#3F3F3F"/>
</svg>
