<svg width="20" height="21" viewBox="0 0 20 21" fill="none" xmlns="http://www.w3.org/2000/svg">
<path d="M17.5 0H2.5C1.12109 0 0 1.12319 0 2.50467V13.7757C0 15.1572 1.12109 16.2804 2.5 16.2804H6.25V19.5678C6.25 19.8456 6.47656 20.0374 6.71875 20.0374C6.8125 20.0374 6.91016 20.01 6.99609 19.9435L11.875 16.2804H17.5C18.8789 16.2804 20 15.1572 20 13.7757V2.50467C20 1.12319 18.8789 0 17.5 0ZM18.125 13.7757C18.125 14.1201 17.8438 14.4019 17.5 14.4019H11.25L10.75 14.7776L8.125 16.75V14.4019H2.5C2.15625 14.4019 1.875 14.1201 1.875 13.7757V2.50467C1.875 2.16028 2.15625 1.8785 2.5 1.8785H17.5C17.8438 1.8785 18.125 2.16028 18.125 2.50467V13.7757Z" fill="black"/>
</svg>
