<svg width="20" height="15" viewBox="0 0 20 15" fill="none" xmlns="http://www.w3.org/2000/svg">
<path d="M18.3299 0H1.67014C0.746528 0 0 0.719866 0 1.60714V13.3929C0 14.2801 0.746528 15 1.67014 15H18.3299C19.2535 15 20 14.2801 20 13.3929V1.60714C20 0.719866 19.2535 0 18.3299 0ZM1.87847 1.60714H18.1215C18.2361 1.60714 18.3299 1.69754 18.3299 1.80804V3.21429H1.67014V1.80804C1.67014 1.69754 1.76389 1.60714 1.87847 1.60714ZM18.1215 13.3929H1.87847C1.76389 13.3929 1.67014 13.3025 1.67014 13.192V7.5H18.3299V13.192C18.3299 13.3025 18.2361 13.3929 18.1215 13.3929ZM6.66667 10.0446V11.3839C6.66667 11.6049 6.47917 11.7857 6.25 11.7857H3.75C3.52083 11.7857 3.33333 11.6049 3.33333 11.3839V10.0446C3.33333 9.82366 3.52083 9.64286 3.75 9.64286H6.25C6.47917 9.64286 6.66667 9.82366 6.66667 10.0446ZM13.3333 10.0446V11.3839C13.3333 11.6049 13.1458 11.7857 12.9167 11.7857H8.19444C7.96528 11.7857 7.77778 11.6049 7.77778 11.3839V10.0446C7.77778 9.82366 7.96528 9.64286 8.19444 9.64286H12.9167C13.1458 9.64286 13.3333 9.82366 13.3333 10.0446Z" fill="white"/>
</svg>
