<svg width="21" height="15" viewBox="0 0 21 15" fill="none" xmlns="http://www.w3.org/2000/svg">
<path d="M18.9579 0H1.94749C1.00443 0 0.242188 0.719866 0.242188 1.60714V13.3929C0.242188 14.2801 1.00443 15 1.94749 15H18.9579C19.901 15 20.6632 14.2801 20.6632 13.3929V1.60714C20.6632 0.719866 19.901 0 18.9579 0ZM2.16021 1.60714H18.7452C18.8622 1.60714 18.9579 1.69754 18.9579 1.80804V3.21429H1.94749V1.80804C1.94749 1.69754 2.04321 1.60714 2.16021 1.60714ZM18.7452 13.3929H2.16021C2.04321 13.3929 1.94749 13.3025 1.94749 13.192V7.5H18.9579V13.192C18.9579 13.3025 18.8622 13.3929 18.7452 13.3929ZM7.0492 10.0446V11.3839C7.0492 11.6049 6.85776 11.7857 6.62377 11.7857H4.07113C3.83714 11.7857 3.6457 11.6049 3.6457 11.3839V10.0446C3.6457 9.82366 3.83714 9.64286 4.07113 9.64286H6.62377C6.85776 9.64286 7.0492 9.82366 7.0492 10.0446ZM13.8562 10.0446V11.3839C13.8562 11.6049 13.6648 11.7857 13.4308 11.7857H8.60915C8.37516 11.7857 8.18371 11.6049 8.18371 11.3839V10.0446C8.18371 9.82366 8.37516 9.64286 8.60915 9.64286H13.4308C13.6648 9.64286 13.8562 9.82366 13.8562 10.0446Z" fill="#FB177D"/>
</svg>
