<?xml version="1.0" encoding="UTF-8"?>
<svg width="209px" height="42px" viewBox="0 0 209 42" version="1.1" xmlns="http://www.w3.org/2000/svg" xmlns:xlink="http://www.w3.org/1999/xlink">
    <!-- Generator: Sketch 58 (84663) - https://sketch.com -->
    <title>Group 3</title>
    <desc>Created with Sketch.</desc>
    <g id="Famosos-App" stroke="none" stroke-width="1" fill="none" fill-rule="evenodd">
        <g id="1---Web-Copy" transform="translate(-604.000000, -170.000000)" fill="#FFFFFF" fill-rule="nonzero">
            <g id="Group-25" transform="translate(110.000000, 127.000000)">
                <g id="Group-24">
                    <g id="Group-22">
                        <g id="Group-3" transform="translate(494.000000, 43.000000)">
                            <g id="Group">
                                <path d="M0.171954483,23.5722215 C-0.102225723,21.1744782 0.00767588369,14.2773875 0.11757749,13.0818784 L2.64720192,13.0818784 C2.70219376,2.53178955 9.68615687,-1.54685302 19.9696301,0.519659215 C20.2995811,4.16324658 20.0796138,7.80683395 19.9696301,9.43829099 C16.5601363,9.27514528 15.1303486,9.76458239 15.4602996,13.8976069 C16.340169,13.7888431 18.319875,13.7344612 19.5296954,13.843225 C19.6396791,16.2360286 19.6396791,20.8041083 19.3097281,23.3600577 C17.659973,23.3600577 16.5601363,23.2512938 15.4602996,23.1969119 C15.5152914,25.2634242 15.9552261,34.5083474 15.6252751,40.8710298 C11.9408221,41.3604669 5.94671205,41.4148488 2.81217743,41.2517031 C2.48222642,34.182056 2.42723458,30.7559962 2.48222642,23.6319672 C0.694713765,23.6319672 0.163758153,23.5325575 0.168575063,23.571335 L0.171954483,23.5722215 Z M46.4023715,26.5142079 C46.4023715,31.408579 46.3473796,38.0975528 46.3473796,40.5447384 C44.1477062,40.8166479 39.9133349,41.0885574 35.8989309,41.0885574 C35.7339554,40.4903565 35.4589962,39.3483366 35.2940207,38.4238442 C30.3997473,42.2849592 20.3362414,43.0463058 19.7863231,34.7802569 C18.8514619,21.3479273 34.0842003,23.0337662 34.0842003,23.0337662 C34.0842003,22.2180377 34.2491758,19.2270332 31.2246249,19.2270332 C28.2550657,19.2270332 24.0206944,22.0005101 24.0206944,22.0005101 C21.6560455,18.9551237 21.0511353,11.4504213 21.0511353,11.4504213 C21.0511353,11.4504213 25.2305148,8.02436156 33.9192248,8.02436156 C46.4023715,8.02436156 46.4023715,20.2059074 46.4023715,26.5142079 Z M34.524135,28.5807202 C31.829535,28.5807202 30.1247881,29.9402677 30.839682,32.1699256 C31.4445922,33.8557646 33.8092411,33.3663274 34.7990942,32.2243075 C34.6891105,30.86476 34.6891105,30.6472324 34.524135,28.5807202 Z M60.406958,8.56818057 C60.4619498,10.1996376 60.4619498,11.8854765 60.4619498,13.4625517 C63.3215253,7.58930635 74.2099087,4.65268369 76.8495168,14.0607526 C78.4992719,10.9066023 81.0838881,9.32952718 85.153284,9.32952718 C97.9663816,9.32952718 93.3470674,29.233303 94.2819287,40.8710298 C89.0577043,41.1973212 84.7133493,41.0885574 81.798782,40.8710298 C80.4789779,37.4993519 83.3935452,19.6077065 79.7090922,19.6077065 C76.6295495,19.6077065 77.9493535,24.9371328 77.9493535,40.7078841 C74.9248026,41.0341755 69.5905945,41.1429393 66.2910844,41.0885574 C65.1912477,27.7106097 67.7758639,17.7587218 62.9915743,19.2814151 C61.2318355,19.8252341 61.8367457,22.2180377 61.8367457,29.777122 C61.8367457,33.9101465 61.8917375,37.4993519 61.7817539,40.7078841 C57.5473825,41.0885574 53.5879704,41.0341755 49.2436154,41.0885574 C48.9136644,30.9191419 49.0786399,18.3025409 49.0786399,9.05761768 C50.9483623,8.67694437 56.5025377,8.45941677 60.406958,8.56818057 Z M124.949041,21.0216359 C125.608943,27.7649916 124.01418,35.4328397 120.10976,38.6413718 C116.260331,41.849904 108.396499,42.7200144 103.062291,40.0009194 C94.9234992,35.813513 93.6036951,17.106139 100.917609,10.8522204 C102.952307,9.11199958 105.481932,8.18750726 109.056401,7.80683395 C118.514997,6.77357783 124.124164,12.4836774 124.949041,21.0216359 Z M109.661311,28.8526297 C114.335617,30.320941 116.205339,23.1969119 113.345764,20.2602893 C111.751001,18.6288323 107.84658,18.8463599 107.021703,21.5654549 C106.306809,24.4476957 107.186678,28.091283 109.661311,28.8526297 Z M147.257395,9.81896429 C146.652485,12.8099688 146.102566,15.474682 144.947738,17.8674856 C143.297983,17.4868123 140.328424,16.018501 139.338571,17.8674856 C137.853791,20.5865807 142.638081,21.9461282 144.947738,24.0126405 C148.467215,27.1667907 149.127117,34.725875 144.342828,39.130809 C141.593236,41.6867583 132.409599,42.0130497 127.240367,40.3272108 C126.965408,36.9555329 126.74544,34.6714931 126.74544,31.2998152 C128.615163,31.3541971 133.729403,32.7681265 134.499289,30.1577953 C135.049208,28.091283 132.024657,26.2966803 130.814836,24.9915147 C128.890122,22.9250024 126.085538,21.1847816 126.74544,15.3659182 C127.62531,6.93672354 139.668522,6.01223122 147.257395,9.81896429 Z M208.098165,9.81896429 C207.493255,12.8099688 206.943337,15.474682 205.788508,17.8674856 C204.138753,17.4868123 201.169194,16.018501 200.179341,17.8674856 C198.694562,20.5865807 203.478851,21.9461282 205.788508,24.0126405 C209.307986,27.1667907 209.967888,34.725875 205.183598,39.130809 C202.434006,41.6867583 193.25037,42.0130497 188.081137,40.3272108 C187.806178,36.9555329 187.586211,34.6714931 187.586211,31.2998152 C189.455933,31.3541971 194.570174,32.7681265 195.34006,30.1577953 C195.889978,28.091283 192.865427,26.2966803 191.655607,24.9915147 C189.730892,22.9250024 186.926309,21.1847816 187.586211,15.3659182 C188.46608,6.93672354 200.509292,6.01223122 208.098165,9.81896429 Z" id="famosos"></path>
                                <g id="icons8-popular_topic_filled" transform="translate(148.768992, 6.403326)">
                                    <path d="M18.596124,0 C8.35056928,0 0,7.10681665 0,16.0051896 C0,21.1672464 2.85511143,25.6633316 7.2451615,28.5992319 C7.23884448,28.7711965 7.25147771,29.0525923 7.02407946,29.8905275 C6.73983204,30.9316932 6.16501938,32.3949533 5.00276163,34.0458109 L4.17528505,35.2182952 L5.62179021,35.2182952 C10.6245518,35.2182952 13.5207211,31.9884926 13.9692014,31.4694726 C15.4599233,31.8165281 16.991703,32.0041255 18.596124,32.0041255 C28.8385207,32.0041255 37.1922481,24.8973089 37.1922481,16.0020632 C37.1922481,7.10681665 28.8416788,0 18.596124,0 Z M18.5329578,7.2037422 C18.867739,7.2037422 19.1677778,7.40697258 19.2877939,7.71650858 L21.1259294,12.4345843 L26.2265988,12.7066008 C26.56138,12.725361 26.8519444,12.9442243 26.9561684,13.2600131 C27.0572343,13.5726755 26.9561684,13.919731 26.6940286,14.1292151 L22.7271923,17.3183718 L24.044207,22.2021584 C24.1294816,22.5242009 24.0094662,22.8650027 23.7378513,23.0588538 C23.4662371,23.2527041 23.1030313,23.2620842 22.8251001,23.0838668 L18.5329578,20.3324375 L14.2439745,23.0838668 C14.1113251,23.1682859 13.9565682,23.2120582 13.8049693,23.2120582 C13.6375791,23.2120582 13.4701881,23.1620322 13.3280644,23.0588538 C13.0596084,22.8650027 12.9364341,22.5242009 13.0248668,22.2052856 L14.3387234,17.3183718 L10.3718871,14.1292151 C10.1129062,13.919731 10.0086814,13.5758028 10.1129062,13.2600131 C10.2171302,12.9473507 10.5045365,12.7284874 10.8393169,12.7097273 L15.9431444,12.4345843 L17.7781218,7.71650858 C17.8981379,7.40697258 18.2013356,7.2037422 18.5329578,7.2037422 Z" id="Shape"></path>
                                </g>
                            </g>
                        </g>
                    </g>
                </g>
            </g>
        </g>
    </g>
</svg>