<svg width="184" height="184" viewBox="0 0 184 184" fill="none" xmlns="http://www.w3.org/2000/svg">
<g style="mix-blend-mode:luminosity" opacity="0.3">
<path d="M178.399 104.037C159.068 74.4384 161.123 44.0988 151.806 29.8337C142.488 15.5686 114.719 -9.02607 49.108 33.8306C-16.5033 76.6873 0.18447 123.275 10.4374 138.961C58.4205 212.418 212.638 156.456 178.399 104.037Z" fill="#EFEFEF"/>
<path d="M149.5 95.8335V129.056C149.5 134.678 144.9 139.278 139.278 139.278H44.7222C39.1 139.278 34.5 134.678 34.5 129.056V95.8335H53.7178C55.9667 95.8335 57.96 97.3157 58.5733 99.4624L64.0933 117.76C64.7067 119.907 66.7 121.389 68.9489 121.389H115.051C117.3 121.389 119.293 119.907 119.907 117.76L125.427 99.4624C126.04 97.3157 128.033 95.8335 130.282 95.8335H149.5Z" fill="#F3F3F1"/>
<path d="M149.5 95.8333H130.282C128.033 95.8333 126.04 97.3155 125.427 99.4622L119.907 117.76C119.293 119.907 117.3 121.389 115.051 121.389H68.9489C66.7 121.389 64.7067 119.907 64.0933 117.76L58.5733 99.4622C57.96 97.3155 55.9667 95.8333 53.7178 95.8333H34.5L57.5 44.7222H126.5L149.5 95.8333Z" fill="#2FDF84"/>
<path d="M131.406 117.76L136.926 99.4624C137.54 97.3157 139.533 95.8335 141.782 95.8335H130.282C128.033 95.8335 126.04 97.3157 125.426 99.4624L119.906 117.76C119.293 119.907 117.3 121.389 115.051 121.389H126.551C128.8 121.389 130.793 119.907 131.406 117.76Z" fill="#D5DBE1"/>
<path d="M46 129.056V95.8335H34.5V129.056C34.5 134.678 39.1 139.278 44.7222 139.278H56.2222C50.6 139.278 46 134.678 46 129.056Z" fill="#D5DBE1"/>
<path d="M57.5 44.7222L34.5 95.8333H46L69 44.7222H57.5Z" fill="#00B871"/>
<path d="M75.5933 117.76L70.0733 99.4624C69.46 97.3157 67.4667 95.8335 65.2178 95.8335H53.7178C55.9667 95.8335 57.96 97.3157 58.5733 99.4624L64.0933 117.76C64.7067 119.907 66.7 121.389 68.9489 121.389H80.4489C78.2 121.389 76.2067 119.907 75.5933 117.76Z" fill="#00B871"/>
<path d="M141.802 33.222C137.576 33.222 134.136 29.7822 134.136 25.5553C134.136 21.3284 137.576 17.8887 141.802 17.8887C146.029 17.8887 149.469 21.3284 149.469 25.5553C149.469 29.7822 146.029 33.222 141.802 33.222ZM141.802 22.9998C140.392 22.9998 139.247 24.1498 139.247 25.5553C139.247 26.9609 140.392 28.1109 141.802 28.1109C143.213 28.1109 144.358 26.9609 144.358 25.5553C144.358 24.1498 143.213 22.9998 141.802 22.9998Z" fill="#A4AFC1"/>
<path d="M37.8051 26.4403C36.8071 25.4423 36.8071 23.8243 37.8051 22.8263C38.8031 21.8282 40.4212 21.8282 41.4192 22.8263L45.0333 26.4404C46.0313 27.4384 46.0313 29.0564 45.0333 30.0545C44.0353 31.0525 42.4172 31.0525 41.4192 30.0545L37.8051 26.4403Z" fill="#A4AFC1"/>
<path d="M36.894 50.8383C35.896 49.8403 35.896 48.2222 36.894 47.2242L40.5081 43.6101C41.5061 42.6121 43.1242 42.6121 44.1222 43.6101C45.1202 44.6081 45.1202 46.2262 44.1222 47.2242L40.5081 50.8383C39.5101 51.8363 37.892 51.8363 36.894 50.8383Z" fill="#A4AFC1"/>
<path d="M57.6791 30.0561C56.6811 29.0581 56.6811 27.44 57.6791 26.442L61.2932 22.8279C62.2912 21.8299 63.9093 21.8299 64.9073 22.8279C65.9053 23.8259 65.9053 25.444 64.9073 26.442L61.2932 30.0561C60.2952 31.0541 58.6771 31.0541 57.6791 30.0561Z" fill="#A4AFC1"/>
<path d="M139.278 143.111H44.7225C36.969 143.111 30.667 136.809 30.667 129.055V95.8331C30.667 95.2913 30.7794 94.7547 31.0043 94.2589L54.0043 43.1478C54.6228 41.7729 55.9925 40.8887 57.5003 40.8887H126.5C128.008 40.8887 129.378 41.7729 129.996 43.1478L152.996 94.2589C153.221 94.7547 153.334 95.2913 153.334 95.8331V129.055C153.334 136.809 147.032 143.111 139.278 143.111ZM38.3337 96.656V129.055C38.3337 132.577 41.201 135.444 44.7225 135.444H139.278C142.8 135.444 145.667 132.577 145.667 129.055V96.656L124.021 48.5553H59.9792L38.3337 96.656Z" fill="black"/>
<path d="M115.031 125.222H68.9693C64.9929 125.222 61.548 122.662 60.4031 118.849L54.9189 100.582C54.7553 100.045 54.2544 99.6667 53.6973 99.6667H34.5V92H53.6973C57.6738 92 61.1187 94.5607 62.2636 98.3736L67.7478 116.641C67.9113 117.182 68.4122 117.556 68.9693 117.556H115.031C115.588 117.556 116.094 117.182 116.252 116.641L121.736 98.3736C122.881 94.5607 126.321 92 130.303 92H149.5V99.6667H130.303C129.746 99.6667 129.24 100.04 129.081 100.582L123.597 118.849C122.452 122.662 119.007 125.222 115.031 125.222Z" fill="black"/>
<path d="M10.2227 139.278C10.2227 137.161 11.9389 135.444 14.056 135.444H169.945C172.062 135.444 173.778 137.161 173.778 139.278C173.778 141.395 172.062 143.111 169.945 143.111H14.056C11.9389 143.111 10.2227 141.395 10.2227 139.278Z" fill="black"/>
</g>
</svg>
