<svg width="326" height="326" viewBox="0 0 326 326" fill="none" xmlns="http://www.w3.org/2000/svg">
<path d="M291.071 0H34.9286C25.6649 0 16.7807 3.67997 10.2303 10.2303C3.67996 16.7807 0 25.6649 0 34.9286L0 291.071C0 300.335 3.67996 309.219 10.2303 315.77C16.7807 322.32 25.6649 326 34.9286 326H134.802V215.167H88.9587V163H134.802V123.24C134.802 78.0144 161.727 53.0332 202.964 53.0332C222.713 53.0332 243.365 56.5552 243.365 56.5552V100.944H220.61C198.191 100.944 191.198 114.857 191.198 129.127V163H241.247L233.243 215.167H191.198V326H291.071C300.335 326 309.219 322.32 315.77 315.77C322.32 309.219 326 300.335 326 291.071V34.9286C326 25.6649 322.32 16.7807 315.77 10.2303C309.219 3.67997 300.335 0 291.071 0Z" fill="white"/>
</svg>
