<?xml version="1.0" encoding="utf-8"?>
<!-- Generator: Adobe Illustrator 24.3.0, SVG Export Plug-In . SVG Version: 6.00 Build 0)  -->
<svg version="1.1" id="Capa_1" xmlns="http://www.w3.org/2000/svg" xmlns:xlink="http://www.w3.org/1999/xlink" x="0px" y="0px"
	 viewBox="0 0 685.7 142.6" style="enable-background:new 0 0 685.7 142.6;" xml:space="preserve">
<style type="text/css">
	.st0{fill:#333333;}
	.st1{fill:url(#SVGID_1_);}
</style>
<g>
	<g id="Famosos-App_3_">
		<g id="_x31_---Web-Copy_3_" transform="translate(-604.000000, -170.000000)">
			<g id="Group-25_3_" transform="translate(110.000000, 127.000000)">
				<g id="Group-24_3_">
					<g id="Group-22_3_">
						<g id="Group-3_3_" transform="translate(494.000000, 43.000000)">
							<g id="Group_3_">
								<path id="famosos_3_" class="st0" d="M5,80.8c-0.9-7.8-0.5-30.2-0.2-34H13C13.2,12.5,35.9-0.7,69.3,6
									c1.1,11.8,0.4,23.7,0,28.9C58.2,34.4,53.6,36,54.7,49.4c2.9-0.4,9.3-0.5,13.2-0.2c0.4,7.8,0.4,22.6-0.7,30.9
									c-5.4,0-8.9-0.4-12.5-0.5c0.2,6.7,1.6,36.7,0.5,57.4c-12,1.6-31.4,1.8-41.6,1.2c-1.1-22.9-1.2-34.1-1.1-57.2
									C6.7,81,5,80.7,5,80.8L5,80.8z M155,90.4c0,15.9-0.2,37.6-0.2,45.5c-7.1,0.9-20.9,1.8-33.9,1.8c-0.5-1.9-1.4-5.6-2-8.6
									c-15.9,12.5-48.5,15-50.3-11.8c-3-43.6,46.4-38.1,46.4-38.1c0-2.6,0.5-12.4-9.3-12.4c-9.6,0-23.4,9-23.4,9
									c-7.7-9.9-9.6-34.2-9.6-34.2s13.6-11.1,41.8-11.1C155,30.4,155,69.9,155,90.4z M116.5,97.1c-8.7,0-14.3,4.4-12,11.6
									c2,5.5,9.6,3.9,12.9,0.2C117,104.5,117,103.8,116.5,97.1z M200.5,32.1c0.2,5.3,0.2,10.8,0.2,15.9
									c9.3-19.1,44.6-28.6,53.2,1.9c5.4-10.2,13.7-15.4,26.9-15.4c41.6,0,26.6,64.6,29.6,102.4c-17,1.1-31.1,0.7-40.5,0
									c-4.3-10.9,5.2-69-6.8-69c-10,0-5.7,17.3-5.7,68.5c-9.8,1.1-27.1,1.4-37.8,1.2c-3.6-43.4,4.8-75.7-10.7-70.8
									c-5.7,1.8-3.7,9.5-3.7,34.1c0,13.4,0.2,25.1-0.2,35.5c-13.7,1.2-26.6,1.1-40.7,1.2c-1.1-33-0.5-74-0.5-104
									C169.8,32.5,187.8,31.8,200.5,32.1z M410,72.5c2.1,21.9-3,46.8-15.7,57.2c-12.5,10.4-38,13.2-55.3,4.4
									c-26.4-13.6-30.7-74.3-7-94.6c6.6-5.6,14.8-8.6,26.4-9.9C389.1,26.3,407.3,44.8,410,72.5z M360.3,98
									c15.2,4.8,21.2-18.4,12-27.9c-5.2-5.3-17.8-4.6-20.5,4.2C349.5,83.7,352.3,95.5,360.3,98z M482.4,36.2
									c-2,9.7-3.7,18.4-7.5,26.1c-5.4-1.2-15-6-18.2,0c-4.8,8.8,10.7,13.2,18.2,19.9c11.4,10.2,13.6,34.8-2,49.1
									c-8.9,8.3-38.7,9.4-55.5,3.9c-0.9-10.9-1.6-18.4-1.6-29.3c6.1,0.2,22.7,4.8,25.2-3.7c1.8-6.7-8-12.5-12-16.8
									c-6.2-6.7-15.3-12.4-13.2-31.2C418.6,26.8,457.7,23.8,482.4,36.2z M679.8,36.2c-2,9.7-3.7,18.4-7.5,26.1
									c-5.4-1.2-15-6-18.2,0c-4.8,8.8,10.7,13.2,18.2,19.9c11.4,10.2,13.6,34.8-2,49.1c-8.9,8.3-38.7,9.4-55.5,3.9
									c-0.9-10.9-1.6-18.4-1.6-29.3c6.1,0.2,22.7,4.8,25.2-3.7c1.8-6.7-8-12.5-12-16.8c-6.2-6.7-15.3-12.4-13.2-31.2
									C616.1,26.8,655.2,23.8,679.8,36.2z"/>
							</g>
						</g>
					</g>
				</g>
			</g>
		</g>
	</g>
	
		<linearGradient id="SVGID_1_" gradientUnits="userSpaceOnUse" x1="547.0622" y1="-458.8208" x2="547.0622" y2="-342.1331" gradientTransform="matrix(1 0 0 1 0 482.8569)">
		<stop  offset="0" style="stop-color:#F05062"/>
		<stop  offset="0.1071" style="stop-color:#EF4967"/>
		<stop  offset="0.3524" style="stop-color:#EE3B72"/>
		<stop  offset="0.5885" style="stop-color:#EE2D78"/>
		<stop  offset="0.8095" style="stop-color:#ED227C"/>
		<stop  offset="1" style="stop-color:#ED1D7D"/>
	</linearGradient>
	<path class="st1" d="M500.4,140.2c1-1.5,2-2.9,3-4.4c3-4.5,5.2-9.4,6.4-14.7c0.4-1.6,0.1-2.7-1.4-3.7c-9.9-7.1-17.2-16.2-20.4-28
		c-4.3-16.1-0.8-30.7,9.8-43.5C507,34.8,519,28.3,533,25.5c16.6-3.3,32.6-1.2,47.4,7.2c12,6.8,20.9,16.4,25.1,29.7
		c5.2,16.3,2.1,31.3-8.4,44.6c-9.6,12.1-22.5,18.9-37.6,21.7c-8.8,1.6-17.6,1.5-26.3-0.4c-1-0.2-1.7,0-2.4,0.7
		c-5.4,5.6-11.9,9.4-19.6,10.7c-3.5,0.6-7.1,0.7-10.7,1C500.6,140.6,500.5,140.4,500.4,140.2z M562.1,101.1c2.2,0,3.5-1.5,3.3-3.2
		c-0.1-0.7-0.3-1.4-0.5-2.1c-1.1-4.4-2.3-8.7-3.5-13.1c-0.2-0.9-0.1-1.4,0.6-2c2-1.6,3.9-3.2,5.9-4.8c2.1-1.7,4.2-3.4,6.2-5.2
		c1-0.9,1.1-2.1,0.7-3.4c-0.5-1.2-1.4-1.6-2.7-1.7c-4.9-0.3-9.7-0.6-14.6-0.8c-1.4-0.1-2-0.5-2.5-1.8c-1.6-4.5-3.4-9-5.2-13.5
		c-0.5-1.2-1.3-2-2.7-2.1s-2.4,0.7-3,1.9c-0.2,0.3-0.3,0.6-0.4,1c-1.7,4.4-3.5,8.9-5.1,13.3c-0.3,0.8-0.7,1.1-1.5,1.1
		c-2.2,0.1-4.5,0.2-6.7,0.3c-2.9,0.2-5.9,0.4-8.8,0.6c-1.7,0.1-2.6,1.2-2.7,2.9c0,1.5,1.1,2.4,2.1,3.2c3.5,2.9,7.1,5.7,10.6,8.6
		c0.9,0.7,1.1,1.3,0.8,2.5c-1.3,4.6-2.5,9.3-3.7,14c-0.4,1.4-0.3,2.8,1,3.7s2.7,0.6,4-0.3c3.9-2.6,7.9-5.1,11.9-7.7
		c1-0.7,1.7-0.7,2.7,0c4,2.7,8.1,5.3,12.2,7.8C561,100.8,561.8,101,562.1,101.1z"/>
</g>
</svg>
