<?xml version="1.0" encoding="utf-8"?>
<!-- Generator: Adobe Illustrator 25.2.0, SVG Export Plug-In . SVG Version: 6.00 Build 0)  -->
<svg version="1.1" id="Capa_1" xmlns="http://www.w3.org/2000/svg" xmlns:xlink="http://www.w3.org/1999/xlink" x="0px" y="0px"
	 viewBox="0 0 679.1 139.6" style="enable-background:new 0 0 679.1 139.6;" xml:space="preserve">
<style type="text/css">
	.st0{fill:#FFFFFF;}
	.st1{fill:url(#SVGID_1_);}
</style>
<g>
	<g id="Famosos-App_1_">
		<g id="_x31_---Web-Copy_1_" transform="translate(-604.000000, -170.000000)">
			<g id="Group-25_1_" transform="translate(110.000000, 127.000000)">
				<g id="Group-24_1_">
					<g id="Group-22_1_">
						<g id="Group-3_1_" transform="translate(494.000000, 43.000000)">
							<g id="Group_1_">
								<path id="famosos_1_" class="st0" d="M1.1,77.7c-0.9-7.8-0.5-30.2-0.2-34h8.2C9.3,9.4,32-3.8,65.4,2.9
									c1.1,11.8,0.4,23.7,0,28.9c-11.1-0.5-15.7,1.1-14.6,14.5c2.9-0.4,9.3-0.5,13.2-0.2c0.4,7.8,0.4,22.6-0.7,30.9
									c-5.4,0-8.9-0.4-12.5-0.5c0.2,6.7,1.6,36.7,0.5,57.4c-12,1.6-31.4,1.8-41.6,1.2C8.6,112.1,8.4,101,8.6,77.9
									C2.8,77.9,1.1,77.6,1.1,77.7L1.1,77.7z M151.2,87.2c0,15.9-0.2,37.6-0.2,45.5c-7.1,0.9-20.9,1.8-33.9,1.8
									c-0.5-1.9-1.4-5.6-2-8.6c-15.9,12.5-48.5,15-50.3-11.8c-3-43.6,46.4-38.1,46.4-38.1c0-2.6,0.5-12.4-9.3-12.4
									c-9.6,0-23.4,9-23.4,9c-7.7-9.9-9.6-34.2-9.6-34.2s13.6-11.1,41.8-11.1C151.2,27.2,151.2,66.8,151.2,87.2z M112.6,94
									c-8.7,0-14.3,4.4-12,11.6c2,5.5,9.6,3.9,12.9,0.2C113.1,101.4,113.1,100.7,112.6,94z M196.6,29c0.2,5.3,0.2,10.8,0.2,15.9
									c9.3-19.1,44.6-28.6,53.2,1.9c5.4-10.2,13.7-15.4,26.9-15.4c41.6,0,26.6,64.6,29.6,102.4c-17,1.1-31.1,0.7-40.5,0
									c-4.3-10.9,5.2-69-6.8-69c-10,0-5.7,17.3-5.7,68.5c-9.8,1.1-27.1,1.4-37.8,1.2c-3.6-43.4,4.8-75.7-10.7-70.8
									c-5.7,1.8-3.7,9.5-3.7,34.1c0,13.4,0.2,25.1-0.2,35.5c-13.7,1.2-26.6,1.1-40.7,1.2c-1.1-33-0.5-74-0.5-104
									C165.9,29.4,183.9,28.7,196.6,29z M406.1,69.4c2.1,21.9-3,46.8-15.7,57.2c-12.5,10.4-38,13.2-55.3,4.4
									c-26.4-13.6-30.7-74.3-7-94.6c6.6-5.6,14.8-8.6,26.4-9.9C385.2,23.2,403.4,41.7,406.1,69.4z M356.5,94.8
									c15.2,4.8,21.2-18.4,12-27.9c-5.2-5.3-17.8-4.6-20.5,4.2C345.6,80.5,348.4,92.4,356.5,94.8z M478.5,33.1
									c-2,9.7-3.7,18.4-7.5,26.1c-5.4-1.2-15-6-18.2,0C448,68,463.5,72.4,471,79.1c11.4,10.2,13.6,34.8-2,49.1
									c-8.9,8.3-38.7,9.4-55.5,3.9c-0.9-10.9-1.6-18.4-1.6-29.3c6.1,0.2,22.7,4.8,25.2-3.7c1.8-6.7-8-12.5-12-16.8
									c-6.2-6.7-15.3-12.4-13.2-31.2C414.8,23.7,453.8,20.7,478.5,33.1z M675.9,33.1c-2,9.7-3.7,18.4-7.5,26.1
									c-5.4-1.2-15-6-18.2,0c-4.8,8.8,10.7,13.2,18.2,19.9c11.4,10.2,13.6,34.8-2,49.1c-8.9,8.3-38.7,9.4-55.5,3.9
									c-0.9-10.9-1.6-18.4-1.6-29.3c6.1,0.2,22.7,4.8,25.2-3.7c1.8-6.7-8-12.5-12-16.8c-6.2-6.7-15.3-12.4-13.2-31.2
									C612.2,23.7,651.3,20.7,675.9,33.1z"/>
							</g>
						</g>
					</g>
				</g>
			</g>
		</g>
	</g>
	
		<linearGradient id="SVGID_1_" gradientUnits="userSpaceOnUse" x1="543.2866" y1="1468.4634" x2="543.2866" y2="1351.7373" gradientTransform="matrix(1 0 0 -1 0 1489.3813)">
		<stop  offset="0" style="stop-color:#F05062"/>
		<stop  offset="0.1071" style="stop-color:#EF4967"/>
		<stop  offset="0.3524" style="stop-color:#EE3B72"/>
		<stop  offset="0.5885" style="stop-color:#EE2D78"/>
		<stop  offset="0.8095" style="stop-color:#ED227C"/>
		<stop  offset="1" style="stop-color:#ED1D7D"/>
	</linearGradient>
	<path class="st1" d="M496.5,137.1c1-1.5,2-2.9,3-4.4c3-4.5,5.2-9.4,6.4-14.7c0.4-1.6,0.1-2.7-1.4-3.7c-9.9-7.1-17.2-16.2-20.4-28
		c-4.3-16.1-0.8-30.7,9.8-43.5c9.2-11.1,21.2-17.6,35.2-20.4c16.6-3.3,32.6-1.2,47.4,7.2c12,6.8,20.9,16.4,25.1,29.7
		c5.2,16.3,2.1,31.3-8.4,44.6c-9.6,12.1-22.5,18.9-37.6,21.7c-8.8,1.6-17.6,1.5-26.3-0.4c-1-0.2-1.7,0-2.4,0.7
		c-5.4,5.6-11.9,9.4-19.6,10.7c-3.5,0.6-7.1,0.7-10.7,1C496.7,137.5,496.6,137.3,496.5,137.1z M558.2,98c2.2,0,3.5-1.5,3.3-3.2
		c-0.1-0.7-0.3-1.4-0.5-2.1c-1.1-4.4-2.3-8.7-3.5-13.1c-0.2-0.9-0.1-1.4,0.6-2c2-1.6,3.9-3.2,5.9-4.8c2.1-1.7,4.2-3.4,6.2-5.2
		c1-0.9,1.1-2.1,0.7-3.4c-0.5-1.2-1.4-1.6-2.7-1.7c-4.9-0.3-9.7-0.6-14.6-0.8c-1.4-0.1-2-0.5-2.5-1.8c-1.6-4.5-3.4-9-5.2-13.5
		c-0.5-1.2-1.3-2-2.7-2.1c-1.4-0.1-2.4,0.7-3,1.9c-0.2,0.3-0.3,0.6-0.4,1c-1.7,4.4-3.5,8.9-5.1,13.3c-0.3,0.8-0.7,1.1-1.5,1.1
		c-2.2,0.1-4.5,0.2-6.7,0.3c-2.9,0.2-5.9,0.4-8.8,0.6c-1.7,0.1-2.6,1.2-2.7,2.9c0,1.5,1.1,2.4,2.1,3.2c3.5,2.9,7.1,5.7,10.6,8.6
		c0.9,0.7,1.1,1.3,0.8,2.5c-1.3,4.6-2.5,9.3-3.7,14c-0.4,1.4-0.3,2.8,1,3.7c1.3,0.9,2.7,0.6,4-0.3c3.9-2.6,7.9-5.1,11.9-7.7
		c1-0.7,1.7-0.7,2.7,0c4,2.7,8.1,5.3,12.2,7.8C557.1,97.7,557.9,97.9,558.2,98z"/>
</g>
</svg>
