<svg width="50" height="50" viewBox="0 0 50 50" fill="none" xmlns="http://www.w3.org/2000/svg">
<path d="M14.3727 38.6856C14.6098 38.3381 14.851 37.9934 15.0832 37.6426C15.7978 36.5638 16.3311 35.4068 16.6118 34.1365C16.6966 33.7539 16.6375 33.5001 16.2867 33.2479C13.9364 31.5576 12.1829 29.3971 11.4264 26.5677C10.3989 22.7242 11.2467 19.2494 13.773 16.2061C15.962 13.5689 18.8289 12.0175 22.1571 11.3551C26.1162 10.5671 29.9194 11.0691 33.4573 13.0768C36.3067 14.6942 38.4261 16.9818 39.4364 20.1481C40.6758 24.0315 39.931 27.5976 37.4259 30.7648C35.1403 33.6545 32.0648 35.2585 28.476 35.9307C26.3819 36.323 24.2907 36.2925 22.2088 35.8435C21.9603 35.7897 21.81 35.8419 21.6405 36.0183C20.3543 37.3582 18.8074 38.2488 16.974 38.5707C16.1344 38.7182 15.2723 38.7357 14.42 38.8123C14.4045 38.7703 14.3886 38.7279 14.3727 38.6856ZM29.0565 29.3633C29.5825 29.358 29.8913 29.0133 29.8412 28.5941C29.8212 28.4271 29.7756 28.2621 29.7324 28.0983C29.459 27.0569 29.1897 26.0144 28.9033 24.9763C28.8467 24.7706 28.8736 24.6439 29.0447 24.5111C29.521 24.1411 29.9858 23.7561 30.4515 23.3728C30.9452 22.9666 31.4423 22.5632 31.9238 22.1428C32.1703 21.9273 32.1919 21.6339 32.0795 21.3406C31.9711 21.0567 31.736 20.9609 31.4451 20.9446C30.2869 20.8798 29.1298 20.7918 27.9708 20.7478C27.6359 20.7352 27.4904 20.6228 27.378 20.3123C26.9869 19.2339 26.5636 18.1669 26.1464 17.0979C26.0331 16.8082 25.8298 16.6102 25.4998 16.5923C25.1544 16.5739 24.9303 16.754 24.7865 17.0527C24.7498 17.1288 24.7172 17.2071 24.6867 17.2857C24.2768 18.3445 23.8629 19.4022 23.4632 20.4647C23.3935 20.6505 23.3068 20.7328 23.1014 20.7377C22.5698 20.7503 22.0385 20.7845 21.5077 20.8159C20.8081 20.8574 20.1086 20.901 19.4099 20.9507C19.0058 20.9797 18.7817 21.2428 18.7784 21.6474C18.7756 22.0149 19.031 22.2117 19.2722 22.4088C20.1131 23.0961 20.9589 23.7773 21.8095 24.4524C22.0124 24.6133 22.0756 24.7689 21.9998 25.0366C21.6873 26.1423 21.4058 27.257 21.108 28.3668C21.0155 28.7106 21.0326 29.0394 21.3431 29.2472C21.6555 29.4562 21.9786 29.3832 22.2923 29.1763C23.2306 28.5566 24.1839 27.9602 25.1185 27.3352C25.3544 27.1775 25.5259 27.1682 25.7651 27.3267C26.7225 27.961 27.6909 28.5786 28.6605 29.1938C28.8088 29.2879 28.986 29.3339 29.0565 29.3633Z" fill="url(#paint0_linear)"/>
<defs>
<linearGradient id="paint0_linear" x1="25.5117" y1="10.9999" x2="25.5117" y2="38.8126" gradientUnits="userSpaceOnUse">
<stop stop-color="#F05062"/>
<stop offset="0.1071" stop-color="#EF4967"/>
<stop offset="0.3524" stop-color="#EE3B72"/>
<stop offset="0.5885" stop-color="#EE2D78"/>
<stop offset="0.8095" stop-color="#ED227C"/>
<stop offset="1" stop-color="#ED1D7D"/>
</linearGradient>
</defs>
</svg>
