<svg width="326" height="326" viewBox="0 0 326 326" fill="none" xmlns="http://www.w3.org/2000/svg">
<path d="M163.036 79.4177C116.782 79.4177 79.4727 116.735 79.4727 163C79.4727 209.265 116.782 246.582 163.036 246.582C209.291 246.582 246.6 209.265 246.6 163C246.6 116.735 209.291 79.4177 163.036 79.4177ZM163.036 217.339C133.145 217.339 108.709 192.97 108.709 163C108.709 133.03 133.073 108.661 163.036 108.661C193 108.661 217.364 133.03 217.364 163C217.364 192.97 192.927 217.339 163.036 217.339ZM269.509 75.9988C269.509 86.8376 260.782 95.494 250.018 95.494C239.182 95.494 230.527 86.7648 230.527 75.9988C230.527 65.2327 239.255 56.5035 250.018 56.5035C260.782 56.5035 269.509 65.2327 269.509 75.9988ZM324.855 95.785C323.618 69.6701 317.655 46.5377 298.527 27.4789C279.473 8.42006 256.345 2.45509 230.236 1.14571C203.327 -0.381903 122.673 -0.381903 95.7636 1.14571C69.7273 2.38235 46.6 8.34732 27.4727 27.4061C8.34546 46.4649 2.45455 69.5973 1.14545 95.7123C-0.381818 122.627 -0.381818 203.3 1.14545 230.215C2.38182 256.33 8.34546 279.462 27.4727 298.521C46.6 317.58 69.6545 323.545 95.7636 324.854C122.673 326.382 203.327 326.382 230.236 324.854C256.345 323.618 279.473 317.653 298.527 298.521C317.582 279.462 323.545 256.33 324.855 230.215C326.382 203.3 326.382 122.7 324.855 95.785ZM290.091 259.094C284.418 273.352 273.436 284.336 259.109 290.083C237.655 298.594 186.745 296.63 163.036 296.63C139.327 296.63 88.3455 298.521 66.9636 290.083C52.7091 284.409 41.7273 273.425 35.9818 259.094C27.4727 237.635 29.4364 186.714 29.4364 163C29.4364 139.286 27.5455 88.2924 35.9818 66.9058C41.6545 52.6481 52.6364 41.6638 66.9636 35.9171C88.4182 27.4061 139.327 29.3702 163.036 29.3702C186.745 29.3702 237.727 27.4789 259.109 35.9171C273.364 41.5911 284.345 52.5754 290.091 66.9058C298.6 88.3652 296.636 139.286 296.636 163C296.636 186.714 298.6 237.708 290.091 259.094Z" fill="white"/>
</svg>
