<svg width="20" height="23" viewBox="0 0 20 23" fill="none" xmlns="http://www.w3.org/2000/svg">
<path d="M17.8571 10.0625H16.7857V6.82812C16.7857 3.06367 13.7411 0 10 0C6.25893 0 3.21429 3.06367 3.21429 6.82812V10.0625H2.14286C0.959821 10.0625 0 11.0283 0 12.2188V20.8438C0 22.0342 0.959821 23 2.14286 23H17.8571C19.0402 23 20 22.0342 20 20.8438V12.2188C20 11.0283 19.0402 10.0625 17.8571 10.0625ZM13.2143 10.0625H6.78571V6.82812C6.78571 5.04473 8.22768 3.59375 10 3.59375C11.7723 3.59375 13.2143 5.04473 13.2143 6.82812V10.0625Z" fill="white"/>
</svg>
