<svg width="28" height="24" viewBox="0 0 28 24" fill="none" xmlns="http://www.w3.org/2000/svg">
<path d="M26.8333 22.3395C26.7283 22.3395 26.6233 22.3255 26.5183 22.2951L0.851666 15.1225C0.347666 14.9825 0 14.5251 0 14.0001V9.33348C0 8.80614 0.352333 8.34648 0.858667 8.20881L26.5253 1.20881C26.8823 1.11548 27.2533 1.18781 27.5427 1.40714C27.832 1.62648 28 1.96948 28 2.33348V21.1728C28 21.5368 27.8297 21.8821 27.5403 22.1015C27.3327 22.2578 27.0853 22.3395 26.8333 22.3395ZM2.33333 13.1135L25.6667 19.6351V3.85948L2.33333 10.2248V13.1135Z" fill="black"/>
<path d="M26.8332 23.3333C26.1892 23.3333 25.6665 22.8107 25.6665 22.1667V1.16667C25.6665 0.522667 26.1892 0 26.8332 0C27.4772 0 27.9998 0.522667 27.9998 1.16667V22.1667C27.9998 22.8107 27.4772 23.3333 26.8332 23.3333Z" fill="black"/>
<path d="M1.16667 16.3333C0.522667 16.3333 0 15.8107 0 15.1667V8.16667C0 7.52267 0.522667 7 1.16667 7C1.81067 7 2.33333 7.52267 2.33333 8.16667V15.1667C2.33333 15.8107 1.81067 16.3333 1.16667 16.3333Z" fill="black"/>
<path d="M9.33317 23.45C6.7595 23.45 4.6665 21.357 4.6665 18.7833C4.6665 17.108 5.55784 15.5726 6.99284 14.7746C7.55284 14.469 8.26684 14.665 8.58184 15.2273C8.89451 15.792 8.6915 16.5013 8.12917 16.8163C7.42217 17.2083 6.99984 17.941 6.99984 18.7833C6.99984 20.0713 8.04517 21.1166 9.33317 21.1166C10.6212 21.1166 11.6665 20.0713 11.6665 18.7833C11.6665 18.3726 11.5802 18.0343 11.3982 17.745C11.0575 17.199 11.2255 16.478 11.7715 16.1373C12.3128 15.8013 13.0362 15.9646 13.3792 16.5106C13.7898 17.1686 13.9998 17.9363 13.9998 18.7833C13.9998 21.3546 11.9068 23.45 9.33317 23.45Z" fill="black"/>
</svg>
