<svg width="312" height="185" viewBox="0 0 312 185" fill="none" xmlns="http://www.w3.org/2000/svg">
<path d="M1.46044 75.6696C-0.0638437 75.1544 -0.444715 73.1741 0.779719 72.1303L7.92676 66.0373C9.16363 64.9829 11.0558 65.3224 11.8489 66.741C12.5005 67.9065 12.1542 69.3766 11.0509 70.1287L3.29077 75.4187C2.75377 75.7848 2.07612 75.8777 1.46044 75.6696Z" fill="#9A7DF8"/>
<path d="M280.952 150.637C281.037 149.03 282.842 148.13 284.177 149.028L291.97 154.269C293.319 155.177 293.501 157.09 292.349 158.236C291.402 159.178 289.893 159.24 288.871 158.38L281.686 152.332C281.189 151.914 280.917 151.286 280.952 150.637Z" fill="#9A7DF8"/>
<path d="M194.754 162.26C194.357 161.286 194.919 160.187 195.941 159.939L203.35 158.145C205.013 157.742 206.451 159.358 205.86 160.963C205.584 161.71 204.916 162.242 204.126 162.344L196.565 163.316C195.792 163.416 195.048 162.982 194.754 162.26Z" fill="#9A7DF8"/>
<path d="M170.46 12.6696C168.936 12.1544 168.555 10.1741 169.78 9.13025L176.927 3.0373C178.164 1.98286 180.056 2.32236 180.849 3.74104C181.5 4.9065 181.154 6.3766 180.051 7.12869L172.291 12.4187C171.754 12.7848 171.076 12.8777 170.46 12.6696Z" fill="#9A7DF8"/>
<path d="M24.03 11.4604C25.1827 12.8038 27.2557 12.8216 28.4313 11.4982C29.3463 10.4681 29.4172 8.93877 28.6015 7.82844L24.1966 1.83255C23.3904 0.735103 21.9783 0.267531 20.6764 0.666931C18.4698 1.34391 17.6822 4.06223 19.1853 5.81397L24.03 11.4604Z" fill="#4F31E0"/>
<path d="M41.0405 168.393C41.0164 167.75 41.4163 167.168 42.0245 166.959L48.9085 164.598C49.9147 164.253 51.0226 164.689 51.5249 165.626C52.2394 166.96 51.4042 168.597 49.9052 168.801L42.6943 169.783C41.8405 169.899 41.0727 169.254 41.0405 168.393Z" fill="#FF1D9C"/>
<path d="M301.04 72.3927C301.016 71.7501 301.416 71.1676 302.025 70.959L308.909 68.5984C309.915 68.2534 311.023 68.6886 311.525 69.6262C312.239 70.9597 311.404 72.5967 309.905 72.8008L302.694 73.7829C301.841 73.8992 301.073 73.2537 301.04 72.3927Z" fill="#FF1D9C"/>
<path d="M269.849 5.19423C270.732 4.2278 272.17 4.00861 273.301 4.66797L287.576 12.9897C289.887 14.3365 290.314 17.4972 288.443 19.4087C286.954 20.9314 284.547 21.0619 282.901 19.7093L270.136 9.21745C268.905 8.20616 268.774 6.3699 269.849 5.19423Z" fill="#6877FF"/>
<path d="M116.065 160.914C117.309 161.323 118.099 162.544 117.963 163.846L116.237 180.279C115.957 182.939 113.251 184.626 110.74 183.706C108.74 182.973 107.632 180.832 108.19 178.776L112.515 162.828C112.932 161.291 114.552 160.417 116.065 160.914Z" fill="#6877FF"/>
</svg>
