<svg width="209" height="208" viewBox="0 0 209 208" fill="none" xmlns="http://www.w3.org/2000/svg">
<g clip-path="url(#clip0)">
<path opacity="0.5" d="M69.0481 37.4009C69.0481 37.4009 3.42397 94.7871 0.124065 143.806C-3.17584 192.802 59.9403 192.012 92.7634 178.725C125.586 165.416 69.0481 37.4009 69.0481 37.4009Z" fill="url(#paint0_linear)"/>
<path opacity="0.5" d="M52.3945 99.9041C52.3945 99.9041 12.4437 133.462 13.5437 155.797C14.6436 178.132 32.8591 177.341 32.9471 183.864C33.0351 190.387 49.1606 213.425 92.7414 206.814C146.662 198.622 147.872 164.076 148.51 140.226C149.17 116.397 52.3945 99.9041 52.3945 99.9041Z" fill="url(#paint1_linear)"/>
<path d="M124.354 70.4753C113.795 66.8297 54.1324 100.212 54.1324 100.212C53.9344 100.168 53.7364 100.124 53.5164 100.102C53.1424 100.036 52.7685 99.97 52.3945 99.9041L82.2256 146.902L109.439 156.28L159.707 138.359C159.707 138.359 158.013 138.249 157.508 136.954C157.486 136.954 133.792 73.7257 124.354 70.4753Z" fill="url(#paint2_linear)"/>
<path d="M64.0982 89.2307L69.0481 37.4009C69.3781 33.887 72.546 31.3614 76.0439 31.7787L131.262 38.521C134.694 38.9382 137.136 42.0568 136.718 45.4829L130.47 96.5001C130.052 99.9041 126.972 102.342 123.562 101.947L69.6421 96.0169C66.2322 95.6655 63.7682 92.6348 64.0982 89.2307Z" fill="url(#paint3_linear)"/>
<path d="M132.428 46.7127L126.576 94.3478C126.312 96.5659 124.289 98.1692 122.045 97.9056L71.886 92.3932C69.6641 92.1516 68.0361 90.1751 68.2561 87.935L69.2901 77.1078L72.876 39.5532C73.096 37.2472 75.1639 35.6001 77.4519 35.8856L128.864 42.1666C131.086 42.4302 132.692 44.4726 132.428 46.7127Z" fill="url(#paint4_linear)"/>
<path d="M127.192 89.4503L126.598 94.3478C126.334 96.5659 124.311 98.1691 122.067 97.9056L71.908 92.3932C69.6861 92.1516 68.0582 90.1751 68.2782 87.935L69.3121 77.1078C69.3121 77.1078 74.042 71.5954 78.7278 66.632C82.5777 62.5032 86.4276 58.7478 87.5276 58.7038C88.3636 58.6819 90.2995 61.3393 92.4555 64.8312V64.8531C96.5693 71.4636 101.497 81.0609 101.497 81.0609C101.497 81.0609 102.641 79.6334 104.225 77.8325V77.8106C106.997 74.6261 111.067 70.2557 112.475 70.3216C113.553 70.3655 117.469 75.5046 121.209 80.7974C123.497 83.9818 125.718 87.2541 127.192 89.4503Z" fill="url(#paint5_linear)"/>
<path d="M116.127 60.6365C115.753 63.755 112.893 65.9951 109.769 65.5998C106.645 65.2265 104.401 62.3714 104.797 59.2529C105.171 56.1343 108.031 53.8942 111.155 54.2895C114.279 54.6629 116.501 57.5179 116.127 60.6365Z" fill="white"/>
<path d="M75.8019 92.7226C75.8019 92.7226 97.2293 69.5969 99.9572 69.6408C102.685 69.6847 115.511 97.2467 115.511 97.2467L75.8019 92.7226Z" fill="url(#paint6_linear)"/>
<path d="M114.917 40.4536L131.196 56.7492L133.044 41.7054L114.917 40.4536Z" fill="url(#paint7_linear)"/>
<path d="M61.4803 136.668L79.6517 79.304C80.8837 75.4168 85.0636 73.3304 88.9135 74.6481L149.654 95.5996C153.438 96.8954 155.44 101.024 154.142 104.78L134.716 160.892C133.418 164.626 129.348 166.646 125.586 165.394L66.1221 145.673C62.3602 144.443 60.2923 140.424 61.4803 136.668Z" fill="url(#paint8_linear)"/>
<path d="M148.972 105.131L130.844 157.532C130.008 159.97 127.324 161.287 124.882 160.475L69.5321 142.137C67.0682 141.324 65.7262 138.689 66.4962 136.229L70.2801 124.26L83.4357 82.6861C84.2497 80.1386 86.9776 78.7769 89.5075 79.6334L146.024 99.1355C148.51 99.97 149.83 102.671 148.972 105.131Z" fill="url(#paint9_linear)"/>
<path d="M132.714 152.151L130.844 157.554C130.008 159.992 127.324 161.309 124.882 160.497L69.5321 142.137C67.0682 141.324 65.7262 138.689 66.4962 136.229L70.2801 124.26C70.2801 124.26 76.9459 119.187 83.4577 114.684C88.8255 110.951 94.0614 107.635 95.3154 107.854C96.2613 108.03 97.8013 111.5 99.4072 115.98V116.002C102.443 124.479 105.699 136.492 105.699 136.492C105.699 136.492 107.349 135.153 109.549 133.506L109.571 133.484C113.465 130.563 119.119 126.61 120.703 127.005C121.913 127.312 125.08 134.077 128.028 140.929C129.876 145.08 131.57 149.318 132.714 152.151Z" fill="url(#paint10_linear)"/>
<path d="M127.387 116.239C128.195 112.691 125.968 109.161 122.413 108.355C118.858 107.549 115.322 109.772 114.515 113.32C113.708 116.869 115.935 120.399 119.489 121.205C123.044 122.011 126.58 119.788 127.387 116.239Z" fill="white"/>
<path d="M73.8439 143.454C73.8439 143.454 103.653 122.503 106.711 123.206C109.769 123.908 117.601 158.125 117.601 158.125L73.8439 143.454Z" fill="url(#paint11_linear)"/>
<path d="M130.712 93.8427L145.166 116.156L150.886 99.6187L130.712 93.8427Z" fill="url(#paint12_linear)"/>
<path d="M159.707 138.359C159.707 138.359 147.19 171.192 134.892 191.529C134.892 191.529 83.9416 177.166 38.9309 159.904C38.9309 159.904 42.2968 126.566 52.4165 99.8822L82.2477 146.88L109.461 156.258L159.707 138.359Z" fill="url(#paint13_linear)"/>
<path d="M52.3945 99.9041L54.1324 100.212L82.8416 145.145L109.747 154.435L157.485 136.954L159.707 138.359L109.439 156.28L82.2256 146.902L52.3945 99.9041Z" fill="#FF69CF"/>
<path opacity="0.5" d="M41.1528 159.355L82.2476 146.88L109.461 156.258L134.914 191.507C134.892 191.529 55.4304 166.317 41.1528 159.355Z" fill="url(#paint14_linear)"/>
<path d="M82.8416 145.145L81.4337 145.651L41.1528 159.355L82.2257 146.902L82.8416 145.145Z" fill="#A90C77"/>
<path d="M109.747 154.435L110.825 155.775L134.892 191.529L109.439 156.28L109.747 154.435Z" fill="#A90C77"/>
<path opacity="0.5" d="M61.0403 153.337C61.0403 153.337 48.4566 159.135 47.9286 163.308L38.9309 159.926L61.0403 153.337Z" fill="url(#paint15_linear)"/>
<path opacity="0.5" d="M121.297 172.707C121.297 172.707 127.962 183.117 126.972 189.245L134.892 191.529L121.297 172.707Z" fill="url(#paint16_linear)"/>
<path d="M152.623 24.3512C148.619 34.6513 146.551 41.1739 145.077 51.6497L172.246 61.0274C177.328 52.8796 180.276 46.0934 183.202 34.9148C172.312 30.0833 164.986 27.4918 152.623 24.3512Z" fill="url(#paint17_linear)"/>
<path d="M145.077 51.6497L147.365 54.0655L170.134 61.9278L172.246 61.0054L145.077 51.6497Z" fill="url(#paint18_linear)"/>
<path d="M169.122 37.8138C168.44 38.4946 167.692 39.2633 166.878 40.1418C166.064 40.9983 165.206 41.9426 164.282 42.9748C163.359 44.007 162.391 45.1051 161.401 46.2691C160.389 47.4331 159.355 48.6629 158.277 49.9587C158.035 49.8049 157.815 49.6732 157.595 49.5414C157.397 49.4316 157.199 49.3218 156.979 49.212C156.759 49.1022 156.561 49.0143 156.385 48.9704C156.979 48.4214 157.617 47.7845 158.299 47.1036C158.981 46.4228 159.663 45.6981 160.367 44.9514C161.071 44.2047 161.753 43.458 162.435 42.6893C163.117 41.9207 163.755 41.1959 164.37 40.4712C164.986 39.7464 165.536 39.0876 166.042 38.4727C166.548 37.8577 166.966 37.3087 167.296 36.8255L169.122 37.8138ZM164.062 39.2194C163.821 39.9002 163.557 40.4492 163.249 40.8885C162.941 41.3277 162.611 41.6571 162.281 41.8987C161.929 42.1403 161.577 42.2721 161.225 42.316C160.851 42.3599 160.499 42.316 160.147 42.2062C159.795 42.0964 159.487 41.8987 159.223 41.6352C158.959 41.3716 158.761 41.0422 158.651 40.6469C158.519 40.2516 158.475 39.7904 158.519 39.2413C158.541 38.7142 158.695 38.0993 158.915 37.4185C159.157 36.7157 159.443 36.1228 159.751 35.6835C160.059 35.2443 160.389 34.9149 160.719 34.6952C161.049 34.4756 161.401 34.3439 161.775 34.3219C162.127 34.2999 162.501 34.3439 162.831 34.4756C163.183 34.5854 163.491 34.7831 163.754 35.0247C164.018 35.2662 164.216 35.5957 164.326 35.991C164.458 36.3863 164.502 36.8475 164.458 37.3746C164.436 37.9456 164.304 38.5386 164.062 39.2194ZM162.325 38.6264C162.655 37.6601 162.809 36.9353 162.809 36.4522C162.787 35.969 162.677 35.6835 162.435 35.6176C162.303 35.5737 162.171 35.5737 162.039 35.6396C161.907 35.7055 161.753 35.8153 161.621 36.0129C161.467 36.2106 161.313 36.4741 161.159 36.8036C161.005 37.133 160.829 37.5503 160.653 38.0554C160.323 39.0217 160.169 39.7464 160.169 40.2516C160.169 40.7567 160.301 41.0422 160.543 41.1081C160.785 41.1959 161.071 41.0422 161.379 40.6469C161.687 40.2516 161.995 39.5708 162.325 38.6264ZM166.658 49.4975C166.416 50.1783 166.152 50.7273 165.844 51.1666C165.536 51.6058 165.206 51.9572 164.876 52.1768C164.546 52.4184 164.172 52.5502 163.821 52.5941C163.447 52.638 163.095 52.5941 162.743 52.4843C162.391 52.3745 162.083 52.1768 161.819 51.9133C161.555 51.6497 161.357 51.3203 161.225 50.947C161.093 50.5516 161.049 50.0904 161.093 49.5634C161.115 49.0363 161.269 48.4214 161.489 47.7405C161.731 47.0378 162.017 46.4668 162.325 46.0275C162.633 45.5883 162.963 45.2589 163.293 45.0392C163.623 44.8196 163.974 44.6878 164.348 44.6659C164.7 44.6439 165.074 44.6878 165.426 44.7977C165.778 44.9075 166.086 45.1051 166.35 45.3687C166.614 45.6322 166.812 45.9397 166.944 46.335C167.076 46.7303 167.12 47.1915 167.076 47.7186C167.032 48.2237 166.9 48.8167 166.658 49.4975ZM164.92 48.9045C165.25 47.9602 165.404 47.2354 165.404 46.7523C165.404 46.2691 165.272 45.9836 165.03 45.8957C164.898 45.8518 164.766 45.8518 164.634 45.9177C164.502 45.9836 164.348 46.0934 164.216 46.2911C164.062 46.4887 163.908 46.7303 163.754 47.0597C163.601 47.3891 163.425 47.8064 163.249 48.3115C162.919 49.2779 162.743 50.0026 162.765 50.5077C162.787 50.9909 162.897 51.2764 163.139 51.3642C163.381 51.4521 163.645 51.2983 163.952 50.925C164.26 50.5297 164.59 49.8708 164.92 48.9045Z" fill="white"/>
<path d="M58.6863 15.2195C59.7643 26.2004 60.8643 32.9646 64.2962 42.9792L92.7854 39.1139C93.6213 29.5606 93.2033 22.1594 90.7614 10.8711C78.8598 11.4641 71.16 12.4523 58.6863 15.2195Z" fill="url(#paint19_linear)"/>
<path d="M64.2962 42.9792L67.4421 44.1212L91.3114 40.8709L92.7634 39.114L64.2962 42.9792Z" fill="url(#paint20_linear)"/>
<path d="M75.6478 23.3674C75.7358 24.0701 75.7578 24.6851 75.6918 25.2121C75.6258 25.7392 75.4718 26.1785 75.2738 26.5518C75.0758 26.9252 74.8339 27.2107 74.5259 27.4083C74.2179 27.606 73.8879 27.7377 73.5139 27.7817C73.1399 27.8256 72.7879 27.8036 72.4359 27.6938C72.0839 27.584 71.7539 27.3864 71.4679 27.0789C71.182 26.7714 70.918 26.3761 70.72 25.893C70.5 25.4098 70.346 24.7949 70.258 24.0921C70.148 23.3454 70.148 22.7085 70.214 22.1814C70.28 21.6543 70.434 21.2151 70.632 20.8637C70.83 20.5123 71.094 20.2488 71.402 20.0511C71.7099 19.8754 72.0619 19.7437 72.4139 19.6997C72.7879 19.6558 73.1399 19.6778 73.4919 19.7876C73.8439 19.8974 74.1519 20.0951 74.4379 20.3806C74.7239 20.6661 74.9879 21.0614 75.1858 21.5445C75.3838 22.0496 75.5378 22.6646 75.6478 23.3674ZM73.8219 23.6089C73.6899 22.5987 73.4919 21.874 73.2719 21.4567C73.0519 21.0394 72.8099 20.8418 72.5679 20.8637C72.4359 20.8857 72.3259 20.9516 72.2379 21.0614C72.1499 21.1712 72.0619 21.3469 72.0179 21.5885C71.9739 21.83 71.9519 22.1375 71.9519 22.4889C71.9519 22.8622 71.9959 23.3015 72.0619 23.8505C72.1939 24.8608 72.3919 25.5855 72.6119 26.0247C72.8539 26.464 73.0959 26.6616 73.3379 26.6397C73.5799 26.5957 73.7779 26.3542 73.8659 25.849C73.9759 25.3659 73.9539 24.6192 73.8219 23.6089ZM79.5197 19.8315C79.2117 20.7539 78.9037 21.7861 78.5737 22.9281C78.2438 24.0701 77.8918 25.3 77.5398 26.6397C77.1878 27.9574 76.8138 29.3849 76.4398 30.8783C76.0658 32.3717 75.6918 33.9529 75.3398 35.5781C75.0538 35.5561 74.7899 35.5342 74.5259 35.5122C74.3059 35.4903 74.0639 35.4903 73.8219 35.4903C73.5799 35.4903 73.3599 35.5122 73.1839 35.5342C73.4699 34.7655 73.7559 33.931 74.0639 33.0086C74.3499 32.0862 74.6579 31.1418 74.9439 30.1535C75.2298 29.1653 75.5158 28.1989 75.7798 27.2107C76.0438 26.2224 76.2858 25.278 76.5058 24.3556C76.7258 23.4552 76.9238 22.5987 77.0778 21.83C77.2318 21.0394 77.3638 20.3806 77.4518 19.8095L79.5197 19.8315ZM82.5996 31.3834C82.6876 32.0862 82.7096 32.7011 82.6436 33.2502C82.5776 33.7772 82.4236 34.2384 82.2256 34.5898C82.0277 34.9632 81.7637 35.2267 81.4557 35.4463C81.1477 35.644 80.8177 35.7758 80.4437 35.8197C80.0697 35.8636 79.7177 35.8416 79.3657 35.7318C79.0137 35.622 78.6837 35.4244 78.3978 35.1169C78.1118 34.8314 77.8478 34.4361 77.6498 33.931C77.4298 33.4478 77.2758 32.8329 77.1878 32.1301C77.0778 31.3834 77.0778 30.7465 77.1438 30.2194C77.2098 29.6923 77.3638 29.2531 77.5618 28.9017C77.7598 28.5503 78.0238 28.2868 78.3318 28.0891C78.6397 27.8915 78.9917 27.7817 79.3437 27.7377C79.7177 27.6938 80.0697 27.7158 80.4217 27.8256C80.7737 27.9354 81.1037 28.1331 81.3897 28.4186C81.6757 28.7041 81.9177 29.0994 82.1376 29.5825C82.3576 30.0657 82.5116 30.6587 82.5996 31.3834ZM80.7737 31.625C80.6417 30.6367 80.4657 29.912 80.2237 29.4727C80.0037 29.0555 79.7617 28.8358 79.4977 28.8798C79.3657 28.9017 79.2557 28.9676 79.1677 29.0774C79.0797 29.1872 78.9917 29.3629 78.9477 29.6045C78.9037 29.8461 78.8817 30.1535 78.8817 30.5049C78.8817 30.8783 78.9257 31.3175 78.9917 31.8446C79.1237 32.8548 79.3217 33.5796 79.5417 34.0188C79.7837 34.4581 80.0037 34.6557 80.2677 34.6118C80.5097 34.5679 80.7077 34.3263 80.7957 33.8431C80.9277 33.3819 80.9057 32.6352 80.7737 31.625Z" fill="white"/>
<path d="M159 117.918L166.876 111L168.592 114.163L161.838 118.906L159 117.918Z" fill="#9A7DF8"/>
<path d="M62.9102 59.8898L65.4182 56.9908L60.6883 50.3803L56.1564 51.8079L62.9102 59.8898Z" fill="#4F31E0"/>
<path d="M122.76 29.5034L129.096 27.3951L130.636 30.1842L122.826 31.2164L122.76 29.5034Z" fill="#FF1D9C"/>
<path d="M157.426 75.5793L172.804 73.0536L172.298 78.9833H157.25L157.426 75.5793Z" fill="#6877FF"/>
<path opacity="0.5" d="M67.9481 49.0626L86.7355 46.2955L86.9115 41.4639L68.432 43.9895L67.9481 49.0626Z" fill="#B975B6"/>
</g>
<defs>
<linearGradient id="paint0_linear" x1="0.014068" y1="111.933" x2="103.011" y2="111.933" gradientUnits="userSpaceOnUse">
<stop offset="0.1349" stop-color="white"/>
<stop offset="1" stop-color="#BF7CFF"/>
</linearGradient>
<linearGradient id="paint1_linear" x1="21.153" y1="178.233" x2="142.354" y2="124.179" gradientUnits="userSpaceOnUse">
<stop offset="0.1349" stop-color="white"/>
<stop offset="1" stop-color="#F468A9"/>
</linearGradient>
<linearGradient id="paint2_linear" x1="94.9287" y1="151.275" x2="122.957" y2="69.9974" gradientUnits="userSpaceOnUse">
<stop stop-color="#BA0065"/>
<stop offset="1" stop-color="#63004A"/>
</linearGradient>
<linearGradient id="paint3_linear" x1="95.8018" y1="99.2292" x2="103.632" y2="35.1503" gradientUnits="userSpaceOnUse">
<stop stop-color="#D1BBFF"/>
<stop offset="1" stop-color="#DACFFF"/>
</linearGradient>
<linearGradient id="paint4_linear" x1="96.2563" y1="95.3696" x2="103.142" y2="39.0212" gradientUnits="userSpaceOnUse">
<stop stop-color="#D1BBFF"/>
<stop offset="1" stop-color="white"/>
</linearGradient>
<linearGradient id="paint5_linear" x1="96.754" y1="95.4304" x2="101.04" y2="60.3528" gradientUnits="userSpaceOnUse">
<stop stop-color="#E1BDFF"/>
<stop offset="1" stop-color="#B17FFF"/>
</linearGradient>
<linearGradient id="paint6_linear" x1="95.6193" y1="95.1499" x2="98.755" y2="69.4886" gradientUnits="userSpaceOnUse">
<stop stop-color="#CF95FF"/>
<stop offset="1" stop-color="#9552FF"/>
</linearGradient>
<linearGradient id="paint7_linear" x1="122.194" y1="55.6388" x2="124.031" y2="40.6035" gradientUnits="userSpaceOnUse">
<stop stop-color="#D1BBFF"/>
<stop offset="1" stop-color="#DACFFF"/>
</linearGradient>
<linearGradient id="paint8_linear" x1="94.8857" y1="155.621" x2="119.203" y2="85.1021" gradientUnits="userSpaceOnUse">
<stop stop-color="#D1BBFF"/>
<stop offset="1" stop-color="#DACFFF"/>
</linearGradient>
<linearGradient id="paint9_linear" x1="96.3338" y1="151.37" x2="117.718" y2="89.3588" gradientUnits="userSpaceOnUse">
<stop stop-color="#744FD8"/>
<stop offset="1" stop-color="#3996F7"/>
</linearGradient>
<linearGradient id="paint10_linear" x1="96.8812" y1="151.559" x2="110.193" y2="112.956" gradientUnits="userSpaceOnUse">
<stop stop-color="#CC8BA1"/>
<stop offset="1" stop-color="#C4C9FF"/>
</linearGradient>
<linearGradient id="paint11_linear" x1="95.667" y1="150.968" x2="105.405" y2="122.728" gradientUnits="userSpaceOnUse">
<stop stop-color="#1C257B"/>
<stop offset="1" stop-color="#6A2C9A"/>
</linearGradient>
<linearGradient id="paint12_linear" x1="135.257" y1="112.744" x2="140.963" y2="96.198" gradientUnits="userSpaceOnUse">
<stop stop-color="#D1BBFF"/>
<stop offset="1" stop-color="#DACFFF"/>
</linearGradient>
<linearGradient id="paint13_linear" x1="86.0985" y1="176.699" x2="106.187" y2="118.444" gradientUnits="userSpaceOnUse">
<stop stop-color="#B31A8F"/>
<stop offset="0.00896716" stop-color="#B51A8F"/>
<stop offset="0.1486" stop-color="#D01789"/>
<stop offset="0.3008" stop-color="#E41484"/>
<stop offset="0.4721" stop-color="#F31281"/>
<stop offset="0.6764" stop-color="#FB117F"/>
<stop offset="1" stop-color="#FE117E"/>
</linearGradient>
<linearGradient id="paint14_linear" x1="87.7317" y1="176.286" x2="96.2051" y2="151.714" gradientUnits="userSpaceOnUse">
<stop/>
<stop offset="1" stop-color="#C14547"/>
</linearGradient>
<linearGradient id="paint15_linear" x1="47.6942" y1="163.221" x2="52.1594" y2="150.272" gradientUnits="userSpaceOnUse">
<stop stop-color="#CC8BA1"/>
<stop offset="1" stop-color="white"/>
</linearGradient>
<linearGradient id="paint16_linear" x1="125.779" y1="188.836" x2="130.272" y2="175.807" gradientUnits="userSpaceOnUse">
<stop stop-color="#CC8BA1"/>
<stop offset="1" stop-color="white"/>
</linearGradient>
<linearGradient id="paint17_linear" x1="158.772" y1="56.3681" x2="168.238" y2="28.917" gradientUnits="userSpaceOnUse">
<stop stop-color="#744FD8"/>
<stop offset="1" stop-color="#3996F7"/>
</linearGradient>
<linearGradient id="paint18_linear" x1="158.152" y1="57.7935" x2="158.658" y2="56.3277" gradientUnits="userSpaceOnUse">
<stop stop-color="#1C257B"/>
<stop offset="1" stop-color="#482C83"/>
</linearGradient>
<linearGradient id="paint19_linear" x1="78.6506" y1="41.0273" x2="74.7346" y2="12.2594" gradientUnits="userSpaceOnUse">
<stop stop-color="#B31A8F"/>
<stop offset="0.00896716" stop-color="#B51A8F"/>
<stop offset="0.1486" stop-color="#D01789"/>
<stop offset="0.3008" stop-color="#E41484"/>
<stop offset="0.4721" stop-color="#F31281"/>
<stop offset="0.6764" stop-color="#FB117F"/>
<stop offset="1" stop-color="#FE117E"/>
</linearGradient>
<linearGradient id="paint20_linear" x1="66.4011" y1="36.8866" x2="90.6378" y2="45.2729" gradientUnits="userSpaceOnUse">
<stop stop-color="#BA0065"/>
<stop offset="1" stop-color="#63004A"/>
</linearGradient>
<clipPath id="clip0">
<rect width="208.972" height="208" fill="white" transform="translate(0.0140381)"/>
</clipPath>
</defs>
</svg>
