<svg width="49" height="47" viewBox="0 0 49 47" fill="white" xmlns="http://www.w3.org/2000/svg">
<path d="M6.4783 45.8072C6.86429 45.2287 7.25028 44.6888 7.63627 44.1103C8.79424 42.3749 9.64342 40.4853 10.1066 38.4414C10.261 37.8243 10.1452 37.4001 9.56622 37.0145C5.74492 34.2764 2.92718 30.767 1.69201 26.2164C0.0322531 19.969 1.38322 14.3386 5.47472 9.40233C9.02584 5.16024 13.6963 2.65355 19.0616 1.57375C25.469 0.301119 31.6449 1.11097 37.3575 4.35039C41.9894 6.97277 45.4248 10.675 47.0459 15.804C49.0531 22.09 47.8565 27.8747 43.8036 33.0038C40.0981 37.6701 35.1188 40.2925 29.2903 41.3723C25.8936 41.9893 22.4969 41.9507 19.1388 41.218C18.7528 41.1409 18.4826 41.218 18.2124 41.488C16.1281 43.6476 13.6191 45.113 10.647 45.6144C9.29603 45.8457 7.90646 45.8843 6.5169 46C6.5169 45.9229 6.4783 45.8843 6.4783 45.8072Z" stroke="black" stroke-width="1.5" stroke-miterlimit="10"/>
</svg>
