<svg width="15" height="13" viewBox="0 0 15 13" fill="none" xmlns="http://www.w3.org/2000/svg">
<path d="M12.6952 1.93947C12.3917 1.6181 12.0313 1.36317 11.6347 1.18924C11.2381 1.0153 10.8129 0.925781 10.3836 0.925781C9.95428 0.925781 9.52915 1.0153 9.13251 1.18924C8.73588 1.36317 8.37551 1.6181 8.07199 1.93947L7.44209 2.60611L6.81219 1.93947C6.19911 1.29063 5.3676 0.926118 4.50057 0.926118C3.63354 0.926118 2.80203 1.29063 2.18895 1.93947C1.57587 2.58831 1.23145 3.46832 1.23145 4.38591C1.23145 5.30351 1.57587 6.18352 2.18895 6.83236L2.81885 7.499L7.44209 12.3919L12.0653 7.499L12.6952 6.83236C12.9989 6.51114 13.2398 6.12975 13.4041 5.70998C13.5685 5.29021 13.6531 4.84029 13.6531 4.38591C13.6531 3.93153 13.5685 3.48161 13.4041 3.06184C13.2398 2.64207 12.9989 2.26069 12.6952 1.93947V1.93947Z" stroke="#C9C9C9" stroke-linecap="round" stroke-linejoin="round"/>
</svg>
