<svg width="17" height="17" viewBox="0 0 17 17" fill="none" xmlns="http://www.w3.org/2000/svg">
<path d="M14.6068 0.215001L0.79537 8.18051C-0.346729 8.84126 -0.237168 10.5313 0.984613 11.0327L4.77944 12.6032V15.4056C4.77944 16.9462 6.74491 17.5804 7.65461 16.3552L9.10879 14.3929L12.8239 15.9269C13.0198 16.0066 13.2257 16.0464 13.4315 16.0464C13.7037 16.0464 13.9727 15.9767 14.215 15.8405C14.64 15.6015 14.9322 15.1765 15.0085 14.695L16.9806 1.83865C17.1832 0.507191 15.7555 -0.445748 14.6068 0.215001ZM6.37306 15.4056V13.2606L7.58821 13.762L6.37306 15.4056ZM13.4315 14.4526L8.32526 12.3442L12.98 5.62716C13.3352 5.11251 12.6646 4.51485 12.1931 4.92325L5.1712 11.0426L1.59218 9.56177L15.4036 1.59294L13.4315 14.4526Z" fill="white"/>
</svg>
