<svg width="29" height="26" viewBox="0 0 29 26" fill="none" xmlns="http://www.w3.org/2000/svg">
<path d="M4.33752 10.38L1.94751 0L28.2175 7.98L8.43752 24.95L5.26752 12.83L26.8075 8.18L4.33752 10.38Z" fill="#FB177D"/>
<path d="M6.3075 16.6502L0.4375 17.4002L4.3375 10.3802L27.5375 7.99023L5.2675 12.8302L6.3075 16.6502Z" fill="#FB177D"/>
<path d="M0.347385 17.6994C0.0073846 17.5694 -0.0524299 17.3594 0.0375701 17.1894L3.82761 10.1894C4.09761 10.0094 28.1875 7.60938 28.1875 7.60938C28.2714 7.61431 28.3506 7.64927 28.4109 7.70786C28.4711 7.76644 28.5083 7.84475 28.5156 7.92847C28.5229 8.01218 28.4999 8.09572 28.4507 8.16382C28.4014 8.23192 28.3293 8.28004 28.2475 8.29938L4.34738 10.6694L0.647433 17.4894C0.623752 17.5501 0.582658 17.6024 0.529269 17.6398C0.47588 17.6772 0.412538 17.6979 0.347385 17.6994Z" fill="#1A1A1A"/>
<path d="M0.437482 17.7512C0.0674825 17.4112 0.097502 17.2511 0.207502 17.1511L5.08763 12.5511C5.15704 12.5028 5.24156 12.4812 5.32567 12.4903C5.40977 12.4995 5.48757 12.5389 5.5449 12.6011C5.60224 12.6633 5.63513 12.7442 5.63743 12.8288C5.63973 12.9134 5.61147 12.9959 5.5576 13.0612L1.44749 16.9311L6.26756 16.3112C6.35377 16.3094 6.43753 16.3395 6.50291 16.3957C6.5683 16.4519 6.61066 16.5303 6.62181 16.6158C6.63296 16.7013 6.61223 16.7879 6.56346 16.859C6.51468 16.9301 6.44119 16.9808 6.3574 17.0012L0.487531 17.7512H0.437482Z" fill="#1A1A1A"/>
<path d="M4.33765 10.7297C4.25886 10.7295 4.18231 10.7028 4.12061 10.6538C4.0589 10.6048 4.01557 10.5364 3.99756 10.4597L1.61743 0.0797092C2.04743 -0.330291 28.5176 7.65973 28.5176 7.65973C28.594 7.6823 28.6604 7.73028 28.7058 7.79574C28.7513 7.8612 28.7731 7.94021 28.7676 8.01971C28.7608 8.09965 28.7259 8.17462 28.6692 8.23135C28.6125 8.28808 28.5375 8.32292 28.4575 8.32971L4.36743 10.7197L4.33765 10.7297ZM2.41748 0.509702L4.60742 10.0097L26.6575 7.8197L2.41748 0.509702Z" fill="#1A1A1A"/>
<path d="M8.4375 25.2996C8.1075 25.0396 4.98755 12.8896 4.98755 12.8896C5.25755 12.4696 28.3474 7.64957 28.3474 7.64957C28.4227 7.63684 28.5003 7.64838 28.5686 7.68253C28.6369 7.71669 28.6925 7.77169 28.7275 7.83957C28.7617 7.90707 28.7723 7.98403 28.7578 8.05829C28.7433 8.13256 28.7045 8.19988 28.6475 8.24958L8.64746 25.2495C8.58448 25.2879 8.51102 25.3055 8.4375 25.2996ZM5.71753 13.0696L8.60742 24.3296L27.1375 8.59958L5.71753 13.0696Z" fill="#1A1A1A"/>
</svg>
