<svg width="283" height="283" viewBox="0 0 283 283" fill="none" xmlns="http://www.w3.org/2000/svg">
<path d="M139.737 51.4124C139.973 50.6673 141.027 50.6674 141.263 51.4124L160.642 112.703C160.747 113.035 161.056 113.261 161.405 113.261H224.162C224.932 113.261 225.257 114.242 224.641 114.702L173.832 152.637C173.559 152.841 173.445 153.195 173.547 153.519L192.946 214.87C193.18 215.611 192.327 216.218 191.704 215.753L140.979 177.88C140.695 177.668 140.305 177.668 140.021 177.88L89.2956 215.753C88.6729 216.218 87.8199 215.611 88.0542 214.87L107.453 153.519C107.555 153.195 107.441 152.841 107.168 152.637L56.3595 114.702C55.7427 114.242 56.0684 113.261 56.8381 113.261H119.595C119.944 113.261 120.253 113.035 120.358 112.703L139.737 51.4124Z" fill="#FB177D"/>
<path d="M123.219 113.607L140.5 58.9511L157.781 113.607C158.281 115.187 159.747 116.261 161.405 116.261H217.538L172.037 150.233C170.741 151.201 170.2 152.882 170.687 154.424L188.026 209.263L142.773 175.476C141.425 174.47 139.575 174.47 138.227 175.476L92.9737 209.263L110.313 154.424C110.8 152.882 110.259 151.201 108.963 150.233L63.4621 116.261H119.595C121.253 116.261 122.719 115.187 123.219 113.607Z" stroke="#FF647C" stroke-opacity="0.08" stroke-width="6"/>
<g filter="url(#filter0_d)">
<path d="M113.033 97.3192L141.5 9.70819L169.967 97.3192L172.82 96.3921L169.967 97.3192C170.636 99.3793 172.556 100.774 174.722 100.774H266.841L192.315 154.921C190.563 156.194 189.829 158.451 190.499 160.511L218.965 248.122L144.439 193.975C142.686 192.702 140.314 192.702 138.561 193.975L64.0347 248.122L92.5013 160.511C93.1706 158.451 92.4374 156.194 90.6849 154.921L16.1585 100.774H108.278C110.444 100.774 112.364 99.3793 113.033 97.3192ZM219.916 251.049C219.916 251.048 219.916 251.047 219.915 251.046L219.916 251.049ZM61.5448 249.931C61.5457 249.93 61.5465 249.93 61.5474 249.929L61.5448 249.931Z" stroke="#FB177D" stroke-width="6" shape-rendering="crispEdges"/>
</g>
<g filter="url(#filter1_d)">
<path d="M140.549 6.16313C140.848 5.2418 142.152 5.24182 142.451 6.16312L171.869 96.7011C172.27 97.9372 173.422 98.7741 174.722 98.7741H269.919C270.888 98.7741 271.291 100.014 270.507 100.583L193.491 156.539C192.439 157.303 191.999 158.657 192.401 159.893L221.818 250.431C222.118 251.352 221.063 252.118 220.28 251.549L143.263 195.593C142.212 194.829 140.788 194.829 139.737 195.593L62.7204 251.549C61.9367 252.118 60.8822 251.352 61.1816 250.431L90.5991 159.893C91.0008 158.657 90.5608 157.303 89.5093 156.539L12.4931 100.583C11.7094 100.014 12.1122 98.7741 13.0809 98.7741H108.278C109.578 98.7741 110.73 97.9372 111.131 96.7011L140.549 6.16313Z" stroke="white" stroke-width="2" shape-rendering="crispEdges"/>
</g>
<defs>
<filter id="filter0_d" x="7.07703" y="4.47266" width="268.846" height="256.277" filterUnits="userSpaceOnUse" color-interpolation-filters="sRGB">
<feFlood flood-opacity="0" result="BackgroundImageFix"/>
<feColorMatrix in="SourceAlpha" type="matrix" values="0 0 0 0 0 0 0 0 0 0 0 0 0 0 0 0 0 0 127 0" result="hardAlpha"/>
<feOffset dy="4"/>
<feGaussianBlur stdDeviation="2"/>
<feComposite in2="hardAlpha" operator="out"/>
<feColorMatrix type="matrix" values="0 0 0 0 0 0 0 0 0 0 0 0 0 0 0 0 0 0 0.25 0"/>
<feBlend mode="normal" in2="BackgroundImageFix" result="effect1_dropShadow"/>
<feBlend mode="normal" in="SourceGraphic" in2="effect1_dropShadow" result="shape"/>
</filter>
<filter id="filter1_d" x="7.07703" y="4.47266" width="268.846" height="256.277" filterUnits="userSpaceOnUse" color-interpolation-filters="sRGB">
<feFlood flood-opacity="0" result="BackgroundImageFix"/>
<feColorMatrix in="SourceAlpha" type="matrix" values="0 0 0 0 0 0 0 0 0 0 0 0 0 0 0 0 0 0 127 0" result="hardAlpha"/>
<feOffset dy="4"/>
<feGaussianBlur stdDeviation="2"/>
<feComposite in2="hardAlpha" operator="out"/>
<feColorMatrix type="matrix" values="0 0 0 0 0 0 0 0 0 0 0 0 0 0 0 0 0 0 0.25 0"/>
<feBlend mode="normal" in2="BackgroundImageFix" result="effect1_dropShadow"/>
<feBlend mode="normal" in="SourceGraphic" in2="effect1_dropShadow" result="shape"/>
</filter>
</defs>
</svg>
