<?xml version="1.0"?>
<svg xmlns="http://www.w3.org/2000/svg" xmlns:xlink="http://www.w3.org/1999/xlink" version="1.1" id="Layer_1" x="0px" y="0px" viewBox="0 0 512 512" style="enable-background:new 0 0 512 512;" xml:space="preserve" width="512px" height="512px" class=""><g><polygon style="fill:#FFFFFF;" points="80.574,495.12 319.697,495.12 319.697,79.254 7.797,79.254 7.797,422.343 " data-original="#FFFFFF" class=""/><polyline style="fill:#000000" points="7.797,422.343 80.574,422.343 80.574,495.12 " data-original="#FDC35C" class="" data-old_color="#FDC35C"/><rect x="377.359" y="236.923" transform="matrix(-0.9063 0.4226 -0.4226 -0.9063 857.4443 346.1396)" style="fill:#FFFFFF;" width="25.991" height="62.379" data-original="#FFFFFF" class=""/><rect x="418.588" y="287.863" transform="matrix(-0.9063 0.4226 -0.4226 -0.9063 1002.6486 535.3887)" style="fill:#FF5293" width="46.784" height="181.938" data-original="#FF5252" class="active-path" data-old_color="#FF5252"/><rect x="458.256" y="423.751" transform="matrix(0.4226 0.9063 -0.9063 0.4226 678.8503 -171.2795)" style="fill:#FFFFFF;" width="31.189" height="46.784" data-original="#FFFFFF" class=""/><circle style="fill:#FF5293" cx="327.754" cy="133.837" r="116.962" data-original="#00DDC2" class="" data-old_color="#00DDC2"/><circle style="fill:#FFFFFF;" cx="327.754" cy="133.837" r="77.975" data-original="#FFFFFF" class=""/><circle style="fill:#FF5293" cx="327.754" cy="120.841" r="38.987" data-original="#43B5EC" class="" data-old_color="#43B5EC"/><circle style="fill:#FFFFFF;" cx="327.754" cy="120.841" r="15.595" data-original="#FFFFFF" class=""/><rect x="38.987" y="154.63" width="154.536" height="15.595" data-original="#000000" class=""/><rect x="38.987" y="217.01" width="184.02" height="15.595" data-original="#000000" class=""/><rect x="38.987" y="248.2" width="218.329" height="15.595" data-original="#000000" class=""/><rect x="38.987" y="279.389" width="249.519" height="15.595" data-original="#000000" class=""/><rect x="38.987" y="310.579" width="249.519" height="15.595" data-original="#000000" class=""/><rect x="38.987" y="341.769" width="249.519" height="15.595" data-original="#000000" class=""/><rect x="38.987" y="372.959" width="197.536" height="15.595" data-original="#000000" class=""/><rect x="163.747" y="435.339" width="124.76" height="15.595" data-original="#000000" class=""/><path d="M428.518,276.128l-9.423,4.394l-20.508-43.981c49.211-33.903,68.315-99.502,42.236-155.43V81.11  c-29.073-62.347-103.45-89.418-165.796-60.344c-41.925,19.551-67.897,59.586-71.575,102.674H90.971v15.595h112.135  c0.635,15.745,4.283,31.612,11.241,46.785H38.987v15.595H222.89c20.311,31.563,53.336,51.49,89.009,56.12v229.787H83.803  l-68.208-68.208V87.052h187.909V71.457H0v354.116l77.345,77.345h250.149V258.582c0.15,0.001,0.299,0.008,0.449,0.008  c10.974,0,22.053-1.457,32.956-4.466l15.013,32.195l14.134-6.59l-14.33-30.731c1.594-0.664,3.182-1.353,4.762-2.089  c1.578-0.736,3.128-1.509,4.662-2.302l19.821,42.507l-32.979,15.378l83.483,179.029L512,455.156L428.518,276.128z M373.888,232.774  c-54.556,25.44-119.633,1.752-145.073-52.801C203.377,125.418,227.063,60.34,281.617,34.9c14.881-6.939,30.54-10.222,45.968-10.222  c41.134,0,80.604,23.35,99.104,63.023C452.128,142.256,428.441,207.336,373.888,232.774z M420.975,296.853l57.119,122.493  l-28.268,13.182l-57.119-122.493L420.975,296.853z M463.008,460.795l-6.59-14.134l28.267-13.181l6.59,14.134L463.008,460.795z" data-original="#000000" class=""/><path d="M304.359,120.841c0,12.899,10.493,23.392,23.392,23.392c12.899,0,23.392-10.493,23.392-23.392s-10.493-23.392-23.392-23.392  C314.853,97.448,304.359,107.942,304.359,120.841z M335.549,120.841c0,4.3-3.497,7.797-7.797,7.797c-4.3,0-7.797-3.497-7.797-7.797  s3.497-7.797,7.797-7.797C332.052,113.043,335.549,116.541,335.549,120.841z" data-original="#000000" class=""/><path d="M398.847,130.165c-0.256,0.479-26.057,47.857-71.095,47.857c-18.587,0-36.097-7.888-52.043-23.445  c-8.236-8.036-13.949-16.188-16.848-20.742c3.701-5.816,12.006-17.49,24.38-27.38c-1.469,4.536-2.273,9.368-2.273,14.387  c0,25.797,20.988,46.785,46.785,46.785c25.797,0,46.785-20.988,46.785-46.785c0-5.027-0.807-9.867-2.281-14.41  c2.449,1.966,4.87,4.082,7.251,6.39l10.854-11.198c-17.92-17.37-38.666-26.825-60.142-27.501c-0.817-0.043-1.639-0.066-2.466-0.066  c-54.289,0-83.632,53.819-84.854,56.11l-1.959,3.671l1.959,3.671c1.223,2.291,30.564,56.11,84.854,56.11s83.632-53.819,84.854-56.11  L398.847,130.165z M358.942,120.841c0,17.198-13.992,31.19-31.19,31.19c-17.198,0-31.19-13.992-31.19-31.19  c0-16.64,13.099-30.277,29.526-31.144c0.555-0.015,1.103-0.046,1.663-0.046c0.548,0,1.092,0.029,1.637,0.044  C345.828,90.549,358.942,104.192,358.942,120.841z" data-original="#000000" class=""/></g> </svg>
