<svg width="44" height="41" viewBox="0 0 44 41" fill="none" xmlns="http://www.w3.org/2000/svg">
<path d="M27.6953 32.5037C31.3523 32.5037 34.3276 35.479 34.3276 39.136C34.3276 39.5938 34.6988 39.9651 35.1566 39.9651C35.6144 39.9651 35.9856 39.5938 35.9856 39.136C35.9856 35.479 38.9609 32.5037 42.618 32.5037C43.0758 32.5037 43.447 32.1325 43.447 31.6747C43.447 31.2169 43.0758 30.8456 42.618 30.8456C38.9609 30.8456 35.9856 27.8704 35.9856 24.2133C35.9856 23.7555 35.6144 23.3843 35.1566 23.3843C34.6988 23.3843 34.3276 23.7555 34.3276 24.2133C34.3276 27.8704 31.3523 30.8456 27.6953 30.8456C27.2375 30.8456 26.8662 31.2169 26.8662 31.6747C26.8662 32.1325 27.2375 32.5037 27.6953 32.5037ZM35.1566 27.8255C35.9704 29.4997 37.3315 30.8608 39.0057 31.6747C37.3316 32.4885 35.9705 33.8496 35.1566 35.5238C34.3428 33.8497 32.9817 32.4885 31.3075 31.6747C32.9817 30.8609 34.3428 29.4998 35.1566 27.8255Z" fill="black" stroke="black"/>
<path d="M1.82904 7.63231C4.1147 7.63231 5.97424 9.49185 5.97424 11.7775C5.97424 12.2353 6.3454 12.6065 6.80327 12.6065C7.26115 12.6065 7.63231 12.2353 7.63231 11.7775C7.63231 9.49185 9.49185 7.63231 11.7775 7.63231C12.2354 7.63231 12.6065 7.26107 12.6065 6.80327C12.6065 6.34548 12.2354 5.97424 11.7775 5.97424C9.49185 5.97424 7.63231 4.1147 7.63231 1.82904C7.63231 1.37124 7.26115 1 6.80327 1C6.3454 1 5.97424 1.37124 5.97424 1.82904C5.97424 4.1147 4.1147 5.97424 1.82904 5.97424C1.37116 5.97424 1 6.34548 1 6.80327C1 7.26107 1.37116 7.63231 1.82904 7.63231ZM6.80327 4.81557C7.29349 5.62886 7.97769 6.31315 8.7909 6.80327C7.97761 7.2934 7.2934 7.97769 6.80327 8.79098C6.31306 7.97769 5.62886 7.2934 4.81565 6.80327C5.62886 6.31315 6.31306 5.62886 6.80327 4.81557Z" fill="black" stroke="black"/>
<path d="M24.1303 24.4618C24.5882 24.4618 24.9593 24.0906 24.9593 23.6328C24.9593 23.1749 24.5882 22.8037 24.1303 22.8037C23.6724 22.8037 23.3013 23.1749 23.3013 23.6328C23.3013 24.0906 23.6724 24.4618 24.1303 24.4618Z" fill="black"/>
<path d="M26.3417 21.7423C26.5753 22.136 27.0841 22.2658 27.4778 22.0321C29.6431 20.7472 32.1262 20.0681 34.6588 20.0681C35.1166 20.0681 35.4879 19.6968 35.4879 19.2391C35.4879 18.7813 35.1166 18.41 34.6588 18.41C26.8876 18.41 20.5652 12.0876 20.5652 4.31634C20.5652 3.85855 20.194 3.4873 19.7361 3.4873C19.2782 3.4873 18.9071 3.85855 18.9071 4.31634C18.9071 12.0876 12.5847 18.41 4.81341 18.41C4.35554 18.41 3.98438 18.7813 3.98438 19.2391C3.98438 19.6968 4.35554 20.0681 4.81341 20.0681C12.5847 20.0681 18.9071 26.3905 18.9071 34.1618C18.9071 34.6196 19.2782 34.9908 19.7361 34.9908C20.194 34.9908 20.5652 34.6196 20.5652 34.1618C20.5652 31.6291 21.2443 29.146 22.5292 26.9807C22.7628 26.5869 22.633 26.0783 22.2393 25.8447C21.8453 25.6108 21.3368 25.7408 21.1033 26.1345C20.5425 27.0794 20.0851 28.0782 19.7355 29.1133C18.1643 24.481 14.4927 20.8099 9.86019 19.2391C14.4932 17.668 18.1651 13.9961 19.7361 9.36312C21.307 13.9956 24.9781 17.6672 29.6103 19.2385C28.5753 19.588 27.5765 20.0455 26.6315 20.6062C26.2379 20.8399 26.108 21.3485 26.3417 21.7423Z" fill="black" stroke="black"/>
</svg>
