<svg width="18" height="18" viewBox="0 0 18 18" fill="none" xmlns="http://www.w3.org/2000/svg">
<path d="M5.98797 6.26886L6.51439 6.18868L6.7417 5.70715L8.93853 1.0534C8.93856 1.05333 8.9386 1.05325 8.93863 1.05318C8.94825 1.03288 8.95687 1.02174 8.96178 1.01622C8.96681 1.01058 8.97071 1.00775 8.97329 1.00616C8.97848 1.00295 8.98658 0.999962 8.99783 1C9.00924 1.00004 9.01909 1.00322 9.02646 1.00779C9.03075 1.01046 9.04552 1.01999 9.0619 1.05431C9.06199 1.05449 9.06207 1.05467 9.06216 1.05484L11.2583 5.70715L11.4856 6.18868L12.012 6.26886L16.9275 7.0176L16.9283 7.01771C16.9443 7.02014 16.9498 7.02412 16.9557 7.02956C16.9652 7.03832 16.9808 7.0583 16.9912 7.09149C17.0014 7.12457 17.0021 7.15711 16.9966 7.18261C16.9919 7.20426 16.9824 7.22495 16.9605 7.24728L16.9602 7.24756L13.404 10.8682L13.0483 11.2303L13.1306 11.7312L13.9716 16.8452C13.9716 16.8452 13.9717 16.8452 13.9717 16.8453C13.9791 16.8908 13.9719 16.918 13.9651 16.9344C13.9569 16.9542 13.9431 16.9716 13.9266 16.9839C13.91 16.9964 13.8982 16.9984 13.8962 16.9986L13.8948 16.9985C13.8946 16.9985 13.8894 16.9975 13.8789 16.9917L13.8787 16.9916L9.48137 14.5767L9 14.3123L8.51864 14.5767L4.12126 16.9916L4.11807 16.9934C4.11257 16.9964 4.10872 16.9981 4.10652 16.9989C4.10432 16.9997 4.10315 16.9999 4.10289 17C4.1028 17 4.1032 17 4.10299 17C4.10201 16.9999 4.09065 16.9983 4.07408 16.9858C4.05762 16.9734 4.04356 16.9557 4.03509 16.9354C4.02801 16.9184 4.02092 16.8907 4.02834 16.8453C4.02835 16.8452 4.02835 16.8452 4.02836 16.8452L4.86937 11.7312L4.95174 11.2303L4.59605 10.8682L1.03979 7.24756L1.03952 7.24727C1.01757 7.22495 1.00808 7.20426 1.00343 7.18261C0.997944 7.15711 0.998567 7.12457 1.00884 7.09149C1.01915 7.0583 1.03478 7.03832 1.0443 7.02956C1.05021 7.02412 1.05566 7.02014 1.07171 7.01771L1.07247 7.0176L5.98797 6.26886Z" stroke="#FFD644" stroke-width="2"/>
</svg>
