<svg width="521" height="276" viewBox="0 0 521 276" fill="none" xmlns="http://www.w3.org/2000/svg">
<rect width="521" height="276" fill="white"/>
<path d="M96.8131 186.646C96.8131 182.524 95.0491 180.256 92.0431 180.256H89.1091V193H92.0251C95.0311 193 96.8131 190.75 96.8131 186.646ZM95.1931 186.646C95.1931 189.958 93.8251 191.578 92.0251 191.578H90.7111V181.678H92.0251C93.8251 181.678 95.1931 183.28 95.1931 186.646ZM104.116 193C104.044 192.568 103.99 191.722 103.99 191.11V187.456C103.99 185.044 103.306 183.658 101.236 183.658C100.3 183.658 99.2383 184.126 98.6443 184.936L99.4183 185.89C99.8143 185.35 100.426 184.972 101.092 184.972C101.992 184.972 102.586 185.584 102.586 186.988V187.384H101.992C100.408 187.384 98.3383 187.942 98.3383 190.552C98.3383 192.496 99.5443 193.234 100.552 193.234C101.74 193.234 102.424 192.586 102.676 191.506H102.712C102.712 191.83 102.766 192.46 102.856 193H104.116ZM102.622 189.076C102.622 190.318 102.208 191.992 100.966 191.992C100.336 191.992 99.7783 191.488 99.7783 190.39C99.7783 188.878 100.876 188.554 101.956 188.554H102.622V189.076ZM114.655 192.478L113.971 191.29C113.683 191.65 113.305 191.884 112.747 191.884C111.469 191.884 110.947 190.48 110.947 188.482C110.947 186.466 111.505 185.026 112.657 185.026C113.215 185.026 113.575 185.26 113.863 185.584L114.637 184.432C114.259 184.054 113.593 183.658 112.639 183.658C110.497 183.658 109.363 185.62 109.363 188.482C109.363 191.344 110.443 193.306 112.621 193.306C113.485 193.306 114.169 193.018 114.655 192.478ZM117.602 193V179.392H116.054V193H117.602ZM121.966 181.282C121.966 180.706 121.552 180.256 121.012 180.256C120.472 180.256 120.058 180.706 120.058 181.282C120.058 181.876 120.472 182.308 121.012 182.308C121.534 182.308 121.966 181.876 121.966 181.282ZM121.768 193V183.964H120.238V193H121.768ZM129.209 192.478L128.525 191.29C128.237 191.65 127.859 191.884 127.301 191.884C126.023 191.884 125.501 190.48 125.501 188.482C125.501 186.466 126.059 185.026 127.211 185.026C127.769 185.026 128.129 185.26 128.417 185.584L129.191 184.432C128.813 184.054 128.147 183.658 127.193 183.658C125.051 183.658 123.917 185.62 123.917 188.482C123.917 191.344 124.997 193.306 127.175 193.306C128.039 193.306 128.723 193.018 129.209 192.478ZM78.6265 210.878V210.14C78.6265 207.638 77.7985 205.658 75.5845 205.658C73.6045 205.658 72.2905 207.638 72.2905 210.5C72.2905 213.506 73.5505 215.306 75.6025 215.306C76.9885 215.306 77.8885 214.478 78.3565 213.326L77.2045 212.66C76.9165 213.344 76.4665 213.938 75.6565 213.938C74.4505 213.938 73.8565 212.588 73.8385 210.878H78.6265ZM77.0785 209.636H73.8745C73.8745 208.664 74.3245 206.99 75.5485 206.99C76.5925 206.99 77.0785 208.07 77.0785 209.636ZM86.8426 215V209.24C86.8426 207.458 86.4826 205.658 84.5386 205.658C83.4226 205.658 82.6126 206.486 82.2706 207.53H82.2346C82.2346 207.242 82.1986 206.558 82.1266 205.964H80.6686C80.7226 206.63 80.7406 207.53 80.7406 208.25V215H82.2706V209.816C82.2706 208.196 82.9906 207.026 84.0166 207.026C85.1506 207.026 85.2946 208.214 85.2946 209.24V215H86.8426ZM98.6655 210.878V210.14C98.6655 207.638 97.8375 205.658 95.6235 205.658C93.6435 205.658 92.3295 207.638 92.3295 210.5C92.3295 213.506 93.5895 215.306 95.6415 215.306C97.0275 215.306 97.9275 214.478 98.3955 213.326L97.2435 212.66C96.9555 213.344 96.5055 213.938 95.6955 213.938C94.4895 213.938 93.8955 212.588 93.8775 210.878H98.6655ZM97.1175 209.636H93.9135C93.9135 208.664 94.3635 206.99 95.5875 206.99C96.6315 206.99 97.1175 208.07 97.1175 209.636ZM102.292 215V201.392H100.744V215H102.292ZM108.355 215H109.849V213.578H109.885C110.173 214.55 110.749 215.306 111.991 215.306C113.827 215.306 114.871 213.236 114.871 210.428C114.871 207.638 113.881 205.658 111.991 205.658C110.947 205.658 110.191 206.324 109.921 207.26H109.885V201.392H108.355V215ZM109.849 210.482C109.849 208.52 110.443 206.99 111.595 206.99C112.783 206.99 113.287 208.52 113.287 210.482C113.287 212.426 112.783 213.956 111.595 213.956C110.425 213.956 109.849 212.426 109.849 210.482ZM123.069 210.5C123.069 207.602 121.827 205.658 119.775 205.658C117.705 205.658 116.499 207.602 116.499 210.5C116.499 213.362 117.741 215.306 119.775 215.306C121.827 215.306 123.069 213.362 123.069 210.5ZM121.485 210.482C121.485 212.444 120.963 213.956 119.775 213.956C118.605 213.956 118.083 212.444 118.083 210.482C118.083 208.502 118.605 206.99 119.775 206.99C120.945 206.99 121.485 208.502 121.485 210.482ZM128.417 214.982L128.381 213.758C128.219 213.83 127.949 213.902 127.733 213.902C127.103 213.902 126.797 213.452 126.797 212.408V207.206H128.399V205.964H126.797V203.552H125.303V205.964H124.169V207.206H125.321V212.714C125.321 214.28 125.861 215.234 127.247 215.234C127.679 215.234 128.147 215.126 128.417 214.982ZM136.007 210.5C136.007 207.602 134.765 205.658 132.713 205.658C130.643 205.658 129.437 207.602 129.437 210.5C129.437 213.362 130.679 215.306 132.713 215.306C134.765 215.306 136.007 213.362 136.007 210.5ZM134.423 210.482C134.423 212.444 133.901 213.956 132.713 213.956C131.543 213.956 131.021 212.444 131.021 210.482C131.021 208.502 131.543 206.99 132.713 206.99C133.883 206.99 134.423 208.502 134.423 210.482ZM134.837 202.13H133.325L131.705 204.722H132.911L134.837 202.13ZM144.27 215V209.24C144.27 207.458 143.91 205.658 141.966 205.658C140.85 205.658 140.04 206.486 139.698 207.53H139.662C139.662 207.242 139.626 206.558 139.554 205.964H138.096C138.15 206.63 138.168 207.53 138.168 208.25V215H139.698V209.816C139.698 208.196 140.418 207.026 141.444 207.026C142.578 207.026 142.722 208.214 142.722 209.24V215H144.27ZM84.7655 237V223.392H83.2355V229.26H83.1995C82.9295 228.324 82.1735 227.658 81.1295 227.658C79.2395 227.658 78.2495 229.638 78.2495 232.428C78.2495 235.236 79.2935 237.306 81.1295 237.306C82.3715 237.306 82.9475 236.55 83.2355 235.578H83.2715V237H84.7655ZM83.2715 232.482C83.2715 234.426 82.6955 235.956 81.5255 235.956C80.3375 235.956 79.8335 234.426 79.8335 232.482C79.8335 230.52 80.3375 228.99 81.5255 228.99C82.6775 228.99 83.2715 230.52 83.2715 232.482ZM93.2339 232.878V232.14C93.2339 229.638 92.4059 227.658 90.1919 227.658C88.2119 227.658 86.8979 229.638 86.8979 232.5C86.8979 235.506 88.1579 237.306 90.2099 237.306C91.5959 237.306 92.4959 236.478 92.9639 235.326L91.8119 234.66C91.5239 235.344 91.0739 235.938 90.2639 235.938C89.0579 235.938 88.4639 234.588 88.4459 232.878H93.2339ZM91.6859 231.636H88.4819C88.4819 230.664 88.9319 228.99 90.1559 228.99C91.1999 228.99 91.6859 230.07 91.6859 231.636ZM103.888 237C103.816 236.568 103.762 235.722 103.762 235.11V231.456C103.762 229.044 103.078 227.658 101.008 227.658C100.072 227.658 99.0098 228.126 98.4158 228.936L99.1898 229.89C99.5858 229.35 100.198 228.972 100.864 228.972C101.764 228.972 102.358 229.584 102.358 230.988V231.384H101.764C100.18 231.384 98.1098 231.942 98.1098 234.552C98.1098 236.496 99.3158 237.234 100.324 237.234C101.512 237.234 102.196 236.586 102.448 235.506H102.484C102.484 235.83 102.538 236.46 102.628 237H103.888ZM102.394 233.076C102.394 234.318 101.98 235.992 100.738 235.992C100.108 235.992 99.5498 235.488 99.5498 234.39C99.5498 232.878 100.648 232.554 101.728 232.554H102.394V233.076ZM107.776 229.836H107.74C107.74 229.242 107.704 228.558 107.632 227.964H106.174C106.228 228.63 106.246 229.53 106.246 230.25V237H107.794V232.428C107.794 230.862 108.424 229.242 109.576 229.242C109.702 229.242 109.792 229.26 109.882 229.278L109.954 227.676C109.882 227.658 109.81 227.658 109.738 227.658C108.838 227.658 108.082 228.342 107.776 229.836ZM112.909 229.836H112.873C112.873 229.242 112.837 228.558 112.765 227.964H111.307C111.361 228.63 111.379 229.53 111.379 230.25V237H112.927V232.428C112.927 230.862 113.557 229.242 114.709 229.242C114.835 229.242 114.925 229.26 115.015 229.278L115.087 227.676C115.015 227.658 114.943 227.658 114.871 227.658C113.971 227.658 113.215 228.342 112.909 229.836ZM118.204 225.282C118.204 224.706 117.79 224.256 117.25 224.256C116.71 224.256 116.296 224.706 116.296 225.282C116.296 225.876 116.71 226.308 117.25 226.308C117.772 226.308 118.204 225.876 118.204 225.282ZM118.006 237V227.964H116.476V237H118.006ZM120.66 237H122.154V235.578H122.19C122.478 236.55 123.054 237.306 124.296 237.306C126.132 237.306 127.176 235.236 127.176 232.428C127.176 229.638 126.186 227.658 124.296 227.658C123.252 227.658 122.496 228.324 122.226 229.26H122.19V223.392H120.66V237ZM122.154 232.482C122.154 230.52 122.748 228.99 123.9 228.99C125.088 228.99 125.592 230.52 125.592 232.482C125.592 234.426 125.088 235.956 123.9 235.956C122.73 235.956 122.154 234.426 122.154 232.482ZM134.456 237C134.384 236.568 134.33 235.722 134.33 235.11V231.456C134.33 229.044 133.646 227.658 131.576 227.658C130.64 227.658 129.578 228.126 128.984 228.936L129.758 229.89C130.154 229.35 130.766 228.972 131.432 228.972C132.332 228.972 132.926 229.584 132.926 230.988V231.384H132.332C130.748 231.384 128.678 231.942 128.678 234.552C128.678 236.496 129.884 237.234 130.892 237.234C132.08 237.234 132.764 236.586 133.016 235.506H133.052C133.052 235.83 133.106 236.46 133.196 237H134.456ZM132.962 233.076C132.962 234.318 132.548 235.992 131.306 235.992C130.676 235.992 130.118 235.488 130.118 234.39C130.118 232.878 131.216 232.554 132.296 232.554H132.962V233.076ZM138.543 236.046C138.543 235.452 138.093 234.948 137.517 234.948C136.941 234.948 136.509 235.452 136.509 236.046C136.509 236.658 136.941 237.126 137.517 237.126C138.093 237.126 138.543 236.658 138.543 236.046Z" fill="#303541"/>
<path d="M189.428 186.646C189.428 182.524 187.664 180.256 184.658 180.256H181.724V193H184.64C187.646 193 189.428 190.75 189.428 186.646ZM187.808 186.646C187.808 189.958 186.44 191.578 184.64 191.578H183.326V181.678H184.64C186.44 181.678 187.808 183.28 187.808 186.646ZM197.416 188.878V188.14C197.416 185.638 196.588 183.658 194.374 183.658C192.394 183.658 191.08 185.638 191.08 188.5C191.08 191.506 192.34 193.306 194.392 193.306C195.778 193.306 196.678 192.478 197.146 191.326L195.994 190.66C195.706 191.344 195.256 191.938 194.446 191.938C193.24 191.938 192.646 190.588 192.628 188.878H197.416ZM195.868 187.636H192.664C192.664 186.664 193.114 184.99 194.338 184.99C195.382 184.99 195.868 186.07 195.868 187.636ZM202.716 192.982L202.68 191.758C202.518 191.83 202.248 191.902 202.032 191.902C201.402 191.902 201.096 191.452 201.096 190.408V185.206H202.698V183.964H201.096V181.552H199.602V183.964H198.468V185.206H199.62V190.714C199.62 192.28 200.16 193.234 201.546 193.234C201.978 193.234 202.446 193.126 202.716 192.982ZM209.388 193C209.316 192.568 209.262 191.722 209.262 191.11V187.456C209.262 185.044 208.578 183.658 206.508 183.658C205.572 183.658 204.51 184.126 203.916 184.936L204.69 185.89C205.086 185.35 205.698 184.972 206.364 184.972C207.264 184.972 207.858 185.584 207.858 186.988V187.384H207.264C205.68 187.384 203.61 187.942 203.61 190.552C203.61 192.496 204.816 193.234 205.824 193.234C207.012 193.234 207.696 192.586 207.948 191.506H207.984C207.984 191.83 208.038 192.46 208.128 193H209.388ZM207.894 189.076C207.894 190.318 207.48 191.992 206.238 191.992C205.608 191.992 205.05 191.488 205.05 190.39C205.05 188.878 206.148 188.554 207.228 188.554H207.894V189.076ZM213.258 193V179.392H211.71V193H213.258ZM217.442 193V179.392H215.894V193H217.442ZM225.226 193C225.154 192.568 225.1 191.722 225.1 191.11V187.456C225.1 185.044 224.416 183.658 222.346 183.658C221.41 183.658 220.348 184.126 219.754 184.936L220.528 185.89C220.924 185.35 221.536 184.972 222.202 184.972C223.102 184.972 223.696 185.584 223.696 186.988V187.384H223.102C221.518 187.384 219.448 187.942 219.448 190.552C219.448 192.496 220.654 193.234 221.662 193.234C222.85 193.234 223.534 192.586 223.786 191.506H223.822C223.822 191.83 223.876 192.46 223.966 193H225.226ZM223.732 189.076C223.732 190.318 223.318 191.992 222.076 191.992C221.446 191.992 220.888 191.488 220.888 190.39C220.888 188.878 221.986 188.554 223.066 188.554H223.732V189.076ZM232.524 193V179.392H230.976V193H232.524ZM240.308 193C240.236 192.568 240.182 191.722 240.182 191.11V187.456C240.182 185.044 239.498 183.658 237.428 183.658C236.492 183.658 235.43 184.126 234.836 184.936L235.61 185.89C236.006 185.35 236.618 184.972 237.284 184.972C238.184 184.972 238.778 185.584 238.778 186.988V187.384H238.184C236.6 187.384 234.53 187.942 234.53 190.552C234.53 192.496 235.736 193.234 236.744 193.234C237.932 193.234 238.616 192.586 238.868 191.506H238.904C238.904 191.83 238.958 192.46 239.048 193H240.308ZM238.814 189.076C238.814 190.318 238.4 191.992 237.158 191.992C236.528 191.992 235.97 191.488 235.97 190.39C235.97 188.878 237.068 188.554 238.148 188.554H238.814V189.076ZM250.522 184.666C250.018 184.072 249.226 183.658 248.164 183.658C246.67 183.658 245.5 184.72 245.5 186.304C245.5 187.942 246.454 188.5 247.372 188.842C248.272 189.184 248.992 189.508 248.992 190.534C248.992 191.416 248.524 192.028 247.75 192.028C246.94 192.028 246.4 191.596 246.004 191.092L245.104 192.082C245.698 192.82 246.634 193.306 247.696 193.306C249.262 193.306 250.45 192.298 250.45 190.426C250.45 188.806 249.388 188.104 248.38 187.726C247.426 187.366 246.958 187.096 246.958 186.25C246.958 185.422 247.48 184.882 248.164 184.882C248.83 184.882 249.334 185.224 249.64 185.674L250.522 184.666ZM258.47 188.5C258.47 185.602 257.228 183.658 255.176 183.658C253.106 183.658 251.9 185.602 251.9 188.5C251.9 191.362 253.142 193.306 255.176 193.306C257.228 193.306 258.47 191.362 258.47 188.5ZM256.886 188.482C256.886 190.444 256.364 191.956 255.176 191.956C254.006 191.956 253.484 190.444 253.484 188.482C253.484 186.502 254.006 184.99 255.176 184.99C256.346 184.99 256.886 186.502 256.886 188.482ZM262.143 193V179.392H260.595V193H262.143ZM266.507 181.282C266.507 180.706 266.093 180.256 265.553 180.256C265.013 180.256 264.599 180.706 264.599 181.282C264.599 181.876 265.013 182.308 265.553 182.308C266.075 182.308 266.507 181.876 266.507 181.282ZM266.309 193V183.964H264.779V193H266.309ZM273.75 192.478L273.066 191.29C272.778 191.65 272.4 191.884 271.842 191.884C270.564 191.884 270.042 190.48 270.042 188.482C270.042 186.466 270.6 185.026 271.752 185.026C272.31 185.026 272.67 185.26 272.958 185.584L273.732 184.432C273.354 184.054 272.688 183.658 271.734 183.658C269.592 183.658 268.458 185.62 268.458 188.482C268.458 191.344 269.538 193.306 271.716 193.306C272.58 193.306 273.264 193.018 273.75 192.478ZM276.878 181.282C276.878 180.706 276.464 180.256 275.924 180.256C275.384 180.256 274.97 180.706 274.97 181.282C274.97 181.876 275.384 182.308 275.924 182.308C276.446 182.308 276.878 181.876 276.878 181.282ZM276.68 193V183.964H275.15V193H276.68ZM282.556 192.982L282.52 191.758C282.358 191.83 282.088 191.902 281.872 191.902C281.242 191.902 280.936 191.452 280.936 190.408V185.206H282.538V183.964H280.936V181.552H279.442V183.964H278.308V185.206H279.46V190.714C279.46 192.28 280 193.234 281.386 193.234C281.818 193.234 282.286 193.126 282.556 192.982ZM284.008 183.964V189.724C284.008 191.506 284.368 193.306 286.312 193.306C287.428 193.306 288.238 192.478 288.58 191.434H288.616C288.616 191.722 288.652 192.406 288.724 193H290.182C290.128 192.334 290.11 191.434 290.11 190.714V183.964H288.58V189.148C288.58 190.768 287.86 191.938 286.834 191.938C285.7 191.938 285.556 190.75 285.556 189.724V183.964H284.008ZM298.793 193V179.392H297.263V185.26H297.227C296.957 184.324 296.201 183.658 295.157 183.658C293.267 183.658 292.277 185.638 292.277 188.428C292.277 191.236 293.321 193.306 295.157 193.306C296.399 193.306 296.975 192.55 297.263 191.578H297.299V193H298.793ZM297.299 188.482C297.299 190.426 296.723 191.956 295.553 191.956C294.365 191.956 293.861 190.426 293.861 188.482C293.861 186.52 294.365 184.99 295.553 184.99C296.705 184.99 297.299 186.52 297.299 188.482ZM310.419 183.964H308.853L307.233 191.2H307.197L305.415 183.964H303.795L306.459 193.27L306.117 194.692C305.919 195.466 305.613 195.916 304.929 195.916C304.677 195.916 304.407 195.862 304.209 195.79L304.011 197.176C304.245 197.248 304.659 197.32 305.073 197.32C306.567 197.32 307.197 196.276 307.629 194.638L310.419 183.964ZM192.464 207.836H192.428C192.428 207.242 192.392 206.558 192.32 205.964H190.862C190.916 206.63 190.934 207.53 190.934 208.25V215H192.482V210.428C192.482 208.862 193.112 207.242 194.264 207.242C194.39 207.242 194.48 207.26 194.57 207.278L194.642 205.676C194.57 205.658 194.498 205.658 194.426 205.658C193.526 205.658 192.77 206.342 192.464 207.836ZM201.757 210.878V210.14C201.757 207.638 200.929 205.658 198.715 205.658C196.735 205.658 195.421 207.638 195.421 210.5C195.421 213.506 196.681 215.306 198.733 215.306C200.119 215.306 201.019 214.478 201.487 213.326L200.335 212.66C200.047 213.344 199.597 213.938 198.787 213.938C197.581 213.938 196.987 212.588 196.969 210.878H201.757ZM200.209 209.636H197.005C197.005 208.664 197.455 206.99 198.679 206.99C199.723 206.99 200.209 208.07 200.209 209.636ZM208.878 215C208.806 214.568 208.752 213.722 208.752 213.11V209.456C208.752 207.044 208.068 205.658 205.998 205.658C205.062 205.658 204 206.126 203.406 206.936L204.18 207.89C204.576 207.35 205.188 206.972 205.854 206.972C206.754 206.972 207.348 207.584 207.348 208.988V209.384H206.754C205.17 209.384 203.1 209.942 203.1 212.552C203.1 214.496 204.306 215.234 205.314 215.234C206.502 215.234 207.186 214.586 207.438 213.506H207.474C207.474 213.83 207.528 214.46 207.618 215H208.878ZM207.384 211.076C207.384 212.318 206.97 213.992 205.728 213.992C205.098 213.992 204.54 213.488 204.54 212.39C204.54 210.878 205.638 210.554 206.718 210.554H207.384V211.076ZM212.749 215V201.392H211.201V215H212.749ZM217.112 203.282C217.112 202.706 216.698 202.256 216.158 202.256C215.618 202.256 215.204 202.706 215.204 203.282C215.204 203.876 215.618 204.308 216.158 204.308C216.68 204.308 217.112 203.876 217.112 203.282ZM216.914 215V205.964H215.384V215H216.914ZM223.978 215V213.686H220.324L223.96 207.242V205.964H218.992V207.278H222.358L218.722 213.686V215H223.978ZM230.956 215C230.884 214.568 230.83 213.722 230.83 213.11V209.456C230.83 207.044 230.146 205.658 228.076 205.658C227.14 205.658 226.078 206.126 225.484 206.936L226.258 207.89C226.654 207.35 227.266 206.972 227.932 206.972C228.832 206.972 229.426 207.584 229.426 208.988V209.384H228.832C227.248 209.384 225.178 209.942 225.178 212.552C225.178 214.496 226.384 215.234 227.392 215.234C228.58 215.234 229.264 214.586 229.516 213.506H229.552C229.552 213.83 229.606 214.46 229.696 215H230.956ZM229.462 211.076C229.462 212.318 229.048 213.992 227.806 213.992C227.176 213.992 226.618 213.488 226.618 212.39C226.618 210.878 227.716 210.554 228.796 210.554H229.462V211.076ZM242.539 210.878V210.14C242.539 207.638 241.711 205.658 239.497 205.658C237.517 205.658 236.203 207.638 236.203 210.5C236.203 213.506 237.463 215.306 239.515 215.306C240.901 215.306 241.801 214.478 242.269 213.326L241.117 212.66C240.829 213.344 240.379 213.938 239.569 213.938C238.363 213.938 237.769 212.588 237.751 210.878H242.539ZM240.991 209.636H237.787C237.787 208.664 238.237 206.99 239.461 206.99C240.505 206.99 240.991 208.07 240.991 209.636ZM246.165 215V201.392H244.617V215H246.165ZM252.228 205.964V219.32H253.758V213.686H253.794C254.064 214.622 254.82 215.306 255.864 215.306C257.754 215.306 258.744 213.308 258.744 210.518C258.744 207.71 257.7 205.658 255.864 205.658C254.622 205.658 254.046 206.396 253.758 207.368H253.722V205.964H252.228ZM253.722 210.464C253.722 208.52 254.298 206.99 255.468 206.99C256.656 206.99 257.16 208.52 257.16 210.464C257.16 212.426 256.656 213.956 255.468 213.956C254.316 213.956 253.722 212.426 253.722 210.464ZM262.443 207.836H262.407C262.407 207.242 262.371 206.558 262.299 205.964H260.841C260.895 206.63 260.913 207.53 260.913 208.25V215H262.461V210.428C262.461 208.862 263.091 207.242 264.243 207.242C264.369 207.242 264.459 207.26 264.549 207.278L264.621 205.676C264.549 205.658 264.477 205.658 264.405 205.658C263.505 205.658 262.749 206.342 262.443 207.836ZM271.97 210.5C271.97 207.602 270.728 205.658 268.676 205.658C266.606 205.658 265.4 207.602 265.4 210.5C265.4 213.362 266.642 215.306 268.676 215.306C270.728 215.306 271.97 213.362 271.97 210.5ZM270.386 210.482C270.386 212.444 269.864 213.956 268.676 213.956C267.506 213.956 266.984 212.444 266.984 210.482C266.984 208.502 267.506 206.99 268.676 206.99C269.846 206.99 270.386 208.502 270.386 210.482ZM278.883 214.478L278.199 213.29C277.911 213.65 277.533 213.884 276.975 213.884C275.697 213.884 275.175 212.48 275.175 210.482C275.175 208.466 275.733 207.026 276.885 207.026C277.443 207.026 277.803 207.26 278.091 207.584L278.865 206.432C278.487 206.054 277.821 205.658 276.867 205.658C274.725 205.658 273.591 207.62 273.591 210.482C273.591 213.344 274.671 215.306 276.849 215.306C277.713 215.306 278.397 215.018 278.883 214.478ZM286.115 210.878V210.14C286.115 207.638 285.287 205.658 283.073 205.658C281.093 205.658 279.779 207.638 279.779 210.5C279.779 213.506 281.039 215.306 283.091 215.306C284.477 215.306 285.377 214.478 285.845 213.326L284.693 212.66C284.405 213.344 283.955 213.938 283.145 213.938C281.939 213.938 281.345 212.588 281.327 210.878H286.115ZM284.567 209.636H281.363C281.363 208.664 281.813 206.99 283.037 206.99C284.081 206.99 284.567 208.07 284.567 209.636ZM292.657 206.666C292.153 206.072 291.361 205.658 290.299 205.658C288.805 205.658 287.635 206.72 287.635 208.304C287.635 209.942 288.589 210.5 289.507 210.842C290.407 211.184 291.127 211.508 291.127 212.534C291.127 213.416 290.659 214.028 289.885 214.028C289.075 214.028 288.535 213.596 288.139 213.092L287.239 214.082C287.833 214.82 288.769 215.306 289.831 215.306C291.397 215.306 292.585 214.298 292.585 212.426C292.585 210.806 291.523 210.104 290.515 209.726C289.561 209.366 289.093 209.096 289.093 208.25C289.093 207.422 289.615 206.882 290.299 206.882C290.965 206.882 291.469 207.224 291.775 207.674L292.657 206.666ZM300.605 210.5C300.605 207.602 299.363 205.658 297.311 205.658C295.241 205.658 294.035 207.602 294.035 210.5C294.035 213.362 295.277 215.306 297.311 215.306C299.363 215.306 300.605 213.362 300.605 210.5ZM299.021 210.482C299.021 212.444 298.499 213.956 297.311 213.956C296.141 213.956 295.619 212.444 295.619 210.482C295.619 208.502 296.141 206.99 297.311 206.99C298.481 206.99 299.021 208.502 299.021 210.482ZM216.466 237V223.392H214.936V229.26H214.9C214.63 228.324 213.874 227.658 212.83 227.658C210.94 227.658 209.95 229.638 209.95 232.428C209.95 235.236 210.994 237.306 212.83 237.306C214.072 237.306 214.648 236.55 214.936 235.578H214.972V237H216.466ZM214.972 232.482C214.972 234.426 214.396 235.956 213.226 235.956C212.038 235.956 211.534 234.426 211.534 232.482C211.534 230.52 212.038 228.99 213.226 228.99C214.378 228.99 214.972 230.52 214.972 232.482ZM224.934 232.878V232.14C224.934 229.638 224.106 227.658 221.892 227.658C219.912 227.658 218.598 229.638 218.598 232.5C218.598 235.506 219.858 237.306 221.91 237.306C223.296 237.306 224.196 236.478 224.664 235.326L223.512 234.66C223.224 235.344 222.774 235.938 221.964 235.938C220.758 235.938 220.164 234.588 220.146 232.878H224.934ZM223.386 231.636H220.182C220.182 230.664 220.632 228.99 221.856 228.99C222.9 228.99 223.386 230.07 223.386 231.636ZM235.228 236.478L234.544 235.29C234.256 235.65 233.878 235.884 233.32 235.884C232.042 235.884 231.52 234.48 231.52 232.482C231.52 230.466 232.078 229.026 233.23 229.026C233.788 229.026 234.148 229.26 234.436 229.584L235.21 228.432C234.832 228.054 234.166 227.658 233.212 227.658C231.07 227.658 229.936 229.62 229.936 232.482C229.936 235.344 231.016 237.306 233.194 237.306C234.058 237.306 234.742 237.018 235.228 236.478ZM242.693 232.5C242.693 229.602 241.451 227.658 239.399 227.658C237.329 227.658 236.123 229.602 236.123 232.5C236.123 235.362 237.365 237.306 239.399 237.306C241.451 237.306 242.693 235.362 242.693 232.5ZM241.109 232.482C241.109 234.444 240.587 235.956 239.399 235.956C238.229 235.956 237.707 234.444 237.707 232.482C237.707 230.502 238.229 228.99 239.399 228.99C240.569 228.99 241.109 230.502 241.109 232.482ZM246.385 229.53H246.349C246.349 229.242 246.313 228.558 246.241 227.964H244.783C244.837 228.63 244.855 229.53 244.855 230.25V237H246.367V231.816C246.367 230.196 247.033 229.026 248.059 229.026C249.193 229.026 249.337 230.214 249.337 231.24V237H250.849V231.816C250.849 230.196 251.533 229.026 252.559 229.026C253.693 229.026 253.837 230.214 253.837 231.24V237H255.385V231.24C255.385 229.458 255.025 227.658 253.081 227.658C251.767 227.658 251.029 228.648 250.705 229.53H250.669C250.453 228.576 249.895 227.658 248.617 227.658C247.429 227.658 246.655 228.486 246.385 229.53ZM257.932 227.964V241.32H259.462V235.686H259.498C259.768 236.622 260.524 237.306 261.568 237.306C263.458 237.306 264.448 235.308 264.448 232.518C264.448 229.71 263.404 227.658 261.568 227.658C260.326 227.658 259.75 228.396 259.462 229.368H259.426V227.964H257.932ZM259.426 232.464C259.426 230.52 260.002 228.99 261.172 228.99C262.36 228.99 262.864 230.52 262.864 232.464C262.864 234.426 262.36 235.956 261.172 235.956C260.02 235.956 259.426 234.426 259.426 232.464ZM268.147 229.836H268.111C268.111 229.242 268.075 228.558 268.003 227.964H266.545C266.599 228.63 266.617 229.53 266.617 230.25V237H268.165V232.428C268.165 230.862 268.795 229.242 269.947 229.242C270.073 229.242 270.163 229.26 270.253 229.278L270.325 227.676C270.253 227.658 270.181 227.658 270.109 227.658C269.209 227.658 268.453 228.342 268.147 229.836ZM276.756 237C276.684 236.568 276.63 235.722 276.63 235.11V231.456C276.63 229.044 275.946 227.658 273.876 227.658C272.94 227.658 271.878 228.126 271.284 228.936L272.058 229.89C272.454 229.35 273.066 228.972 273.732 228.972C274.632 228.972 275.226 229.584 275.226 230.988V231.384H274.632C273.048 231.384 270.978 231.942 270.978 234.552C270.978 236.496 272.184 237.234 273.192 237.234C274.38 237.234 275.064 236.586 275.316 235.506H275.352C275.352 235.83 275.406 236.46 275.496 237H276.756ZM275.262 233.076C275.262 234.318 274.848 235.992 273.606 235.992C272.976 235.992 272.418 235.488 272.418 234.39C272.418 232.878 273.516 232.554 274.596 232.554H275.262V233.076ZM280.843 236.046C280.843 235.452 280.393 234.948 279.817 234.948C279.241 234.948 278.809 235.452 278.809 236.046C278.809 236.658 279.241 237.126 279.817 237.126C280.393 237.126 280.843 236.658 280.843 236.046Z" fill="#303541"/>
<path d="M350.47 187.654H348.922V196.474H350.47V187.654ZM350.722 184.684C350.722 184.072 350.272 183.604 349.696 183.604C349.12 183.604 348.688 184.072 348.688 184.684C348.688 185.278 349.12 185.782 349.696 185.782C350.272 185.782 350.722 185.278 350.722 184.684ZM360.329 180.256H358.601L356.333 186.25L354.119 180.256H352.355L355.523 187.906V193H357.125V187.906L360.329 180.256ZM366.117 193V179.392H364.569V193H366.117ZM370.48 181.282C370.48 180.706 370.066 180.256 369.526 180.256C368.986 180.256 368.572 180.706 368.572 181.282C368.572 181.876 368.986 182.308 369.526 182.308C370.048 182.308 370.48 181.876 370.48 181.282ZM370.282 193V183.964H368.752V193H370.282ZM377.4 184.666C376.896 184.072 376.104 183.658 375.042 183.658C373.548 183.658 372.378 184.72 372.378 186.304C372.378 187.942 373.332 188.5 374.25 188.842C375.15 189.184 375.87 189.508 375.87 190.534C375.87 191.416 375.402 192.028 374.628 192.028C373.818 192.028 373.278 191.596 372.882 191.092L371.982 192.082C372.576 192.82 373.512 193.306 374.574 193.306C376.14 193.306 377.328 192.298 377.328 190.426C377.328 188.806 376.266 188.104 375.258 187.726C374.304 187.366 373.836 187.096 373.836 186.25C373.836 185.422 374.358 184.882 375.042 184.882C375.708 184.882 376.212 185.224 376.518 185.674L377.4 184.666ZM382.504 192.982L382.468 191.758C382.306 191.83 382.036 191.902 381.82 191.902C381.19 191.902 380.884 191.452 380.884 190.408V185.206H382.486V183.964H380.884V181.552H379.39V183.964H378.256V185.206H379.408V190.714C379.408 192.28 379.948 193.234 381.334 193.234C381.766 193.234 382.234 193.126 382.504 192.982ZM390.094 188.5C390.094 185.602 388.852 183.658 386.8 183.658C384.73 183.658 383.524 185.602 383.524 188.5C383.524 191.362 384.766 193.306 386.8 193.306C388.852 193.306 390.094 191.362 390.094 188.5ZM388.51 188.482C388.51 190.444 387.988 191.956 386.8 191.956C385.63 191.956 385.108 190.444 385.108 188.482C385.108 186.502 385.63 184.99 386.8 184.99C387.97 184.99 388.51 186.502 388.51 188.482ZM394.397 189.076V180.256H392.849V189.076H394.397ZM394.649 192.046C394.649 191.452 394.199 190.948 393.623 190.948C393.047 190.948 392.615 191.452 392.615 192.046C392.615 192.658 393.047 193.126 393.623 193.126C394.199 193.126 394.649 192.658 394.649 192.046ZM406.911 188.878V188.14C406.911 185.638 406.083 183.658 403.869 183.658C401.889 183.658 400.575 185.638 400.575 188.5C400.575 191.506 401.835 193.306 403.887 193.306C405.273 193.306 406.173 192.478 406.641 191.326L405.489 190.66C405.201 191.344 404.751 191.938 403.941 191.938C402.735 191.938 402.141 190.588 402.123 188.878H406.911ZM405.363 187.636H402.159C402.159 186.664 402.609 184.99 403.833 184.99C404.877 184.99 405.363 186.07 405.363 187.636ZM415.127 193V187.24C415.127 185.458 414.767 183.658 412.823 183.658C411.707 183.658 410.897 184.486 410.555 185.53H410.519C410.519 185.242 410.483 184.558 410.411 183.964H408.953C409.007 184.63 409.025 185.53 409.025 186.25V193H410.555V187.816C410.555 186.196 411.275 185.026 412.301 185.026C413.435 185.026 413.579 186.214 413.579 187.24V193H415.127ZM421.118 183.964V197.32H422.648V191.686H422.684C422.954 192.622 423.71 193.306 424.754 193.306C426.644 193.306 427.634 191.308 427.634 188.518C427.634 185.71 426.59 183.658 424.754 183.658C423.512 183.658 422.936 184.396 422.648 185.368H422.612V183.964H421.118ZM422.612 188.464C422.612 186.52 423.188 184.99 424.358 184.99C425.546 184.99 426.05 186.52 426.05 188.464C426.05 190.426 425.546 191.956 424.358 191.956C423.206 191.956 422.612 190.426 422.612 188.464ZM435.832 188.5C435.832 185.602 434.59 183.658 432.538 183.658C430.468 183.658 429.262 185.602 429.262 188.5C429.262 191.362 430.504 193.306 432.538 193.306C434.59 193.306 435.832 191.362 435.832 188.5ZM434.248 188.482C434.248 190.444 433.726 191.956 432.538 191.956C431.368 191.956 430.846 190.444 430.846 188.482C430.846 186.502 431.368 184.99 432.538 184.99C433.708 184.99 434.248 186.502 434.248 188.482ZM442.746 192.478L442.062 191.29C441.774 191.65 441.396 191.884 440.838 191.884C439.56 191.884 439.038 190.48 439.038 188.482C439.038 186.466 439.596 185.026 440.748 185.026C441.306 185.026 441.666 185.26 441.954 185.584L442.728 184.432C442.35 184.054 441.684 183.658 440.73 183.658C438.588 183.658 437.454 185.62 437.454 188.482C437.454 191.344 438.534 193.306 440.712 193.306C441.576 193.306 442.26 193.018 442.746 192.478ZM450.211 188.5C450.211 185.602 448.969 183.658 446.917 183.658C444.847 183.658 443.641 185.602 443.641 188.5C443.641 191.362 444.883 193.306 446.917 193.306C448.969 193.306 450.211 191.362 450.211 188.5ZM448.627 188.482C448.627 190.444 448.105 191.956 446.917 191.956C445.747 191.956 445.225 190.444 445.225 188.482C445.225 186.502 445.747 184.99 446.917 184.99C448.087 184.99 448.627 186.502 448.627 188.482ZM342.496 214.982L342.46 213.758C342.298 213.83 342.028 213.902 341.812 213.902C341.182 213.902 340.876 213.452 340.876 212.408V207.206H342.478V205.964H340.876V203.552H339.382V205.964H338.248V207.206H339.4V212.714C339.4 214.28 339.94 215.234 341.326 215.234C341.758 215.234 342.226 215.126 342.496 214.982ZM345.748 203.282C345.748 202.706 345.334 202.256 344.794 202.256C344.254 202.256 343.84 202.706 343.84 203.282C343.84 203.876 344.254 204.308 344.794 204.308C345.316 204.308 345.748 203.876 345.748 203.282ZM345.55 215V205.964H344.02V215H345.55ZM354.036 210.878V210.14C354.036 207.638 353.208 205.658 350.994 205.658C349.014 205.658 347.7 207.638 347.7 210.5C347.7 213.506 348.96 215.306 351.012 215.306C352.398 215.306 353.298 214.478 353.766 213.326L352.614 212.66C352.326 213.344 351.876 213.938 351.066 213.938C349.86 213.938 349.266 212.588 349.248 210.878H354.036ZM352.488 209.636H349.284C349.284 208.664 349.734 206.99 350.958 206.99C352.002 206.99 352.488 208.07 352.488 209.636ZM357.68 207.53H357.644C357.644 207.242 357.608 206.558 357.536 205.964H356.078C356.132 206.63 356.15 207.53 356.15 208.25V215H357.662V209.816C357.662 208.196 358.328 207.026 359.354 207.026C360.488 207.026 360.632 208.214 360.632 209.24V215H362.144V209.816C362.144 208.196 362.828 207.026 363.854 207.026C364.988 207.026 365.132 208.214 365.132 209.24V215H366.68V209.24C366.68 207.458 366.32 205.658 364.376 205.658C363.062 205.658 362.324 206.648 362 207.53H361.964C361.748 206.576 361.19 205.658 359.912 205.658C358.724 205.658 357.95 206.486 357.68 207.53ZM369.227 205.964V219.32H370.757V213.686H370.793C371.063 214.622 371.819 215.306 372.863 215.306C374.753 215.306 375.743 213.308 375.743 210.518C375.743 207.71 374.699 205.658 372.863 205.658C371.621 205.658 371.045 206.396 370.757 207.368H370.721V205.964H369.227ZM370.721 210.464C370.721 208.52 371.297 206.99 372.467 206.99C373.655 206.99 374.159 208.52 374.159 210.464C374.159 212.426 373.655 213.956 372.467 213.956C371.315 213.956 370.721 212.426 370.721 210.464ZM383.942 210.5C383.942 207.602 382.7 205.658 380.648 205.658C378.578 205.658 377.372 207.602 377.372 210.5C377.372 213.362 378.614 215.306 380.648 215.306C382.7 215.306 383.942 213.362 383.942 210.5ZM382.358 210.482C382.358 212.444 381.836 213.956 380.648 213.956C379.478 213.956 378.956 212.444 378.956 210.482C378.956 208.502 379.478 206.99 380.648 206.99C381.818 206.99 382.358 208.502 382.358 210.482ZM391.061 207.836H391.025C391.025 207.242 390.989 206.558 390.917 205.964H389.459C389.513 206.63 389.531 207.53 389.531 208.25V215H391.079V210.428C391.079 208.862 391.709 207.242 392.861 207.242C392.987 207.242 393.077 207.26 393.167 207.278L393.239 205.676C393.167 205.658 393.095 205.658 393.023 205.658C392.123 205.658 391.367 206.342 391.061 207.836ZM400.354 210.878V210.14C400.354 207.638 399.526 205.658 397.312 205.658C395.332 205.658 394.018 207.638 394.018 210.5C394.018 213.506 395.278 215.306 397.33 215.306C398.716 215.306 399.616 214.478 400.084 213.326L398.932 212.66C398.644 213.344 398.194 213.938 397.384 213.938C396.178 213.938 395.584 212.588 395.566 210.878H400.354ZM398.806 209.636H395.602C395.602 208.664 396.052 206.99 397.276 206.99C398.32 206.99 398.806 208.07 398.806 209.636ZM407.22 214.478L406.536 213.29C406.248 213.65 405.87 213.884 405.312 213.884C404.034 213.884 403.512 212.48 403.512 210.482C403.512 208.466 404.07 207.026 405.222 207.026C405.78 207.026 406.14 207.26 406.428 207.584L407.202 206.432C406.824 206.054 406.158 205.658 405.204 205.658C403.062 205.658 401.928 207.62 401.928 210.482C401.928 213.344 403.008 215.306 405.186 215.306C406.05 215.306 406.734 215.018 407.22 214.478ZM410.348 203.282C410.348 202.706 409.934 202.256 409.394 202.256C408.854 202.256 408.44 202.706 408.44 203.282C408.44 203.876 408.854 204.308 409.394 204.308C409.916 204.308 410.348 203.876 410.348 203.282ZM410.15 215V205.964H408.62V215H410.15ZM412.803 215H414.297V213.578H414.333C414.621 214.55 415.197 215.306 416.439 215.306C418.275 215.306 419.319 213.236 419.319 210.428C419.319 207.638 418.329 205.658 416.439 205.658C415.395 205.658 414.639 206.324 414.369 207.26H414.333V201.392H412.803V215ZM414.297 210.482C414.297 208.52 414.891 206.99 416.043 206.99C417.231 206.99 417.735 208.52 417.735 210.482C417.735 212.426 417.231 213.956 416.043 213.956C414.873 213.956 414.297 212.426 414.297 210.482ZM423.18 203.282C423.18 202.706 422.766 202.256 422.226 202.256C421.686 202.256 421.272 202.706 421.272 203.282C421.272 203.876 421.686 204.308 422.226 204.308C422.748 204.308 423.18 203.876 423.18 203.282ZM422.982 215V205.964H421.452V215H422.982ZM427.201 207.836H427.165C427.165 207.242 427.129 206.558 427.057 205.964H425.599C425.653 206.63 425.671 207.53 425.671 208.25V215H427.219V210.428C427.219 208.862 427.849 207.242 429.001 207.242C429.127 207.242 429.217 207.26 429.307 207.278L429.379 205.676C429.307 205.658 429.235 205.658 429.163 205.658C428.263 205.658 427.507 206.342 427.201 207.836ZM435.811 215C435.739 214.568 435.685 213.722 435.685 213.11V209.456C435.685 207.044 435.001 205.658 432.931 205.658C431.995 205.658 430.933 206.126 430.339 206.936L431.113 207.89C431.509 207.35 432.121 206.972 432.787 206.972C433.687 206.972 434.281 207.584 434.281 208.988V209.384H433.687C432.103 209.384 430.033 209.942 430.033 212.552C430.033 214.496 431.239 215.234 432.247 215.234C433.435 215.234 434.119 214.586 434.371 213.506H434.407C434.407 213.83 434.461 214.46 434.551 215H435.811ZM434.317 211.076C434.317 212.318 433.903 213.992 432.661 213.992C432.031 213.992 431.473 213.488 431.473 212.39C431.473 210.878 432.571 210.554 433.651 210.554H434.317V211.076ZM435.469 202.13H433.957L432.337 204.722H433.543L435.469 202.13ZM442.597 206.666C442.093 206.072 441.301 205.658 440.239 205.658C438.745 205.658 437.575 206.72 437.575 208.304C437.575 209.942 438.529 210.5 439.447 210.842C440.347 211.184 441.067 211.508 441.067 212.534C441.067 213.416 440.599 214.028 439.825 214.028C439.015 214.028 438.475 213.596 438.079 213.092L437.179 214.082C437.773 214.82 438.709 215.306 439.771 215.306C441.337 215.306 442.525 214.298 442.525 212.426C442.525 210.806 441.463 210.104 440.455 209.726C439.501 209.366 439.033 209.096 439.033 208.25C439.033 207.422 439.555 206.882 440.239 206.882C440.905 206.882 441.409 207.224 441.715 207.674L442.597 206.666ZM451.129 214.982L451.093 213.758C450.931 213.83 450.661 213.902 450.445 213.902C449.815 213.902 449.509 213.452 449.509 212.408V207.206H451.111V205.964H449.509V203.552H448.015V205.964H446.881V207.206H448.033V212.714C448.033 214.28 448.573 215.234 449.959 215.234C450.391 215.234 450.859 215.126 451.129 214.982ZM452.581 205.964V211.724C452.581 213.506 452.941 215.306 454.885 215.306C456.001 215.306 456.811 214.478 457.153 213.434H457.189C457.189 213.722 457.225 214.406 457.297 215H458.755C458.701 214.334 458.683 213.434 458.683 212.714V205.964H457.153V211.148C457.153 212.768 456.433 213.938 455.407 213.938C454.273 213.938 454.129 212.75 454.129 211.724V205.964H452.581ZM357.967 227.964H356.383L354.727 235.38H354.691L352.963 227.964H351.343L353.773 237H355.573L357.967 227.964ZM361.27 225.282C361.27 224.706 360.856 224.256 360.316 224.256C359.776 224.256 359.362 224.706 359.362 225.282C359.362 225.876 359.776 226.308 360.316 226.308C360.838 226.308 361.27 225.876 361.27 225.282ZM361.072 237V227.964H359.542V237H361.072ZM369.737 237V223.392H368.207V229.26H368.171C367.901 228.324 367.145 227.658 366.101 227.658C364.211 227.658 363.221 229.638 363.221 232.428C363.221 235.236 364.265 237.306 366.101 237.306C367.343 237.306 367.919 236.55 368.207 235.578H368.243V237H369.737ZM368.243 232.482C368.243 234.426 367.667 235.956 366.497 235.956C365.309 235.956 364.805 234.426 364.805 232.482C364.805 230.52 365.309 228.99 366.497 228.99C367.649 228.99 368.243 230.52 368.243 232.482ZM378.206 232.878V232.14C378.206 229.638 377.378 227.658 375.164 227.658C373.184 227.658 371.87 229.638 371.87 232.5C371.87 235.506 373.13 237.306 375.182 237.306C376.568 237.306 377.468 236.478 377.936 235.326L376.784 234.66C376.496 235.344 376.046 235.938 375.236 235.938C374.03 235.938 373.436 234.588 373.418 232.878H378.206ZM376.658 231.636H373.454C373.454 230.664 373.904 228.99 375.128 228.99C376.172 228.99 376.658 230.07 376.658 231.636ZM386.35 232.5C386.35 229.602 385.108 227.658 383.056 227.658C380.986 227.658 379.78 229.602 379.78 232.5C379.78 235.362 381.022 237.306 383.056 237.306C385.108 237.306 386.35 235.362 386.35 232.5ZM384.766 232.482C384.766 234.444 384.244 235.956 383.056 235.956C381.886 235.956 381.364 234.444 381.364 232.482C381.364 230.502 381.886 228.99 383.056 228.99C384.226 228.99 384.766 230.502 384.766 232.482ZM390.041 229.53H390.005C390.005 229.242 389.969 228.558 389.897 227.964H388.439C388.493 228.63 388.511 229.53 388.511 230.25V237H390.023V231.816C390.023 230.196 390.689 229.026 391.715 229.026C392.849 229.026 392.993 230.214 392.993 231.24V237H394.505V231.816C394.505 230.196 395.189 229.026 396.215 229.026C397.349 229.026 397.493 230.214 397.493 231.24V237H399.041V231.24C399.041 229.458 398.681 227.658 396.737 227.658C395.423 227.658 394.685 228.648 394.361 229.53H394.325C394.109 228.576 393.551 227.658 392.273 227.658C391.085 227.658 390.311 228.486 390.041 229.53ZM407.42 232.878V232.14C407.42 229.638 406.592 227.658 404.378 227.658C402.398 227.658 401.084 229.638 401.084 232.5C401.084 235.506 402.344 237.306 404.396 237.306C405.782 237.306 406.682 236.478 407.15 235.326L405.998 234.66C405.71 235.344 405.26 235.938 404.45 235.938C403.244 235.938 402.65 234.588 402.632 232.878H407.42ZM405.872 231.636H402.668C402.668 230.664 403.118 228.99 404.342 228.99C405.386 228.99 405.872 230.07 405.872 231.636ZM415.637 237V231.24C415.637 229.458 415.277 227.658 413.333 227.658C412.217 227.658 411.407 228.486 411.065 229.53H411.029C411.029 229.242 410.993 228.558 410.921 227.964H409.463C409.517 228.63 409.535 229.53 409.535 230.25V237H411.065V231.816C411.065 230.196 411.785 229.026 412.811 229.026C413.945 229.026 414.089 230.214 414.089 231.24V237H415.637ZM422.664 228.666C422.16 228.072 421.368 227.658 420.306 227.658C418.812 227.658 417.642 228.72 417.642 230.304C417.642 231.942 418.596 232.5 419.514 232.842C420.414 233.184 421.134 233.508 421.134 234.534C421.134 235.416 420.666 236.028 419.892 236.028C419.082 236.028 418.542 235.596 418.146 235.092L417.246 236.082C417.84 236.82 418.776 237.306 419.838 237.306C421.404 237.306 422.592 236.298 422.592 234.426C422.592 232.806 421.53 232.104 420.522 231.726C419.568 231.366 419.1 231.096 419.1 230.25C419.1 229.422 419.622 228.882 420.306 228.882C420.972 228.882 421.476 229.224 421.782 229.674L422.664 228.666ZM429.693 237C429.621 236.568 429.567 235.722 429.567 235.11V231.456C429.567 229.044 428.883 227.658 426.813 227.658C425.877 227.658 424.815 228.126 424.221 228.936L424.995 229.89C425.391 229.35 426.003 228.972 426.669 228.972C427.569 228.972 428.163 229.584 428.163 230.988V231.384H427.569C425.985 231.384 423.915 231.942 423.915 234.552C423.915 236.496 425.121 237.234 426.129 237.234C427.317 237.234 428.001 236.586 428.253 235.506H428.289C428.289 235.83 428.343 236.46 428.433 237H429.693ZM428.199 233.076C428.199 234.318 427.785 235.992 426.543 235.992C425.913 235.992 425.355 235.488 425.355 234.39C425.355 232.878 426.453 232.554 427.533 232.554H428.199V233.076ZM433.762 225.282C433.762 224.706 433.348 224.256 432.808 224.256C432.268 224.256 431.872 224.706 431.872 225.282C431.872 225.876 432.268 226.308 432.808 226.308C433.348 226.308 433.762 225.876 433.762 225.282ZM433.582 238.116V227.964H432.052V238.008C432.052 239.016 431.818 239.898 430.9 239.898C430.756 239.898 430.576 239.88 430.414 239.826L430.288 241.23C430.54 241.284 430.828 241.32 431.008 241.32C432.88 241.32 433.582 240.006 433.582 238.116ZM442.049 232.878V232.14C442.049 229.638 441.221 227.658 439.007 227.658C437.027 227.658 435.713 229.638 435.713 232.5C435.713 235.506 436.973 237.306 439.025 237.306C440.411 237.306 441.311 236.478 441.779 235.326L440.627 234.66C440.339 235.344 439.889 235.938 439.079 235.938C437.873 235.938 437.279 234.588 437.261 232.878H442.049ZM440.501 231.636H437.297C437.297 230.664 437.747 228.99 438.971 228.99C440.015 228.99 440.501 230.07 440.501 231.636ZM445.891 236.046C445.891 235.452 445.441 234.948 444.865 234.948C444.289 234.948 443.857 235.452 443.857 236.046C443.857 236.658 444.289 237.126 444.865 237.126C445.441 237.126 445.891 236.658 445.891 236.046Z" fill="#303541"/>
<path d="M254.481 128.316L234.17 140.03C232.49 141.002 232.651 143.487 234.448 144.225L240.029 146.534V150.655C240.029 152.921 242.919 153.854 244.257 152.052L246.395 149.166L251.859 151.422C252.147 151.539 252.45 151.598 252.752 151.598C253.153 151.598 253.548 151.495 253.904 151.295C254.529 150.943 254.959 150.318 255.071 149.61L257.972 130.704C258.269 128.746 256.17 127.344 254.481 128.316ZM242.372 150.655V147.501L244.159 148.238L242.372 150.655ZM252.752 149.254L245.243 146.153L252.088 136.275C252.611 135.518 251.624 134.639 250.931 135.24L240.605 144.239L235.341 142.061L255.652 130.343L252.752 149.254Z" fill="#FB177D"/>
<path d="M399 128C392.371 128 387 133.595 387 140.5C387 147.405 392.371 153 399 153C405.629 153 411 147.405 411 140.5C411 133.595 405.629 128 399 128ZM399 150.581C393.663 150.581 389.323 146.059 389.323 140.5C389.323 134.941 393.663 130.419 399 130.419C404.337 130.419 408.677 134.941 408.677 140.5C408.677 146.059 404.337 150.581 399 150.581ZM404.11 142.95C402.856 143.368 400.994 143.61 399 143.61C397.006 143.61 395.148 143.368 393.89 142.95C393.416 142.793 392.952 143.217 393.034 143.721C393.416 146.1 396.484 147.753 399 147.753C401.516 147.753 404.579 146.095 404.966 143.721C405.044 143.227 404.594 142.793 404.11 142.95ZM393.082 140.051C393.034 140.364 393.344 140.606 393.615 140.45L395.129 139.628L396.644 140.45C396.915 140.606 397.224 140.364 397.176 140.051L396.885 138.292L398.115 137.052C398.332 136.826 398.206 136.438 397.906 136.387L396.218 136.135L395.468 134.542C395.327 134.25 394.935 134.25 394.795 134.542L394.045 136.135L392.356 136.387C392.056 136.432 391.926 136.821 392.148 137.052L393.377 138.292L393.082 140.051ZM405.648 136.387L403.96 136.135L403.21 134.542C403.069 134.25 402.677 134.25 402.537 134.542L401.787 136.135L400.098 136.387C399.798 136.432 399.668 136.821 399.89 137.052L401.119 138.292L400.829 140.051C400.781 140.364 401.09 140.606 401.361 140.45L402.876 139.628L404.39 140.45C404.661 140.606 404.971 140.364 404.923 140.051L404.632 138.292L405.861 137.052C406.079 136.821 405.948 136.438 405.648 136.387Z" fill="#FB177D"/>
<path d="M188.246 43.2324C188.246 44.3066 188.135 45.1338 187.913 45.7139C187.698 46.2868 187.333 46.7917 186.817 47.2285L186.108 47.8838C185.442 48.5283 185.109 49.1943 185.109 49.8818C185.109 50.3903 185.228 50.7591 185.464 50.9883C185.707 51.2246 186.019 51.3428 186.398 51.3428C186.878 51.3428 187.251 51.1888 187.516 50.8809C187.788 50.5801 187.931 50.1504 187.945 49.5918H191.587C191.558 51.0312 191.1 52.1484 190.212 52.9434C189.331 53.7383 188.089 54.1357 186.484 54.1357C184.887 54.1357 183.652 53.7633 182.778 53.0186C181.912 52.2809 181.479 51.2354 181.479 49.8818C181.479 49.2874 181.615 48.7288 181.887 48.2061C182.159 47.6761 182.624 47.1032 183.283 46.4873L184.196 45.6494C184.748 45.1768 185.056 44.6289 185.12 44.0059L185.174 43.2324H188.246ZM186.807 41.7822C186.234 41.7822 185.754 41.6139 185.367 41.2773C184.988 40.9336 184.798 40.4967 184.798 39.9668C184.798 39.4368 184.988 39.0036 185.367 38.667C185.754 38.3232 186.234 38.1514 186.807 38.1514C187.394 38.1514 187.874 38.3268 188.246 38.6777C188.626 39.0215 188.815 39.4512 188.815 39.9668C188.815 40.4824 188.626 40.9157 188.246 41.2666C187.874 41.6104 187.394 41.7822 186.807 41.7822ZM205.745 44.7041C205.695 45.7926 205.401 46.7559 204.864 47.5938C204.327 48.4245 203.572 49.069 202.598 49.5273C201.631 49.9857 200.524 50.2148 199.278 50.2148C197.223 50.2148 195.604 49.5452 194.423 48.2061C193.241 46.8669 192.65 44.9762 192.65 42.5342V41.7607C192.65 40.2282 192.915 38.889 193.445 37.7432C193.982 36.5902 194.752 35.7021 195.755 35.0791C196.757 34.4489 197.918 34.1338 199.235 34.1338C201.133 34.1338 202.659 34.6351 203.812 35.6377C204.965 36.6331 205.62 38.0081 205.777 39.7627H202.018C201.989 38.8102 201.749 38.1263 201.298 37.7109C200.847 37.2956 200.159 37.0879 199.235 37.0879C198.297 37.0879 197.61 37.4388 197.173 38.1406C196.736 38.8424 196.507 39.9632 196.485 41.5029V42.6094C196.485 44.278 196.693 45.4704 197.108 46.1865C197.531 46.9027 198.254 47.2607 199.278 47.2607C200.145 47.2607 200.807 47.0566 201.266 46.6484C201.724 46.2402 201.967 45.5921 201.996 44.7041H205.745ZM206.905 44.0811C206.905 42.9209 207.131 41.8896 207.582 40.9873C208.033 40.0778 208.681 39.3796 209.526 38.8926C210.371 38.4056 211.363 38.1621 212.502 38.1621C214.242 38.1621 215.614 38.7028 216.616 39.7842C217.619 40.8584 218.12 42.3229 218.12 44.1777V44.3066C218.12 46.1185 217.615 47.5579 216.605 48.625C215.603 49.6849 214.242 50.2148 212.523 50.2148C210.869 50.2148 209.541 49.7207 208.538 48.7324C207.535 47.737 206.995 46.3906 206.916 44.6934L206.905 44.0811ZM210.525 44.3066C210.525 45.3809 210.694 46.1686 211.03 46.6699C211.367 47.1712 211.865 47.4219 212.523 47.4219C213.812 47.4219 214.471 46.43 214.5 44.4463V44.0811C214.5 41.9971 213.834 40.9551 212.502 40.9551C211.292 40.9551 210.636 41.8538 210.536 43.6514L210.525 44.3066ZM212.996 33.5H216.82L213.834 36.873H210.88L212.996 33.5ZM223.137 38.377L223.255 39.7412C224.078 38.6885 225.185 38.1621 226.574 38.1621C228.042 38.1621 229.034 38.7458 229.55 39.9131C230.338 38.7458 231.476 38.1621 232.966 38.1621C235.322 38.1621 236.532 39.5872 236.597 42.4375V50H232.966V42.6631C232.966 42.0687 232.866 41.6354 232.665 41.3633C232.465 41.0911 232.099 40.9551 231.569 40.9551C230.853 40.9551 230.32 41.2738 229.969 41.9111L229.979 42.0615V50H226.349V42.6846C226.349 42.0758 226.252 41.6354 226.059 41.3633C225.865 41.0911 225.496 40.9551 224.952 40.9551C224.257 40.9551 223.728 41.2738 223.362 41.9111V50H219.742V38.377H223.137ZM238.208 44.0811C238.208 42.9209 238.434 41.8896 238.885 40.9873C239.336 40.0778 239.984 39.3796 240.829 38.8926C241.674 38.4056 242.666 38.1621 243.805 38.1621C245.545 38.1621 246.916 38.7028 247.919 39.7842C248.922 40.8584 249.423 42.3229 249.423 44.1777V44.3066C249.423 46.1185 248.918 47.5579 247.908 48.625C246.906 49.6849 245.545 50.2148 243.826 50.2148C242.172 50.2148 240.843 49.7207 239.841 48.7324C238.838 47.737 238.298 46.3906 238.219 44.6934L238.208 44.0811ZM241.828 44.3066C241.828 45.3809 241.996 46.1686 242.333 46.6699C242.67 47.1712 243.167 47.4219 243.826 47.4219C245.115 47.4219 245.774 46.43 245.803 44.4463V44.0811C245.803 41.9971 245.137 40.9551 243.805 40.9551C242.594 40.9551 241.939 41.8538 241.839 43.6514L241.828 44.3066ZM262.582 46.7344C262.582 46.4264 262.421 46.1794 262.099 45.9932C261.776 45.807 261.164 45.6136 260.262 45.4131C259.359 45.2126 258.615 44.9512 258.027 44.6289C257.44 44.2995 256.993 43.902 256.685 43.4365C256.377 42.971 256.223 42.4375 256.223 41.8359C256.223 40.7689 256.663 39.8916 257.544 39.2041C258.425 38.5094 259.578 38.1621 261.003 38.1621C262.535 38.1621 263.767 38.5094 264.698 39.2041C265.629 39.8988 266.095 40.8118 266.095 41.9434H262.464C262.464 41.0124 261.973 40.5469 260.992 40.5469C260.613 40.5469 260.294 40.6543 260.036 40.8691C259.778 41.0768 259.649 41.3382 259.649 41.6533C259.649 41.9756 259.807 42.237 260.122 42.4375C260.437 42.638 260.938 42.8027 261.626 42.9316C262.321 43.0605 262.929 43.2145 263.452 43.3936C265.2 43.9951 266.073 45.0729 266.073 46.627C266.073 47.6868 265.601 48.5498 264.655 49.2158C263.717 49.8818 262.5 50.2148 261.003 50.2148C260.007 50.2148 259.119 50.0358 258.339 49.6777C257.558 49.3197 256.95 48.8327 256.513 48.2168C256.076 47.6009 255.857 46.9528 255.857 46.2725H259.241C259.256 46.8096 259.435 47.2035 259.778 47.4541C260.122 47.6976 260.562 47.8193 261.1 47.8193C261.594 47.8193 261.963 47.7191 262.206 47.5186C262.457 47.318 262.582 47.0566 262.582 46.7344ZM267.319 44.0811C267.319 42.9209 267.545 41.8896 267.996 40.9873C268.447 40.0778 269.095 39.3796 269.94 38.8926C270.785 38.4056 271.777 38.1621 272.916 38.1621C274.656 38.1621 276.028 38.7028 277.03 39.7842C278.033 40.8584 278.534 42.3229 278.534 44.1777V44.3066C278.534 46.1185 278.029 47.5579 277.02 48.625C276.017 49.6849 274.656 50.2148 272.938 50.2148C271.283 50.2148 269.955 49.7207 268.952 48.7324C267.95 47.737 267.409 46.3906 267.33 44.6934L267.319 44.0811ZM270.939 44.3066C270.939 45.3809 271.108 46.1686 271.444 46.6699C271.781 47.1712 272.279 47.4219 272.938 47.4219C274.227 47.4219 274.885 46.43 274.914 44.4463V44.0811C274.914 41.9971 274.248 40.9551 272.916 40.9551C271.706 40.9551 271.05 41.8538 270.95 43.6514L270.939 44.3066ZM283.948 50H280.317V33.5H283.948V50ZM290.007 50H286.376V38.377H290.007V50ZM286.161 35.3799C286.161 34.8643 286.347 34.4417 286.72 34.1123C287.092 33.7829 287.576 33.6182 288.17 33.6182C288.764 33.6182 289.248 33.7829 289.62 34.1123C289.993 34.4417 290.179 34.8643 290.179 35.3799C290.179 35.8955 289.993 36.318 289.62 36.6475C289.248 36.9769 288.764 37.1416 288.17 37.1416C287.576 37.1416 287.092 36.9769 286.72 36.6475C286.347 36.318 286.161 35.8955 286.161 35.3799ZM297.161 47.4219C297.67 47.4219 298.063 47.2858 298.343 47.0137C298.622 46.7344 298.758 46.3477 298.751 45.8535H302.146C302.146 47.1283 301.687 48.1738 300.771 48.9902C299.861 49.8066 298.687 50.2148 297.247 50.2148C295.557 50.2148 294.225 49.6849 293.251 48.625C292.277 47.5651 291.79 46.097 291.79 44.2207V44.0703C291.79 42.8958 292.005 41.861 292.435 40.9658C292.871 40.0635 293.498 39.3724 294.314 38.8926C295.131 38.4056 296.098 38.1621 297.215 38.1621C298.726 38.1621 299.925 38.5811 300.813 39.4189C301.701 40.2568 302.146 41.3919 302.146 42.8242H298.751C298.751 42.2227 298.604 41.7607 298.311 41.4385C298.017 41.1162 297.623 40.9551 297.129 40.9551C296.191 40.9551 295.643 41.5531 295.485 42.749C295.435 43.1286 295.41 43.6514 295.41 44.3174C295.41 45.4847 295.55 46.2939 295.829 46.7451C296.108 47.1963 296.552 47.4219 297.161 47.4219ZM307.495 50H303.864V38.377H307.495V50ZM303.649 35.3799C303.649 34.8643 303.836 34.4417 304.208 34.1123C304.58 33.7829 305.064 33.6182 305.658 33.6182C306.253 33.6182 306.736 33.7829 307.108 34.1123C307.481 34.4417 307.667 34.8643 307.667 35.3799C307.667 35.8955 307.481 36.318 307.108 36.6475C306.736 36.9769 306.253 37.1416 305.658 37.1416C305.064 37.1416 304.58 36.9769 304.208 36.6475C303.836 36.318 303.649 35.8955 303.649 35.3799ZM313.951 35.4873V38.377H315.863V40.8906H313.951V46.208C313.951 46.6449 314.03 46.9492 314.188 47.1211C314.345 47.293 314.657 47.3789 315.122 47.3789C315.48 47.3789 315.781 47.3574 316.024 47.3145V49.9033C315.373 50.111 314.692 50.2148 313.983 50.2148C312.737 50.2148 311.817 49.9212 311.223 49.334C310.628 48.7467 310.331 47.8551 310.331 46.6592V40.8906H308.849V38.377H310.331V35.4873H313.951ZM323.845 50C323.716 49.7637 323.601 49.4163 323.501 48.958C322.835 49.7959 321.904 50.2148 320.708 50.2148C319.612 50.2148 318.681 49.8854 317.915 49.2266C317.149 48.5605 316.766 47.7262 316.766 46.7236C316.766 45.4632 317.231 44.5107 318.162 43.8662C319.093 43.2217 320.447 42.8994 322.223 42.8994H323.34V42.2871C323.34 41.2201 322.878 40.6865 321.954 40.6865C321.095 40.6865 320.665 41.109 320.665 41.9541H317.045C317.045 40.8298 317.521 39.9167 318.474 39.2148C319.433 38.513 320.654 38.1621 322.137 38.1621C323.619 38.1621 324.79 38.5238 325.649 39.2471C326.509 39.9704 326.949 40.9622 326.971 42.2227V47.3682C326.985 48.4352 327.15 49.2516 327.465 49.8174V50H323.845ZM321.578 47.6367C322.029 47.6367 322.402 47.54 322.695 47.3467C322.996 47.1533 323.211 46.9349 323.34 46.6914V44.833H322.287C321.027 44.833 320.396 45.3988 320.396 46.5303C320.396 46.8597 320.507 47.1283 320.729 47.3359C320.951 47.5365 321.234 47.6367 321.578 47.6367ZM336.016 41.6533L334.823 41.5674C333.685 41.5674 332.954 41.9255 332.632 42.6416V50H329.012V38.377H332.406L332.524 39.8701C333.133 38.7314 333.982 38.1621 335.07 38.1621C335.457 38.1621 335.794 38.2051 336.08 38.291L336.016 41.6533ZM176.473 74.7432C175.706 75.7243 174.672 76.2148 173.368 76.2148C172.093 76.2148 171.127 75.846 170.468 75.1084C169.816 74.3636 169.49 73.2965 169.49 71.9072V64.377H173.11V71.9287C173.11 72.9242 173.594 73.4219 174.561 73.4219C175.391 73.4219 175.982 73.1247 176.333 72.5303V64.377H179.975V76H176.58L176.473 74.7432ZM185.292 64.377L185.41 65.7412C186.212 64.6885 187.319 64.1621 188.729 64.1621C189.94 64.1621 190.842 64.5238 191.437 65.2471C192.038 65.9704 192.35 67.0589 192.371 68.5127V76H188.74V68.6631C188.74 68.0758 188.622 67.6462 188.386 67.374C188.149 67.0947 187.72 66.9551 187.097 66.9551C186.388 66.9551 185.861 67.2344 185.518 67.793V76H181.897V64.377H185.292ZM204.499 71.6924L206.336 64.377H210.149L206.357 76H202.662L198.87 64.377H202.694L204.499 71.6924ZM215.048 76H211.417V64.377H215.048V76ZM211.202 61.3799C211.202 60.8643 211.388 60.4417 211.761 60.1123C212.133 59.7829 212.617 59.6182 213.211 59.6182C213.805 59.6182 214.289 59.7829 214.661 60.1123C215.034 60.4417 215.22 60.8643 215.22 61.3799C215.22 61.8955 215.034 62.318 214.661 62.6475C214.289 62.9769 213.805 63.1416 213.211 63.1416C212.617 63.1416 212.133 62.9769 211.761 62.6475C211.388 62.318 211.202 61.8955 211.202 61.3799ZM216.831 70.1025C216.831 68.262 217.229 66.8118 218.023 65.752C218.818 64.6921 219.928 64.1621 221.354 64.1621C222.392 64.1621 223.266 64.5703 223.975 65.3867V59.5H227.605V76H224.351L224.168 74.7539C223.423 75.7279 222.478 76.2148 221.332 76.2148C219.95 76.2148 218.854 75.6849 218.045 74.625C217.236 73.5651 216.831 72.0576 216.831 70.1025ZM220.451 70.3281C220.451 72.3906 221.053 73.4219 222.256 73.4219C223.058 73.4219 223.631 73.0853 223.975 72.4121V67.9863C223.645 67.2988 223.079 66.9551 222.277 66.9551C221.16 66.9551 220.555 67.8574 220.462 69.6621L220.451 70.3281ZM235.286 76.2148C233.503 76.2148 232.06 75.6849 230.957 74.625C229.854 73.5579 229.303 72.1722 229.303 70.4678V70.167C229.303 68.9782 229.521 67.929 229.958 67.0195C230.402 66.11 231.047 65.4082 231.892 64.9141C232.737 64.4128 233.739 64.1621 234.899 64.1621C236.532 64.1621 237.821 64.6706 238.767 65.6875C239.712 66.6973 240.185 68.1081 240.185 69.9199V71.3271H232.987C233.116 71.9788 233.399 72.4909 233.836 72.8633C234.273 73.2357 234.839 73.4219 235.533 73.4219C236.679 73.4219 237.574 73.0208 238.219 72.2188L239.873 74.1738C239.422 74.7969 238.781 75.2946 237.95 75.667C237.127 76.0322 236.239 76.2148 235.286 76.2148ZM234.878 66.9551C233.818 66.9551 233.188 67.6569 232.987 69.0605H236.64V68.7812C236.654 68.2012 236.507 67.7536 236.199 67.4385C235.891 67.1162 235.451 66.9551 234.878 66.9551ZM241.194 70.0811C241.194 68.9209 241.42 67.8896 241.871 66.9873C242.322 66.0778 242.97 65.3796 243.815 64.8926C244.66 64.4056 245.652 64.1621 246.791 64.1621C248.531 64.1621 249.903 64.7028 250.905 65.7842C251.908 66.8584 252.409 68.3229 252.409 70.1777V70.3066C252.409 72.1185 251.904 73.5579 250.895 74.625C249.892 75.6849 248.531 76.2148 246.812 76.2148C245.158 76.2148 243.83 75.7207 242.827 74.7324C241.825 73.737 241.284 72.3906 241.205 70.6934L241.194 70.0811ZM244.814 70.3066C244.814 71.3809 244.983 72.1686 245.319 72.6699C245.656 73.1712 246.154 73.4219 246.812 73.4219C248.102 73.4219 248.76 72.43 248.789 70.4463V70.0811C248.789 67.9971 248.123 66.9551 246.791 66.9551C245.581 66.9551 244.925 67.8538 244.825 69.6514L244.814 70.3066ZM257.426 64.377L257.544 65.7412C258.368 64.6885 259.474 64.1621 260.863 64.1621C262.331 64.1621 263.323 64.7458 263.839 65.9131C264.627 64.7458 265.765 64.1621 267.255 64.1621C269.611 64.1621 270.821 65.5872 270.886 68.4375V76H267.255V68.6631C267.255 68.0687 267.155 67.6354 266.954 67.3633C266.754 67.0911 266.388 66.9551 265.858 66.9551C265.142 66.9551 264.609 67.2738 264.258 67.9111L264.269 68.0615V76H260.638V68.6846C260.638 68.0758 260.541 67.6354 260.348 67.3633C260.154 67.0911 259.785 66.9551 259.241 66.9551C258.547 66.9551 258.017 67.2738 257.651 67.9111V76H254.031V64.377H257.426ZM278.577 76.2148C276.794 76.2148 275.351 75.6849 274.248 74.625C273.145 73.5579 272.594 72.1722 272.594 70.4678V70.167C272.594 68.9782 272.812 67.929 273.249 67.0195C273.693 66.11 274.338 65.4082 275.183 64.9141C276.028 64.4128 277.03 64.1621 278.19 64.1621C279.823 64.1621 281.112 64.6706 282.058 65.6875C283.003 66.6973 283.476 68.1081 283.476 69.9199V71.3271H276.278C276.407 71.9788 276.69 72.4909 277.127 72.8633C277.564 73.2357 278.13 73.4219 278.824 73.4219C279.97 73.4219 280.865 73.0208 281.51 72.2188L283.164 74.1738C282.713 74.7969 282.072 75.2946 281.241 75.667C280.418 76.0322 279.53 76.2148 278.577 76.2148ZM278.169 66.9551C277.109 66.9551 276.479 67.6569 276.278 69.0605H279.931V68.7812C279.945 68.2012 279.798 67.7536 279.49 67.4385C279.182 67.1162 278.742 66.9551 278.169 66.9551ZM288.267 64.377L288.385 65.7412C289.187 64.6885 290.293 64.1621 291.704 64.1621C292.914 64.1621 293.817 64.5238 294.411 65.2471C295.013 65.9704 295.324 67.0589 295.346 68.5127V76H291.715V68.6631C291.715 68.0758 291.597 67.6462 291.36 67.374C291.124 67.0947 290.694 66.9551 290.071 66.9551C289.362 66.9551 288.836 67.2344 288.492 67.793V76H284.872V64.377H288.267ZM303.445 72.7344C303.445 72.4264 303.284 72.1794 302.962 71.9932C302.64 71.807 302.027 71.6136 301.125 71.4131C300.223 71.2126 299.478 70.9512 298.891 70.6289C298.303 70.2995 297.856 69.902 297.548 69.4365C297.24 68.971 297.086 68.4375 297.086 67.8359C297.086 66.7689 297.526 65.8916 298.407 65.2041C299.288 64.5094 300.441 64.1621 301.866 64.1621C303.399 64.1621 304.631 64.5094 305.562 65.2041C306.493 65.8988 306.958 66.8118 306.958 67.9434H303.327C303.327 67.0124 302.837 66.5469 301.855 66.5469C301.476 66.5469 301.157 66.6543 300.899 66.8691C300.642 67.0768 300.513 67.3382 300.513 67.6533C300.513 67.9756 300.67 68.237 300.985 68.4375C301.3 68.638 301.802 68.8027 302.489 68.9316C303.184 69.0605 303.793 69.2145 304.315 69.3936C306.063 69.9951 306.937 71.0729 306.937 72.627C306.937 73.6868 306.464 74.5498 305.519 75.2158C304.58 75.8818 303.363 76.2148 301.866 76.2148C300.871 76.2148 299.983 76.0358 299.202 75.6777C298.422 75.3197 297.813 74.8327 297.376 74.2168C296.939 73.6009 296.721 72.9528 296.721 72.2725H300.104C300.119 72.8096 300.298 73.2035 300.642 73.4541C300.985 73.6976 301.426 73.8193 301.963 73.8193C302.457 73.8193 302.826 73.7191 303.069 73.5186C303.32 73.318 303.445 73.0566 303.445 72.7344ZM315.187 76C315.058 75.7637 314.943 75.4163 314.843 74.958C314.177 75.7959 313.246 76.2148 312.05 76.2148C310.954 76.2148 310.023 75.8854 309.257 75.2266C308.491 74.5605 308.107 73.7262 308.107 72.7236C308.107 71.4632 308.573 70.5107 309.504 69.8662C310.435 69.2217 311.788 68.8994 313.564 68.8994H314.682V68.2871C314.682 67.2201 314.22 66.6865 313.296 66.6865C312.437 66.6865 312.007 67.109 312.007 67.9541H308.387C308.387 66.8298 308.863 65.9167 309.815 65.2148C310.775 64.513 311.996 64.1621 313.479 64.1621C314.961 64.1621 316.132 64.5238 316.991 65.2471C317.851 65.9704 318.291 66.9622 318.312 68.2227V73.3682C318.327 74.4352 318.492 75.2516 318.807 75.8174V76H315.187ZM312.92 73.6367C313.371 73.6367 313.743 73.54 314.037 73.3467C314.338 73.1533 314.553 72.9349 314.682 72.6914V70.833H313.629C312.368 70.833 311.738 71.3988 311.738 72.5303C311.738 72.8597 311.849 73.1283 312.071 73.3359C312.293 73.5365 312.576 73.6367 312.92 73.6367ZM324.221 64.377V76.3975C324.214 77.7725 323.82 78.8324 323.039 79.5771C322.258 80.3219 321.17 80.6943 319.773 80.6943C319.172 80.6943 318.603 80.6335 318.065 80.5117V77.7725C318.481 77.8369 318.821 77.8691 319.086 77.8691C320.089 77.8691 320.59 77.3714 320.59 76.376V64.377H324.221ZM320.321 61.3799C320.321 60.8643 320.507 60.4417 320.88 60.1123C321.252 59.7829 321.736 59.6182 322.33 59.6182C322.924 59.6182 323.408 59.7829 323.78 60.1123C324.153 60.4417 324.339 60.8643 324.339 61.3799C324.339 61.8955 324.153 62.318 323.78 62.6475C323.408 62.9769 322.924 63.1416 322.33 63.1416C321.736 63.1416 321.252 62.9769 320.88 62.6475C320.507 62.318 320.321 61.8955 320.321 61.3799ZM331.901 76.2148C330.118 76.2148 328.675 75.6849 327.572 74.625C326.469 73.5579 325.918 72.1722 325.918 70.4678V70.167C325.918 68.9782 326.136 67.929 326.573 67.0195C327.017 66.11 327.662 65.4082 328.507 64.9141C329.352 64.4128 330.354 64.1621 331.515 64.1621C333.147 64.1621 334.437 64.6706 335.382 65.6875C336.327 66.6973 336.8 68.1081 336.8 69.9199V71.3271H329.603C329.731 71.9788 330.014 72.4909 330.451 72.8633C330.888 73.2357 331.454 73.4219 332.148 73.4219C333.294 73.4219 334.189 73.0208 334.834 72.2188L336.488 74.1738C336.037 74.7969 335.396 75.2946 334.565 75.667C333.742 76.0322 332.854 76.2148 331.901 76.2148ZM331.493 66.9551C330.433 66.9551 329.803 67.6569 329.603 69.0605H333.255V68.7812C333.269 68.2012 333.122 67.7536 332.814 67.4385C332.507 67.1162 332.066 66.9551 331.493 66.9551ZM340.946 71.0479C340.946 70.0023 341.064 69.1787 341.301 68.5771C341.537 67.9684 341.92 67.4421 342.45 66.998C342.98 66.554 343.381 66.1494 343.653 65.7842C343.933 65.4118 344.072 65.0036 344.072 64.5596C344.072 63.4782 343.607 62.9375 342.676 62.9375C342.246 62.9375 341.899 63.0951 341.634 63.4102C341.369 63.7253 341.229 64.1514 341.215 64.6885H337.584C337.598 63.2562 338.049 62.1426 338.938 61.3477C339.826 60.5456 341.072 60.1445 342.676 60.1445C344.273 60.1445 345.508 60.5133 346.382 61.251C347.263 61.9886 347.703 63.0378 347.703 64.3984C347.703 64.9928 347.585 65.5335 347.349 66.0205C347.112 66.5075 346.733 67.0052 346.21 67.5137L344.975 68.6631C344.624 68.9997 344.38 69.347 344.244 69.7051C344.108 70.056 344.033 70.5036 344.019 71.0479H340.946ZM340.506 74.3135C340.506 73.7835 340.696 73.3503 341.075 73.0137C341.462 72.6699 341.942 72.498 342.515 72.498C343.088 72.498 343.564 72.6699 343.943 73.0137C344.33 73.3503 344.523 73.7835 344.523 74.3135C344.523 74.8434 344.33 75.2803 343.943 75.624C343.564 75.9606 343.088 76.1289 342.515 76.1289C341.942 76.1289 341.462 75.9606 341.075 75.624C340.696 75.2803 340.506 74.8434 340.506 74.3135Z" fill="#FB177D"/>
<path d="M117.482 138.036C116.957 138.033 116.444 138.18 116.008 138.454M117.482 138.036C117.483 138.036 117.483 138.036 117.483 138.036L117.482 138.336V138.036H117.482ZM117.482 138.036H117.525C119.044 138.036 120.287 139.265 120.291 140.793L120.292 141.119L116.008 138.454M116.008 138.454C115.537 137.598 114.63 137.01 113.584 137.01L113.582 137.01C112.987 137.014 112.413 137.206 111.947 137.553C111.447 136.842 110.622 136.38 109.69 136.38H109.647C109.262 136.375 108.884 136.453 108.538 136.607L116.008 138.454ZM118.658 146.628V146.628L118.658 146.592C118.661 144.258 118.663 143.383 118.656 140.796C118.655 140.131 118.138 139.617 117.525 139.617H117.482C116.859 139.617 116.332 140.127 116.332 140.787V141.976C116.332 142.427 115.953 142.767 115.517 142.767C115.081 142.767 114.702 142.427 114.702 141.976V139.78C114.702 139.104 114.194 138.585 113.587 138.585C112.975 138.585 112.468 139.105 112.468 139.78V142.108C112.468 142.558 112.088 142.899 111.652 142.899C111.216 142.899 110.837 142.558 110.837 142.108V139.141C110.837 138.478 110.31 137.961 109.69 137.961H109.645C109.041 137.961 108.538 138.449 108.538 139.077V142.417C108.538 142.868 108.159 143.208 107.723 143.208C107.287 143.208 106.908 142.868 106.908 142.417V139.177L106.907 139.174L106.907 139.161C106.907 139.158 106.907 139.155 106.906 139.151C106.906 139.148 106.906 139.144 106.906 139.14C106.906 139.123 106.907 139.107 106.907 139.094L106.907 139.093C106.907 139.079 106.908 139.069 106.908 139.06V131.476C106.908 130.808 106.379 130.281 105.764 130.281C105.15 130.281 104.621 130.808 104.62 131.475L104.62 131.475L104.611 144.054L104.611 144.054L104.311 144.054C104.311 144.261 104.174 144.446 103.969 144.515L118.658 146.628ZM118.658 146.628C118.658 146.937 118.657 147.271 118.657 147.638C118.656 148.321 118.655 149.116 118.654 150.067C118.651 152.637 116.616 154.718 114.134 154.718H107.813C106.185 154.718 104.674 153.807 103.873 152.341L98.549 142.601L118.658 146.628ZM120.298 147.961C120.297 147.469 120.296 147.034 120.296 146.632L108.238 131.476C108.238 130.111 107.122 129 105.764 129C104.407 129 103.297 130.11 103.296 131.474L102.996 131.474L102.996 131.474L102.985 141.88L102.846 141.719C102.208 140.963 101.272 140.497 100.264 140.427L100.263 140.427C99.2767 140.363 98.3039 140.688 97.5739 141.331L97.0007 141.783L97.0006 141.783C96.7021 142.019 96.6109 142.429 96.7949 142.766L96.7949 142.766L102.431 153.082L102.432 153.083C103.514 155.062 105.575 156.3 107.812 156.3H114.164H114.464V156.287C117.716 156.128 120.296 153.393 120.3 150.067V150.067C120.301 149.253 120.299 148.564 120.298 147.961Z" fill="#FB177D" stroke="#FB177D" stroke-width="0.6"/>
<path d="M109.58 128.495C109.581 128.968 109.995 129.3 110.44 129.3C110.885 129.3 111.3 128.968 111.3 128.495L111.3 128.494C111.289 125.815 108.89 123.7 106 123.7C103.11 123.7 100.711 125.815 100.7 128.494V128.495C100.7 128.968 101.115 129.3 101.56 129.3C102.005 129.3 102.42 128.968 102.42 128.495H102.12L102.42 128.496C102.428 126.761 103.999 125.308 106 125.308C108.001 125.308 109.572 126.761 109.58 128.495ZM109.58 128.495C109.58 128.495 109.58 128.495 109.58 128.495H109.88L109.58 128.496C109.58 128.496 109.58 128.496 109.58 128.495Z" fill="#FB177D" stroke="#FB177D" stroke-width="0.6"/>
</svg>
