<svg width="571" height="145" viewBox="0 0 571 145" fill="none" xmlns="http://www.w3.org/2000/svg">
<rect width="571" height="145" fill="white"/>
<path d="M198.072 76.764C198.072 74.016 196.896 72.504 194.892 72.504H192.936V81H194.88C196.884 81 198.072 79.5 198.072 76.764ZM196.992 76.764C196.992 78.972 196.08 80.052 194.88 80.052H194.004V73.452H194.88C196.08 73.452 196.992 74.52 196.992 76.764ZM202.941 81C202.893 80.712 202.857 80.148 202.857 79.74V77.304C202.857 75.696 202.401 74.772 201.021 74.772C200.397 74.772 199.689 75.084 199.293 75.624L199.809 76.26C200.073 75.9 200.481 75.648 200.925 75.648C201.525 75.648 201.921 76.056 201.921 76.992V77.256H201.525C200.469 77.256 199.089 77.628 199.089 79.368C199.089 80.664 199.893 81.156 200.565 81.156C201.357 81.156 201.813 80.724 201.981 80.004H202.005C202.005 80.22 202.041 80.64 202.101 81H202.941ZM201.945 78.384C201.945 79.212 201.669 80.328 200.841 80.328C200.421 80.328 200.049 79.992 200.049 79.26C200.049 78.252 200.781 78.036 201.501 78.036H201.945V78.384ZM209.966 80.652L209.51 79.86C209.318 80.1 209.066 80.256 208.694 80.256C207.842 80.256 207.494 79.32 207.494 77.988C207.494 76.644 207.866 75.684 208.634 75.684C209.006 75.684 209.246 75.84 209.438 76.056L209.954 75.288C209.702 75.036 209.258 74.772 208.622 74.772C207.194 74.772 206.438 76.08 206.438 77.988C206.438 79.896 207.158 81.204 208.61 81.204C209.186 81.204 209.642 81.012 209.966 80.652ZM211.931 81V71.928H210.899V81H211.931ZM214.841 73.188C214.841 72.804 214.565 72.504 214.205 72.504C213.845 72.504 213.569 72.804 213.569 73.188C213.569 73.584 213.845 73.872 214.205 73.872C214.553 73.872 214.841 73.584 214.841 73.188ZM214.709 81V74.976H213.689V81H214.709ZM219.67 80.652L219.214 79.86C219.022 80.1 218.77 80.256 218.398 80.256C217.546 80.256 217.198 79.32 217.198 77.988C217.198 76.644 217.57 75.684 218.338 75.684C218.71 75.684 218.95 75.84 219.142 76.056L219.658 75.288C219.406 75.036 218.962 74.772 218.326 74.772C216.898 74.772 216.142 76.08 216.142 77.988C216.142 79.896 216.862 81.204 218.314 81.204C218.89 81.204 219.346 81.012 219.67 80.652ZM196.764 92.252V91.76C196.764 90.092 196.212 88.772 194.736 88.772C193.416 88.772 192.54 90.092 192.54 92C192.54 94.004 193.38 95.204 194.748 95.204C195.672 95.204 196.272 94.652 196.584 93.884L195.816 93.44C195.624 93.896 195.324 94.292 194.784 94.292C193.98 94.292 193.584 93.392 193.572 92.252H196.764ZM195.732 91.424H193.596C193.596 90.776 193.896 89.66 194.712 89.66C195.408 89.66 195.732 90.38 195.732 91.424ZM202.241 95V91.16C202.241 89.972 202.001 88.772 200.705 88.772C199.961 88.772 199.421 89.324 199.193 90.02H199.169C199.169 89.828 199.145 89.372 199.097 88.976H198.125C198.161 89.42 198.173 90.02 198.173 90.5V95H199.193V91.544C199.193 90.464 199.673 89.684 200.357 89.684C201.113 89.684 201.209 90.476 201.209 91.16V95H202.241ZM210.123 92.252V91.76C210.123 90.092 209.571 88.772 208.095 88.772C206.775 88.772 205.899 90.092 205.899 92C205.899 94.004 206.739 95.204 208.107 95.204C209.031 95.204 209.631 94.652 209.943 93.884L209.175 93.44C208.983 93.896 208.683 94.292 208.143 94.292C207.339 94.292 206.943 93.392 206.931 92.252H210.123ZM209.091 91.424H206.955C206.955 90.776 207.255 89.66 208.071 89.66C208.767 89.66 209.091 90.38 209.091 91.424ZM212.541 95V85.928H211.509V95H212.541ZM216.583 95H217.579V94.052H217.603C217.795 94.7 218.179 95.204 219.007 95.204C220.231 95.204 220.927 93.824 220.927 91.952C220.927 90.092 220.267 88.772 219.007 88.772C218.311 88.772 217.807 89.216 217.627 89.84H217.603V85.928H216.583V95ZM217.579 91.988C217.579 90.68 217.975 89.66 218.743 89.66C219.535 89.66 219.871 90.68 219.871 91.988C219.871 93.284 219.535 94.304 218.743 94.304C217.963 94.304 217.579 93.284 217.579 91.988ZM226.393 92C226.393 90.068 225.565 88.772 224.197 88.772C222.817 88.772 222.013 90.068 222.013 92C222.013 93.908 222.841 95.204 224.197 95.204C225.565 95.204 226.393 93.908 226.393 92ZM225.337 91.988C225.337 93.296 224.989 94.304 224.197 94.304C223.417 94.304 223.069 93.296 223.069 91.988C223.069 90.668 223.417 89.66 224.197 89.66C224.977 89.66 225.337 90.668 225.337 91.988ZM229.958 94.988L229.934 94.172C229.826 94.22 229.646 94.268 229.502 94.268C229.082 94.268 228.878 93.968 228.878 93.272V89.804H229.946V88.976H228.878V87.368H227.882V88.976H227.126V89.804H227.894V93.476C227.894 94.52 228.254 95.156 229.178 95.156C229.466 95.156 229.778 95.084 229.958 94.988ZM235.018 92C235.018 90.068 234.19 88.772 232.822 88.772C231.442 88.772 230.638 90.068 230.638 92C230.638 93.908 231.466 95.204 232.822 95.204C234.19 95.204 235.018 93.908 235.018 92ZM233.962 91.988C233.962 93.296 233.614 94.304 232.822 94.304C232.042 94.304 231.694 93.296 231.694 91.988C231.694 90.668 232.042 89.66 232.822 89.66C233.602 89.66 233.962 90.668 233.962 91.988ZM234.238 86.42H233.23L232.15 88.148H232.954L234.238 86.42ZM240.527 95V91.16C240.527 89.972 240.287 88.772 238.991 88.772C238.247 88.772 237.707 89.324 237.479 90.02H237.455C237.455 89.828 237.431 89.372 237.383 88.976H236.411C236.447 89.42 236.459 90.02 236.459 90.5V95H237.479V91.544C237.479 90.464 237.959 89.684 238.643 89.684C239.399 89.684 239.495 90.476 239.495 91.16V95H240.527ZM196.884 109V99.928H195.864V103.84H195.84C195.66 103.216 195.156 102.772 194.46 102.772C193.2 102.772 192.54 104.092 192.54 105.952C192.54 107.824 193.236 109.204 194.46 109.204C195.288 109.204 195.672 108.7 195.864 108.052H195.888V109H196.884ZM195.888 105.988C195.888 107.284 195.504 108.304 194.724 108.304C193.932 108.304 193.596 107.284 193.596 105.988C193.596 104.68 193.932 103.66 194.724 103.66C195.492 103.66 195.888 104.68 195.888 105.988ZM202.53 106.252V105.76C202.53 104.092 201.978 102.772 200.502 102.772C199.182 102.772 198.306 104.092 198.306 106C198.306 108.004 199.146 109.204 200.514 109.204C201.438 109.204 202.038 108.652 202.35 107.884L201.582 107.44C201.39 107.896 201.09 108.292 200.55 108.292C199.746 108.292 199.35 107.392 199.338 106.252H202.53ZM201.498 105.424H199.362C199.362 104.776 199.662 103.66 200.478 103.66C201.174 103.66 201.498 104.38 201.498 105.424ZM209.632 109C209.584 108.712 209.548 108.148 209.548 107.74V105.304C209.548 103.696 209.092 102.772 207.712 102.772C207.088 102.772 206.38 103.084 205.984 103.624L206.5 104.26C206.764 103.9 207.172 103.648 207.616 103.648C208.216 103.648 208.612 104.056 208.612 104.992V105.256H208.216C207.16 105.256 205.78 105.628 205.78 107.368C205.78 108.664 206.584 109.156 207.256 109.156C208.048 109.156 208.504 108.724 208.672 108.004H208.696C208.696 108.22 208.732 108.64 208.792 109H209.632ZM208.636 106.384C208.636 107.212 208.36 108.328 207.532 108.328C207.112 108.328 206.74 107.992 206.74 107.26C206.74 106.252 207.472 106.036 208.192 106.036H208.636V106.384ZM212.225 104.224H212.201C212.201 103.828 212.177 103.372 212.129 102.976H211.157C211.193 103.42 211.205 104.02 211.205 104.5V109H212.237V105.952C212.237 104.908 212.657 103.828 213.425 103.828C213.509 103.828 213.569 103.84 213.629 103.852L213.677 102.784C213.629 102.772 213.581 102.772 213.533 102.772C212.933 102.772 212.429 103.228 212.225 104.224ZM215.647 104.224H215.623C215.623 103.828 215.599 103.372 215.551 102.976H214.579C214.615 103.42 214.627 104.02 214.627 104.5V109H215.659V105.952C215.659 104.908 216.079 103.828 216.847 103.828C216.931 103.828 216.991 103.84 217.051 103.852L217.099 102.784C217.051 102.772 217.003 102.772 216.955 102.772C216.355 102.772 215.851 103.228 215.647 104.224ZM219.176 101.188C219.176 100.804 218.9 100.504 218.54 100.504C218.18 100.504 217.904 100.804 217.904 101.188C217.904 101.584 218.18 101.872 218.54 101.872C218.888 101.872 219.176 101.584 219.176 101.188ZM219.044 109V102.976H218.024V109H219.044ZM220.814 109H221.81V108.052H221.834C222.026 108.7 222.41 109.204 223.238 109.204C224.462 109.204 225.158 107.824 225.158 105.952C225.158 104.092 224.498 102.772 223.238 102.772C222.542 102.772 222.038 103.216 221.858 103.84H221.834V99.928H220.814V109ZM221.81 105.988C221.81 104.68 222.206 103.66 222.974 103.66C223.766 103.66 224.102 104.68 224.102 105.988C224.102 107.284 223.766 108.304 222.974 108.304C222.194 108.304 221.81 107.284 221.81 105.988ZM230.011 109C229.963 108.712 229.927 108.148 229.927 107.74V105.304C229.927 103.696 229.471 102.772 228.091 102.772C227.467 102.772 226.759 103.084 226.363 103.624L226.879 104.26C227.143 103.9 227.551 103.648 227.995 103.648C228.595 103.648 228.991 104.056 228.991 104.992V105.256H228.595C227.539 105.256 226.159 105.628 226.159 107.368C226.159 108.664 226.963 109.156 227.635 109.156C228.427 109.156 228.883 108.724 229.051 108.004H229.075C229.075 108.22 229.111 108.64 229.171 109H230.011ZM229.015 106.384C229.015 107.212 228.739 108.328 227.911 108.328C227.491 108.328 227.119 107.992 227.119 107.26C227.119 106.252 227.851 106.036 228.571 106.036H229.015V106.384ZM232.736 108.364C232.736 107.968 232.436 107.632 232.052 107.632C231.668 107.632 231.38 107.968 231.38 108.364C231.38 108.772 231.668 109.084 232.052 109.084C232.436 109.084 232.736 108.772 232.736 108.364Z" fill="#303541"/>
<path d="M298.072 76.764C298.072 74.016 296.896 72.504 294.892 72.504H292.936V81H294.88C296.884 81 298.072 79.5 298.072 76.764ZM296.992 76.764C296.992 78.972 296.08 80.052 294.88 80.052H294.004V73.452H294.88C296.08 73.452 296.992 74.52 296.992 76.764ZM303.397 78.252V77.76C303.397 76.092 302.845 74.772 301.369 74.772C300.049 74.772 299.173 76.092 299.173 78C299.173 80.004 300.013 81.204 301.381 81.204C302.305 81.204 302.905 80.652 303.217 79.884L302.449 79.44C302.257 79.896 301.957 80.292 301.417 80.292C300.613 80.292 300.217 79.392 300.205 78.252H303.397ZM302.365 77.424H300.229C300.229 76.776 300.529 75.66 301.345 75.66C302.041 75.66 302.365 76.38 302.365 77.424ZM306.93 80.988L306.906 80.172C306.798 80.22 306.618 80.268 306.474 80.268C306.054 80.268 305.85 79.968 305.85 79.272V75.804H306.918V74.976H305.85V73.368H304.854V74.976H304.098V75.804H304.866V79.476C304.866 80.52 305.226 81.156 306.15 81.156C306.438 81.156 306.75 81.084 306.93 80.988ZM311.378 81C311.33 80.712 311.294 80.148 311.294 79.74V77.304C311.294 75.696 310.838 74.772 309.458 74.772C308.834 74.772 308.126 75.084 307.73 75.624L308.246 76.26C308.51 75.9 308.918 75.648 309.362 75.648C309.962 75.648 310.358 76.056 310.358 76.992V77.256H309.962C308.906 77.256 307.526 77.628 307.526 79.368C307.526 80.664 308.33 81.156 309.002 81.156C309.794 81.156 310.25 80.724 310.418 80.004H310.442C310.442 80.22 310.478 80.64 310.538 81H311.378ZM310.382 78.384C310.382 79.212 310.106 80.328 309.278 80.328C308.858 80.328 308.486 79.992 308.486 79.26C308.486 78.252 309.218 78.036 309.938 78.036H310.382V78.384ZM313.959 81V71.928H312.927V81H313.959ZM316.748 81V71.928H315.716V81H316.748ZM321.937 81C321.889 80.712 321.853 80.148 321.853 79.74V77.304C321.853 75.696 321.397 74.772 320.017 74.772C319.393 74.772 318.685 75.084 318.289 75.624L318.805 76.26C319.069 75.9 319.477 75.648 319.921 75.648C320.521 75.648 320.917 76.056 320.917 76.992V77.256H320.521C319.465 77.256 318.085 77.628 318.085 79.368C318.085 80.664 318.889 81.156 319.561 81.156C320.353 81.156 320.809 80.724 320.977 80.004H321.001C321.001 80.22 321.037 80.64 321.097 81H321.937ZM320.941 78.384C320.941 79.212 320.665 80.328 319.837 80.328C319.417 80.328 319.045 79.992 319.045 79.26C319.045 78.252 319.777 78.036 320.497 78.036H320.941V78.384ZM326.803 81V71.928H325.771V81H326.803ZM331.992 81C331.944 80.712 331.908 80.148 331.908 79.74V77.304C331.908 75.696 331.452 74.772 330.072 74.772C329.448 74.772 328.74 75.084 328.344 75.624L328.86 76.26C329.124 75.9 329.532 75.648 329.976 75.648C330.576 75.648 330.972 76.056 330.972 76.992V77.256H330.576C329.52 77.256 328.14 77.628 328.14 79.368C328.14 80.664 328.944 81.156 329.616 81.156C330.408 81.156 330.864 80.724 331.032 80.004H331.056C331.056 80.22 331.092 80.64 331.152 81H331.992ZM330.996 78.384C330.996 79.212 330.72 80.328 329.892 80.328C329.472 80.328 329.1 79.992 329.1 79.26C329.1 78.252 329.832 78.036 330.552 78.036H330.996V78.384ZM338.801 75.444C338.465 75.048 337.937 74.772 337.229 74.772C336.233 74.772 335.453 75.48 335.453 76.536C335.453 77.628 336.089 78 336.701 78.228C337.301 78.456 337.781 78.672 337.781 79.356C337.781 79.944 337.469 80.352 336.953 80.352C336.413 80.352 336.053 80.064 335.789 79.728L335.189 80.388C335.585 80.88 336.209 81.204 336.917 81.204C337.961 81.204 338.753 80.532 338.753 79.284C338.753 78.204 338.045 77.736 337.373 77.484C336.737 77.244 336.425 77.064 336.425 76.5C336.425 75.948 336.773 75.588 337.229 75.588C337.673 75.588 338.009 75.816 338.213 76.116L338.801 75.444ZM344.1 78C344.1 76.068 343.272 74.772 341.904 74.772C340.524 74.772 339.72 76.068 339.72 78C339.72 79.908 340.548 81.204 341.904 81.204C343.272 81.204 344.1 79.908 344.1 78ZM343.044 77.988C343.044 79.296 342.696 80.304 341.904 80.304C341.124 80.304 340.776 79.296 340.776 77.988C340.776 76.668 341.124 75.66 341.904 75.66C342.684 75.66 343.044 76.668 343.044 77.988ZM346.549 81V71.928H345.517V81H346.549ZM349.458 73.188C349.458 72.804 349.182 72.504 348.822 72.504C348.462 72.504 348.186 72.804 348.186 73.188C348.186 73.584 348.462 73.872 348.822 73.872C349.17 73.872 349.458 73.584 349.458 73.188ZM349.326 81V74.976H348.306V81H349.326ZM354.287 80.652L353.831 79.86C353.639 80.1 353.387 80.256 353.015 80.256C352.163 80.256 351.815 79.32 351.815 77.988C351.815 76.644 352.187 75.684 352.955 75.684C353.327 75.684 353.567 75.84 353.759 76.056L354.275 75.288C354.023 75.036 353.579 74.772 352.943 74.772C351.515 74.772 350.759 76.08 350.759 77.988C350.759 79.896 351.479 81.204 352.931 81.204C353.507 81.204 353.963 81.012 354.287 80.652ZM356.372 73.188C356.372 72.804 356.096 72.504 355.736 72.504C355.376 72.504 355.1 72.804 355.1 73.188C355.1 73.584 355.376 73.872 355.736 73.872C356.084 73.872 356.372 73.584 356.372 73.188ZM356.24 81V74.976H355.22V81H356.24ZM360.157 80.988L360.133 80.172C360.025 80.22 359.845 80.268 359.701 80.268C359.281 80.268 359.077 79.968 359.077 79.272V75.804H360.145V74.976H359.077V73.368H358.081V74.976H357.325V75.804H358.093V79.476C358.093 80.52 358.453 81.156 359.377 81.156C359.665 81.156 359.977 81.084 360.157 80.988ZM361.125 74.976V78.816C361.125 80.004 361.365 81.204 362.661 81.204C363.405 81.204 363.945 80.652 364.173 79.956H364.197C364.197 80.148 364.221 80.604 364.269 81H365.241C365.205 80.556 365.193 79.956 365.193 79.476V74.976H364.173V78.432C364.173 79.512 363.693 80.292 363.009 80.292C362.253 80.292 362.157 79.5 362.157 78.816V74.976H361.125ZM370.982 81V71.928H369.962V75.84H369.938C369.758 75.216 369.254 74.772 368.558 74.772C367.298 74.772 366.638 76.092 366.638 77.952C366.638 79.824 367.334 81.204 368.558 81.204C369.386 81.204 369.77 80.7 369.962 80.052H369.986V81H370.982ZM369.986 77.988C369.986 79.284 369.602 80.304 368.822 80.304C368.03 80.304 367.694 79.284 367.694 77.988C367.694 76.68 368.03 75.66 368.822 75.66C369.59 75.66 369.986 76.68 369.986 77.988ZM378.732 74.976H377.688L376.608 79.8H376.584L375.396 74.976H374.316L376.092 81.18L375.864 82.128C375.732 82.644 375.528 82.944 375.072 82.944C374.904 82.944 374.724 82.908 374.592 82.86L374.46 83.784C374.616 83.832 374.892 83.88 375.168 83.88C376.164 83.88 376.584 83.184 376.872 82.092L378.732 74.976ZM293.92 90.224H293.896C293.896 89.828 293.872 89.372 293.824 88.976H292.852C292.888 89.42 292.9 90.02 292.9 90.5V95H293.932V91.952C293.932 90.908 294.352 89.828 295.12 89.828C295.204 89.828 295.264 89.84 295.324 89.852L295.372 88.784C295.324 88.772 295.276 88.772 295.228 88.772C294.628 88.772 294.124 89.228 293.92 90.224ZM300.116 92.252V91.76C300.116 90.092 299.564 88.772 298.088 88.772C296.768 88.772 295.892 90.092 295.892 92C295.892 94.004 296.732 95.204 298.1 95.204C299.024 95.204 299.624 94.652 299.936 93.884L299.168 93.44C298.976 93.896 298.676 94.292 298.136 94.292C297.332 94.292 296.936 93.392 296.924 92.252H300.116ZM299.084 91.424H296.948C296.948 90.776 297.248 89.66 298.064 89.66C298.76 89.66 299.084 90.38 299.084 91.424ZM304.863 95C304.815 94.712 304.779 94.148 304.779 93.74V91.304C304.779 89.696 304.323 88.772 302.943 88.772C302.319 88.772 301.611 89.084 301.215 89.624L301.731 90.26C301.995 89.9 302.403 89.648 302.847 89.648C303.447 89.648 303.843 90.056 303.843 90.992V91.256H303.447C302.391 91.256 301.011 91.628 301.011 93.368C301.011 94.664 301.815 95.156 302.487 95.156C303.279 95.156 303.735 94.724 303.903 94.004H303.927C303.927 94.22 303.963 94.64 304.023 95H304.863ZM303.867 92.384C303.867 93.212 303.591 94.328 302.763 94.328C302.343 94.328 301.971 93.992 301.971 93.26C301.971 92.252 302.703 92.036 303.423 92.036H303.867V92.384ZM307.443 95V85.928H306.411V95H307.443ZM310.352 87.188C310.352 86.804 310.076 86.504 309.716 86.504C309.356 86.504 309.08 86.804 309.08 87.188C309.08 87.584 309.356 87.872 309.716 87.872C310.064 87.872 310.352 87.584 310.352 87.188ZM310.22 95V88.976H309.2V95H310.22ZM314.929 95V94.124H312.493L314.917 89.828V88.976H311.605V89.852H313.849L311.425 94.124V95H314.929ZM319.581 95C319.533 94.712 319.497 94.148 319.497 93.74V91.304C319.497 89.696 319.041 88.772 317.661 88.772C317.037 88.772 316.329 89.084 315.933 89.624L316.449 90.26C316.713 89.9 317.121 89.648 317.565 89.648C318.165 89.648 318.561 90.056 318.561 90.992V91.256H318.165C317.109 91.256 315.729 91.628 315.729 93.368C315.729 94.664 316.533 95.156 317.205 95.156C317.997 95.156 318.453 94.724 318.621 94.004H318.645C318.645 94.22 318.681 94.64 318.741 95H319.581ZM318.585 92.384C318.585 93.212 318.309 94.328 317.481 94.328C317.061 94.328 316.689 93.992 316.689 93.26C316.689 92.252 317.421 92.036 318.141 92.036H318.585V92.384ZM327.303 92.252V91.76C327.303 90.092 326.751 88.772 325.275 88.772C323.955 88.772 323.079 90.092 323.079 92C323.079 94.004 323.919 95.204 325.287 95.204C326.211 95.204 326.811 94.652 327.123 93.884L326.355 93.44C326.163 93.896 325.863 94.292 325.323 94.292C324.519 94.292 324.123 93.392 324.111 92.252H327.303ZM326.271 91.424H324.135C324.135 90.776 324.435 89.66 325.251 89.66C325.947 89.66 326.271 90.38 326.271 91.424ZM329.721 95V85.928H328.689V95H329.721ZM333.763 88.976V97.88H334.783V94.124H334.807C334.987 94.748 335.491 95.204 336.187 95.204C337.447 95.204 338.107 93.872 338.107 92.012C338.107 90.14 337.411 88.772 336.187 88.772C335.359 88.772 334.975 89.264 334.783 89.912H334.759V88.976H333.763ZM334.759 91.976C334.759 90.68 335.143 89.66 335.923 89.66C336.715 89.66 337.051 90.68 337.051 91.976C337.051 93.284 336.715 94.304 335.923 94.304C335.155 94.304 334.759 93.284 334.759 91.976ZM340.572 90.224H340.548C340.548 89.828 340.524 89.372 340.476 88.976H339.504C339.54 89.42 339.552 90.02 339.552 90.5V95H340.584V91.952C340.584 90.908 341.004 89.828 341.772 89.828C341.856 89.828 341.916 89.84 341.976 89.852L342.024 88.784C341.976 88.772 341.928 88.772 341.88 88.772C341.28 88.772 340.776 89.228 340.572 90.224ZM346.924 92C346.924 90.068 346.096 88.772 344.728 88.772C343.348 88.772 342.544 90.068 342.544 92C342.544 93.908 343.372 95.204 344.728 95.204C346.096 95.204 346.924 93.908 346.924 92ZM345.868 91.988C345.868 93.296 345.52 94.304 344.728 94.304C343.948 94.304 343.6 93.296 343.6 91.988C343.6 90.668 343.948 89.66 344.728 89.66C345.508 89.66 345.868 90.668 345.868 91.988ZM351.533 94.652L351.077 93.86C350.885 94.1 350.633 94.256 350.261 94.256C349.409 94.256 349.061 93.32 349.061 91.988C349.061 90.644 349.433 89.684 350.201 89.684C350.573 89.684 350.813 89.84 351.005 90.056L351.521 89.288C351.269 89.036 350.825 88.772 350.189 88.772C348.761 88.772 348.005 90.08 348.005 91.988C348.005 93.896 348.725 95.204 350.177 95.204C350.753 95.204 351.209 95.012 351.533 94.652ZM356.354 92.252V91.76C356.354 90.092 355.802 88.772 354.326 88.772C353.006 88.772 352.13 90.092 352.13 92C352.13 94.004 352.97 95.204 354.338 95.204C355.262 95.204 355.862 94.652 356.174 93.884L355.406 93.44C355.214 93.896 354.914 94.292 354.374 94.292C353.57 94.292 353.174 93.392 353.162 92.252H356.354ZM355.322 91.424H353.186C353.186 90.776 353.486 89.66 354.302 89.66C354.998 89.66 355.322 90.38 355.322 91.424ZM360.715 89.444C360.379 89.048 359.851 88.772 359.143 88.772C358.147 88.772 357.367 89.48 357.367 90.536C357.367 91.628 358.003 92 358.615 92.228C359.215 92.456 359.695 92.672 359.695 93.356C359.695 93.944 359.383 94.352 358.867 94.352C358.327 94.352 357.967 94.064 357.703 93.728L357.103 94.388C357.499 94.88 358.123 95.204 358.831 95.204C359.875 95.204 360.667 94.532 360.667 93.284C360.667 92.204 359.959 91.736 359.287 91.484C358.651 91.244 358.339 91.064 358.339 90.5C358.339 89.948 358.687 89.588 359.143 89.588C359.587 89.588 359.923 89.816 360.127 90.116L360.715 89.444ZM366.014 92C366.014 90.068 365.186 88.772 363.818 88.772C362.438 88.772 361.634 90.068 361.634 92C361.634 93.908 362.462 95.204 363.818 95.204C365.186 95.204 366.014 93.908 366.014 92ZM364.958 91.988C364.958 93.296 364.61 94.304 363.818 94.304C363.038 94.304 362.69 93.296 362.69 91.988C362.69 90.668 363.038 89.66 363.818 89.66C364.598 89.66 364.958 90.668 364.958 91.988ZM296.884 109V99.928H295.864V103.84H295.84C295.66 103.216 295.156 102.772 294.46 102.772C293.2 102.772 292.54 104.092 292.54 105.952C292.54 107.824 293.236 109.204 294.46 109.204C295.288 109.204 295.672 108.7 295.864 108.052H295.888V109H296.884ZM295.888 105.988C295.888 107.284 295.504 108.304 294.724 108.304C293.932 108.304 293.596 107.284 293.596 105.988C293.596 104.68 293.932 103.66 294.724 103.66C295.492 103.66 295.888 104.68 295.888 105.988ZM302.53 106.252V105.76C302.53 104.092 301.978 102.772 300.502 102.772C299.182 102.772 298.306 104.092 298.306 106C298.306 108.004 299.146 109.204 300.514 109.204C301.438 109.204 302.038 108.652 302.35 107.884L301.582 107.44C301.39 107.896 301.09 108.292 300.55 108.292C299.746 108.292 299.35 107.392 299.338 106.252H302.53ZM301.498 105.424H299.362C299.362 104.776 299.662 103.66 300.478 103.66C301.174 103.66 301.498 104.38 301.498 105.424ZM309.392 108.652L308.936 107.86C308.744 108.1 308.492 108.256 308.12 108.256C307.268 108.256 306.92 107.32 306.92 105.988C306.92 104.644 307.292 103.684 308.06 103.684C308.432 103.684 308.672 103.84 308.864 104.056L309.38 103.288C309.128 103.036 308.684 102.772 308.048 102.772C306.62 102.772 305.864 104.08 305.864 105.988C305.864 107.896 306.584 109.204 308.036 109.204C308.612 109.204 309.068 109.012 309.392 108.652ZM314.369 106C314.369 104.068 313.541 102.772 312.173 102.772C310.793 102.772 309.989 104.068 309.989 106C309.989 107.908 310.817 109.204 312.173 109.204C313.541 109.204 314.369 107.908 314.369 106ZM313.313 105.988C313.313 107.296 312.965 108.304 312.173 108.304C311.393 108.304 311.045 107.296 311.045 105.988C311.045 104.668 311.393 103.66 312.173 103.66C312.953 103.66 313.313 104.668 313.313 105.988ZM316.83 104.02H316.806C316.806 103.828 316.782 103.372 316.734 102.976H315.762C315.798 103.42 315.81 104.02 315.81 104.5V109H316.818V105.544C316.818 104.464 317.262 103.684 317.946 103.684C318.702 103.684 318.798 104.476 318.798 105.16V109H319.806V105.544C319.806 104.464 320.262 103.684 320.946 103.684C321.702 103.684 321.798 104.476 321.798 105.16V109H322.83V105.16C322.83 103.972 322.59 102.772 321.294 102.772C320.418 102.772 319.926 103.432 319.71 104.02H319.686C319.542 103.384 319.17 102.772 318.318 102.772C317.526 102.772 317.01 103.324 316.83 104.02ZM324.528 102.976V111.88H325.548V108.124H325.572C325.752 108.748 326.256 109.204 326.952 109.204C328.212 109.204 328.872 107.872 328.872 106.012C328.872 104.14 328.176 102.772 326.952 102.772C326.124 102.772 325.74 103.264 325.548 103.912H325.524V102.976H324.528ZM325.524 105.976C325.524 104.68 325.908 103.66 326.688 103.66C327.48 103.66 327.816 104.68 327.816 105.976C327.816 107.284 327.48 108.304 326.688 108.304C325.92 108.304 325.524 107.284 325.524 105.976ZM331.338 104.224H331.314C331.314 103.828 331.29 103.372 331.242 102.976H330.27C330.306 103.42 330.318 104.02 330.318 104.5V109H331.35V105.952C331.35 104.908 331.77 103.828 332.538 103.828C332.622 103.828 332.682 103.84 332.742 103.852L332.79 102.784C332.742 102.772 332.694 102.772 332.646 102.772C332.046 102.772 331.542 103.228 331.338 104.224ZM337.078 109C337.03 108.712 336.994 108.148 336.994 107.74V105.304C336.994 103.696 336.538 102.772 335.158 102.772C334.534 102.772 333.826 103.084 333.43 103.624L333.946 104.26C334.21 103.9 334.618 103.648 335.062 103.648C335.662 103.648 336.058 104.056 336.058 104.992V105.256H335.662C334.606 105.256 333.226 105.628 333.226 107.368C333.226 108.664 334.03 109.156 334.702 109.156C335.494 109.156 335.95 108.724 336.118 108.004H336.142C336.142 108.22 336.178 108.64 336.238 109H337.078ZM336.082 106.384C336.082 107.212 335.806 108.328 334.978 108.328C334.558 108.328 334.186 107.992 334.186 107.26C334.186 106.252 334.918 106.036 335.638 106.036H336.082V106.384ZM339.802 108.364C339.802 107.968 339.502 107.632 339.118 107.632C338.734 107.632 338.446 107.968 338.446 108.364C338.446 108.772 338.734 109.084 339.118 109.084C339.502 109.084 339.802 108.772 339.802 108.364Z" fill="#303541"/>
<path d="M313.481 27.3162L293.17 39.0302C291.49 40.0019 291.651 42.4872 293.448 43.2245L299.029 45.5341V49.6553C299.029 51.9209 301.919 52.8535 303.257 51.0518L305.395 48.166L310.859 50.4219C311.147 50.5391 311.45 50.5977 311.752 50.5977C312.153 50.5977 312.548 50.4951 312.904 50.2949C313.529 49.9434 313.959 49.3183 314.071 48.6103L316.972 29.7039C317.269 27.7459 315.17 26.3445 313.481 27.3162ZM301.372 49.6553V46.5009L303.159 47.2383L301.372 49.6553ZM311.752 48.2539L304.243 45.1533L311.088 35.2752C311.611 34.5184 310.624 33.6395 309.931 34.2401L299.605 43.2392L294.341 41.0614L314.652 29.3426L311.752 48.2539Z" fill="#FB177D"/>
<path d="M432 27C425.371 27 420 32.5948 420 39.5C420 46.4052 425.371 52 432 52C438.629 52 444 46.4052 444 39.5C444 32.5948 438.629 27 432 27ZM432 49.5806C426.663 49.5806 422.323 45.0595 422.323 39.5C422.323 33.9405 426.663 29.4194 432 29.4194C437.337 29.4194 441.677 33.9405 441.677 39.5C441.677 45.0595 437.337 49.5806 432 49.5806ZM437.11 41.9496C435.856 42.3679 433.994 42.6099 432 42.6099C430.006 42.6099 428.148 42.3679 426.89 41.9496C426.416 41.7933 425.952 42.2167 426.034 42.7208C426.416 45.0998 429.484 46.753 432 46.753C434.516 46.753 437.579 45.0948 437.966 42.7208C438.044 42.2268 437.594 41.7933 437.11 41.9496ZM426.082 39.0514C426.034 39.3639 426.344 39.6058 426.615 39.4496L428.129 38.628L429.644 39.4496C429.915 39.6058 430.224 39.3639 430.176 39.0514L429.885 37.2923L431.115 36.0524C431.332 35.8256 431.206 35.4375 430.906 35.3871L429.218 35.1351L428.468 33.5423C428.327 33.25 427.935 33.25 427.795 33.5423L427.045 35.1351L425.356 35.3871C425.056 35.4325 424.926 35.8206 425.148 36.0524L426.377 37.2923L426.082 39.0514ZM438.648 35.3871L436.96 35.1351L436.21 33.5423C436.069 33.25 435.677 33.25 435.537 33.5423L434.787 35.1351L433.098 35.3871C432.798 35.4325 432.668 35.8206 432.89 36.0524L434.119 37.2923L433.829 39.0514C433.781 39.3639 434.09 39.6058 434.361 39.4496L435.876 38.628L437.39 39.4496C437.661 39.6058 437.971 39.3639 437.923 39.0514L437.632 37.2923L438.861 36.0524C439.079 35.8206 438.948 35.4375 438.648 35.3871Z" fill="#FB177D"/>
<path d="M43.5527 60.6045C43.5527 61.2106 43.4821 61.7005 43.3408 62.0742C43.1995 62.4479 42.9466 62.8034 42.582 63.1406C42.222 63.4779 41.9759 63.7285 41.8438 63.8926C41.7161 64.0566 41.6182 64.223 41.5498 64.3916C41.486 64.5602 41.4541 64.7448 41.4541 64.9453C41.4541 65.6608 41.805 66.0186 42.5068 66.0186C42.8577 66.0186 43.1357 65.916 43.3408 65.7109C43.5505 65.5059 43.6598 65.2188 43.6689 64.8496H45.6445C45.6354 65.7246 45.3551 66.4059 44.8037 66.8936C44.2523 67.3857 43.498 67.6318 42.541 67.6318C41.5703 67.6318 40.8161 67.3994 40.2783 66.9346C39.7406 66.4743 39.4717 65.8158 39.4717 64.959C39.4717 64.2344 39.8203 63.5234 40.5176 62.8262L41.1807 62.1904C41.4085 61.9854 41.5658 61.7712 41.6523 61.5479C41.7435 61.3245 41.7936 61.0101 41.8027 60.6045H43.5527ZM43.7988 58.5127C43.7988 58.818 43.694 59.0687 43.4844 59.2646C43.2747 59.4606 43.0104 59.5586 42.6914 59.5586C42.3724 59.5586 42.1081 59.4606 41.8984 59.2646C41.6888 59.0687 41.584 58.818 41.584 58.5127C41.584 58.2074 41.6842 57.9567 41.8848 57.7607C42.0898 57.5648 42.3587 57.4668 42.6914 57.4668C43.0241 57.4668 43.2907 57.5648 43.4912 57.7607C43.6963 57.9567 43.7988 58.2074 43.7988 58.5127ZM54.6748 61.6846C54.5973 62.7555 54.2008 63.5986 53.4854 64.2139C52.7744 64.8291 51.8356 65.1367 50.6689 65.1367C49.3929 65.1367 48.388 64.7083 47.6543 63.8516C46.9251 62.9902 46.5605 61.8099 46.5605 60.3105V59.7021C46.5605 58.7451 46.7292 57.902 47.0664 57.1729C47.4036 56.4437 47.8844 55.8854 48.5088 55.498C49.1377 55.1061 49.8669 54.9102 50.6963 54.9102C51.8447 54.9102 52.7699 55.2178 53.4717 55.833C54.1735 56.4482 54.5791 57.3118 54.6885 58.4238H52.6377C52.5876 57.7812 52.4076 57.3164 52.0977 57.0293C51.7923 56.7376 51.3252 56.5918 50.6963 56.5918C50.0127 56.5918 49.5 56.8379 49.1582 57.3301C48.821 57.8177 48.6478 58.5765 48.6387 59.6064V60.3584C48.6387 61.4339 48.8005 62.2201 49.124 62.7168C49.4521 63.2135 49.9671 63.4619 50.6689 63.4619C51.3024 63.4619 51.7741 63.3184 52.084 63.0312C52.3984 62.7396 52.5785 62.2907 52.624 61.6846H54.6748ZM55.584 61.2334C55.584 60.4997 55.7253 59.8457 56.0078 59.2715C56.2904 58.6973 56.696 58.2529 57.2246 57.9385C57.7578 57.624 58.3753 57.4668 59.0771 57.4668C60.0752 57.4668 60.8887 57.7721 61.5176 58.3828C62.151 58.9935 62.5042 59.8229 62.5771 60.8711L62.5908 61.377C62.5908 62.5117 62.2741 63.4232 61.6406 64.1113C61.0072 64.7949 60.1572 65.1367 59.0908 65.1367C58.0244 65.1367 57.1722 64.7949 56.5342 64.1113C55.9007 63.4277 55.584 62.498 55.584 61.3223V61.2334ZM57.5596 61.377C57.5596 62.0788 57.6917 62.6165 57.9561 62.9902C58.2204 63.3594 58.5986 63.5439 59.0908 63.5439C59.5693 63.5439 59.943 63.3617 60.2119 62.9971C60.4808 62.6279 60.6152 62.04 60.6152 61.2334C60.6152 60.5452 60.4808 60.012 60.2119 59.6338C59.943 59.2555 59.5648 59.0664 59.0771 59.0664C58.5941 59.0664 58.2204 59.2555 57.9561 59.6338C57.6917 60.0075 57.5596 60.5885 57.5596 61.377ZM59.4668 54.5H61.6201L59.7266 56.6191H58.1201L59.4668 54.5ZM65.6602 57.6035L65.7217 58.4307C66.2458 57.7881 66.9544 57.4668 67.8477 57.4668C68.8001 57.4668 69.4541 57.8428 69.8096 58.5947C70.3291 57.8428 71.0697 57.4668 72.0312 57.4668C72.8333 57.4668 73.4303 57.7015 73.8223 58.1709C74.2142 58.6357 74.4102 59.3376 74.4102 60.2764V65H72.4277V60.2832C72.4277 59.8639 72.3457 59.5586 72.1816 59.3672C72.0176 59.1712 71.7282 59.0732 71.3135 59.0732C70.721 59.0732 70.3109 59.3558 70.083 59.9209L70.0898 65H68.1143V60.29C68.1143 59.8617 68.0299 59.5518 67.8613 59.3604C67.6927 59.1689 67.4056 59.0732 67 59.0732C66.4395 59.0732 66.0339 59.3057 65.7832 59.7705V65H63.8076V57.6035H65.6602ZM75.627 61.2334C75.627 60.4997 75.7682 59.8457 76.0508 59.2715C76.3333 58.6973 76.7389 58.2529 77.2676 57.9385C77.8008 57.624 78.4183 57.4668 79.1201 57.4668C80.1182 57.4668 80.9316 57.7721 81.5605 58.3828C82.194 58.9935 82.5472 59.8229 82.6201 60.8711L82.6338 61.377C82.6338 62.5117 82.3171 63.4232 81.6836 64.1113C81.0501 64.7949 80.2002 65.1367 79.1338 65.1367C78.0674 65.1367 77.2152 64.7949 76.5771 64.1113C75.9437 63.4277 75.627 62.498 75.627 61.3223V61.2334ZM77.6025 61.377C77.6025 62.0788 77.7347 62.6165 77.999 62.9902C78.2633 63.3594 78.6416 63.5439 79.1338 63.5439C79.6123 63.5439 79.986 63.3617 80.2549 62.9971C80.5238 62.6279 80.6582 62.04 80.6582 61.2334C80.6582 60.5452 80.5238 60.012 80.2549 59.6338C79.986 59.2555 79.6077 59.0664 79.1201 59.0664C78.637 59.0664 78.2633 59.2555 77.999 59.6338C77.7347 60.0075 77.6025 60.5885 77.6025 61.377ZM91.3428 62.9561C91.3428 62.7145 91.222 62.5254 90.9805 62.3887C90.7435 62.2474 90.3607 62.1221 89.832 62.0127C88.0729 61.6436 87.1934 60.8962 87.1934 59.7705C87.1934 59.1143 87.4645 58.5674 88.0068 58.1299C88.5537 57.6878 89.2669 57.4668 90.1465 57.4668C91.0853 57.4668 91.835 57.6878 92.3955 58.1299C92.9606 58.5719 93.2432 59.1462 93.2432 59.8525H91.2676C91.2676 59.57 91.1764 59.3376 90.9941 59.1553C90.8118 58.9684 90.527 58.875 90.1396 58.875C89.807 58.875 89.5495 58.9502 89.3672 59.1006C89.1849 59.251 89.0938 59.4424 89.0938 59.6748C89.0938 59.8936 89.1963 60.0713 89.4014 60.208C89.611 60.3402 89.9619 60.4564 90.4541 60.5566C90.9463 60.6523 91.361 60.7617 91.6982 60.8848C92.7419 61.2676 93.2637 61.9307 93.2637 62.874C93.2637 63.5485 92.9743 64.0954 92.3955 64.5146C91.8167 64.9294 91.0693 65.1367 90.1533 65.1367C89.5335 65.1367 88.9821 65.0273 88.499 64.8086C88.0205 64.5853 87.6445 64.2822 87.3711 63.8994C87.0977 63.512 86.9609 63.0951 86.9609 62.6484H88.834C88.8522 62.9993 88.9821 63.2682 89.2236 63.4551C89.4652 63.6419 89.7887 63.7354 90.1943 63.7354C90.5726 63.7354 90.8574 63.6647 91.0488 63.5234C91.2448 63.3776 91.3428 63.1885 91.3428 62.9561ZM94.2344 61.2334C94.2344 60.4997 94.3757 59.8457 94.6582 59.2715C94.9408 58.6973 95.3464 58.2529 95.875 57.9385C96.4082 57.624 97.0257 57.4668 97.7275 57.4668C98.7256 57.4668 99.5391 57.7721 100.168 58.3828C100.801 58.9935 101.155 59.8229 101.228 60.8711L101.241 61.377C101.241 62.5117 100.924 63.4232 100.291 64.1113C99.6576 64.7949 98.8076 65.1367 97.7412 65.1367C96.6748 65.1367 95.8226 64.7949 95.1846 64.1113C94.5511 63.4277 94.2344 62.498 94.2344 61.3223V61.2334ZM96.21 61.377C96.21 62.0788 96.3421 62.6165 96.6064 62.9902C96.8708 63.3594 97.249 63.5439 97.7412 63.5439C98.2197 63.5439 98.5934 63.3617 98.8623 62.9971C99.1312 62.6279 99.2656 62.04 99.2656 61.2334C99.2656 60.5452 99.1312 60.012 98.8623 59.6338C98.5934 59.2555 98.2152 59.0664 97.7275 59.0664C97.2445 59.0664 96.8708 59.2555 96.6064 59.6338C96.3421 60.0075 96.21 60.5885 96.21 61.377ZM104.543 65H102.561V54.5H104.543V65ZM108.262 65H106.279V57.6035H108.262V65ZM106.163 55.6895C106.163 55.3932 106.261 55.1494 106.457 54.958C106.658 54.7666 106.929 54.6709 107.271 54.6709C107.608 54.6709 107.877 54.7666 108.077 54.958C108.278 55.1494 108.378 55.3932 108.378 55.6895C108.378 55.9902 108.275 56.2363 108.07 56.4277C107.87 56.6191 107.603 56.7148 107.271 56.7148C106.938 56.7148 106.669 56.6191 106.464 56.4277C106.263 56.2363 106.163 55.9902 106.163 55.6895ZM112.972 63.5439C113.336 63.5439 113.632 63.4437 113.86 63.2432C114.088 63.0426 114.207 62.776 114.216 62.4434H116.068C116.064 62.9447 115.927 63.4049 115.658 63.8242C115.389 64.2389 115.02 64.5625 114.551 64.7949C114.086 65.0228 113.571 65.1367 113.006 65.1367C111.949 65.1367 111.115 64.8018 110.504 64.1318C109.893 63.4574 109.588 62.5277 109.588 61.3428V61.2129C109.588 60.0736 109.891 59.1644 110.497 58.4854C111.103 57.8063 111.935 57.4668 112.992 57.4668C113.917 57.4668 114.658 57.7311 115.214 58.2598C115.774 58.7839 116.059 59.4834 116.068 60.3584H114.216C114.207 59.9756 114.088 59.6657 113.86 59.4287C113.632 59.1872 113.332 59.0664 112.958 59.0664C112.498 59.0664 112.149 59.235 111.912 59.5723C111.68 59.9049 111.563 60.4473 111.563 61.1992V61.4043C111.563 62.1654 111.68 62.7122 111.912 63.0449C112.145 63.3776 112.498 63.5439 112.972 63.5439ZM119.281 65H117.299V57.6035H119.281V65ZM117.183 55.6895C117.183 55.3932 117.281 55.1494 117.477 54.958C117.677 54.7666 117.948 54.6709 118.29 54.6709C118.627 54.6709 118.896 54.7666 119.097 54.958C119.297 55.1494 119.397 55.3932 119.397 55.6895C119.397 55.9902 119.295 56.2363 119.09 56.4277C118.889 56.6191 118.623 56.7148 118.29 56.7148C117.957 56.7148 117.688 56.6191 117.483 56.4277C117.283 56.2363 117.183 55.9902 117.183 55.6895ZM123.28 55.7852V57.6035H124.545V59.0527H123.28V62.7441C123.28 63.0176 123.333 63.2135 123.438 63.332C123.542 63.4505 123.743 63.5098 124.039 63.5098C124.258 63.5098 124.451 63.4938 124.62 63.4619V64.959C124.233 65.0775 123.834 65.1367 123.424 65.1367C122.038 65.1367 121.332 64.4372 121.305 63.0381V59.0527H120.225V57.6035H121.305V55.7852H123.28ZM129.932 65C129.84 64.8223 129.774 64.6012 129.733 64.3369C129.255 64.8701 128.633 65.1367 127.867 65.1367C127.143 65.1367 126.541 64.9271 126.062 64.5078C125.589 64.0885 125.352 63.5599 125.352 62.9219C125.352 62.138 125.641 61.5365 126.22 61.1172C126.803 60.6979 127.644 60.486 128.742 60.4814H129.651V60.0576C129.651 59.7158 129.562 59.4424 129.385 59.2373C129.212 59.0322 128.936 58.9297 128.558 58.9297C128.225 58.9297 127.963 59.0094 127.771 59.1689C127.585 59.3285 127.491 59.5472 127.491 59.8252H125.516C125.516 59.3968 125.648 59.0003 125.912 58.6357C126.176 58.2712 126.55 57.9863 127.033 57.7812C127.516 57.5716 128.059 57.4668 128.66 57.4668C129.572 57.4668 130.294 57.6969 130.827 58.1572C131.365 58.613 131.634 59.2555 131.634 60.085V63.291C131.638 63.9928 131.736 64.5238 131.928 64.8838V65H129.932ZM128.298 63.626C128.59 63.626 128.858 63.5622 129.104 63.4346C129.351 63.3024 129.533 63.127 129.651 62.9082V61.6367H128.913C127.924 61.6367 127.398 61.9785 127.334 62.6621L127.327 62.7783C127.327 63.0244 127.414 63.2272 127.587 63.3867C127.76 63.5462 127.997 63.626 128.298 63.626ZM137.308 59.4561C137.039 59.4196 136.802 59.4014 136.597 59.4014C135.849 59.4014 135.359 59.6543 135.127 60.1602V65H133.151V57.6035H135.018L135.072 58.4854C135.469 57.8063 136.018 57.4668 136.72 57.4668C136.938 57.4668 137.144 57.4964 137.335 57.5557L137.308 59.4561ZM44.1885 80.248C43.7008 80.8405 43.0264 81.1367 42.165 81.1367C41.3721 81.1367 40.766 80.9089 40.3467 80.4531C39.932 79.9974 39.7201 79.3298 39.7109 78.4502V73.6035H41.6865V78.3818C41.6865 79.152 42.0374 79.5371 42.7393 79.5371C43.4092 79.5371 43.8695 79.3047 44.1201 78.8398V73.6035H46.1025V81H44.2432L44.1885 80.248ZM49.4111 73.6035L49.4727 74.458C50.0013 73.7972 50.71 73.4668 51.5986 73.4668C52.3825 73.4668 52.9658 73.6969 53.3486 74.1572C53.7314 74.6175 53.9274 75.3057 53.9365 76.2217V81H51.9609V76.2695C51.9609 75.8503 51.8698 75.5472 51.6875 75.3604C51.5052 75.1689 51.2021 75.0732 50.7783 75.0732C50.2223 75.0732 49.8053 75.3102 49.5273 75.7842V81H47.5518V73.6035H49.4111ZM61.6953 78.5869L63.0693 73.6035H65.1338L62.6387 81H60.752L58.2568 73.6035H60.3213L61.6953 78.5869ZM68.0938 81H66.1113V73.6035H68.0938V81ZM65.9951 71.6895C65.9951 71.3932 66.0931 71.1494 66.2891 70.958C66.4896 70.7666 66.7607 70.6709 67.1025 70.6709C67.4398 70.6709 67.7087 70.7666 67.9092 70.958C68.1097 71.1494 68.21 71.3932 68.21 71.6895C68.21 71.9902 68.1074 72.2363 67.9023 72.4277C67.7018 72.6191 67.4352 72.7148 67.1025 72.7148C66.7699 72.7148 66.501 72.6191 66.2959 72.4277C66.0954 72.2363 65.9951 71.9902 65.9951 71.6895ZM69.4199 77.2471C69.4199 76.0941 69.6774 75.1758 70.1924 74.4922C70.7119 73.8086 71.4206 73.4668 72.3184 73.4668C73.0384 73.4668 73.6331 73.7357 74.1025 74.2734V70.5H76.085V81H74.3008L74.2051 80.2139C73.7129 80.8291 73.0794 81.1367 72.3047 81.1367C71.4342 81.1367 70.7347 80.7949 70.2061 80.1113C69.682 79.4232 69.4199 78.4684 69.4199 77.2471ZM71.3955 77.3906C71.3955 78.0833 71.5163 78.6143 71.7578 78.9834C71.9993 79.3525 72.3503 79.5371 72.8105 79.5371C73.4212 79.5371 73.8519 79.2796 74.1025 78.7646V75.8457C73.8564 75.3307 73.4303 75.0732 72.8242 75.0732C71.8717 75.0732 71.3955 75.8457 71.3955 77.3906ZM81.0205 81.1367C79.9359 81.1367 79.0518 80.804 78.3682 80.1387C77.6891 79.4733 77.3496 78.5869 77.3496 77.4795V77.2881C77.3496 76.5452 77.4932 75.8822 77.7803 75.2988C78.0674 74.7109 78.473 74.2598 78.9971 73.9453C79.5257 73.6263 80.1273 73.4668 80.8018 73.4668C81.8135 73.4668 82.6087 73.7858 83.1875 74.4238C83.7708 75.0618 84.0625 75.9665 84.0625 77.1377V77.9443H79.3525C79.4163 78.4274 79.6077 78.8148 79.9268 79.1064C80.2503 79.3981 80.6582 79.5439 81.1504 79.5439C81.9115 79.5439 82.5062 79.2682 82.9346 78.7168L83.9053 79.8037C83.609 80.223 83.208 80.5511 82.7021 80.7881C82.1963 81.0205 81.6357 81.1367 81.0205 81.1367ZM80.7949 75.0664C80.403 75.0664 80.084 75.1986 79.8379 75.4629C79.5964 75.7272 79.4414 76.1055 79.373 76.5977H82.1211V76.4404C82.112 76.0029 81.9935 75.6657 81.7656 75.4287C81.5378 75.1872 81.2142 75.0664 80.7949 75.0664ZM84.8828 77.2334C84.8828 76.4997 85.0241 75.8457 85.3066 75.2715C85.5892 74.6973 85.9948 74.2529 86.5234 73.9385C87.0566 73.624 87.6742 73.4668 88.376 73.4668C89.374 73.4668 90.1875 73.7721 90.8164 74.3828C91.4499 74.9935 91.8031 75.8229 91.876 76.8711L91.8896 77.377C91.8896 78.5117 91.5729 79.4232 90.9395 80.1113C90.306 80.7949 89.4561 81.1367 88.3896 81.1367C87.3232 81.1367 86.471 80.7949 85.833 80.1113C85.1995 79.4277 84.8828 78.498 84.8828 77.3223V77.2334ZM86.8584 77.377C86.8584 78.0788 86.9906 78.6165 87.2549 78.9902C87.5192 79.3594 87.8975 79.5439 88.3896 79.5439C88.8682 79.5439 89.2419 79.3617 89.5107 78.9971C89.7796 78.6279 89.9141 78.04 89.9141 77.2334C89.9141 76.5452 89.7796 76.012 89.5107 75.6338C89.2419 75.2555 88.8636 75.0664 88.376 75.0664C87.8929 75.0664 87.5192 75.2555 87.2549 75.6338C86.9906 76.0075 86.8584 76.5885 86.8584 77.377ZM94.959 73.6035L95.0205 74.4307C95.5446 73.7881 96.2533 73.4668 97.1465 73.4668C98.099 73.4668 98.7529 73.8428 99.1084 74.5947C99.6279 73.8428 100.368 73.4668 101.33 73.4668C102.132 73.4668 102.729 73.7015 103.121 74.1709C103.513 74.6357 103.709 75.3376 103.709 76.2764V81H101.727V76.2832C101.727 75.8639 101.645 75.5586 101.48 75.3672C101.316 75.1712 101.027 75.0732 100.612 75.0732C100.02 75.0732 99.6097 75.3558 99.3818 75.9209L99.3887 81H97.4131V76.29C97.4131 75.8617 97.3288 75.5518 97.1602 75.3604C96.9915 75.1689 96.7044 75.0732 96.2988 75.0732C95.7383 75.0732 95.3327 75.3057 95.082 75.7705V81H93.1064V73.6035H94.959ZM108.638 81.1367C107.553 81.1367 106.669 80.804 105.985 80.1387C105.306 79.4733 104.967 78.5869 104.967 77.4795V77.2881C104.967 76.5452 105.11 75.8822 105.397 75.2988C105.685 74.7109 106.09 74.2598 106.614 73.9453C107.143 73.6263 107.744 73.4668 108.419 73.4668C109.431 73.4668 110.226 73.7858 110.805 74.4238C111.388 75.0618 111.68 75.9665 111.68 77.1377V77.9443H106.97C107.034 78.4274 107.225 78.8148 107.544 79.1064C107.868 79.3981 108.275 79.5439 108.768 79.5439C109.529 79.5439 110.123 79.2682 110.552 78.7168L111.522 79.8037C111.226 80.223 110.825 80.5511 110.319 80.7881C109.813 81.0205 109.253 81.1367 108.638 81.1367ZM108.412 75.0664C108.02 75.0664 107.701 75.1986 107.455 75.4629C107.214 75.7272 107.059 76.1055 106.99 76.5977H109.738V76.4404C109.729 76.0029 109.611 75.6657 109.383 75.4287C109.155 75.1872 108.831 75.0664 108.412 75.0664ZM114.626 73.6035L114.688 74.458C115.216 73.7972 115.925 73.4668 116.813 73.4668C117.597 73.4668 118.181 73.6969 118.563 74.1572C118.946 74.6175 119.142 75.3057 119.151 76.2217V81H117.176V76.2695C117.176 75.8503 117.085 75.5472 116.902 75.3604C116.72 75.1689 116.417 75.0732 115.993 75.0732C115.437 75.0732 115.02 75.3102 114.742 75.7842V81H112.767V73.6035H114.626ZM124.661 78.9561C124.661 78.7145 124.54 78.5254 124.299 78.3887C124.062 78.2474 123.679 78.1221 123.15 78.0127C121.391 77.6436 120.512 76.8962 120.512 75.7705C120.512 75.1143 120.783 74.5674 121.325 74.1299C121.872 73.6878 122.585 73.4668 123.465 73.4668C124.404 73.4668 125.153 73.6878 125.714 74.1299C126.279 74.5719 126.562 75.1462 126.562 75.8525H124.586C124.586 75.57 124.495 75.3376 124.312 75.1553C124.13 74.9684 123.845 74.875 123.458 74.875C123.125 74.875 122.868 74.9502 122.686 75.1006C122.503 75.251 122.412 75.4424 122.412 75.6748C122.412 75.8936 122.515 76.0713 122.72 76.208C122.929 76.3402 123.28 76.4564 123.772 76.5566C124.265 76.6523 124.679 76.7617 125.017 76.8848C126.06 77.2676 126.582 77.9307 126.582 78.874C126.582 79.5485 126.293 80.0954 125.714 80.5146C125.135 80.9294 124.388 81.1367 123.472 81.1367C122.852 81.1367 122.3 81.0273 121.817 80.8086C121.339 80.5853 120.963 80.2822 120.689 79.8994C120.416 79.512 120.279 79.0951 120.279 78.6484H122.152C122.171 78.9993 122.3 79.2682 122.542 79.4551C122.784 79.6419 123.107 79.7354 123.513 79.7354C123.891 79.7354 124.176 79.6647 124.367 79.5234C124.563 79.3776 124.661 79.1885 124.661 78.9561ZM132.146 81C132.055 80.8223 131.989 80.6012 131.948 80.3369C131.47 80.8701 130.848 81.1367 130.082 81.1367C129.357 81.1367 128.756 80.9271 128.277 80.5078C127.803 80.0885 127.566 79.5599 127.566 78.9219C127.566 78.138 127.856 77.5365 128.435 77.1172C129.018 76.6979 129.859 76.486 130.957 76.4814H131.866V76.0576C131.866 75.7158 131.777 75.4424 131.6 75.2373C131.426 75.0322 131.151 74.9297 130.772 74.9297C130.44 74.9297 130.178 75.0094 129.986 75.1689C129.799 75.3285 129.706 75.5472 129.706 75.8252H127.73C127.73 75.3968 127.863 75.0003 128.127 74.6357C128.391 74.2712 128.765 73.9863 129.248 73.7812C129.731 73.5716 130.273 73.4668 130.875 73.4668C131.786 73.4668 132.509 73.6969 133.042 74.1572C133.58 74.613 133.849 75.2555 133.849 76.085V79.291C133.853 79.9928 133.951 80.5238 134.143 80.8838V81H132.146ZM130.513 79.626C130.804 79.626 131.073 79.5622 131.319 79.4346C131.565 79.3024 131.748 79.127 131.866 78.9082V77.6367H131.128C130.139 77.6367 129.613 77.9785 129.549 78.6621L129.542 78.7783C129.542 79.0244 129.629 79.2272 129.802 79.3867C129.975 79.5462 130.212 79.626 130.513 79.626ZM137.458 73.6035V81.4033C137.458 82.2191 137.242 82.8525 136.809 83.3037C136.376 83.7594 135.751 83.9873 134.936 83.9873C134.594 83.9873 134.268 83.9486 133.958 83.8711V82.3057C134.195 82.3467 134.402 82.3672 134.58 82.3672C135.177 82.3672 135.476 82.0505 135.476 81.417V73.6035H137.458ZM135.318 71.6895C135.318 71.3932 135.416 71.1494 135.612 70.958C135.813 70.7666 136.084 70.6709 136.426 70.6709C136.768 70.6709 137.036 70.7666 137.232 70.958C137.433 71.1494 137.533 71.3932 137.533 71.6895C137.533 71.9902 137.431 72.2363 137.226 72.4277C137.025 72.6191 136.758 72.7148 136.426 72.7148C136.093 72.7148 135.824 72.6191 135.619 72.4277C135.419 72.2363 135.318 71.9902 135.318 71.6895ZM142.407 81.1367C141.323 81.1367 140.438 80.804 139.755 80.1387C139.076 79.4733 138.736 78.5869 138.736 77.4795V77.2881C138.736 76.5452 138.88 75.8822 139.167 75.2988C139.454 74.7109 139.86 74.2598 140.384 73.9453C140.912 73.6263 141.514 73.4668 142.188 73.4668C143.2 73.4668 143.995 73.7858 144.574 74.4238C145.158 75.0618 145.449 75.9665 145.449 77.1377V77.9443H140.739C140.803 78.4274 140.994 78.8148 141.313 79.1064C141.637 79.3981 142.045 79.5439 142.537 79.5439C143.298 79.5439 143.893 79.2682 144.321 78.7168L145.292 79.8037C144.996 80.223 144.595 80.5511 144.089 80.7881C143.583 81.0205 143.022 81.1367 142.407 81.1367ZM142.182 75.0664C141.79 75.0664 141.471 75.1986 141.225 75.4629C140.983 75.7272 140.828 76.1055 140.76 76.5977H143.508V76.4404C143.499 76.0029 143.38 75.6657 143.152 75.4287C142.924 75.1872 142.601 75.0664 142.182 75.0664ZM148.19 77.9443C148.19 77.3063 148.268 76.7982 148.423 76.4199C148.578 76.0417 148.86 75.6702 149.271 75.3057C149.685 74.9365 149.961 74.638 150.098 74.4102C150.234 74.1777 150.303 73.9339 150.303 73.6787C150.303 72.9085 149.947 72.5234 149.236 72.5234C148.899 72.5234 148.628 72.6283 148.423 72.8379C148.222 73.043 148.118 73.3278 148.108 73.6924H146.126C146.135 72.8219 146.415 72.1406 146.967 71.6484C147.523 71.1562 148.279 70.9102 149.236 70.9102C150.202 70.9102 150.952 71.1449 151.485 71.6143C152.019 72.0791 152.285 72.7376 152.285 73.5898C152.285 73.9772 152.199 74.3441 152.025 74.6904C151.852 75.0322 151.549 75.4128 151.116 75.832L150.562 76.3584C150.216 76.6911 150.018 77.0807 149.968 77.5273L149.94 77.9443H148.19ZM147.992 80.043C147.992 79.7376 148.095 79.487 148.3 79.291C148.509 79.0905 148.776 78.9902 149.1 78.9902C149.423 78.9902 149.688 79.0905 149.893 79.291C150.102 79.487 150.207 79.7376 150.207 80.043C150.207 80.3438 150.104 80.5921 149.899 80.7881C149.699 80.984 149.432 81.082 149.1 81.082C148.767 81.082 148.498 80.984 148.293 80.7881C148.092 80.5921 147.992 80.3438 147.992 80.043Z" fill="#FB177D"/>
<path d="M212.482 34.036C211.957 34.0334 211.444 34.1798 211.008 34.4541M212.482 34.036C212.483 34.036 212.483 34.036 212.483 34.036L212.482 34.336V34.036H212.482ZM212.482 34.036H212.525C214.044 34.036 215.287 35.2648 215.291 36.7933L215.292 37.1192L211.008 34.4541M211.008 34.4541C210.537 33.5979 209.63 33.0101 208.584 33.0101L208.582 33.0101C207.987 33.0141 207.413 33.206 206.947 33.553C206.447 32.8424 205.622 32.38 204.69 32.38H204.647C204.262 32.3747 203.884 32.453 203.538 32.6068L211.008 34.4541ZM213.658 42.628V42.6279L213.658 42.5918C213.661 40.2581 213.663 39.3833 213.656 36.796C213.655 36.1307 213.138 35.6173 212.525 35.6173H212.482C211.859 35.6173 211.332 36.1274 211.332 36.7869V37.9762C211.332 38.4265 210.953 38.7668 210.517 38.7668C210.081 38.7668 209.702 38.4265 209.702 37.9762V35.7799C209.702 35.1039 209.194 34.5849 208.587 34.5849C207.975 34.5849 207.468 35.1048 207.468 35.7799V38.1079C207.468 38.5583 207.088 38.8986 206.652 38.8986C206.216 38.8986 205.837 38.5583 205.837 38.1079V35.1407C205.837 34.4781 205.31 33.9613 204.69 33.9613H204.645C204.041 33.9613 203.538 34.449 203.538 35.077V38.4175C203.538 38.8678 203.159 39.2081 202.723 39.2081C202.287 39.2081 201.908 38.8678 201.908 38.4175V35.1775L201.907 35.1739L201.907 35.1611C201.907 35.1582 201.907 35.1547 201.906 35.1509C201.906 35.1476 201.906 35.144 201.906 35.1402C201.906 35.1231 201.907 35.1067 201.907 35.094L201.907 35.0931C201.907 35.0791 201.908 35.0695 201.908 35.0605V27.4761C201.908 26.8085 201.379 26.2811 200.764 26.2811C200.15 26.2811 199.621 26.808 199.62 27.475L199.62 27.4751L199.611 40.0538L199.611 40.054L199.311 40.0538C199.311 40.2608 199.174 40.4458 198.969 40.5155L213.658 42.628ZM213.658 42.628C213.658 42.9366 213.657 43.271 213.657 43.6378C213.656 44.3207 213.655 45.1161 213.654 46.0672C213.651 48.6368 211.616 50.7184 209.134 50.7184H202.813C201.185 50.7184 199.674 49.8075 198.873 48.3415L193.549 38.6011L213.658 42.628ZM215.298 43.9607C215.297 43.4693 215.296 43.0339 215.296 42.6321L203.238 27.4761C203.238 26.1107 202.122 25 200.764 25C199.407 25 198.297 26.11 198.296 27.4744L197.996 27.4741L197.996 27.4742L197.985 37.8797L197.846 37.719C197.208 36.9632 196.272 36.4973 195.264 36.427L195.263 36.4269C194.277 36.3626 193.304 36.6878 192.574 37.3306L192.001 37.7828L192.001 37.7828C191.702 38.0185 191.611 38.4293 191.795 38.7663L191.795 38.7664L197.431 49.0825L197.432 49.0825C198.514 51.0623 200.575 52.3 202.812 52.3H209.164H209.464V52.2874C212.716 52.1281 215.296 49.3929 215.3 46.0666V46.0666C215.301 45.2526 215.299 44.5644 215.298 43.9607Z" fill="#FB177D" stroke="#FB177D" stroke-width="0.6"/>
<path d="M204.58 24.4954C204.581 24.968 204.995 25.3 205.44 25.3C205.885 25.3 206.3 24.9677 206.3 24.4948L206.3 24.4935C206.289 21.815 203.89 19.7 201 19.7C198.11 19.7 195.711 21.815 195.7 24.4935V24.4948C195.7 24.9677 196.115 25.3 196.56 25.3C197.005 25.3 197.42 24.9677 197.42 24.4948H197.12L197.42 24.4962C197.428 22.7615 198.999 21.3085 201 21.3085C203.001 21.3085 204.572 22.7611 204.58 24.4954ZM204.58 24.4954C204.58 24.4952 204.58 24.495 204.58 24.4948H204.88L204.58 24.4962C204.58 24.4959 204.58 24.4957 204.58 24.4954Z" fill="#FB177D" stroke="#FB177D" stroke-width="0.6"/>
<path d="M413.328 77.436H412.296V83.316H413.328V77.436ZM413.496 75.456C413.496 75.048 413.196 74.736 412.812 74.736C412.428 74.736 412.14 75.048 412.14 75.456C412.14 75.852 412.428 76.188 412.812 76.188C413.196 76.188 413.496 75.852 413.496 75.456ZM419.901 72.504H418.749L417.237 76.5L415.761 72.504H414.585L416.697 77.604V81H417.765V77.604L419.901 72.504ZM423.76 81V71.928H422.728V81H423.76ZM426.669 73.188C426.669 72.804 426.393 72.504 426.033 72.504C425.673 72.504 425.397 72.804 425.397 73.188C425.397 73.584 425.673 73.872 426.033 73.872C426.381 73.872 426.669 73.584 426.669 73.188ZM426.537 81V74.976H425.517V81H426.537ZM431.282 75.444C430.946 75.048 430.418 74.772 429.71 74.772C428.714 74.772 427.934 75.48 427.934 76.536C427.934 77.628 428.57 78 429.182 78.228C429.782 78.456 430.262 78.672 430.262 79.356C430.262 79.944 429.95 80.352 429.434 80.352C428.894 80.352 428.534 80.064 428.27 79.728L427.67 80.388C428.066 80.88 428.69 81.204 429.398 81.204C430.442 81.204 431.234 80.532 431.234 79.284C431.234 78.204 430.526 77.736 429.854 77.484C429.218 77.244 428.906 77.064 428.906 76.5C428.906 75.948 429.254 75.588 429.71 75.588C430.154 75.588 430.49 75.816 430.694 76.116L431.282 75.444ZM434.684 80.988L434.66 80.172C434.552 80.22 434.372 80.268 434.228 80.268C433.808 80.268 433.604 79.968 433.604 79.272V75.804H434.672V74.976H433.604V73.368H432.608V74.976H431.852V75.804H432.62V79.476C432.62 80.52 432.98 81.156 433.904 81.156C434.192 81.156 434.504 81.084 434.684 80.988ZM439.744 78C439.744 76.068 438.916 74.772 437.548 74.772C436.168 74.772 435.364 76.068 435.364 78C435.364 79.908 436.192 81.204 437.548 81.204C438.916 81.204 439.744 79.908 439.744 78ZM438.688 77.988C438.688 79.296 438.34 80.304 437.548 80.304C436.768 80.304 436.42 79.296 436.42 77.988C436.42 76.668 436.768 75.66 437.548 75.66C438.328 75.66 438.688 76.668 438.688 77.988ZM442.613 78.384V72.504H441.581V78.384H442.613ZM442.781 80.364C442.781 79.968 442.481 79.632 442.097 79.632C441.713 79.632 441.425 79.968 441.425 80.364C441.425 80.772 441.713 81.084 442.097 81.084C442.481 81.084 442.781 80.772 442.781 80.364ZM415.764 92.252V91.76C415.764 90.092 415.212 88.772 413.736 88.772C412.416 88.772 411.54 90.092 411.54 92C411.54 94.004 412.38 95.204 413.748 95.204C414.672 95.204 415.272 94.652 415.584 93.884L414.816 93.44C414.624 93.896 414.324 94.292 413.784 94.292C412.98 94.292 412.584 93.392 412.572 92.252H415.764ZM414.732 91.424H412.596C412.596 90.776 412.896 89.66 413.712 89.66C414.408 89.66 414.732 90.38 414.732 91.424ZM421.241 95V91.16C421.241 89.972 421.001 88.772 419.705 88.772C418.961 88.772 418.421 89.324 418.193 90.02H418.169C418.169 89.828 418.145 89.372 418.097 88.976H417.125C417.161 89.42 417.173 90.02 417.173 90.5V95H418.193V91.544C418.193 90.464 418.673 89.684 419.357 89.684C420.113 89.684 420.209 90.476 420.209 91.16V95H421.241ZM425.235 88.976V97.88H426.255V94.124H426.279C426.459 94.748 426.963 95.204 427.659 95.204C428.919 95.204 429.579 93.872 429.579 92.012C429.579 90.14 428.883 88.772 427.659 88.772C426.831 88.772 426.447 89.264 426.255 89.912H426.231V88.976H425.235ZM426.231 91.976C426.231 90.68 426.615 89.66 427.395 89.66C428.187 89.66 428.523 90.68 428.523 91.976C428.523 93.284 428.187 94.304 427.395 94.304C426.627 94.304 426.231 93.284 426.231 91.976ZM435.045 92C435.045 90.068 434.217 88.772 432.849 88.772C431.469 88.772 430.665 90.068 430.665 92C430.665 93.908 431.493 95.204 432.849 95.204C434.217 95.204 435.045 93.908 435.045 92ZM433.989 91.988C433.989 93.296 433.641 94.304 432.849 94.304C432.069 94.304 431.721 93.296 431.721 91.988C431.721 90.668 432.069 89.66 432.849 89.66C433.629 89.66 433.989 90.668 433.989 91.988ZM439.654 94.652L439.198 93.86C439.006 94.1 438.754 94.256 438.382 94.256C437.53 94.256 437.182 93.32 437.182 91.988C437.182 90.644 437.554 89.684 438.322 89.684C438.694 89.684 438.934 89.84 439.126 90.056L439.642 89.288C439.39 89.036 438.946 88.772 438.31 88.772C436.882 88.772 436.126 90.08 436.126 91.988C436.126 93.896 436.846 95.204 438.298 95.204C438.874 95.204 439.33 95.012 439.654 94.652ZM444.631 92C444.631 90.068 443.803 88.772 442.435 88.772C441.055 88.772 440.251 90.068 440.251 92C440.251 93.908 441.079 95.204 442.435 95.204C443.803 95.204 444.631 93.908 444.631 92ZM443.575 91.988C443.575 93.296 443.227 94.304 442.435 94.304C441.655 94.304 441.307 93.296 441.307 91.988C441.307 90.668 441.655 89.66 442.435 89.66C443.215 89.66 443.575 90.668 443.575 91.988ZM450.481 94.988L450.457 94.172C450.349 94.22 450.169 94.268 450.025 94.268C449.605 94.268 449.401 93.968 449.401 93.272V89.804H450.469V88.976H449.401V87.368H448.405V88.976H447.649V89.804H448.417V93.476C448.417 94.52 448.777 95.156 449.701 95.156C449.989 95.156 450.301 95.084 450.481 94.988ZM452.649 87.188C452.649 86.804 452.373 86.504 452.013 86.504C451.653 86.504 451.377 86.804 451.377 87.188C451.377 87.584 451.653 87.872 452.013 87.872C452.361 87.872 452.649 87.584 452.649 87.188ZM452.517 95V88.976H451.497V95H452.517ZM458.174 92.252V91.76C458.174 90.092 457.622 88.772 456.146 88.772C454.826 88.772 453.95 90.092 453.95 92C453.95 94.004 454.79 95.204 456.158 95.204C457.082 95.204 457.682 94.652 457.994 93.884L457.226 93.44C457.034 93.896 456.734 94.292 456.194 94.292C455.39 94.292 454.994 93.392 454.982 92.252H458.174ZM457.142 91.424H455.006C455.006 90.776 455.306 89.66 456.122 89.66C456.818 89.66 457.142 90.38 457.142 91.424ZM460.604 90.02H460.58C460.58 89.828 460.556 89.372 460.508 88.976H459.536C459.572 89.42 459.584 90.02 459.584 90.5V95H460.592V91.544C460.592 90.464 461.036 89.684 461.72 89.684C462.476 89.684 462.572 90.476 462.572 91.16V95H463.58V91.544C463.58 90.464 464.036 89.684 464.72 89.684C465.476 89.684 465.572 90.476 465.572 91.16V95H466.604V91.16C466.604 89.972 466.364 88.772 465.068 88.772C464.192 88.772 463.7 89.432 463.484 90.02H463.46C463.316 89.384 462.944 88.772 462.092 88.772C461.3 88.772 460.784 89.324 460.604 90.02ZM468.302 88.976V97.88H469.322V94.124H469.346C469.526 94.748 470.03 95.204 470.726 95.204C471.986 95.204 472.646 93.872 472.646 92.012C472.646 90.14 471.95 88.772 470.726 88.772C469.898 88.772 469.514 89.264 469.322 89.912H469.298V88.976H468.302ZM469.298 91.976C469.298 90.68 469.682 89.66 470.462 89.66C471.254 89.66 471.59 90.68 471.59 91.976C471.59 93.284 471.254 94.304 470.462 94.304C469.694 94.304 469.298 93.284 469.298 91.976ZM478.111 92C478.111 90.068 477.283 88.772 475.915 88.772C474.535 88.772 473.731 90.068 473.731 92C473.731 93.908 474.559 95.204 475.915 95.204C477.283 95.204 478.111 93.908 478.111 92ZM477.055 91.988C477.055 93.296 476.707 94.304 475.915 94.304C475.135 94.304 474.787 93.296 474.787 91.988C474.787 90.668 475.135 89.66 475.915 89.66C476.695 89.66 477.055 90.668 477.055 91.988ZM412.92 104.224H412.896C412.896 103.828 412.872 103.372 412.824 102.976H411.852C411.888 103.42 411.9 104.02 411.9 104.5V109H412.932V105.952C412.932 104.908 413.352 103.828 414.12 103.828C414.204 103.828 414.264 103.84 414.324 103.852L414.372 102.784C414.324 102.772 414.276 102.772 414.228 102.772C413.628 102.772 413.124 103.228 412.92 104.224ZM419.116 106.252V105.76C419.116 104.092 418.564 102.772 417.088 102.772C415.768 102.772 414.892 104.092 414.892 106C414.892 108.004 415.732 109.204 417.1 109.204C418.024 109.204 418.624 108.652 418.936 107.884L418.168 107.44C417.976 107.896 417.676 108.292 417.136 108.292C416.332 108.292 415.936 107.392 415.924 106.252H419.116ZM418.084 105.424H415.948C415.948 104.776 416.248 103.66 417.064 103.66C417.76 103.66 418.084 104.38 418.084 105.424ZM423.693 108.652L423.237 107.86C423.045 108.1 422.793 108.256 422.421 108.256C421.569 108.256 421.221 107.32 421.221 105.988C421.221 104.644 421.593 103.684 422.361 103.684C422.733 103.684 422.973 103.84 423.165 104.056L423.681 103.288C423.429 103.036 422.985 102.772 422.349 102.772C420.921 102.772 420.165 104.08 420.165 105.988C420.165 107.896 420.885 109.204 422.337 109.204C422.913 109.204 423.369 109.012 423.693 108.652ZM425.778 101.188C425.778 100.804 425.502 100.504 425.142 100.504C424.782 100.504 424.506 100.804 424.506 101.188C424.506 101.584 424.782 101.872 425.142 101.872C425.49 101.872 425.778 101.584 425.778 101.188ZM425.646 109V102.976H424.626V109H425.646ZM427.415 109H428.411V108.052H428.435C428.627 108.7 429.011 109.204 429.839 109.204C431.063 109.204 431.759 107.824 431.759 105.952C431.759 104.092 431.099 102.772 429.839 102.772C429.143 102.772 428.639 103.216 428.459 103.84H428.435V99.928H427.415V109ZM428.411 105.988C428.411 104.68 428.807 103.66 429.575 103.66C430.367 103.66 430.703 104.68 430.703 105.988C430.703 107.284 430.367 108.304 429.575 108.304C428.795 108.304 428.411 107.284 428.411 105.988ZM434.333 101.188C434.333 100.804 434.057 100.504 433.697 100.504C433.337 100.504 433.061 100.804 433.061 101.188C433.061 101.584 433.337 101.872 433.697 101.872C434.045 101.872 434.333 101.584 434.333 101.188ZM434.201 109V102.976H433.181V109H434.201ZM437.014 104.224H436.99C436.99 103.828 436.966 103.372 436.918 102.976H435.946C435.982 103.42 435.994 104.02 435.994 104.5V109H437.026V105.952C437.026 104.908 437.446 103.828 438.214 103.828C438.298 103.828 438.358 103.84 438.418 103.852L438.466 102.784C438.418 102.772 438.37 102.772 438.322 102.772C437.722 102.772 437.218 103.228 437.014 104.224ZM442.753 109C442.705 108.712 442.669 108.148 442.669 107.74V105.304C442.669 103.696 442.213 102.772 440.833 102.772C440.209 102.772 439.501 103.084 439.105 103.624L439.621 104.26C439.885 103.9 440.293 103.648 440.737 103.648C441.337 103.648 441.733 104.056 441.733 104.992V105.256H441.337C440.281 105.256 438.901 105.628 438.901 107.368C438.901 108.664 439.705 109.156 440.377 109.156C441.169 109.156 441.625 108.724 441.793 108.004H441.817C441.817 108.22 441.853 108.64 441.913 109H442.753ZM441.757 106.384C441.757 107.212 441.481 108.328 440.653 108.328C440.233 108.328 439.861 107.992 439.861 107.26C439.861 106.252 440.593 106.036 441.313 106.036H441.757V106.384ZM442.525 100.42H441.517L440.437 102.148H441.241L442.525 100.42ZM447.278 103.444C446.942 103.048 446.414 102.772 445.706 102.772C444.71 102.772 443.93 103.48 443.93 104.536C443.93 105.628 444.566 106 445.178 106.228C445.778 106.456 446.258 106.672 446.258 107.356C446.258 107.944 445.946 108.352 445.43 108.352C444.89 108.352 444.53 108.064 444.266 107.728L443.666 108.388C444.062 108.88 444.686 109.204 445.394 109.204C446.438 109.204 447.23 108.532 447.23 107.284C447.23 106.204 446.522 105.736 445.85 105.484C445.214 105.244 444.902 105.064 444.902 104.5C444.902 103.948 445.25 103.588 445.706 103.588C446.15 103.588 446.486 103.816 446.69 104.116L447.278 103.444ZM452.965 108.988L452.941 108.172C452.833 108.22 452.653 108.268 452.509 108.268C452.089 108.268 451.885 107.968 451.885 107.272V103.804H452.953V102.976H451.885V101.368H450.889V102.976H450.133V103.804H450.901V107.476C450.901 108.52 451.261 109.156 452.185 109.156C452.473 109.156 452.785 109.084 452.965 108.988ZM453.933 102.976V106.816C453.933 108.004 454.173 109.204 455.469 109.204C456.213 109.204 456.753 108.652 456.981 107.956H457.005C457.005 108.148 457.029 108.604 457.077 109H458.049C458.013 108.556 458.001 107.956 458.001 107.476V102.976H456.981V106.432C456.981 107.512 456.501 108.292 455.817 108.292C455.061 108.292 454.965 107.5 454.965 106.816V102.976H453.933ZM465.775 102.976H464.719L463.615 107.92H463.591L462.439 102.976H461.359L462.979 109H464.179L465.775 102.976ZM467.977 101.188C467.977 100.804 467.701 100.504 467.341 100.504C466.981 100.504 466.705 100.804 466.705 101.188C466.705 101.584 466.981 101.872 467.341 101.872C467.689 101.872 467.977 101.584 467.977 101.188ZM467.845 109V102.976H466.825V109H467.845ZM473.622 109V99.928H472.602V103.84H472.578C472.398 103.216 471.894 102.772 471.198 102.772C469.938 102.772 469.278 104.092 469.278 105.952C469.278 107.824 469.974 109.204 471.198 109.204C472.026 109.204 472.41 108.7 472.602 108.052H472.626V109H473.622ZM472.626 105.988C472.626 107.284 472.242 108.304 471.462 108.304C470.67 108.304 470.334 107.284 470.334 105.988C470.334 104.68 470.67 103.66 471.462 103.66C472.23 103.66 472.626 104.68 472.626 105.988ZM479.268 106.252V105.76C479.268 104.092 478.716 102.772 477.24 102.772C475.92 102.772 475.044 104.092 475.044 106C475.044 108.004 475.884 109.204 477.252 109.204C478.176 109.204 478.776 108.652 479.088 107.884L478.32 107.44C478.128 107.896 477.828 108.292 477.288 108.292C476.484 108.292 476.088 107.392 476.076 106.252H479.268ZM478.236 105.424H476.1C476.1 104.776 476.4 103.66 477.216 103.66C477.912 103.66 478.236 104.38 478.236 105.424ZM484.697 106C484.697 104.068 483.869 102.772 482.501 102.772C481.121 102.772 480.317 104.068 480.317 106C480.317 107.908 481.145 109.204 482.501 109.204C483.869 109.204 484.697 107.908 484.697 106ZM483.641 105.988C483.641 107.296 483.293 108.304 482.501 108.304C481.721 108.304 481.373 107.296 481.373 105.988C481.373 104.668 481.721 103.66 482.501 103.66C483.281 103.66 483.641 104.668 483.641 105.988ZM487.158 104.02H487.134C487.134 103.828 487.11 103.372 487.062 102.976H486.09C486.126 103.42 486.138 104.02 486.138 104.5V109H487.146V105.544C487.146 104.464 487.59 103.684 488.274 103.684C489.03 103.684 489.126 104.476 489.126 105.16V109H490.134V105.544C490.134 104.464 490.59 103.684 491.274 103.684C492.03 103.684 492.126 104.476 492.126 105.16V109H493.158V105.16C493.158 103.972 492.918 102.772 491.622 102.772C490.746 102.772 490.254 103.432 490.038 104.02H490.014C489.87 103.384 489.498 102.772 488.646 102.772C487.854 102.772 487.338 103.324 487.158 104.02ZM498.744 106.252V105.76C498.744 104.092 498.192 102.772 496.716 102.772C495.396 102.772 494.52 104.092 494.52 106C494.52 108.004 495.36 109.204 496.728 109.204C497.652 109.204 498.252 108.652 498.564 107.884L497.796 107.44C497.604 107.896 497.304 108.292 496.764 108.292C495.96 108.292 495.564 107.392 495.552 106.252H498.744ZM497.712 105.424H495.576C495.576 104.776 495.876 103.66 496.692 103.66C497.388 103.66 497.712 104.38 497.712 105.424ZM504.222 109V105.16C504.222 103.972 503.982 102.772 502.686 102.772C501.942 102.772 501.402 103.324 501.174 104.02H501.15C501.15 103.828 501.126 103.372 501.078 102.976H500.106C500.142 103.42 500.154 104.02 500.154 104.5V109H501.174V105.544C501.174 104.464 501.654 103.684 502.338 103.684C503.094 103.684 503.19 104.476 503.19 105.16V109H504.222ZM508.907 103.444C508.571 103.048 508.043 102.772 507.335 102.772C506.339 102.772 505.559 103.48 505.559 104.536C505.559 105.628 506.195 106 506.807 106.228C507.407 106.456 507.887 106.672 507.887 107.356C507.887 107.944 507.575 108.352 507.059 108.352C506.519 108.352 506.159 108.064 505.895 107.728L505.295 108.388C505.691 108.88 506.315 109.204 507.023 109.204C508.067 109.204 508.859 108.532 508.859 107.284C508.859 106.204 508.151 105.736 507.479 105.484C506.843 105.244 506.531 105.064 506.531 104.5C506.531 103.948 506.879 103.588 507.335 103.588C507.779 103.588 508.115 103.816 508.319 104.116L508.907 103.444ZM513.593 109C513.545 108.712 513.509 108.148 513.509 107.74V105.304C513.509 103.696 513.053 102.772 511.673 102.772C511.049 102.772 510.341 103.084 509.945 103.624L510.461 104.26C510.725 103.9 511.133 103.648 511.577 103.648C512.177 103.648 512.573 104.056 512.573 104.992V105.256H512.177C511.121 105.256 509.741 105.628 509.741 107.368C509.741 108.664 510.545 109.156 511.217 109.156C512.009 109.156 512.465 108.724 512.633 108.004H512.657C512.657 108.22 512.693 108.64 512.753 109H513.593ZM512.597 106.384C512.597 107.212 512.321 108.328 511.493 108.328C511.073 108.328 510.701 107.992 510.701 107.26C510.701 106.252 511.433 106.036 512.153 106.036H512.597V106.384ZM516.306 101.188C516.306 100.804 516.03 100.504 515.67 100.504C515.31 100.504 515.046 100.804 515.046 101.188C515.046 101.584 515.31 101.872 515.67 101.872C516.03 101.872 516.306 101.584 516.306 101.188ZM516.186 109.744V102.976H515.166V109.672C515.166 110.344 515.01 110.932 514.398 110.932C514.302 110.932 514.182 110.92 514.074 110.884L513.99 111.82C514.158 111.856 514.35 111.88 514.47 111.88C515.718 111.88 516.186 111.004 516.186 109.744ZM521.83 106.252V105.76C521.83 104.092 521.278 102.772 519.802 102.772C518.482 102.772 517.606 104.092 517.606 106C517.606 108.004 518.446 109.204 519.814 109.204C520.738 109.204 521.338 108.652 521.65 107.884L520.882 107.44C520.69 107.896 520.39 108.292 519.85 108.292C519.046 108.292 518.65 107.392 518.638 106.252H521.83ZM520.798 105.424H518.662C518.662 104.776 518.962 103.66 519.778 103.66C520.474 103.66 520.798 104.38 520.798 105.424ZM524.392 108.364C524.392 107.968 524.092 107.632 523.708 107.632C523.324 107.632 523.036 107.968 523.036 108.364C523.036 108.772 523.324 109.084 523.708 109.084C524.092 109.084 524.392 108.772 524.392 108.364Z" fill="#303541"/>
</svg>
