<svg width="50" height="50" viewBox="0 0 50 50" fill="none" xmlns="http://www.w3.org/2000/svg">
<path d="M49.5256 27.0009C50.1581 25.748 50.1581 24.252 49.5256 22.9991L48.8705 21.7016C48.7277 21.4188 48.6778 21.1038 48.7262 20.7906L48.9482 19.3543C49.1626 17.9672 48.7004 16.5445 47.7116 15.5484L46.6877 14.5169C46.4645 14.2919 46.3196 14.0077 46.269 13.6949L46.0363 12.2602C45.814 10.8902 44.9518 9.69146 43.7256 9.04444L42.4659 8.3015C42.4415 8.28715 42.4168 8.27347 42.3916 8.26058C42.1098 8.11575 41.8843 7.89024 41.7395 7.60838L41.0748 6.31589C40.4481 5.09704 39.1701 4.1957 37.7396 3.96364L36.305 3.73101C35.9922 3.68022 35.708 3.53548 35.4831 3.31232L34.4516 2.28831C33.4555 1.29956 32.033 0.837606 30.6458 1.05169L29.2094 1.27368C28.896 1.32212 28.5812 1.27221 28.2983 1.12943L27.0009 0.474392C25.748 -0.158082 24.2521 -0.15818 22.9993 0.474392L21.7017 1.12943C21.419 1.27211 21.1041 1.32192 20.7907 1.27377L19.3543 1.05178C17.967 0.837215 16.5445 1.29966 15.5485 2.28841L14.5168 3.31222C14.292 3.53548 14.0078 3.68022 13.695 3.73101L12.2602 3.96364C10.8298 4.1957 9.55186 5.09694 8.92515 6.31589L8.26054 7.60838C8.11561 7.89014 7.8901 8.11575 7.60824 8.26058L6.31566 8.92529C5.09681 9.552 4.19546 10.8299 3.96351 12.2603L3.73078 13.6951C3.68009 14.0079 3.53525 14.292 3.31199 14.517L2.28827 15.5485C1.29952 16.5446 0.837276 17.9672 1.05165 19.3543L1.27374 20.7907C1.32218 21.1038 1.27227 21.4188 1.12939 21.7016L0.474356 22.9991C-0.158118 24.2519 -0.158118 25.7479 0.474356 27.0008L1.12939 28.2983C1.27218 28.5811 1.32208 28.8961 1.27374 29.2093L1.05165 30.6457C0.837276 32.0328 1.29962 33.4554 2.28827 34.4515L3.31219 35.4831C3.53545 35.7081 3.68028 35.9922 3.73097 36.3051L3.96371 37.7397C4.19566 39.1702 5.097 40.4481 6.31585 41.0748L7.60834 41.7394C7.8902 41.8844 8.11571 42.1099 8.26064 42.3917L8.92525 43.6843C9.55206 44.9032 10.83 45.8045 12.2604 46.0365L13.6951 46.2692C14.0079 46.32 14.2921 46.4647 14.5169 46.6879L15.5485 47.7119C16.5448 48.7006 17.9674 49.1626 19.3543 48.9484L20.7908 48.7263C21.1038 48.6779 21.419 48.7279 21.7017 48.8707L22.9993 49.5257C23.6257 49.8419 24.3128 50.0001 25 50.0001C25.6873 50.0001 26.3744 49.8419 27.0009 49.5257L28.2983 48.8707C28.5812 48.7279 28.8963 48.6781 29.2093 48.7263L30.6457 48.9483C32.0327 49.1626 33.4554 48.7004 34.4516 47.7117L35.4831 46.6878C35.7079 46.4645 35.9921 46.3198 36.305 46.269L37.7396 46.0363C39.1097 45.8141 40.3085 44.9518 40.9555 43.7255L41.6985 42.4658C41.7128 42.4414 41.7265 42.4167 41.7394 42.3915C41.8842 42.1098 42.1098 41.8843 42.3916 41.7393L43.6841 41.0747C44.9322 40.433 45.8116 39.2227 46.0363 37.8372L46.269 36.4026C46.3197 36.0898 46.4645 35.8056 46.6877 35.5807C46.7033 35.5651 47.7372 34.4255 47.7372 34.4255C48.7083 33.4307 49.1608 32.0206 48.9482 30.6457L48.7262 29.2094C48.6777 28.8962 48.7277 28.5811 48.8704 28.2983L49.5256 27.0009Z" fill="url(#paint0_linear)"/>
<path d="M25 7.32291C15.295 7.32291 7.32277 15.2973 7.32277 25.0001C7.32277 34.7051 15.2972 42.6774 25 42.6774C34.705 42.6774 42.6772 34.703 42.6772 25.0001C42.6772 15.2951 34.7028 7.32291 25 7.32291Z" fill="url(#paint1_linear)"/>
<path d="M24.4807 15.6609L22.1617 20.5736L16.9731 21.3639C16.0426 21.5049 15.6697 22.7034 16.3445 23.3899L20.0983 27.2117L19.2105 32.6104C19.0507 33.5863 20.0344 34.3172 20.8583 33.8608L25.5 31.3117L30.1417 33.8608C30.9656 34.3135 31.9493 33.5863 31.7895 32.6104L30.9017 27.2117L34.6555 23.3899C35.3303 22.7034 34.9574 21.5049 34.0269 21.3639L28.8383 20.5736L26.5193 15.6609C26.1037 14.7853 24.8998 14.7741 24.4807 15.6609Z" fill="#FFC101"/>
<path d="M24.4807 15.6609L22.1617 20.5736L16.9731 21.3639C16.0426 21.5049 15.6697 22.7034 16.3445 23.3899L20.0983 27.2117L19.2105 32.6104C19.0507 33.5863 20.0344 34.3172 20.8583 33.8608L25.5 31.3117L30.1417 33.8608C30.9656 34.3135 31.9493 33.5863 31.7895 32.6104L30.9017 27.2117L34.6555 23.3899C35.3303 22.7034 34.9574 21.5049 34.0269 21.3639L28.8383 20.5736L26.5193 15.6609C26.1037 14.7853 24.8998 14.7741 24.4807 15.6609Z" fill="url(#paint2_linear)"/>
<defs>
<linearGradient id="paint0_linear" x1="25" y1="50.0001" x2="25" y2="3.57628e-05" gradientUnits="userSpaceOnUse">
<stop stop-color="#FD5900"/>
<stop offset="1" stop-color="#FFDE00"/>
</linearGradient>
<linearGradient id="paint1_linear" x1="25" y1="42.6774" x2="25" y2="7.32291" gradientUnits="userSpaceOnUse">
<stop stop-color="#FFE59A"/>
<stop offset="1" stop-color="#FFFFD5"/>
</linearGradient>
<linearGradient id="paint2_linear" x1="25.5" y1="15" x2="25.5" y2="34" gradientUnits="userSpaceOnUse">
<stop stop-color="#FFDE00"/>
<stop offset="1" stop-color="#FD5900"/>
</linearGradient>
</defs>
</svg>
