<svg width="48" height="48" viewBox="0 0 48 48" fill="none" xmlns="http://www.w3.org/2000/svg">
<path d="M47.5445 25.9209C48.1518 24.718 48.1518 23.282 47.5445 22.0791L46.9157 20.8336C46.7786 20.562 46.7307 20.2597 46.7771 19.959L46.9902 18.5801C47.1961 17.2486 46.7524 15.8827 45.8031 14.9265L44.8202 13.9362C44.6059 13.7203 44.4669 13.4474 44.4182 13.1471L44.1949 11.7698C43.9815 10.4546 43.1537 9.3038 41.9766 8.68266L40.7673 7.96944C40.7438 7.95566 40.7201 7.94253 40.6959 7.93016C40.4254 7.79112 40.2089 7.57463 40.0699 7.30404L39.4318 6.06325C38.8301 4.89316 37.6033 4.02787 36.23 3.8051L34.8528 3.58177C34.5525 3.53301 34.2797 3.39407 34.0638 3.17983L33.0735 2.19678C32.1173 1.24758 30.7517 0.804101 29.42 1.00962L28.0411 1.22273C27.7402 1.26923 27.4379 1.22132 27.1664 1.08425L25.9208 0.455417C24.7181 -0.151759 23.282 -0.151852 22.0793 0.455417L20.8336 1.08425C20.5622 1.22123 20.2599 1.26905 19.9591 1.22282L18.5802 1.00971C17.2483 0.803726 15.8827 1.24767 14.9265 2.19687L13.9361 3.17974C13.7203 3.39407 13.4475 3.53301 13.1472 3.58177L11.7698 3.8051C10.3966 4.02787 9.16979 4.89306 8.56814 6.06325L7.93012 7.30404C7.79099 7.57454 7.5745 7.79112 7.30392 7.93016L6.06303 8.56827C4.89293 9.16992 4.02764 10.3967 3.80497 11.7699L3.58155 13.1473C3.53289 13.4476 3.39384 13.7204 3.17951 13.9363L2.19674 14.9265C1.24754 15.8828 0.803785 17.2486 1.00958 18.5801L1.22279 19.9591C1.26929 20.2597 1.22138 20.562 1.08421 20.8336L0.455381 22.0791C-0.151794 23.2819 -0.151794 24.718 0.455381 25.9208L1.08421 27.1663C1.22129 27.4379 1.2692 27.7402 1.22279 28.0409L1.00958 29.4199C0.803785 30.7514 1.24763 32.1172 2.19674 33.0735L3.1797 34.0638C3.39403 34.2797 3.53307 34.5525 3.58173 34.8529L3.80516 36.2301C4.02783 37.6034 4.89312 38.8302 6.06322 39.4318L7.30401 40.0698C7.57459 40.209 7.79108 40.4255 7.93022 40.696L8.56824 41.9369C9.16998 43.107 10.3968 43.9723 11.77 44.195L13.1473 44.4184C13.4476 44.4672 13.7204 44.6061 13.9362 44.8204L14.9266 45.8034C15.883 46.7526 17.2487 47.1961 18.5802 46.9905L19.9591 46.7773C20.2596 46.7308 20.5622 46.7788 20.8336 46.9158L22.0793 47.5447C22.6807 47.8483 23.3403 48.0001 24 48.0001C24.6598 48.0001 25.3195 47.8483 25.9208 47.5447L27.1664 46.9158C27.4379 46.7788 27.7405 46.731 28.041 46.7773L29.4199 46.9904C30.7514 47.1961 32.1172 46.7524 33.0735 45.8032L34.0638 44.8203C34.2796 44.6059 34.5524 44.467 34.8528 44.4182L36.23 44.1948C37.5453 43.9815 38.6962 43.1537 39.3173 41.9765L40.0305 40.7672C40.0443 40.7438 40.0574 40.7201 40.0698 40.6959C40.2088 40.4254 40.4254 40.2089 40.6959 40.0698L41.9367 39.4317C43.1349 38.8156 43.9791 37.6538 44.1949 36.3237L44.4182 34.9465C44.4669 34.6462 44.6059 34.3734 44.8202 34.1575C44.8351 34.1425 45.8277 33.0485 45.8277 33.0485C46.76 32.0935 47.1944 30.7398 46.9902 29.4199L46.7771 28.041C46.7306 27.7403 46.7785 27.4379 46.9156 27.1663L47.5445 25.9209Z" fill="url(#paint0_linear)"/>
<path d="M23.9997 7.03006C14.6829 7.03006 7.02954 14.6855 7.02954 24.0002C7.02954 33.317 14.685 40.9704 23.9997 40.9704C33.3165 40.9704 40.9698 33.3149 40.9698 24.0002C40.9698 14.6834 33.3143 7.03006 23.9997 7.03006Z" fill="#FFF0F2"/>
<path d="M23.1415 14.6345L20.9152 19.3507L15.9342 20.1094C15.0409 20.2447 14.6829 21.3953 15.3307 22.0543L18.9344 25.7232L18.0821 30.906C17.9286 31.8428 18.873 32.5445 19.664 32.1064L24.12 29.6593L28.576 32.1064C29.367 32.541 30.3114 31.8428 30.1579 30.906L29.3056 25.7232L32.9093 22.0543C33.5571 21.3953 33.1991 20.2447 32.3058 20.1094L27.3248 19.3507L25.0985 14.6345C24.6996 13.7939 23.5438 13.7832 23.1415 14.6345Z" fill="#FFC101"/>
<path d="M23.1415 14.6345L20.9152 19.3507L15.9342 20.1094C15.0409 20.2447 14.6829 21.3953 15.3307 22.0543L18.9344 25.7232L18.0821 30.906C17.9286 31.8428 18.873 32.5445 19.664 32.1064L24.12 29.6593L28.576 32.1064C29.367 32.541 30.3114 31.8428 30.1579 30.906L29.3056 25.7232L32.9093 22.0543C33.5571 21.3953 33.1991 20.2447 32.3058 20.1094L27.3248 19.3507L25.0985 14.6345C24.6996 13.7939 23.5438 13.7832 23.1415 14.6345Z" fill="#FE7289"/>
<defs>
<linearGradient id="paint0_linear" x1="24" y1="48.0001" x2="24" y2="3.43323e-05" gradientUnits="userSpaceOnUse">
<stop stop-color="#FD3A84"/>
<stop offset="1" stop-color="#FFA68D"/>
</linearGradient>
</defs>
</svg>
