<svg width="26" height="35" viewBox="0 0 26 35" fill="none" xmlns="http://www.w3.org/2000/svg">
<path d="M4.25373 8.987C4.79529 8.90405 5.15833 8.44773 5.06504 7.96751C4.53513 5.24475 6.90378 2.76463 10 2.76463C13.087 2.76463 15.4598 5.23303 14.9371 7.95672C14.8451 8.43716 15.2095 8.89279 15.7513 8.97459C16.2931 9.05662 16.807 8.73311 16.8992 8.25266C17.6263 4.4617 14.3266 1 10 1C5.67839 1 2.3629 4.46124 3.104 8.26759C3.19754 8.74919 3.71423 9.06972 4.25373 8.987Z" fill="#FB177D" stroke="#FB177D" stroke-width="0.5"/>
<path d="M20.7399 16.5515C20.0018 15.1326 18.2438 14.5662 16.8006 15.2655C16.1297 13.9757 14.5953 13.3664 13.2007 13.8406V7.93367C13.2007 6.3593 11.9089 5.04389 10.3206 5.00119C8.65641 4.95497 7.27741 6.26034 7.27741 7.89374V22.7526L6.12051 21.566C5.01003 20.4274 3.15068 20.3473 1.97531 21.3879C0.735055 22.4858 0.673248 24.3553 1.81528 25.5303L8.46432 32.4761C9.39143 33.4444 10.7009 34 12.0566 34H20.0759C22.7911 34 25 31.8366 25 29.1774V19.1464C25 17.0097 22.6988 15.6023 20.7399 16.5515V16.5515ZM23.0304 29.1774C23.0304 30.7729 21.705 32.071 20.0759 32.071H12.0566C11.2431 32.071 10.4575 31.7377 9.90128 31.1564C9.87743 31.1318 3.26685 24.2262 3.243 24.2016C2.86216 23.8108 2.88036 23.1871 3.29583 22.8189C3.68745 22.4725 4.31553 22.5082 4.69586 22.8983L7.54978 25.8252C8.1617 26.4532 9.24679 26.0272 9.24679 25.1593V7.89374C9.24679 7.3517 9.70586 6.91415 10.267 6.92947C10.7986 6.94379 11.231 7.39415 11.231 7.93367C11.231 18.5469 11.2126 13.7361 11.2126 19.4679C11.2126 20.0022 11.6568 20.4375 12.2066 20.432C12.7557 20.4375 13.2007 20.0024 13.2007 19.4679V16.391C13.2884 15.9464 13.688 15.6099 14.167 15.6099C14.71 15.6099 15.1518 16.0427 15.1518 16.5744V19.4679C15.1518 20.0007 15.5927 20.4325 16.1367 20.4325C16.6806 20.4325 17.1215 20.0007 17.1215 19.4679V17.8604C17.1215 17.3287 17.5634 16.8959 18.1063 16.8959C18.6492 16.8959 19.0911 17.3287 19.0911 17.8604V19.4679C19.0911 20.0007 19.532 20.4325 20.0759 20.4325C20.6199 20.4325 21.0607 20.0007 21.0607 19.4679V19.1464C21.0607 18.6147 21.5026 18.1819 22.0456 18.1819C22.5885 18.1819 23.0304 18.6147 23.0304 19.1464V29.1774Z" fill="#FB177D" stroke="#FB177D" stroke-width="0.5"/>
</svg>
