<?xml version="1.0" encoding="utf-8"?>
<!-- Generator: Adobe Illustrator 24.0.1, SVG Export Plug-In . SVG Version: 6.00 Build 0)  -->
<svg version="1.1" id="Layer_1" xmlns="http://www.w3.org/2000/svg" xmlns:xlink="http://www.w3.org/1999/xlink" x="0px" y="0px"
	 viewBox="0 0 1400 800" style="enable-background:new 0 0 1400 800;" xml:space="preserve">
<style type="text/css">
	.st0{fill:#F0F0F0;}
	.st1{fill:#D80027;}
	.st2{fill:#2E52B2;}
</style>
<rect x="1.4" y="-5.4" class="st0" width="1401.3" height="803.9"/>
<g>
	<rect x="1.4" y="103.1" class="st1" width="1397.2" height="99.3"/>
	<rect x="1.4" y="301.8" class="st1" width="1397.2" height="99.3"/>
	<rect x="1.4" y="500.4" class="st1" width="1397.2" height="99.3"/>
	<rect x="1.4" y="699.1" class="st1" width="1397.2" height="99.3"/>
</g>
<rect x="-1.6" y="-1.3" class="st2" width="596" height="427.9"/>
<g>
	<polygon class="st0" points="233.8,179 224.2,208.6 193.1,208.6 218.2,226.8 208.6,256.3 233.8,238.1 258.9,256.3 249.3,226.8 
		274.4,208.6 243.4,208.6 	"/>
	<polygon class="st0" points="243.4,315.1 233.8,285.6 224.2,315.1 193.1,315.1 218.2,333.4 208.6,362.9 233.8,344.7 258.9,362.9 
		249.3,333.4 274.4,315.1 	"/>
	<polygon class="st0" points="112.1,315.1 102.5,285.6 92.9,315.1 61.9,315.1 87,333.4 77.4,362.9 102.5,344.7 127.7,362.9 
		118.1,333.4 143.2,315.1 	"/>
	<polygon class="st0" points="102.5,179 92.9,208.6 61.9,208.6 87,226.8 77.4,256.3 102.5,238.1 127.7,256.3 118.1,226.8 
		143.2,208.6 112.1,208.6 	"/>
	<polygon class="st0" points="233.8,72.5 224.2,102 193.1,102 218.2,120.2 208.6,149.8 233.8,131.5 258.9,149.8 249.3,120.2 
		274.4,102 243.4,102 	"/>
	<polygon class="st0" points="102.5,72.5 92.9,102 61.9,102 87,120.2 77.4,149.8 102.5,131.5 127.7,149.8 118.1,120.2 143.2,102 
		112.1,102 	"/>
	<polygon class="st0" points="365,179 355.4,208.6 324.3,208.6 349.5,226.8 339.9,256.3 365,238.1 390.1,256.3 380.5,226.8 
		405.6,208.6 374.6,208.6 	"/>
	<polygon class="st0" points="374.6,315.1 365,285.6 355.4,315.1 324.3,315.1 349.5,333.4 339.9,362.9 365,344.7 390.1,362.9 
		380.5,333.4 405.6,315.1 	"/>
	<polygon class="st0" points="505.8,315.1 496.2,285.6 486.6,315.1 455.6,315.1 480.7,333.4 471.1,362.9 496.2,344.7 521.3,362.9 
		511.7,333.4 536.9,315.1 	"/>
	<polygon class="st0" points="496.2,179 486.6,208.6 455.6,208.6 480.7,226.8 471.1,256.3 496.2,238.1 521.3,256.3 511.7,226.8 
		536.9,208.6 505.8,208.6 	"/>
	<polygon class="st0" points="365,72.5 355.4,102 324.3,102 349.5,120.2 339.9,149.8 365,131.5 390.1,149.8 380.5,120.2 405.6,102 
		374.6,102 	"/>
	<polygon class="st0" points="496.2,72.5 486.6,102 455.6,102 480.7,120.2 471.1,149.8 496.2,131.5 521.3,149.8 511.7,120.2 
		536.9,102 505.8,102 	"/>
</g>
</svg>
