<svg width="128" height="128" viewBox="0 0 128 128" fill="none" xmlns="http://www.w3.org/2000/svg">
<path d="M64 0C28.6452 0 0 28.6452 0 64C0 99.3548 28.6452 128 64 128C99.3548 128 128 99.3548 128 64C128 28.6452 99.3548 0 64 0ZM64 24.7742C76.5419 24.7742 86.7097 34.9419 86.7097 47.4839C86.7097 60.0258 76.5419 70.1935 64 70.1935C51.4581 70.1935 41.2903 60.0258 41.2903 47.4839C41.2903 34.9419 51.4581 24.7742 64 24.7742ZM64 113.548C48.8516 113.548 35.2774 106.684 26.1935 95.9484C31.0452 86.8129 40.5419 80.5161 51.6129 80.5161C52.2323 80.5161 52.8516 80.6194 53.4452 80.8C56.8 81.8839 60.3097 82.5806 64 82.5806C67.6903 82.5806 71.2258 81.8839 74.5548 80.8C75.1484 80.6194 75.7677 80.5161 76.3871 80.5161C87.4581 80.5161 96.9548 86.8129 101.806 95.9484C92.7226 106.684 79.1484 113.548 64 113.548Z" fill="#F6F6F6"/>
</svg>
