<?xml version="1.0" encoding="utf-8"?>
<!-- Generator: Adobe Illustrator 25.0.1, SVG Export Plug-In . SVG Version: 6.00 Build 0)  -->
<svg version="1.1" id="Capa_1" xmlns="http://www.w3.org/2000/svg" xmlns:xlink="http://www.w3.org/1999/xlink" x="0px" y="0px"
	 viewBox="0 0 699.6 562.8" style="enable-background:new 0 0 699.6 562.8;" xml:space="preserve">
<style type="text/css">
	.st0{fill:#D6D6D6;}
</style>
<g>
	<circle class="st0" cx="349.3" cy="470.5" r="64"/>
	<path class="st0" d="M675.2,209.4L675.2,209.4c-70.5-65.2-156.6-104.5-245.8-117.8l-5.8,80c70.9,11.8,139,43.4,195.4,95
		c6.4,5.8,16.3,5.7,22.4-0.4l34.2-34C682,226,681.9,215.5,675.2,209.4z"/>
	<path class="st0" d="M507.1,380.9c6.4,5.5,16,5.1,22-0.8l34.4-34c6.6-6.5,6.3-17.1-0.6-23.2c-42.3-37.4-92.8-61.1-145.3-71
		l-5.9,80.5C446.2,340.4,479,356.6,507.1,380.9z"/>
	<path class="st0" d="M136.6,322.9c-6.9,6.1-7.1,16.7-0.6,23.2l34.4,34c6,5.9,15.7,6.3,22,0.8c29.3-25.3,63.6-41.7,99.5-49.4
		l-7.2-80.1C231.2,260.9,179.7,284.8,136.6,322.9z"/>
	<path class="st0" d="M24.4,209.4c-6.7,6.2-6.8,16.6-0.3,23l34.2,34c6.1,6.1,16,6.2,22.4,0.4c56.7-52,125.5-83.7,196.9-95.3
		l-7.2-79.8C181.1,104.9,94.9,144.2,24.4,209.4z"/>
	<path class="st0" d="M399.7,38c-5.4-6.2-12.8-9.7-20.7-9.7h-59.3c-8,0-15.4,3.5-20.9,9.8c-5.4,6.4-8,14.6-7.3,23.1l0.8,9.5
		l7.2,85.3l7.2,85.4l7.2,85.4l0.6,7.1c1.3,15.7,13.4,27.5,28.1,27.5c0,0,0.1,0,0.1,0l17.7-0.1c14.7-0.1,27-12.4,28.1-28.1l0.4-5.7
		l5.8-85.8l5.8-85.7l5.8-85.5l0.7-10C407.7,52.3,405.1,44.2,399.7,38z"/>
</g>
</svg>
