<svg width="18" height="34" viewBox="0 0 18 34" fill="none" xmlns="http://www.w3.org/2000/svg">
<path d="M17.3912 11.1777V6.08969C17.3912 5.52773 16.9326 5.0721 16.3668 5.0721H15.3423V2.01931C15.3423 1.45734 14.8837 1.00171 14.3179 1.00171C12.8675 1.00171 10.6464 0.891305 8.03901 2.44288C6.4182 1.96366 5.2719 2.01931 4.07335 2.01931C3.50754 2.01931 3.0489 2.47494 3.0489 3.03691V5.0721H2.02445C1.45863 5.0721 1 5.52773 1 6.08969V11.1777C1 15.322 4.13386 18.7527 8.17116 19.255V32.5472C8.17116 33.1091 8.62979 33.5648 9.19561 33.5648C9.76143 33.5648 10.2201 33.1091 10.2201 32.5472V28.9856H11.7567C14.8636 28.9856 17.3912 26.4749 17.3912 23.3888V21.8624C17.3912 21.3005 16.9326 20.8448 16.3668 20.8448H13.8056C12.4447 20.8448 11.195 21.3266 10.2201 22.1274V19.2545C14.2513 18.7586 17.3912 15.3449 17.3912 11.1777ZM15.3423 11.1777C15.3423 12.9887 14.536 14.6243 13.2617 15.7458C13.2818 15.5825 13.2934 15.4167 13.2934 15.2481C13.2934 12.6711 12.3235 10.3152 10.7279 8.52041C12.0807 7.60356 13.6845 7.10729 15.3423 7.10729V11.1777ZM13.2934 3.03691V5.2774C13.1041 5.31568 12.9161 5.35938 12.7296 5.40816C12.065 4.66919 11.3071 4.03962 10.4795 3.53088C11.374 3.20602 12.3236 3.03691 13.2934 3.03691ZM5.09781 4.0545C7.13307 4.0545 9.10956 4.7927 10.6467 6.20315C10.1394 6.46321 9.65296 6.76639 9.1926 7.11015C8.00148 6.22064 6.6097 5.58274 5.09781 5.2767V4.0545ZM3.0489 11.1777V7.10729C7.56795 7.10729 11.2445 10.7592 11.2445 15.2481C11.2445 16.3852 10.2991 17.3118 9.14176 17.2823C5.54274 17.194 3.0489 14.3538 3.0489 11.1777ZM13.8056 22.88H15.3423V23.3888C15.3423 25.3527 13.7339 26.9504 11.7567 26.9504H10.2201V26.4416C10.2201 24.4778 11.8286 22.88 13.8056 22.88Z" fill="black"/>
<path fill-rule="evenodd" clip-rule="evenodd" d="M14.0456 0.850533C14.1393 0.85096 14.2301 0.851373 14.3178 0.851373C14.9656 0.851373 15.4923 1.37322 15.4923 2.01897V4.92176H16.3667C17.0145 4.92176 17.5412 5.4436 17.5412 6.08935V11.1773C17.5412 15.3767 14.4111 18.8235 10.37 19.3857V21.8205C11.3313 21.1132 12.5203 20.6945 13.8056 20.6945H16.3667C17.0145 20.6945 17.5412 21.2163 17.5412 21.8621V23.3885C17.5412 26.5583 14.9454 29.1353 11.7567 29.1353H10.37V32.5468C10.37 33.1926 9.8433 33.7144 9.19559 33.7144C8.54787 33.7144 8.02114 33.1926 8.02114 32.5468V19.3861C3.97415 18.8173 0.849976 15.354 0.849976 11.1773V6.08935C0.849976 5.4436 1.37671 4.92176 2.02443 4.92176H2.89888V3.03656C2.89888 2.39081 3.42561 1.86897 4.07333 1.86897C4.18604 1.86897 4.29852 1.86846 4.41118 1.86796C5.47754 1.86318 6.5606 1.85832 8.01865 2.28031C10.4809 0.8343 12.6045 0.84397 14.0456 0.850533ZM14.0476 1.15058C12.6019 1.14428 10.5292 1.13524 8.11569 2.57145L8.05934 2.60498L7.99645 2.58639C6.55026 2.15879 5.49154 2.16335 4.41137 2.168C4.29908 2.16848 4.18655 2.16897 4.07333 2.16897C3.58941 2.16897 3.19888 2.55838 3.19888 3.03656V5.22176H2.02443C1.54051 5.22176 1.14998 5.61117 1.14998 6.08935V11.1773C1.14998 15.2441 4.22565 18.6126 8.18966 19.1058L8.32114 19.1221V32.5468C8.32114 33.025 8.71167 33.4144 9.19559 33.4144C9.67951 33.4144 10.07 33.025 10.07 32.5468V28.8353H11.7567C14.7817 28.8353 17.2412 26.3907 17.2412 23.3885V21.8621C17.2412 21.3839 16.8507 20.9945 16.3667 20.9945H13.8056C12.4807 20.9945 11.2643 21.4634 10.3153 22.243L10.07 22.4444V19.1214L10.2017 19.1052C14.1597 18.6184 17.2412 15.2669 17.2412 11.1773V6.08935C17.2412 5.61117 16.8507 5.22176 16.3667 5.22176H15.1923V2.01897C15.1923 1.54079 14.8018 1.15137 14.3178 1.15137C14.2304 1.15137 14.1403 1.15098 14.0476 1.15058ZM10.8234 3.57153C11.5354 4.03974 12.1928 4.59842 12.7799 5.24001C12.9005 5.20958 13.0216 5.18125 13.1434 5.15511V3.18794C12.3481 3.20252 11.5681 3.33296 10.8234 3.57153ZM13.2934 3.03656V2.88656C12.3061 2.88656 11.3392 3.05874 10.4283 3.38955L10.1362 3.49561L10.4009 3.65833C11.2162 4.15953 11.9631 4.77985 12.6181 5.50812L12.6792 5.57606L12.7676 5.55293C12.9514 5.50485 13.1366 5.4618 13.3231 5.42408L13.4434 5.39976V3.03656H13.2934ZM4.94778 3.90416H5.09778C7.16954 3.90416 9.1825 4.65574 10.7481 6.09229L10.9069 6.23799L10.7151 6.3363C10.2153 6.59252 9.73598 6.89125 9.28232 7.23L9.19257 7.29702L9.10283 7.22999C7.92904 6.35343 6.55766 5.72491 5.06802 5.42337L4.94778 5.39904V3.90416ZM5.24778 4.20552V5.15442C6.69784 5.46586 8.03608 6.07876 9.19258 6.92335C9.57399 6.64484 9.97259 6.39349 10.3856 6.17067C8.93946 4.91273 7.12371 4.2396 5.24778 4.20552ZM2.89888 6.95695H3.04888C7.64982 6.95695 11.3945 10.6751 11.3945 15.2477C11.3945 16.4697 10.3791 17.4635 9.13791 17.4319C5.45531 17.3415 2.89888 14.4325 2.89888 11.1773V6.95695ZM3.19888 7.25832V11.1773C3.19888 14.2743 5.63005 17.0458 9.14542 17.132C10.219 17.1594 11.0945 16.3 11.0945 15.2477C11.0945 10.8924 7.56707 7.33804 3.19888 7.25832ZM10.9537 8.55042C12.5049 10.3545 13.4434 12.6941 13.4434 15.2477C13.4434 15.2891 13.4427 15.3304 13.4414 15.3714C14.5227 14.2917 15.1923 12.807 15.1923 11.1773V7.25833C13.6753 7.28625 12.2099 7.73717 10.9537 8.55042ZM10.6438 8.3959C12.0213 7.46223 13.6545 6.95695 15.3423 6.95695H15.4923V11.1773C15.4923 13.0338 14.6656 14.7097 13.3607 15.8581L13.0645 16.1187L13.1128 15.7271C13.1322 15.5691 13.1434 15.4094 13.1434 15.2477C13.1434 12.7091 12.1881 10.3883 10.6158 8.61973L10.5021 8.49188L10.6438 8.3959ZM13.8056 23.0297C11.9104 23.0297 10.37 24.5612 10.37 26.4413V26.8001H11.7567C13.6519 26.8001 15.1923 25.2685 15.1923 23.3885V23.0297H13.8056ZM10.07 26.4413C10.07 24.3936 11.7467 22.7297 13.8056 22.7297H15.4923V23.3885C15.4923 25.4361 13.8157 27.1001 11.7567 27.1001H10.07V26.4413Z" fill="black"/>
</svg>
