<svg width="32" height="32" viewBox="0 0 32 32" fill="none" xmlns="http://www.w3.org/2000/svg">
<path d="M30.1211 29.2126H28.6008V22.3634C29.0668 21.9723 29.3321 21.4177 29.3321 20.8257V18.5216C29.3321 17.2663 28.2321 16.2449 26.88 16.2449H25.7327V10.6439C25.7327 9.70752 24.9837 8.94574 24.063 8.94574H23.9588V8.33285C24.9973 7.96263 25.7444 6.95622 25.7444 5.77507C25.7444 5.37851 25.631 4.70873 24.747 3.03533C24.2913 2.17275 23.8422 1.44738 23.8233 1.41687C23.6623 1.15741 23.3816 1 23.0799 1C22.7781 1 22.4975 1.15741 22.3365 1.41687C22.3176 1.44738 21.8685 2.17281 21.4128 3.03533C20.5287 4.70873 20.4154 5.37851 20.4154 5.77507C20.4154 6.95616 21.1625 7.96263 22.201 8.33285V8.94574H22.0968C21.1761 8.94574 20.4271 9.70752 20.4271 10.6439V16.2449H18.6528V10.6439C18.6528 9.70752 17.9038 8.94574 16.9831 8.94574H16.8789V8.33285C17.9174 7.96263 18.6644 6.95622 18.6644 5.77507C18.6644 5.37851 18.5511 4.70873 17.667 3.03533C17.2114 2.17275 16.7624 1.44738 16.7434 1.41693C16.5824 1.15741 16.3018 1 16 1C15.6982 1 15.4176 1.15741 15.2566 1.41687C15.2377 1.44738 14.7886 2.17281 14.3329 3.03533C13.4488 4.70873 13.3355 5.37851 13.3355 5.77507C13.3355 6.95616 14.0826 7.96263 15.1211 8.33285V8.94574H15.0169C14.0962 8.94574 13.3472 9.70752 13.3472 10.6439V16.2449H11.5729V10.6439C11.5729 9.70752 10.8239 8.94574 9.9032 8.94574H9.79902V8.33285C10.8375 7.96263 11.5846 6.95622 11.5846 5.77507C11.5846 5.37851 11.4712 4.70873 10.5872 3.03533C10.1315 2.17275 9.68248 1.44738 9.6635 1.41687C9.50254 1.15741 9.22188 1 8.92012 1C8.61836 1 8.33775 1.15741 8.17674 1.41687C8.15781 1.44738 7.70875 2.17281 7.25301 3.03533C6.36895 4.70873 6.25557 5.37851 6.25557 5.77507C6.25557 6.95616 7.00264 7.96263 8.04115 8.33285V8.94574H7.93697C7.01629 8.94574 6.26728 9.70752 6.26728 10.6439V16.2449H5.1199C3.76785 16.2449 2.66781 17.2663 2.66781 18.5216V20.8257C2.66781 21.4177 2.93318 21.9723 3.39912 22.3634V29.2126H1.87891C1.39352 29.2126 1 29.6128 1 30.1063C1 30.5999 1.39352 31 1.87891 31H30.1211C30.6065 31 31 30.5999 31 30.1063C31 29.6128 30.6065 29.2126 30.1211 29.2126ZM22.1732 5.77572C22.1787 5.49028 22.5561 4.62847 23.0801 3.65603C23.6037 4.62794 23.9809 5.48939 23.9866 5.77555C23.9863 6.28405 23.5797 6.69771 23.0799 6.69771C22.58 6.69771 22.1732 6.28381 22.1732 5.77572ZM22.1849 10.7331H23.9749V16.2398H22.1849V10.7331ZM15.0933 5.77572C15.0988 5.49028 15.4762 4.62853 16.0001 3.65609C16.5238 4.62794 16.901 5.48939 16.9066 5.77555C16.9064 6.28405 16.4998 6.69771 16 6.69771C15.5001 6.69771 15.0933 6.28381 15.0933 5.77572ZM15.105 10.7331H16.895V16.2398H15.105V10.7331ZM8.01338 5.77572C8.01883 5.49028 8.39629 4.62847 8.92023 3.65603C9.44389 4.62794 9.82111 5.48939 9.82674 5.77555C9.8265 6.28405 9.41986 6.69771 8.92006 6.69771C8.42014 6.69771 8.01338 6.28381 8.01338 5.77572ZM8.0251 10.7331H9.81508V16.2398H8.0251V10.7331ZM26.843 29.2126H5.15693V22.8796C5.29439 22.8635 5.43145 22.8353 5.56639 22.7947L7.7851 22.1269C9.0673 21.741 10.4794 21.741 11.7615 22.1269L13.5128 22.654C14.3147 22.8954 15.1573 23.0161 15.9999 23.0161C16.8425 23.0161 17.6852 22.8954 18.4871 22.654L20.2383 22.1269C21.5204 21.741 22.9326 21.741 24.2147 22.1269L26.4334 22.7947C26.5683 22.8353 26.7054 22.8635 26.8429 22.8796V29.2126H26.843ZM27.5743 20.8257C27.5743 20.9001 27.5151 20.9607 27.4656 20.9983C27.3547 21.0824 27.1565 21.1483 26.9325 21.0809L24.7138 20.4131C23.1099 19.9302 21.3433 19.9302 19.7394 20.4131L17.9881 20.9402C16.7061 21.3261 15.2939 21.3262 14.0117 20.9402L12.2605 20.4131C11.4585 20.1716 10.6161 20.0509 9.7733 20.0509C8.93078 20.0509 8.08797 20.1717 7.28617 20.4131L5.0674 21.0809C4.84346 21.1483 4.64518 21.0824 4.53437 20.9983C4.48475 20.9607 4.42563 20.9001 4.42563 20.8257V18.5216C4.42563 18.2902 4.71074 18.0323 5.1199 18.0323H26.8801C27.2892 18.0323 27.5744 18.2902 27.5744 18.5216V20.8257H27.5743Z" fill="black" stroke="black" stroke-width="0.4"/>
</svg>
