<svg width="39" height="25" viewBox="0 0 39 25" fill="none" xmlns="http://www.w3.org/2000/svg">
<path d="M31.6471 5.79209C28.3884 2.70185 24.0745 1 19.5 1C15.8723 1 12.3989 2.06885 9.45567 4.09093C9.21194 4.25843 9.15525 4.58443 9.32929 4.81917C9.50324 5.05391 9.84184 5.10841 10.0856 4.94085C12.844 3.04589 16.0994 2.04421 19.5 2.04421C27.9493 2.04421 34.9921 8.39308 35.672 16.3938C35.1256 16.137 34.5122 15.9925 33.8643 15.9925C33.7515 15.9925 33.6376 15.9972 33.5234 16.0064C33.3689 15.7788 33.1968 15.5652 33.0098 15.3668C32.4625 12.3712 30.8403 9.632 28.4276 7.63916C25.9453 5.58896 22.7748 4.45982 19.5 4.45982C16.2253 4.45982 13.0547 5.58896 10.5724 7.63923C8.15973 9.63207 6.53748 12.3712 5.9903 15.3668C5.80325 15.5653 5.63117 15.7789 5.47666 16.0065C5.36243 15.9972 5.24848 15.9926 5.13576 15.9926C4.48742 15.9926 3.87372 16.1373 3.32697 16.3944C3.64778 12.5263 5.42186 8.96545 8.39124 6.27925C8.60952 6.08183 8.62022 5.75137 8.4151 5.5412C8.20998 5.33104 7.86683 5.32074 7.64855 5.51823C5.97671 7.0306 4.65249 8.81411 3.71278 10.8192C2.77213 12.8263 2.26363 14.9638 2.19725 17.1757C1.45767 17.8955 1 18.8843 1 19.9744C1 22.17 2.85527 23.9563 5.13569 23.9563H5.4121C5.71157 23.9563 5.95436 23.7225 5.95436 23.4342C5.95436 23.1458 5.71157 22.9121 5.4121 22.9121H5.13576C3.45336 22.9121 2.08461 21.5942 2.08461 19.9744C2.08461 18.356 3.45083 17.0392 5.13106 17.0368C6.81129 17.0392 8.17751 18.356 8.17751 19.9744C8.17751 20.2627 8.4203 20.4965 8.71978 20.4965C9.01925 20.4965 9.26204 20.2627 9.26204 19.9744C9.26204 18.2861 8.16457 16.8415 6.62099 16.2633C7.41675 15.3045 8.63034 14.7301 9.92694 14.7301C11.2793 14.7301 12.499 15.3358 13.2782 16.3111C13.2991 16.3464 13.3244 16.3792 13.3534 16.4091C13.6746 16.8373 13.9138 17.3315 14.0453 17.8743C14.0784 18.0108 14.1671 18.1287 14.2914 18.2017C14.4157 18.2746 14.5653 18.2963 14.7064 18.2619C14.9023 18.2142 15.1046 18.1899 15.3077 18.1899C16.6547 18.1899 17.7505 19.2451 17.7505 20.5421C17.7505 21.8489 16.6547 22.9121 15.3077 22.9121H7.58124C7.28176 22.9121 7.03897 23.1459 7.03897 23.4342C7.03897 23.7226 7.28176 23.9564 7.58124 23.9564H15.3077C17.2527 23.9564 18.8351 22.4247 18.8351 20.5421C18.8351 18.6694 17.2527 17.1457 15.3077 17.1457C15.192 17.1457 15.0764 17.1512 14.9615 17.162C14.8107 16.7296 14.6033 16.3266 14.3495 15.9588C15.0996 13.8653 17.1804 12.4237 19.5 12.4237C21.8196 12.4237 23.9005 13.8653 24.6504 15.9589C24.3966 16.3267 24.1893 16.7296 24.0384 17.1621C23.9236 17.1512 23.8079 17.1458 23.6923 17.1458C21.7473 17.1458 20.1649 18.6694 20.1649 20.5421C20.1649 22.4248 21.7473 23.9564 23.6923 23.9564H33.8643C36.1447 23.9564 38 22.1701 38 19.9745C38 18.8845 37.5424 17.8956 36.8029 17.1759C36.6733 12.8632 34.8484 8.82782 31.6471 5.79209ZM9.92694 13.686C9.00783 13.686 8.1222 13.9161 7.3451 14.3324C8.86308 9.14206 13.7654 5.50403 19.5 5.50403C25.2347 5.50403 30.137 9.14213 31.655 14.3325C30.8779 13.9161 29.9922 13.6861 29.0731 13.6861C28.964 13.6861 28.8559 13.6902 28.7484 13.6964C27.9913 12.0619 26.7874 10.6654 25.2465 9.64092C23.5528 8.51484 21.5657 7.91964 19.5 7.91964C17.4344 7.91964 15.4474 8.51484 13.7537 9.64085C12.2128 10.6654 11.0088 12.0619 10.2516 13.6964C10.1441 13.6902 10.036 13.686 9.92694 13.686ZM23.4542 12.6624C22.3096 11.8231 20.9423 11.3795 19.5 11.3795C18.0578 11.3795 16.6905 11.8231 15.546 12.6624C14.6896 13.2904 14.0043 14.1223 13.5582 15.0591C12.9421 14.5046 12.1911 14.0946 11.3617 13.8733C12.8668 10.8713 15.994 8.96385 19.5 8.96385C23.006 8.96385 26.1333 10.8713 27.6384 13.8733C26.809 14.0946 26.058 14.5046 25.4419 15.0591C24.9957 14.1224 24.3104 13.2904 23.4542 12.6624ZM33.8643 22.9122H23.6923C22.3453 22.9122 21.2495 21.849 21.2495 20.5421C21.2495 19.2452 22.3453 18.19 23.6923 18.19C23.8954 18.19 24.0976 18.2142 24.2936 18.262C24.4347 18.2964 24.5843 18.2746 24.7086 18.2018C24.833 18.1289 24.9216 18.0109 24.9547 17.8744C25.086 17.332 25.325 16.838 25.6459 16.41C25.6754 16.3798 25.7011 16.3465 25.7223 16.3106C26.5016 15.3356 27.721 14.7303 29.0731 14.7303C30.3696 14.7303 31.5832 15.3046 32.379 16.2634C30.8355 16.8417 29.738 18.2864 29.738 19.9745C29.738 20.2628 29.9808 20.4966 30.2803 20.4966C30.5798 20.4966 30.8226 20.2628 30.8226 19.9745C30.8226 18.5315 31.909 17.3292 33.3354 17.0835L33.3356 17.0817C33.5131 17.0519 33.6909 17.0368 33.8643 17.0368C35.5467 17.0368 36.9155 18.3546 36.9155 19.9745C36.9155 21.5943 35.5467 22.9122 33.8643 22.9122Z" fill="black"/>
<path fill-rule="evenodd" clip-rule="evenodd" d="M9.17254 3.67882C12.2005 1.59853 15.7729 0.5 19.5 0.5C24.1998 0.5 28.6377 2.24915 31.9911 5.42929C35.2374 8.50767 37.1131 12.5907 37.2956 16.9641C38.0409 17.7575 38.5 18.8137 38.5 19.9745C38.5 22.464 36.4028 24.4564 33.8643 24.4564H23.6923C21.4866 24.4564 19.6649 22.7162 19.6649 20.5421C19.6649 18.3756 21.4891 16.6458 23.6923 16.6458C23.6957 16.6458 23.6992 16.6458 23.7027 16.6458C23.8139 16.3858 23.9442 16.1368 24.0913 15.9001C23.35 14.1358 21.5311 12.9237 19.5 12.9237C17.469 12.9237 15.6501 14.1358 14.9087 15.9001C15.0558 16.1367 15.186 16.3857 15.2973 16.6457C15.3007 16.6457 15.3042 16.6457 15.3077 16.6457C17.5108 16.6457 19.3351 18.3756 19.3351 20.5421C19.3351 22.7161 17.5133 24.4564 15.3077 24.4564H7.58124C7.02364 24.4564 6.53897 24.0164 6.53897 23.4342C6.53897 22.8521 7.02364 22.4121 7.58124 22.4121H15.3077C16.3929 22.4121 17.2505 21.5586 17.2505 20.5421C17.2505 19.5389 16.3965 18.6899 15.3077 18.6899C15.1443 18.6899 14.9817 18.7095 14.8248 18.7477L14.8248 18.7477C14.5585 18.8126 14.2758 18.7721 14.0386 18.6331L14.0383 18.6329C13.8008 18.4935 13.6254 18.2644 13.5594 17.9921C13.4464 17.5258 13.2428 17.1005 12.9688 16.7297C12.9331 16.6902 12.8999 16.6474 12.8701 16.6015C12.186 15.7588 11.1187 15.2301 9.92694 15.2301C9.01007 15.2301 8.14279 15.5542 7.47433 16.1128C8.83568 16.8891 9.76204 18.3225 9.76204 19.9744C9.76204 20.5565 9.27737 20.9965 8.71978 20.9965C8.16218 20.9965 7.67751 20.5565 7.67751 19.9744C7.67751 18.6498 6.55314 17.5392 5.13106 17.5368C3.70897 17.5392 2.58461 18.6498 2.58461 19.9744C2.58461 21.3004 3.71148 22.4121 5.13576 22.4121H5.4121C5.96969 22.4121 6.45436 22.852 6.45436 23.4342C6.45436 24.0163 5.96969 24.4563 5.4121 24.4563H5.13569C2.59716 24.4563 0.5 22.4638 0.5 19.9744C0.5 18.8134 0.959204 17.7574 1.70452 16.9639C1.79646 14.7539 2.31827 12.6165 3.26003 10.607C4.22845 8.54068 5.59294 6.70353 7.31312 5.14743L7.64855 5.51823L7.31312 5.14743C7.72998 4.77027 8.37936 4.78874 8.77292 5.19197C9.17692 5.60591 9.15438 6.2632 8.72663 6.65008C6.05134 9.07023 4.38212 12.2171 3.91143 15.6515C4.30187 15.5479 4.71246 15.4926 5.13576 15.4926C5.16691 15.4926 5.19813 15.4929 5.22938 15.4935C5.32334 15.3693 5.42215 15.2494 5.52538 15.1339C6.11923 12.0753 7.7913 9.28788 10.254 7.25373C12.8275 5.12807 16.1112 3.95982 19.5 3.95982C22.8889 3.95982 26.1725 5.12807 28.746 7.25366L28.4276 7.63916L28.746 7.25366C31.2087 9.28781 32.8808 12.0753 33.4747 15.1339C33.5779 15.2493 33.6767 15.3692 33.7707 15.4935C33.8019 15.4928 33.8331 15.4925 33.8643 15.4925C34.2864 15.4925 34.6958 15.5475 35.0852 15.6505C34.0503 8.29399 27.4231 2.54421 19.5 2.54421C16.1988 2.54421 13.0424 3.5162 10.3688 5.35292M9.73885 4.50301C12.5974 2.53916 15.9717 1.5 19.5 1.5C23.9491 1.5 28.1392 3.15456 31.303 6.1549L31.6471 5.79209L31.303 6.15491C34.4108 9.10186 36.1775 13.0131 36.3031 17.1909L36.3092 17.3931L36.4542 17.5342C37.1035 18.1662 37.5 19.0283 37.5 19.9745C37.5 21.8763 35.8866 23.4564 33.8643 23.4564H23.6923C22.0079 23.4564 20.6649 22.1334 20.6649 20.5421C20.6649 18.9632 22.0054 17.6458 23.6923 17.6458C23.7923 17.6458 23.8922 17.6505 23.9914 17.6599L24.3815 17.6967L24.5106 17.3267C24.6462 16.9378 24.8329 16.5748 25.0619 16.2429L25.2076 16.0317L25.1211 15.7903C24.2971 13.4898 22.022 11.9237 19.5 11.9237C16.978 11.9237 14.703 13.4898 13.8788 15.7902L13.7923 16.0317L13.938 16.2428C14.1671 16.5748 14.3538 16.9378 14.4893 17.3266L14.6183 17.6964L15.0082 17.6598C15.1079 17.6505 15.2078 17.6457 15.3077 17.6457C16.9945 17.6457 18.3351 18.9632 18.3351 20.5421C18.3351 22.1333 16.992 23.4564 15.3077 23.4564H7.58124C7.56334 23.4564 7.55139 23.4498 7.54459 23.4432C7.54121 23.44 7.53981 23.4374 7.53936 23.4364C7.53909 23.4357 7.53897 23.4354 7.53897 23.4342C7.53897 23.4331 7.53909 23.4327 7.53936 23.4321C7.53981 23.4311 7.54121 23.4285 7.54459 23.4253C7.55139 23.4187 7.56334 23.4121 7.58124 23.4121H15.3077C16.9164 23.4121 18.2505 22.1392 18.2505 20.5421C18.2505 18.9513 16.9128 17.6899 15.3077 17.6899C15.065 17.6899 14.823 17.7189 14.588 17.7761C14.5721 17.78 14.556 17.7771 14.5445 17.7705C14.5334 17.764 14.5315 17.7573 14.5313 17.7567L14.5313 17.7566C14.3833 17.1459 14.1141 16.59 13.7534 16.1091L13.7343 16.0836L13.7122 16.0608C13.7107 16.0593 13.7098 16.0582 13.7092 16.0574C13.7087 16.0568 13.7085 16.0564 13.7085 16.0564L13.6907 16.0263L13.6689 15.999C12.7938 14.9037 11.4297 14.2301 9.92694 14.2301C8.48358 14.2301 7.12825 14.8692 6.23624 15.944L5.78728 16.4849L6.4456 16.7315C7.81029 17.2427 8.76204 18.5116 8.76204 19.9744C8.76204 19.9755 8.76193 19.9759 8.76166 19.9765C8.76134 19.9772 8.76055 19.9787 8.75891 19.9807C8.75823 19.9815 8.75741 19.9824 8.75642 19.9834C8.74963 19.9899 8.73767 19.9965 8.71978 19.9965C8.70189 19.9965 8.68993 19.9899 8.68314 19.9834C8.67975 19.9801 8.67835 19.9775 8.6779 19.9765C8.67763 19.9759 8.67751 19.9755 8.67751 19.9744C8.67751 18.0625 7.06982 16.5396 5.13178 16.5368L5.13033 16.5368C3.1923 16.5396 1.58461 18.0625 1.58461 19.9744C1.58461 21.888 3.19524 23.4121 5.13576 23.4121H5.4121C5.42999 23.4121 5.44195 23.4186 5.44874 23.4252C5.45213 23.4284 5.45353 23.431 5.45398 23.4321C5.45425 23.4327 5.45436 23.433 5.45436 23.4342C5.45436 23.4354 5.45425 23.4357 5.45398 23.4363C5.45353 23.4373 5.45213 23.4399 5.44874 23.4432C5.44195 23.4497 5.42999 23.4563 5.4121 23.4563H5.13569C3.11339 23.4563 1.5 21.8762 1.5 19.9744C1.5 19.0281 1.89655 18.166 2.54598 17.534L2.69096 17.3929L2.69703 17.1907C2.76136 15.0469 3.25391 12.9765 4.16552 11.0314C5.07653 9.08754 6.36047 7.35767 7.98397 5.88903L7.98401 5.889C7.99175 5.88199 8.00436 5.8761 8.02177 5.87662C8.03917 5.87714 8.05072 5.88372 8.05728 5.89044C8.06085 5.89409 8.06167 5.89625 8.06183 5.89667L8.06183 5.89667C8.06197 5.89703 8.06207 5.89739 8.06213 5.89774C8.06219 5.8981 8.06222 5.89846 8.0622 5.89884C8.06218 5.89959 8.06201 5.90046 8.06154 5.90148C8.06122 5.90219 8.06002 5.90465 8.05584 5.90843L8.05581 5.90846C4.99473 8.67761 3.16025 12.3552 2.82868 16.3531L2.75722 17.2148L3.53973 16.8469C4.02124 16.6205 4.56242 16.4926 5.13576 16.4926C5.23473 16.4926 5.3352 16.4967 5.43627 16.5049L5.72672 16.5284L5.89037 16.2873C6.0296 16.0822 6.18494 15.8893 6.35417 15.7097L6.45559 15.6021L6.48216 15.4567C7.00759 12.5801 8.56648 9.94461 10.8909 8.02473L10.5724 7.63923L10.8909 8.02473C13.2818 6.04985 16.3393 4.95982 19.5 4.95982C22.6608 4.95982 25.7182 6.04985 28.1091 8.02467C30.4335 9.94453 31.9924 12.5801 32.5179 15.4567L32.5445 15.6022L32.646 15.7098C32.8151 15.8893 32.9705 16.0821 33.1097 16.2872L33.2734 16.5283L33.5638 16.5048C33.6649 16.4966 33.7653 16.4925 33.8643 16.4925C34.4373 16.4925 34.9781 16.6202 35.4594 16.8463L36.2436 17.2149L36.1702 16.3515C35.4672 8.07866 28.1954 1.54421 19.5 1.54421C16.0001 1.54421 12.6456 2.57555 9.80252 4.52873L9.80244 4.52879C9.79197 4.53599 9.77748 4.53992 9.76071 4.53722C9.74399 4.53453 9.73514 4.52705 9.731 4.52147L9.73094 4.52139C9.7296 4.51957 9.729 4.51839 9.72876 4.51787L9.72841 4.51694C9.72838 4.51679 9.72828 4.51631 9.72845 4.51538C9.72861 4.51443 9.72904 4.51303 9.73013 4.51132M9.17254 3.67882L9.17249 3.67886L9.17254 3.67882ZM9.17249 3.67886C8.70059 4.00315 8.58121 4.64969 8.92763 5.11695L9.17249 3.67886ZM8.92763 5.11695C9.26512 5.57226 9.90765 5.66983 10.3688 5.35297L8.92763 5.11695ZM8.179 13.4468C8.7369 13.2763 9.32544 13.186 9.92694 13.186C9.93232 13.186 9.93769 13.186 9.94306 13.186C10.7446 11.5952 11.9557 10.2358 13.4768 9.22448L13.4769 9.22447C15.2539 8.04303 17.3376 7.41964 19.5 7.41964C21.6626 7.41964 23.7462 8.04303 25.5233 9.22455C27.0444 10.2358 28.2555 11.5952 29.057 13.1861C29.0624 13.1861 29.0677 13.1861 29.0731 13.1861C29.6746 13.1861 30.2631 13.2764 30.8211 13.4468C29.0569 9.02985 24.6341 6.00403 19.5 6.00403C14.3659 6.00403 9.94319 9.02979 8.179 13.4468ZM6.8652 14.1921C8.44831 8.77903 13.5534 5.00403 19.5 5.00403C25.4467 5.00403 30.5518 8.77911 32.1349 14.1921L32.4694 15.3361L31.4188 14.7732C30.7134 14.3952 29.9086 14.1861 29.0731 14.1861C28.9764 14.1861 28.8784 14.1897 28.7772 14.1955L28.4377 14.2151L28.2947 13.9065C27.5773 12.3578 26.4355 11.0318 24.9697 10.0573L25.2465 9.64092L24.9696 10.0573C23.3593 8.98665 21.4688 8.41964 19.5 8.41964C17.5313 8.41964 15.6408 8.98665 14.0305 10.0572C12.5646 11.0319 11.4228 12.3578 10.7053 13.9065L10.5624 14.2151L10.2229 14.1955C10.1214 14.1897 10.0234 14.186 9.92694 14.186C9.09136 14.186 8.28672 14.3952 7.58123 14.7731L6.53063 15.336L6.8652 14.1921ZM12.0892 13.5844C12.559 13.765 12.9999 14.0035 13.4018 14.2923C13.8698 13.5066 14.4991 12.8101 15.2503 12.2592L15.2503 12.2592C16.4821 11.3559 17.9532 10.8795 19.5 10.8795C21.0468 10.8795 22.5181 11.3559 23.7499 12.2592L23.4542 12.6624L23.7499 12.2593C24.501 12.8102 25.1303 13.5067 25.5982 14.2923C26.0002 14.0035 26.4411 13.765 26.9109 13.5844C25.4075 11.054 22.6181 9.46385 19.5 9.46385C16.382 9.46385 13.5926 11.054 12.0892 13.5844ZM23.1585 13.0656C23.9482 13.6448 24.5799 14.4122 24.9905 15.2742L25.2786 15.8788L25.7764 15.4307C26.3334 14.9294 27.0139 14.5574 27.7673 14.3564L28.3605 14.1981L28.0853 13.6492C26.4923 10.472 23.1882 8.46385 19.5 8.46385C15.8118 8.46385 12.5077 10.472 10.9147 13.6492L10.6395 14.1981L11.2328 14.3564C11.9862 14.5574 12.6666 14.9294 13.2237 15.4307L13.7215 15.8789L14.0096 15.2741C14.4201 14.4121 15.0518 13.6448 15.8416 13.0656C16.899 12.2903 18.1623 11.8795 19.5 11.8795C20.8378 11.8795 22.1012 12.2903 23.1585 13.0656ZM26.1305 16.6009C26.1003 16.6474 26.0668 16.6908 26.0304 16.7309C25.7568 17.1013 25.5534 17.5263 25.4406 17.992C25.3748 18.2641 25.1995 18.4936 24.9614 18.6331L24.9614 18.6332C24.7243 18.7721 24.4416 18.8127 24.1752 18.7478C24.0182 18.7095 23.8557 18.69 23.6923 18.69C22.6035 18.69 21.7495 19.539 21.7495 20.5421C21.7495 21.5587 22.6071 22.4122 23.6923 22.4122H33.8643C35.2886 22.4122 36.4155 21.3005 36.4155 19.9745C36.4155 18.6485 35.2886 17.5368 33.8643 17.5368C33.7476 17.5368 33.6273 17.545 33.5058 17.5615L33.4203 17.5762C32.2153 17.7838 31.3226 18.7931 31.3226 19.9745C31.3226 20.5567 30.8379 20.9966 30.2803 20.9966C29.7227 20.9966 29.238 20.5567 29.238 19.9745C29.238 18.3227 30.1644 16.8893 31.5257 16.113C30.8572 15.5543 29.9899 15.2303 29.0731 15.2303C27.8817 15.2303 26.8147 15.7586 26.1305 16.6009ZM25.3317 15.9985C26.2069 14.9035 27.5706 14.2303 29.0731 14.2303C30.5164 14.2303 31.8717 14.8694 32.7637 15.9441L33.2127 16.485L32.5544 16.7317C31.1898 17.2429 30.238 18.5118 30.238 19.9745C30.238 19.9757 30.2381 19.976 30.2384 19.9766C30.2389 19.9776 30.2403 19.9802 30.2437 19.9835C30.2504 19.99 30.2624 19.9966 30.2803 19.9966C30.2982 19.9966 30.3101 19.99 30.3169 19.9835C30.3203 19.9802 30.3217 19.9776 30.3222 19.9766C30.3224 19.976 30.3226 19.9757 30.3226 19.9745C30.3226 18.3998 31.415 17.089 32.8807 16.6746L32.8836 16.6506L33.2528 16.5886C33.4566 16.5544 33.6622 16.5368 33.8643 16.5368C35.8048 16.5368 37.4155 18.0608 37.4155 19.9745C37.4156 21.8882 35.8048 23.4122 33.8643 23.4122H23.6923C22.0836 23.4122 20.7495 22.1393 20.7495 20.5421C20.7495 18.9514 22.0872 17.69 23.6923 17.69C23.935 17.69 24.177 17.719 24.412 17.7762L24.301 18.2316L24.412 17.7762C24.4279 17.7801 24.4442 17.7771 24.4558 17.7704" fill="black"/>
</svg>
