<svg width="30" height="30" viewBox="0 0 30 30" fill="none" xmlns="http://www.w3.org/2000/svg">
<path d="M18.6622 0.978379C18.0294 0.348018 17.1884 0.000613789 16.2931 0C16.2925 0 16.2925 0 16.2918 0C15.7629 0 15.2525 0.120916 14.7934 0.350473C14.3275 0.120916 13.8072 0 13.264 0H13.2634C12.3439 0 11.4894 0.347405 10.8572 0.977766C9.55217 2.27838 9.55279 4.39227 10.8572 5.69044L13.8826 8.70475C14.1143 8.93554 14.4294 9.06566 14.7582 9.06566C15.0863 9.06566 15.4014 8.93615 15.6338 8.70475L18.661 5.69105C19.9672 4.39227 19.9679 2.27777 18.6622 0.978379ZM16.9122 3.95587L14.7582 6.09922L12.6078 3.95648C12.2636 3.61337 12.2636 3.05544 12.609 2.71111C12.7715 2.54845 13.0101 2.45516 13.264 2.45516C13.518 2.45516 13.7577 2.54845 13.9209 2.71111C14.1526 2.94189 14.4677 3.07201 14.7959 3.07201C15.124 3.07201 15.4391 2.9425 15.6708 2.71172C15.8371 2.546 16.0577 2.45516 16.2918 2.45516C16.5254 2.45516 16.7448 2.546 16.911 2.71172C17.2564 3.05544 17.2564 3.61337 16.9122 3.95587Z" fill="black"/>
<path d="M28.4245 10.4654H13.7982C13.189 10.4654 12.5914 10.552 12.0186 10.711C11.3896 7.97101 8.93517 5.9541 6.00621 5.9541H1.23585C0.553659 5.9541 0 6.50406 0 7.18168V22.9315C0 26.5326 2.94935 29.4622 6.5747 29.4622H19.4275C23.0529 29.4622 26.0022 26.5326 26.0022 22.9315V22.8462C27.5353 22.0887 28.7279 20.7562 29.2896 19.1407C29.2964 19.1248 29.3025 19.1088 29.3087 19.0922C29.3149 19.0732 29.3248 19.0554 29.331 19.0364C29.5497 18.3851 29.6603 17.6989 29.6603 16.9961V11.693C29.6603 11.0148 29.1066 10.4654 28.4245 10.4654ZM19.4275 27.007H6.5747C4.31249 27.007 2.47169 25.1785 2.47169 22.9315V8.40925H6.00621C7.98975 8.40925 9.61365 9.95109 9.70139 11.8649V11.8907C9.68224 11.9054 9.66617 11.9232 9.64763 11.9379C9.56916 12.0011 9.4981 12.0699 9.42333 12.1362C9.30098 12.2442 9.18048 12.3528 9.0674 12.4682C8.99263 12.545 8.92343 12.626 8.85237 12.7064C8.75103 12.8212 8.65154 12.9378 8.55885 13.0593C8.49273 13.1459 8.43032 13.2349 8.36915 13.3245C8.28388 13.4485 8.20231 13.5749 8.12631 13.705C8.07131 13.7989 8.01817 13.8928 7.9675 13.9892C7.89706 14.1236 7.83341 14.2611 7.77285 14.3998C7.73022 14.4974 7.68696 14.5944 7.64927 14.6944C7.59366 14.8417 7.54669 14.9921 7.5022 15.1437C7.47316 15.2407 7.44165 15.3365 7.41755 15.4353C7.37615 15.6047 7.34649 15.7772 7.31806 15.9502C7.30447 16.035 7.2847 16.1184 7.27419 16.2044C7.24268 16.4652 7.22414 16.7291 7.22414 16.9961C7.22414 20.6009 10.1735 23.533 13.7988 23.533H23.0862C23.2209 23.533 23.355 23.5293 23.4885 23.5207C23.1993 25.4897 21.4883 27.007 19.4275 27.007ZM27.1886 14.1224H22.417C21.7348 14.1224 21.1812 14.6723 21.1812 15.35C21.1812 16.0276 21.7348 16.5775 22.417 16.5775H27.1886V16.9961C27.1886 17.1392 27.1695 17.2779 27.1552 17.4178H19.1012C18.4191 17.4178 17.8654 17.9678 17.8654 18.6454C17.8654 19.323 18.4191 19.873 19.1012 19.873H25.9929C25.5443 20.3216 24.9907 20.6678 24.3709 20.8722C23.9637 21.0085 23.5311 21.0778 23.085 21.0778H13.7982C11.5354 21.0778 9.69521 19.2469 9.69521 16.9961C9.69521 16.8212 9.70634 16.6475 9.72796 16.4769C9.88059 15.2818 10.5572 14.2151 11.6083 13.5522C12.2522 13.1391 13.0091 12.9206 13.7982 12.9206H27.1886V14.1224Z" fill="black"/>
<path d="M5.69112 10.1562C4.83839 10.1562 4.14508 10.8455 4.14508 11.6926C4.14508 12.5402 4.83901 13.2295 5.69112 13.2295C6.54385 13.2295 7.23778 12.5402 7.23778 11.6926C7.23839 10.8455 6.54447 10.1562 5.69112 10.1562Z" fill="black"/>
</svg>
