<svg width="30" height="30" viewBox="0 0 30 30" fill="none" xmlns="http://www.w3.org/2000/svg">
<path d="M15.0496 1C7.30301 1 1 7.26083 1 14.9556C1 22.6504 7.30301 28.9112 15.0496 28.9112C22.7962 28.9112 29.0992 22.6504 29.0992 14.9556C29.0992 7.26083 22.7962 1 15.0496 1ZM15.0496 27.1667C8.27243 27.1667 2.7562 21.6892 2.7562 14.9556C2.7562 8.22202 8.27243 2.74445 15.0496 2.74445C21.8268 2.74445 27.343 8.22202 27.343 14.9556C27.343 21.6892 21.8268 27.1667 15.0496 27.1667Z" fill="black"/>
<path fill-rule="evenodd" clip-rule="evenodd" d="M0.599976 14.9552C0.599976 7.03699 7.08461 0.599609 15.0496 0.599609C23.0146 0.599609 29.4992 7.03699 29.4992 14.9552C29.4992 22.8734 23.0146 29.3108 15.0496 29.3108C7.08461 29.3108 0.599976 22.8734 0.599976 14.9552ZM15.0496 1.39961C7.52136 1.39961 1.39998 7.48388 1.39998 14.9552C1.39998 22.4265 7.52136 28.5108 15.0496 28.5108C22.5778 28.5108 28.6992 22.4265 28.6992 14.9552C28.6992 7.48388 22.5778 1.39961 15.0496 1.39961ZM15.0496 3.14406C8.49075 3.14406 3.15618 8.44511 3.15618 14.9552C3.15618 21.4653 8.49075 26.7663 15.0496 26.7663C21.6084 26.7663 26.943 21.4653 26.943 14.9552C26.943 8.44511 21.6084 3.14406 15.0496 3.14406ZM2.35618 14.9552C2.35618 7.99815 8.05407 2.34406 15.0496 2.34406C22.0451 2.34406 27.743 7.99815 27.743 14.9552C27.743 21.9122 22.0451 27.5663 15.0496 27.5663C8.05407 27.5663 2.35618 21.9122 2.35618 14.9552Z" fill="black"/>
<path d="M22.9308 16.8243C22.8033 16.6559 22.6027 16.5576 22.3912 16.5576H8.04657C7.83506 16.5576 7.6344 16.6559 7.50695 16.8243C7.37815 16.9926 7.33747 17.2108 7.39442 17.4142C8.37468 20.874 11.592 23.2914 15.2189 23.2914C18.8457 23.2914 22.0631 20.874 23.0433 17.4142C23.1003 17.2108 23.0596 16.9926 22.9308 16.8243ZM15.2189 21.9446C12.5059 21.9446 10.0681 20.3218 9.00649 17.9044H21.4312C20.3696 20.3218 17.9319 21.9446 15.2189 21.9446Z" fill="black"/>
<path fill-rule="evenodd" clip-rule="evenodd" d="M7.18806 16.5824C7.39232 16.3126 7.71182 16.1572 8.0466 16.1572H22.3912C22.7256 16.1572 23.0448 16.3123 23.2491 16.5816C23.4548 16.851 23.5189 17.199 23.4285 17.5216L23.4282 17.5228C22.3986 21.1567 19.0226 23.691 15.2189 23.691C11.4152 23.691 8.03919 21.1567 7.00959 17.5228L7.00926 17.5216C6.91884 17.1987 6.98313 16.8503 7.1893 16.5808L7.50698 16.8239L7.18806 16.5824ZM8.0466 16.9572C7.95836 16.9572 7.87653 16.9984 7.82589 17.0653L7.82466 17.0669C7.77333 17.134 7.75623 17.2218 7.7795 17.3054C8.71066 20.5907 11.7692 22.891 15.2189 22.891C18.6686 22.891 21.7271 20.5908 22.6583 17.3055C22.6816 17.2218 22.6645 17.1341 22.6131 17.0669L22.6119 17.0653C22.5613 16.9984 22.4794 16.9572 22.3912 16.9572H8.0466ZM8.39399 17.504H22.0438L21.7975 18.0648C20.6724 20.6269 18.0913 22.3442 15.2189 22.3442C12.3464 22.3442 9.76541 20.6269 8.64028 18.0648L8.39399 17.504ZM9.65354 18.304C10.7613 20.2638 12.8816 21.5442 15.2189 21.5442C17.5562 21.5442 19.6765 20.2638 20.7842 18.304H9.65354Z" fill="black"/>
<path d="M20.1373 12.6232L18.1497 11.1418L20.1387 9.66039C20.4383 9.43683 20.4993 9.0153 20.2756 8.71767C20.0492 8.41869 19.6248 8.36078 19.3266 8.58299L16.6149 10.6031C16.4427 10.7297 16.3424 10.9304 16.3424 11.1418C16.3424 11.3533 16.4427 11.5539 16.6136 11.6805L19.3252 13.7006C19.4472 13.7909 19.5909 13.8353 19.7319 13.8353C19.9367 13.8353 20.1414 13.7424 20.2743 13.566C20.498 13.2683 20.437 12.8468 20.1373 12.6232Z" fill="black"/>
<path fill-rule="evenodd" clip-rule="evenodd" d="M19.0876 8.26182C19.5609 7.9092 20.2346 8.00056 20.5945 8.47578L20.5954 8.47693C20.9528 8.95249 20.8541 9.62526 20.3779 9.98059L18.8192 11.1415L20.3763 12.3021C20.8526 12.6575 20.9514 13.3303 20.594 13.8059C20.3816 14.0879 20.0556 14.2349 19.7319 14.2349C19.5074 14.2349 19.2799 14.1642 19.0873 14.0219L19.0862 14.021L16.3754 12.0015C16.3753 12.0014 16.3755 12.0016 16.3754 12.0015C16.1026 11.7991 15.9424 11.4789 15.9424 11.1414C15.9424 10.804 16.1022 10.4838 16.3768 10.2813L19.0876 8.26182ZM19.9563 8.95818C19.8632 8.83595 19.6885 8.81171 19.5655 8.90337L16.8518 10.925C16.7828 10.9757 16.7424 11.0564 16.7424 11.1414C16.7424 11.2267 16.7831 11.3079 16.8517 11.3587L16.8525 11.3593L19.563 13.3786C19.5631 13.3787 19.5629 13.3785 19.563 13.3786C19.6144 13.4165 19.6746 13.4349 19.7319 13.4349C19.8177 13.4349 19.9014 13.3958 19.9547 13.3249C20.0447 13.2053 20.0211 13.0354 19.8983 12.9436L17.4802 11.1413L19.8995 9.3394C19.8995 9.33937 19.8994 9.33942 19.8995 9.3394C20.0222 9.24774 20.0457 9.07782 19.9563 8.95818Z" fill="black"/>
<path d="M13.5892 10.6012L10.8775 8.58104C10.5806 8.36017 10.1562 8.41808 9.92847 8.71571C9.70476 9.01335 9.76442 9.43488 10.0641 9.65844L12.053 11.1399L10.0641 12.6213C9.76442 12.8448 9.70476 13.2664 9.92847 13.564C10.0613 13.7404 10.2661 13.8334 10.4708 13.8334C10.6118 13.8334 10.7555 13.7889 10.8775 13.6987L13.5892 11.6786C13.76 11.552 13.8603 11.3513 13.8603 11.1399C13.8603 10.9284 13.76 10.7278 13.5892 10.6012Z" fill="black"/>
<path fill-rule="evenodd" clip-rule="evenodd" d="M9.61084 8.47225C9.97144 8.00106 10.6436 7.90815 11.1163 8.25973L13.8273 10.2794C13.8275 10.2796 13.8272 10.2793 13.8273 10.2794C14.1001 10.4818 14.2604 10.8021 14.2604 11.1395C14.2604 11.4769 14.1007 11.7968 13.8279 11.9991C13.8277 11.9993 13.8281 11.999 13.8279 11.9991L11.1165 14.0191L11.1154 14.0199C10.9228 14.1623 10.6953 14.233 10.4708 14.233C10.1472 14.233 9.82136 14.0863 9.60897 13.8043C9.25241 13.3299 9.34744 12.6565 9.82487 12.3003L11.3834 11.1395L9.82513 9.97887C9.3477 9.62266 9.25218 8.94939 9.60874 8.47502L9.61084 8.47225ZM10.2472 8.95707C10.1576 9.07783 10.1819 9.24681 10.3032 9.33739C10.3032 9.33742 10.3031 9.33736 10.3032 9.33739L12.7227 11.1395L10.3033 12.9415C10.3032 12.9416 10.3033 12.9415 10.3033 12.9415C10.1816 13.0324 10.1574 13.2023 10.2481 13.3232C10.3015 13.3939 10.3851 13.433 10.4708 13.433C10.5282 13.433 10.5879 13.4149 10.6393 13.377C10.6394 13.3769 10.6391 13.3771 10.6393 13.377L13.3502 11.3574L13.351 11.3568C13.4196 11.306 13.4604 11.2248 13.4604 11.1395C13.4604 11.0542 13.4196 10.973 13.351 10.9222L13.3502 10.9216L10.6388 8.90162C10.6388 8.9016 10.6388 8.90164 10.6388 8.90162C10.5181 8.81186 10.3424 8.83423 10.2472 8.95707Z" fill="black"/>
</svg>
