<svg width="34" height="35" viewBox="0 0 34 35" fill="none" xmlns="http://www.w3.org/2000/svg">
<path d="M32.9998 2.02929C32.9986 1.55049 32.6699 1.11789 32.1956 1.02096C32.0606 0.993307 32.3012 1.00098 28.7501 1.00098C27.923 1.00098 27.2501 1.69486 27.2501 2.5478C27.2501 3.34641 27.84 4.00549 28.594 4.08625L26.0785 6.68034C23.4926 5.06165 20.1918 5.36869 17.9379 7.35765C16.6903 6.2567 15.09 5.64145 13.411 5.64145C7.09428 5.64145 2.52335 14.2028 11.6449 21.5649L10.0864 23.1721H6.50074C6.23549 23.1721 5.98119 23.2808 5.79363 23.4742L1.29376 28.1146C0.666031 28.7621 1.11064 29.875 2.00087 29.875H5.00078V32.9687C5.00078 33.8843 6.08069 34.3445 6.70786 33.6979L11.2077 29.0574C11.3952 28.864 11.5006 28.6017 11.5006 28.3282V24.6305L13.2927 22.7824C15.5248 24.2952 17.4657 25.1184 17.5607 25.1583C17.8024 25.2599 18.0733 25.26 18.3152 25.1583C18.4265 25.1116 21.0706 23.9901 23.7489 21.9441C30.3077 16.934 30.4551 11.2319 27.6267 8.00042L30.0082 5.54452C30.0865 6.32212 30.7256 6.93041 31.5 6.93041C32.3271 6.93041 33 6.23653 33 5.38358C33 5.33898 33.0001 2.08543 32.9998 2.02929ZM9.50065 27.9011L7.00072 30.4791V28.8438C7.00072 28.2743 6.55299 27.8126 6.00075 27.8126H4.41505L6.91497 25.2346H9.50071L9.50065 27.9011ZM17.938 23.0773C17.3441 22.7984 16.1183 22.1863 14.7414 21.2885L18.7076 17.1984C19.0981 16.7957 19.0981 16.1428 18.7076 15.74C18.317 15.3373 17.6839 15.3373 17.2934 15.74L13.0705 20.0949C10.7367 18.2628 8.50643 15.7112 8.50643 12.649C8.50643 9.92223 10.7067 7.70389 13.4111 7.70389C14.8689 7.70389 16.2417 8.352 17.1776 9.48203C17.5766 9.96373 18.2993 9.9638 18.6984 9.48203C19.6343 8.352 21.0071 7.70389 22.4649 7.70389C25.1693 7.70389 27.3696 9.92223 27.3696 12.649C27.3694 18.3127 19.74 22.2311 17.938 23.0773Z" fill="black" stroke="black" stroke-width="0.4"/>
</svg>
