<svg width="31" height="30" viewBox="0 0 31 30" fill="none" xmlns="http://www.w3.org/2000/svg">
<path d="M15.4945 1C7.50258 1 1 7.26084 1 14.9556C1 22.6504 7.50258 28.9113 15.4945 28.9113C23.4863 28.9113 29.9889 22.6504 29.9889 14.9556C29.9889 7.26084 23.4863 1 15.4945 1ZM15.4945 27.1668C8.5027 27.1668 2.81181 21.6892 2.81181 14.9556C2.81181 8.22204 8.5027 2.74445 15.4945 2.74445C22.4862 2.74445 28.1771 8.22204 28.1771 14.9556C28.1771 21.6892 22.4862 27.1668 15.4945 27.1668Z" fill="black"/>
<path fill-rule="evenodd" clip-rule="evenodd" d="M0.599976 14.9552C0.599976 7.02539 7.29606 0.599609 15.4944 0.599609C23.6928 0.599609 30.3889 7.02539 30.3889 14.9552C30.3889 22.8851 23.6928 29.3109 15.4944 29.3109C7.29606 29.3109 0.599976 22.8851 0.599976 14.9552ZM15.4944 1.39961C7.70905 1.39961 1.39998 7.49551 1.39998 14.9552C1.39998 22.415 7.70905 28.5109 15.4944 28.5109C23.2798 28.5109 29.5889 22.415 29.5889 14.9552C29.5889 7.49551 23.2798 1.39961 15.4944 1.39961ZM15.4944 3.14406C8.70913 3.14406 3.21178 8.45674 3.21178 14.9552C3.21178 21.4537 8.70913 26.7664 15.4944 26.7664C22.2797 26.7664 27.7771 21.4537 27.7771 14.9552C27.7771 8.45674 22.2797 3.14406 15.4944 3.14406ZM2.41178 14.9552C2.41178 7.98655 8.29621 2.34406 15.4944 2.34406C22.6927 2.34406 28.5771 7.98655 28.5771 14.9552C28.5771 21.9239 22.6927 27.5664 15.4944 27.5664C8.29621 27.5664 2.41178 21.9239 2.41178 14.9552Z" fill="black"/>
<path d="M22.3846 13.8051C21.7424 13.8051 21.2218 13.3572 21.2218 12.8047C21.2218 12.5289 20.961 12.3045 20.6404 12.3045C20.3198 12.3045 20.059 12.5289 20.059 12.8047C20.059 13.3572 19.5384 13.8051 18.8961 13.8051C18.2539 13.8051 17.7333 13.3572 17.7333 12.8047C17.7333 11.4257 19.0374 10.3037 20.6404 10.3037C22.2433 10.3037 23.5474 11.4257 23.5474 12.8047C23.5474 13.3572 23.0268 13.8051 22.3846 13.8051ZM13.2565 12.8047C13.2565 11.4257 11.9524 10.3037 10.3495 10.3037C8.74654 10.3037 7.44244 11.4257 7.44244 12.8047C7.44244 13.3572 7.96304 13.8051 8.60526 13.8051C9.24748 13.8051 9.76807 13.3572 9.76807 12.8047C9.76807 12.5289 10.0289 12.3045 10.3495 12.3045C10.6701 12.3045 10.9309 12.5289 10.9309 12.8047C10.9309 13.3572 11.4515 13.8051 12.0937 13.8051C12.7359 13.8051 13.2565 13.3572 13.2565 12.8047ZM20.4659 17.3566C20.0873 17.3566 19.752 17.513 19.5396 17.754C19.5396 17.754 18.0269 19.1573 15.4659 19.1573C12.9048 19.1573 11.3921 17.754 11.3921 17.754C11.1797 17.513 10.8444 17.3566 10.4658 17.3566C9.82354 17.3566 9.30294 17.8045 9.30294 18.357C9.30294 18.6416 9.44178 18.8979 9.66365 19.0801C9.87394 19.2808 11.9369 21.1581 15.4659 21.1581C18.9948 21.1581 21.0578 19.2808 21.2681 19.0801C21.4899 18.8979 21.6288 18.6416 21.6288 18.357C21.6288 17.8045 21.1082 17.3566 20.4659 17.3566Z" fill="black"/>
<path fill-rule="evenodd" clip-rule="evenodd" d="M7.04242 12.8043C7.04242 11.15 8.58418 9.90332 10.3495 9.90332C12.1147 9.90332 13.6565 11.15 13.6565 12.8043C13.6565 13.6321 12.8982 14.2047 12.0937 14.2047C11.2891 14.2047 10.5309 13.6321 10.5309 12.8043C10.5309 12.7986 10.529 12.7794 10.4995 12.754C10.4692 12.728 10.4173 12.7041 10.3495 12.7041C10.2816 12.7041 10.2297 12.728 10.1994 12.754C10.1699 12.7794 10.168 12.7986 10.168 12.8043C10.168 13.6321 9.40978 14.2047 8.60523 14.2047C7.80068 14.2047 7.04242 13.6321 7.04242 12.8043ZM10.3495 10.7033C8.90884 10.7033 7.84242 11.7005 7.84242 12.8043C7.84242 13.0816 8.12534 13.4047 8.60523 13.4047C9.08512 13.4047 9.36804 13.0816 9.36804 12.8043C9.36804 12.2533 9.86653 11.9041 10.3495 11.9041C10.8324 11.9041 11.3309 12.2533 11.3309 12.8043C11.3309 13.0816 11.6138 13.4047 12.0937 13.4047C12.5736 13.4047 12.8565 13.0816 12.8565 12.8043C12.8565 11.7005 11.7901 10.7033 10.3495 10.7033ZM20.6403 10.7033C19.1997 10.7033 18.1333 11.7005 18.1333 12.8043C18.1333 13.0816 18.4162 13.4047 18.8961 13.4047C19.376 13.4047 19.6589 13.0816 19.6589 12.8043C19.6589 12.2533 20.1574 11.9041 20.6403 11.9041C21.1233 11.9041 21.6217 12.2533 21.6217 12.8043C21.6217 13.0816 21.9047 13.4047 22.3846 13.4047C22.8645 13.4047 23.1474 13.0816 23.1474 12.8043C23.1474 11.7005 22.081 10.7033 20.6403 10.7033ZM17.3333 12.8043C17.3333 11.15 18.8751 9.90332 20.6403 9.90332C22.4056 9.90332 23.9474 11.15 23.9474 12.8043C23.9474 13.6321 23.1891 14.2047 22.3846 14.2047C21.58 14.2047 20.8217 13.6321 20.8217 12.8043C20.8217 12.7986 20.8199 12.7794 20.7904 12.754C20.7601 12.728 20.7082 12.7041 20.6403 12.7041C20.5725 12.7041 20.5206 12.728 20.4903 12.754C20.4608 12.7794 20.4589 12.7986 20.4589 12.8043C20.4589 13.6321 19.7007 14.2047 18.8961 14.2047C18.0916 14.2047 17.3333 13.6321 17.3333 12.8043ZM8.90292 18.3566C8.90292 17.5288 9.66118 16.9562 10.4657 16.9562C10.9435 16.9562 11.3825 17.1497 11.675 17.47C11.684 17.4779 11.698 17.49 11.7171 17.5057C11.7572 17.539 11.8195 17.5884 11.9029 17.6488C12.0698 17.7696 12.3207 17.9333 12.6481 18.0978C13.3028 18.4267 14.2599 18.7569 15.4658 18.7569C16.6718 18.7569 17.6289 18.4267 18.2836 18.0978C18.611 17.9333 18.8618 17.7696 19.0288 17.6488C19.1122 17.5884 19.1744 17.539 19.2146 17.5057C19.2336 17.49 19.2477 17.4779 19.2566 17.47C19.5491 17.1497 19.9882 16.9562 20.4659 16.9562C21.2705 16.9562 22.0287 17.5288 22.0287 18.3566C22.0287 18.7726 21.8276 19.1326 21.5337 19.379C21.2425 19.6537 19.0938 21.5577 15.4658 21.5577C11.8379 21.5577 9.68911 19.6536 9.39794 19.379C9.10409 19.1326 8.90292 18.7726 8.90292 18.3566ZM19.5396 17.7536C19.8117 18.0468 19.8115 18.047 19.8114 18.0471L19.8104 18.048L19.8086 18.0497L19.8033 18.0545L19.7859 18.0699C19.7714 18.0827 19.7509 18.1003 19.7247 18.122C19.6721 18.1656 19.5961 18.2257 19.4977 18.2969C19.301 18.4393 19.0136 18.6263 18.6427 18.8127C17.9008 19.1854 16.821 19.5569 15.4658 19.5569C14.1107 19.5569 13.0309 19.1854 12.2889 18.8127C11.9181 18.6263 11.6306 18.4393 11.4339 18.2969C11.3355 18.2257 11.2596 18.1656 11.207 18.122C11.1807 18.1003 11.1602 18.0827 11.1457 18.0699L11.1284 18.0545L11.1231 18.0497L11.1212 18.048L11.1202 18.0471C11.1201 18.047 11.12 18.0468 11.392 17.7536L11.1202 18.0471L11.1052 18.0331L11.0919 18.018C10.9596 17.8678 10.7358 17.7562 10.4657 17.7562C9.98584 17.7562 9.70292 18.0793 9.70292 18.3566C9.70292 18.5044 9.77401 18.6527 9.91746 18.7705L9.92899 18.78L9.93978 18.7903C10.1147 18.9572 12.0833 20.7577 15.4658 20.7577C18.8484 20.7577 20.817 18.9572 20.9919 18.7903L21.0027 18.78L21.0142 18.7705C21.1576 18.6527 21.2287 18.5044 21.2287 18.3566C21.2287 18.0793 20.9458 17.7562 20.4659 17.7562C20.1959 17.7562 19.9721 17.8678 19.8398 18.018L19.8264 18.0331L19.8114 18.0471L19.5396 17.7536Z" fill="black"/>
</svg>
