<svg width="22" height="34" viewBox="0 0 22 34" fill="none" xmlns="http://www.w3.org/2000/svg">
<path d="M21.2732 20.4586C21.8172 19.6309 21.903 18.5963 21.5026 17.6914L14.8843 2.73323L14.8809 2.72555L14.8775 2.71787C14.6387 2.1887 14.2541 1.75044 13.7653 1.45051C13.3141 1.17368 12.7932 1.02734 12.2588 1.02734C11.4705 1.02734 10.7077 1.34945 10.1657 1.91106C9.62244 2.47391 9.3418 3.21869 9.37543 4.00811L9.37548 4.00945L9.37554 4.01079L9.73673 12.2615H3.96416C2.96788 12.2615 2.04837 12.7565 1.50449 13.5857C0.960662 14.4149 0.876215 15.4504 1.27877 16.3557L7.89474 31.2345L7.89782 31.2414L7.90095 31.2483C8.14008 31.7766 8.52463 32.2141 9.01304 32.5135C9.46393 32.7899 9.98445 32.936 10.5183 32.936C11.3066 32.936 12.0696 32.6138 12.6116 32.052C13.1548 31.4891 13.4354 30.7442 13.4016 29.9546L13.4016 29.9531L13.4015 29.9517L13.0411 21.7807H18.815C19.8102 21.7806 20.7291 21.2864 21.2732 20.4586ZM11.2087 19.48C10.8889 19.48 10.6335 19.7447 10.6471 20.0621L11.0877 30.0523C11.1033 30.4169 10.8114 30.6353 10.5183 30.6353C10.3177 30.6353 10.1166 30.5329 10.0134 30.3049L3.39741 15.4262C3.21651 15.0194 3.5164 14.5621 3.96416 14.5621H11.5686C11.8883 14.5621 12.1437 14.2975 12.1302 13.9802L11.6895 3.91091C11.6739 3.54622 11.9658 3.32798 12.2588 3.32798C12.4596 3.32798 12.6609 3.4306 12.764 3.65894L19.3822 18.6171C19.5622 19.0238 19.2623 19.48 18.8151 19.48L11.2087 19.48Z" fill="black" stroke="black" stroke-width="0.3"/>
<path d="M10.5181 32.9623C9.97928 32.9623 9.45389 32.8148 8.99867 32.5359C8.50561 32.2337 8.11744 31.7921 7.8761 31.2589L7.86982 31.2449L1.25385 16.366C0.847619 15.4525 0.932823 14.4074 1.48162 13.5706C2.03048 12.7338 2.95842 12.2342 3.96395 12.2342H9.70826L9.3483 4.01143C9.31424 3.21186 9.59753 2.46015 10.1459 1.89193C10.6929 1.32511 11.463 1 12.2585 1C12.7979 1 13.3238 1.14768 13.7792 1.4272C14.2727 1.73002 14.6609 2.17236 14.9019 2.70642L14.9088 2.72194L21.5271 17.68C21.9313 18.5934 21.8447 19.6374 21.2956 20.4728C20.7466 21.3081 19.8192 21.8069 18.8148 21.807H13.0693L13.4284 29.9501C13.4627 30.75 13.1795 31.5018 12.631 32.0702C12.0839 32.6371 11.3138 32.9623 10.5181 32.9623ZM3.96395 12.2879C2.9768 12.2879 2.06578 12.7783 1.52693 13.5999C0.988076 14.4215 0.904494 15.4474 1.30332 16.3443L7.92546 31.2369C8.16231 31.7602 8.54324 32.1936 9.02705 32.4902C9.47373 32.7639 9.98933 32.9086 10.5181 32.9086C11.2992 32.9086 12.055 32.5894 12.592 32.0329C13.1301 31.4752 13.408 30.7374 13.3745 29.9553L13.0128 21.7533H18.8149C19.8009 21.7532 20.7114 21.2636 21.2504 20.4434C21.7895 19.6233 21.8744 18.5983 21.4777 17.7016L14.8526 2.72844C14.616 2.20415 14.2351 1.76997 13.7509 1.47284C13.3039 1.19864 12.7879 1.0537 12.2585 1.0537C11.4776 1.0537 10.7218 1.3728 10.1849 1.92915C9.64679 2.48668 9.36885 3.22443 9.40215 4.00649L9.7647 12.2879H3.96395ZM10.5181 30.6616C10.2846 30.6616 10.0867 30.5322 9.98857 30.3155L3.37244 15.4364C3.28378 15.2371 3.30237 15.009 3.42218 14.8263C3.54198 14.6437 3.74451 14.5347 3.96395 14.5347H11.5684C11.7156 14.5347 11.8527 14.4765 11.9546 14.371C12.0566 14.2655 12.1092 14.1269 12.1029 13.9808L11.6622 3.91149C11.6551 3.74469 11.709 3.59685 11.818 3.48392C11.9304 3.36738 12.0911 3.30052 12.2586 3.30052C12.4924 3.30052 12.6905 3.43021 12.7885 3.64733L19.4068 18.6056C19.495 18.8049 19.4761 19.0327 19.3563 19.2151C19.2365 19.3974 19.0341 19.5063 18.8148 19.5063H11.2085C11.0613 19.5063 10.9241 19.5645 10.8222 19.6701C10.7203 19.7757 10.6677 19.9143 10.6739 20.0604L11.1144 30.0506C11.1216 30.2174 11.0678 30.3652 10.9588 30.4782C10.8463 30.5948 10.6857 30.6616 10.5181 30.6616ZM3.96395 14.5883C3.76289 14.5883 3.57729 14.6882 3.46748 14.8556C3.35768 15.023 3.34065 15.232 3.42191 15.4147L10.0379 30.2935C10.127 30.4903 10.3065 30.6079 10.5181 30.6079C10.6711 30.6079 10.8175 30.5471 10.9198 30.441C11.0183 30.3389 11.067 30.2047 11.0605 30.0529L10.6199 20.0627C10.6131 19.9018 10.6711 19.7491 10.7833 19.6329C10.8954 19.5166 11.0465 19.4526 11.2086 19.4526L18.8149 19.4526C19.0158 19.4526 19.2012 19.3529 19.3111 19.1857C19.4209 19.0186 19.4382 18.8099 19.3573 18.6272L12.739 3.66908C12.65 3.47194 12.4704 3.35417 12.2585 3.35417C12.1056 3.35417 11.9592 3.41496 11.8569 3.52097C11.7584 3.62306 11.7097 3.75731 11.7162 3.90912L12.1569 13.9784C12.1637 14.1393 12.1058 14.2919 11.9936 14.4081C11.8814 14.5243 11.7304 14.5883 11.5683 14.5883H3.96395V14.5883Z" fill="black" stroke="black" stroke-width="0.3"/>
</svg>
