<svg width="28" height="28" viewBox="0 0 28 28" fill="none" xmlns="http://www.w3.org/2000/svg">
<path d="M2.01531 27C1.88446 27 1.75255 26.9747 1.62688 26.9227C1.24743 26.7654 1 26.3951 1 25.9843L1.00056 14.1229C0.920282 2.50923 15.0519 -3.39551 23.2387 4.83563C31.3387 13.0549 25.4907 27.0102 13.9383 27C11.892 27 9.93851 26.541 8.13216 25.6357C6.40615 24.7706 4.31647 25.1195 2.93222 26.5039L2.73359 26.7025C2.53932 26.8968 2.27955 27 2.01531 27ZM6.14191 23.1331C7.12807 23.1331 8.12018 23.3577 9.04217 23.8198C10.5663 24.5838 12.2182 24.9704 13.9498 24.9688C23.6572 24.9831 28.6319 13.124 21.7955 6.26485C14.8611 -0.675304 2.98127 4.29564 3.03154 14.1082C3.03154 14.1114 3.03159 14.1147 3.03159 14.118L3.03113 23.922C3.99343 23.4016 5.06399 23.1331 6.14191 23.1331ZM10.952 14.0002C10.952 14.7013 10.3837 15.2697 9.68265 15.2697C7.99883 15.2029 7.99928 12.7973 9.68265 12.7307C10.3837 12.7307 10.952 13.2991 10.952 14.0002ZM14.0494 12.7307C13.3483 12.7307 12.78 13.2991 12.78 14.0002C12.8468 15.6842 15.2521 15.6837 15.3188 14.0002C15.3188 13.2991 14.7504 12.7307 14.0494 12.7307ZM18.4161 12.7307C17.715 12.7307 17.1467 13.2991 17.1467 14.0002C17.2136 15.6842 19.6189 15.6837 19.6855 14.0002C19.6855 13.2991 19.1171 12.7307 18.4161 12.7307Z" fill="black"/>
<path fill-rule="evenodd" clip-rule="evenodd" d="M23.061 5.01108C15.0325 -3.06008 1.17182 2.73045 1.25055 14.1207L1.25056 14.1225L1.25 25.984C1.25 26.2936 1.43653 26.5728 1.72257 26.6913C1.8174 26.7306 1.91675 26.7496 2.01531 26.7496C2.21466 26.7496 2.41041 26.6718 2.5568 26.5254L2.75544 26.3267C4.21438 24.8676 6.42005 24.4976 8.24418 25.4118C10.0153 26.2995 11.9304 26.7497 13.9383 26.7496C25.2688 26.7596 31.0044 13.0722 23.061 5.01108ZM0.750558 14.1233C0.669453 2.28717 15.0709 -3.73127 23.416 4.65895L23.4168 4.65977C31.6727 13.0374 25.7121 27.26 13.9381 27.2496C13.938 27.2496 13.9382 27.2496 13.9381 27.2496C11.8535 27.2496 9.86166 26.7818 8.02015 25.8588C6.39224 25.0429 4.41856 25.3706 3.109 26.6803L2.91037 26.8789C2.66822 27.1211 2.34443 27.2496 2.01531 27.2496C1.85218 27.2496 1.68772 27.2181 1.53121 27.1532C1.05836 26.9573 0.75 26.4958 0.75 25.9839L0.750558 14.1233ZM0.750558 14.1233C0.750556 14.123 0.75056 14.1236 0.750558 14.1233V14.1233ZM2.78154 14.1091C2.73013 4.07403 14.8794 -1.01105 21.9724 6.08776C28.9677 13.1064 23.8771 25.2328 13.9497 25.2184C12.1799 25.22 10.4895 24.8246 8.93014 24.0429C8.04364 23.5986 7.08998 23.3827 6.14191 23.3827C5.10546 23.3827 4.07578 23.6409 3.15005 24.1416L2.78111 24.3411L2.78159 14.1176L2.78154 14.1091ZM21.6184 6.44095C14.8425 -0.340218 3.23241 4.51658 3.28153 14.1065L3.28159 14.1176L3.28115 23.5164C4.18132 23.0979 5.15855 22.8827 6.14191 22.8827C7.16616 22.8827 8.19672 23.116 9.15419 23.5959C10.6428 24.3421 12.2563 24.72 13.9496 24.7184C23.4368 24.7323 28.2958 13.1406 21.6184 6.44095ZM9.68265 12.4803C10.5218 12.4803 11.202 13.1607 11.202 13.9998C11.202 14.839 10.5218 15.5193 9.68265 15.5193H9.67272C7.66858 15.4397 7.66946 12.5598 9.67277 12.4805L9.68265 12.4803ZM9.68753 12.9803C8.33079 13.0388 8.33073 14.9607 9.68754 15.0193C10.2483 15.0167 10.702 14.5613 10.702 13.9998C10.702 13.4384 10.2483 12.983 9.68753 12.9803ZM12.53 13.9998C12.53 13.1607 13.2102 12.4803 14.0494 12.4803C14.8885 12.4803 15.5688 13.1607 15.5688 13.9998V14.0097C15.4895 16.0132 12.6098 16.0141 12.5302 14.0098L12.53 13.9998ZM13.03 13.9949C13.0886 15.3519 15.0103 15.3519 15.0687 13.995C15.0661 13.4341 14.6107 12.9803 14.0494 12.9803C13.488 12.9803 13.0326 13.4341 13.03 13.9949ZM16.8967 13.9998C16.8967 13.1607 17.5769 12.4803 18.4161 12.4803C19.2552 12.4803 19.9355 13.1607 19.9355 13.9998V14.0097C19.8562 16.0132 16.9765 16.0141 16.8969 14.0098L16.8967 13.9998ZM17.3967 13.995C17.4553 15.3519 19.377 15.3518 19.4355 13.995C19.4328 13.4341 18.9774 12.9803 18.4161 12.9803C17.8547 12.9803 17.3993 13.4341 17.3967 13.995Z" fill="black"/>
</svg>
