<svg width="34" height="33" viewBox="0 0 34 33" fill="none" xmlns="http://www.w3.org/2000/svg">
<path d="M33.2518 8.67262C33.0129 8.49871 32.7031 8.44257 32.4148 8.52111L18.9033 12.2029C18.4918 12.3151 18.2077 12.6768 18.2077 13.0886V25.5498C17.6447 25.2355 16.992 25.0545 16.2957 25.0545C14.1871 25.0545 12.4717 26.7062 12.4717 28.7363C12.4717 30.7665 14.1871 32.4182 16.2957 32.4182C18.4042 32.4182 20.1197 30.7665 20.1197 28.7363C20.1197 28.6407 20.1197 17.4665 20.1197 17.4665L31.7192 14.3057V21.868C31.1562 21.5537 30.5034 21.3727 29.8072 21.3727C27.6986 21.3727 25.9832 23.0244 25.9832 25.0545C25.9832 27.0847 27.6986 28.7363 29.8072 28.7363C31.9157 28.7363 33.6312 27.0847 33.6312 25.0545C33.6312 24.9728 33.6312 9.40677 33.6312 9.40677C33.6312 9.11837 33.4908 8.84659 33.2518 8.67262ZM16.2957 30.5772C15.2415 30.5772 14.3837 29.7514 14.3837 28.7363C14.3837 27.7213 15.2415 26.8954 16.2957 26.8954C17.35 26.8954 18.2077 27.7213 18.2077 28.7363C18.2077 29.7514 17.35 30.5772 16.2957 30.5772ZM29.8072 26.8954C28.7529 26.8954 27.8952 26.0696 27.8952 25.0545C27.8952 24.0394 28.7529 23.2136 29.8072 23.2136C30.8615 23.2136 31.7192 24.0394 31.7192 25.0545C31.7192 26.0696 30.8615 26.8954 29.8072 26.8954ZM31.7192 12.3925L20.1197 15.5533V13.7847L31.7192 10.6239V12.3925Z" fill="black"/>
<path fill-rule="evenodd" clip-rule="evenodd" d="M32.3622 8.32795C32.7084 8.23364 33.081 8.30066 33.3695 8.51073C33.6586 8.72123 33.8312 9.05236 33.8311 9.40662L33.799 9.40661C33.8311 9.40664 33.8311 9.40656 33.8311 9.40662V25.0537C33.8311 27.2014 32.0189 28.9361 29.8071 28.9361C27.5953 28.9361 25.7831 27.202 25.7831 25.0543C25.7831 22.9066 27.5953 21.1725 29.8071 21.1725C30.419 21.1725 30.9992 21.3056 31.5191 21.5426V14.5673L20.3197 17.6191V28.7361C20.3197 30.8838 18.5075 32.618 16.2957 32.618C14.0839 32.618 12.2717 30.8838 12.2717 28.7361C12.2717 26.5885 14.0839 24.8543 16.2957 24.8543C16.9075 24.8543 17.4877 24.9874 18.0077 25.2245V13.0884C18.0077 12.5819 18.3566 12.1445 18.8507 12.0098L32.3622 8.32795ZM20.1197 17.4663H19.9197V17.3135L31.9191 14.0437V22.2086L31.6216 22.0424C31.0877 21.7443 30.4684 21.5725 29.8071 21.5725C27.8018 21.5725 26.1831 23.1417 26.1831 25.0543C26.1831 26.9669 27.8018 28.5361 29.8071 28.5361C31.8125 28.5361 33.4311 26.9669 33.4311 25.0543V9.40675C33.4311 9.40663 33.4311 9.40658 33.6311 9.40658L33.4311 9.40675C33.4312 9.18419 33.3229 8.97154 33.1341 8.83411C32.9449 8.69637 32.6979 8.65109 32.4674 8.71388M32.4674 8.71388L18.9559 12.3957C18.9559 12.3957 18.9559 12.3957 18.9559 12.3957C18.627 12.4854 18.4077 12.7713 18.4077 13.0884V25.8904L18.1102 25.7243C17.5762 25.4261 16.957 25.2543 16.2957 25.2543C14.2904 25.2543 12.6717 26.8235 12.6717 28.7361C12.6717 30.6488 14.2904 32.218 16.2957 32.218C18.301 32.218 19.9197 30.6488 19.9197 28.7361V17.4663C19.9197 17.4662 19.9197 17.4663 20.1197 17.4663M31.9192 10.3619V12.5451L19.9197 15.8149V13.6317L31.9192 10.3619ZM20.3197 13.9373V15.2913L31.5192 12.2396V10.8855L20.3197 13.9373ZM29.8072 23.4134C28.8562 23.4134 28.0952 24.1568 28.0952 25.0543C28.0952 25.9519 28.8562 26.6952 29.8072 26.6952C30.7582 26.6952 31.5192 25.9519 31.5192 25.0543C31.5192 24.1568 30.7582 23.4134 29.8072 23.4134ZM27.6952 25.0543C27.6952 23.9217 28.6497 23.0134 29.8072 23.0134C30.9647 23.0134 31.9192 23.9217 31.9192 25.0543C31.9192 26.1869 30.9647 27.0952 29.8072 27.0952C28.6497 27.0952 27.6952 26.1869 27.6952 25.0543ZM16.2957 27.0952C15.3447 27.0952 14.5837 27.8386 14.5837 28.7361C14.5837 29.6337 15.3447 30.3771 16.2957 30.3771C17.2468 30.3771 18.0077 29.6337 18.0077 28.7361C18.0077 27.8386 17.2468 27.0952 16.2957 27.0952ZM14.1837 28.7361C14.1837 27.6035 15.1382 26.6952 16.2957 26.6952C17.4533 26.6952 18.4077 27.6035 18.4077 28.7361C18.4077 29.8687 17.4533 30.7771 16.2957 30.7771C15.1382 30.7771 14.1837 29.8687 14.1837 28.7361Z" fill="black"/>
<path d="M14.3396 7.53405C12.2186 6.03702 10.6647 4.55435 9.58926 3.00117L8.48738 1.40995C8.25367 1.07245 7.81805 0.922043 7.41494 1.03955C7.01176 1.15713 6.73599 1.51494 6.73599 1.92055V16.3455C6.17303 16.0311 5.52028 15.8501 4.82399 15.8501C2.71544 15.8501 1 17.5018 1 19.532C1 21.5621 2.71544 23.2138 4.82399 23.2138C6.93254 23.2138 8.64799 21.5621 8.64799 19.532V4.89013C9.79053 6.30757 11.2922 7.66586 13.2092 9.01887C13.9448 9.53801 14.384 10.3713 14.384 11.2479C14.384 12.7705 13.0974 14.0093 11.516 14.0093C10.988 14.0093 10.56 14.4214 10.56 14.9297C10.56 15.4381 10.988 15.8502 11.516 15.8502C14.1517 15.8501 16.296 13.7855 16.296 11.2478C16.296 9.78696 15.5646 8.39861 14.3396 7.53405ZM4.82399 21.3729C3.76972 21.3729 2.912 20.547 2.912 19.532C2.912 18.5169 3.76972 17.691 4.82399 17.691C5.87827 17.691 6.73599 18.5169 6.73599 19.532C6.73599 20.547 5.87827 21.3729 4.82399 21.3729Z" fill="black"/>
<path fill-rule="evenodd" clip-rule="evenodd" d="M7.35896 0.847318C7.84209 0.706481 8.36755 0.885388 8.65179 1.29586L9.75368 2.88708C10.8118 4.41527 12.3464 5.8822 14.4549 7.37042C15.7313 8.27128 16.496 9.71973 16.496 11.2476C16.496 13.9029 14.2549 16.0499 11.516 16.05C10.8848 16.05 10.36 15.5554 10.36 14.9295C10.36 14.3036 10.8848 13.8091 11.516 13.8091C12.9941 13.8091 14.184 12.6528 14.184 11.2477C14.184 10.4381 13.7781 9.66492 13.0939 9.18205C11.3575 7.95655 9.95483 6.72315 8.84797 5.44156V19.5317C8.84797 21.6794 7.03578 23.4136 4.82398 23.4136C2.61218 23.4136 0.799988 21.6794 0.799988 19.5317C0.799988 17.384 2.61218 15.6499 4.82398 15.6499C5.43579 15.6499 6.01605 15.783 6.53598 16.02V1.92033C6.53598 1.4215 6.87466 0.988546 7.35896 0.847318ZM7.4709 1.23133C7.14885 1.32526 6.93598 1.60793 6.93598 1.92033V16.686L6.63847 16.5199C6.10455 16.2217 5.48526 16.0499 4.82398 16.0499C2.81868 16.0499 1.19999 17.6191 1.19999 19.5317C1.19999 21.4444 2.81868 23.0136 4.82398 23.0136C6.82928 23.0136 8.44797 21.4444 8.44797 19.5317V4.32309L8.80369 4.76439C9.93176 6.16388 11.4185 7.50996 13.3245 8.85524C14.1115 9.41064 14.584 10.304 14.584 11.2477C14.584 12.8878 13.2006 14.2091 11.516 14.2091C11.0913 14.2091 10.76 14.5387 10.76 14.9295C10.76 15.3203 11.0913 15.65 11.516 15.65C14.0484 15.6499 16.096 13.6678 16.096 11.2476C16.096 9.85374 15.3978 8.52548 14.2243 7.69723C12.0908 6.19139 10.5176 4.69297 9.42482 3.1148L8.32294 1.52358C8.13976 1.25905 7.794 1.13715 7.4709 1.23133ZM4.82398 17.8908C3.87295 17.8908 3.11198 18.6342 3.11198 19.5317C3.11198 20.4293 3.87295 21.1726 4.82398 21.1726C5.77501 21.1726 6.53598 20.4293 6.53598 19.5317C6.53598 18.6342 5.77501 17.8908 4.82398 17.8908ZM2.71198 19.5317C2.71198 18.3991 3.66646 17.4908 4.82398 17.4908C5.9815 17.4908 6.93598 18.3991 6.93598 19.5317C6.93598 20.6643 5.9815 21.5726 4.82398 21.5726C3.66646 21.5726 2.71198 20.6643 2.71198 19.5317Z" fill="black"/>
</svg>
