<svg width="35" height="35" viewBox="0 0 35 35" fill="none" xmlns="http://www.w3.org/2000/svg">
<path d="M11.1691 10.4111C10.6575 9.91843 9.7847 10.0985 9.5298 10.7529L1.06543 32.4853C0.765577 33.2551 1.54864 34.0112 2.34972 33.7218C3.48338 33.3125 24.0116 25.9006 24.9212 25.5722C25.5977 25.328 25.7906 24.4889 25.2763 23.9938L11.1691 10.4111ZM10.8538 12.824L14.953 16.7709C15.2367 20.0531 16.4995 23.2084 18.5588 25.8178L14.2915 27.3586C11.0997 24.1618 9.47081 19.6925 9.90467 15.2609L10.8538 12.824ZM8.16431 29.5708C7.18028 28.4948 6.36184 27.2955 5.72402 25.9948L8.13299 19.8096C8.73131 22.9733 10.2071 25.8033 12.2769 28.0859L8.16431 29.5708ZM4.7938 28.3832C5.21116 29.0473 5.67468 29.6826 6.18196 30.2866L3.70403 31.1813L4.7938 28.3832ZM20.5195 25.1099C19.0235 23.3574 17.9497 21.2961 17.3735 19.1013L22.7701 24.2973L20.5195 25.1099Z" fill="black" stroke="black" stroke-width="0.5"/>
<path d="M24.1792 18.9392C24.5688 19.3143 25.2003 19.3143 25.5899 18.9392C29.3427 15.3259 32.9969 16.443 33.0334 16.4547C33.556 16.6224 34.121 16.3504 34.2952 15.8472C34.4695 15.3442 34.1869 14.8001 33.6643 14.6323C33.4676 14.5693 28.7943 13.1375 24.1793 17.581C23.7896 17.956 23.7896 18.5642 24.1792 18.9392Z" fill="black" stroke="black" stroke-width="0.5"/>
<path d="M16.4196 11.4682C16.8091 11.8433 17.4408 11.8434 17.8303 11.4682C22.4453 7.02477 20.9583 2.52514 20.8928 2.33574C20.7186 1.83253 20.1536 1.56047 19.631 1.72829C19.1084 1.89605 18.8259 2.43998 19.0001 2.94319C19.0123 2.97834 20.1724 6.49671 16.4196 10.11C16.03 10.4851 16.03 11.0932 16.4196 11.4682Z" fill="black" stroke="black" stroke-width="0.5"/>
<path d="M19.9473 13.5058C19.5577 13.8809 19.5577 14.489 19.9473 14.8641C20.3332 15.2358 20.9604 15.2407 21.3521 14.8698C21.8674 14.6226 23.4669 15.5499 24.3558 14.6943C25.2352 13.8476 24.3009 12.3388 24.5342 11.8101C25.0841 11.5848 26.6505 12.4848 27.5299 11.6382C28.4094 10.7915 27.4751 9.28277 27.7084 8.75395C28.2592 8.52863 29.8247 9.42876 30.704 8.5821C31.5836 7.73537 30.6492 6.22664 30.8826 5.69782C31.43 5.47365 32.9995 6.37173 33.8783 5.5259C34.7668 4.67027 33.8056 3.12748 34.0605 2.63388C34.4442 2.25841 34.4421 1.65454 34.0545 1.28131C33.665 0.906229 33.0334 0.906229 32.6438 1.28131C31.8576 2.03834 32.0114 3.10705 32.1595 3.87112C31.3659 3.72852 30.256 3.58042 29.4698 4.33738C28.6835 5.0944 28.8373 6.16312 28.9854 6.92719C28.1919 6.78466 27.0818 6.63643 26.2956 7.39351C25.5094 8.15054 25.6632 9.21925 25.8113 9.98332C25.0176 9.84073 23.9077 9.69256 23.1215 10.4496C22.3353 11.2066 22.4891 12.2753 22.6372 13.0394C21.8436 12.8969 20.7334 12.7488 19.9473 13.5058Z" fill="black" stroke="black" stroke-width="0.5"/>
<path d="M25.5899 5.35634C25.9794 4.98126 25.9794 4.37318 25.5899 3.9981C25.2003 3.62303 24.5688 3.62303 24.1792 3.9981C23.7896 4.37318 23.7896 4.98126 24.1792 5.35634C24.5687 5.73141 25.2003 5.73141 25.5899 5.35634Z" fill="black" stroke="black" stroke-width="0.5"/>
<path d="M31.9368 12.4287C32.4877 12.4287 32.9343 11.9987 32.9343 11.4683C32.9343 10.9378 32.4877 10.5078 31.9368 10.5078C31.3859 10.5078 30.9393 10.9378 30.9393 11.4683C30.9393 11.9987 31.3859 12.4287 31.9368 12.4287Z" fill="black" stroke="black" stroke-width="0.5"/>
<path d="M29.8228 20.2969C29.4332 20.672 29.4332 21.2801 29.8228 21.6552C30.2124 22.0302 30.8439 22.0302 31.2335 21.6552C31.6231 21.2801 31.6231 20.672 31.2335 20.2969C30.844 19.9219 30.2124 19.9219 29.8228 20.2969Z" fill="black" stroke="black" stroke-width="0.5"/>
<path d="M15.7144 6.71477C16.104 6.33969 16.104 5.7316 15.7144 5.35651C15.3248 4.98142 14.6932 4.98142 14.3037 5.35651C13.9141 5.73153 13.9141 6.33969 14.3037 6.71477C14.6932 7.08986 15.3249 7.08986 15.7144 6.71477Z" fill="black" stroke="black" stroke-width="0.5"/>
</svg>
