<svg xmlns="http://www.w3.org/2000/svg" xmlns:xlink="http://www.w3.org/1999/xlink" width="348" zoomAndPan="magnify" viewBox="0 0 261 226.499993" height="302" preserveAspectRatio="xMidYMid meet" version="1.0"><defs><g/><clipPath id="d98cb7fe07"><path d="M 41 0 L 231.8125 0 L 231.8125 190 L 41 190 Z M 41 0 " clip-rule="nonzero"/></clipPath><clipPath id="291f819829"><path d="M 35.746094 88 L 39 88 L 39 114 L 35.746094 114 Z M 35.746094 88 " clip-rule="nonzero"/></clipPath></defs><g clip-path="url(#d98cb7fe07)"><path fill="#2b946f" d="M 231.285156 88.226562 C 230.644531 83.046875 229.484375 78.503906 227.988281 74.039062 C 227.679688 73.199219 227.371094 72.359375 227.0625 71.515625 C 226.910156 71.097656 226.75 70.671875 226.59375 70.246094 C 226.417969 69.820312 226.242188 69.394531 226.058594 68.957031 C 225.835938 68.382812 225.59375 67.808594 225.363281 67.230469 L 225.019531 66.367188 C 224.902344 66.078125 224.761719 65.804688 224.632812 65.519531 C 224.109375 64.390625 223.605469 63.253906 223.066406 62.128906 C 222.496094 61.023438 221.921875 59.917969 221.347656 58.804688 C 221.210938 58.527344 221.058594 58.253906 220.902344 57.988281 L 220.429688 57.175781 L 219.488281 55.558594 C 219.347656 55.300781 219.203125 55.050781 219.054688 54.800781 C 219.050781 54.792969 219.046875 54.78125 219.039062 54.773438 C 219.023438 54.742188 219.011719 54.71875 218.996094 54.6875 C 218.457031 53.542969 217.929688 52.390625 217.382812 51.246094 C 216.792969 50.125 216.199219 49 215.617188 47.875 C 215.476562 47.589844 215.320312 47.316406 215.15625 47.039062 L 214.675781 46.222656 L 213.722656 44.578125 C 213.574219 44.316406 213.429688 44.0625 213.277344 43.808594 C 213.128906 43.550781 212.960938 43.308594 212.804688 43.0625 C 212.488281 42.570312 212.171875 42.089844 211.851562 41.605469 C 211.539062 41.128906 211.21875 40.648438 210.90625 40.171875 C 210.585938 39.707031 210.238281 39.257812 209.910156 38.804688 C 209.570312 38.351562 209.242188 37.90625 208.90625 37.460938 C 208.570312 37.023438 208.261719 36.566406 207.898438 36.152344 C 207.1875 35.304688 206.488281 34.46875 205.792969 33.640625 C 205.457031 33.21875 205.078125 32.824219 204.714844 32.429688 C 204.347656 32.035156 203.984375 31.644531 203.617188 31.25 L 202.523438 30.078125 C 202.152344 29.695312 201.757812 29.328125 201.378906 28.953125 C 200.609375 28.210938 199.855469 27.449219 199.070312 26.730469 C 198.269531 26.019531 197.464844 25.304688 196.65625 24.585938 C 196.472656 24.417969 196.285156 24.25 196.097656 24.078125 C 195.894531 23.914062 195.695312 23.75 195.496094 23.585938 C 195.097656 23.25 194.691406 22.914062 194.289062 22.574219 C 193.878906 22.226562 193.472656 21.882812 193.058594 21.53125 L 192.746094 21.269531 L 192.421875 21.023438 C 192.210938 20.855469 191.988281 20.6875 191.78125 20.515625 C 190.90625 19.84375 190.039062 19.15625 189.164062 18.488281 C 188.265625 17.855469 187.363281 17.21875 186.484375 16.601562 C 185.875 16.074219 185.203125 15.59375 184.519531 15.097656 C 183.828125 14.601562 183.121094 14.101562 182.410156 13.585938 C 181.679688 13.101562 180.917969 12.632812 180.152344 12.144531 C 179.390625 11.671875 178.625 11.15625 177.808594 10.730469 C 177.003906 10.277344 176.199219 9.832031 175.382812 9.378906 L 174.773438 9.042969 C 174.5625 8.9375 174.351562 8.832031 174.152344 8.730469 L 172.898438 8.113281 C 172.480469 7.90625 172.066406 7.703125 171.644531 7.496094 C 171.226562 7.296875 170.828125 7.070312 170.394531 6.898438 C 169.550781 6.527344 168.707031 6.160156 167.882812 5.800781 C 167.445312 5.613281 167 5.40625 166.546875 5.222656 C 166.097656 5.050781 165.640625 4.878906 165.171875 4.707031 C 164.257812 4.363281 163.328125 4.019531 162.386719 3.6875 C 161.433594 3.398438 160.476562 3.113281 159.519531 2.820312 C 159.03125 2.679688 158.546875 2.535156 158.058594 2.402344 C 157.578125 2.285156 157.082031 2.171875 156.585938 2.058594 C 155.605469 1.832031 154.617188 1.601562 153.628906 1.398438 C 152.628906 1.234375 151.625 1.070312 150.628906 0.917969 C 150.125 0.839844 149.628906 0.761719 149.128906 0.699219 C 148.628906 0.652344 148.125 0.609375 147.621094 0.5625 C 146.625 0.476562 145.621094 0.402344 144.632812 0.328125 C 143.539062 0.304688 142.410156 0.261719 141.257812 0.207031 C 140.964844 0.191406 140.671875 0.175781 140.386719 0.160156 L 139.949219 0.132812 L 139.527344 0.128906 C 138.964844 0.121094 138.398438 0.109375 137.828125 0.0976562 C 137.257812 0.0859375 136.6875 0.0664062 136.117188 0.0507812 L 135.6875 0.0351562 L 135.476562 0.03125 L 135.429688 0.0273438 L 135.199219 0.0273438 L 134.316406 0.0390625 C 133.140625 0.0507812 131.976562 0.0507812 130.835938 0.046875 C 129.84375 0.0742188 128.878906 0.140625 127.933594 0.199219 C 126.984375 0.269531 126.050781 0.3125 125.132812 0.457031 C 123.296875 0.714844 121.492188 0.933594 119.699219 1.351562 C 119.152344 1.46875 118.597656 1.582031 118.050781 1.695312 C 117.503906 1.8125 116.960938 1.917969 116.425781 2.078125 C 115.347656 2.363281 114.277344 2.652344 113.214844 2.9375 C 112.675781 3.066406 112.15625 3.25 111.625 3.414062 L 110.058594 3.925781 L 108.484375 4.433594 C 107.972656 4.632812 107.453125 4.824219 106.933594 5.015625 C 104.125 6.023438 101.355469 7.214844 98.570312 8.542969 C 98.347656 8.605469 98.132812 8.664062 97.914062 8.726562 C 97.65625 8.792969 97.402344 8.867188 97.160156 8.949219 C 95.9375 9.332031 94.820312 9.710938 93.738281 10.085938 C 93.472656 10.179688 93.203125 10.28125 92.949219 10.390625 C 92.691406 10.496094 92.425781 10.609375 92.167969 10.714844 C 91.65625 10.933594 91.128906 11.152344 90.601562 11.371094 L 89.496094 11.839844 C 89.125 12 88.765625 12.179688 88.410156 12.351562 C 87.679688 12.6875 86.945312 13.027344 86.214844 13.375 C 85.472656 13.699219 84.757812 14.089844 84.019531 14.460938 C 83.277344 14.835938 82.53125 15.210938 81.773438 15.589844 C 77.015625 18.074219 72.417969 21.066406 68.46875 24.511719 C 68.207031 24.734375 67.886719 25 67.578125 25.234375 C 66.808594 25.890625 66.042969 26.558594 65.28125 27.21875 C 64.894531 27.554688 64.503906 27.878906 64.132812 28.21875 L 63.039062 29.273438 C 62.679688 29.617188 62.3125 29.96875 61.953125 30.320312 C 61.589844 30.671875 61.222656 31.011719 60.890625 31.386719 C 60.207031 32.121094 59.53125 32.855469 58.863281 33.59375 C 58.636719 33.851562 58.382812 34.097656 58.167969 34.371094 C 57.945312 34.636719 57.71875 34.90625 57.492188 35.179688 C 57.035156 35.722656 56.578125 36.265625 56.132812 36.800781 C 55.546875 37.480469 55.023438 38.210938 54.484375 38.921875 C 53.953125 39.640625 53.398438 40.34375 52.871094 41.074219 C 52.351562 41.816406 51.828125 42.558594 51.300781 43.3125 C 51.042969 43.695312 50.761719 44.066406 50.5 44.449219 C 50.242188 44.84375 49.988281 45.238281 49.730469 45.636719 C 48.277344 47.785156 47.058594 49.980469 45.964844 52.253906 C 45.507812 53.277344 44.9375 54.441406 44.351562 55.660156 C 43.808594 56.898438 43.253906 58.191406 42.722656 59.40625 C 42.964844 59.402344 43.464844 58.515625 44.335938 56.613281 C 44.699219 55.734375 45.164062 54.894531 45.589844 54.042969 L 46.246094 52.765625 C 46.460938 52.34375 46.671875 51.910156 46.917969 51.503906 C 47.875 49.851562 48.789062 48.175781 49.851562 46.585938 L 50.695312 45.269531 C 50.84375 45.054688 50.972656 44.832031 51.121094 44.617188 L 51.570312 43.980469 C 52.175781 43.136719 52.777344 42.289062 53.375 41.441406 C 54 40.613281 54.65625 39.8125 55.304688 39.003906 C 55.632812 38.601562 55.945312 38.1875 56.289062 37.800781 L 57.324219 36.640625 C 58.113281 35.792969 58.914062 34.835938 59.796875 33.957031 C 60.230469 33.507812 60.652344 33.054688 61.078125 32.609375 C 61.5 32.167969 61.902344 31.71875 62.316406 31.324219 C 62.910156 30.738281 63.511719 30.152344 64.117188 29.558594 C 64.421875 29.269531 64.710938 28.964844 65.023438 28.683594 L 65.96875 27.855469 C 66.601562 27.300781 67.234375 26.746094 67.867188 26.195312 C 68.503906 25.648438 69.171875 25.144531 69.820312 24.613281 C 70.273438 24.25 70.738281 23.878906 71.203125 23.511719 C 71.671875 23.148438 72.160156 22.8125 72.632812 22.460938 C 73.109375 22.113281 73.574219 21.769531 74.046875 21.429688 C 74.273438 21.261719 74.5 21.089844 74.726562 20.925781 C 74.957031 20.765625 75.1875 20.609375 75.40625 20.453125 C 76.296875 19.847656 77.179688 19.257812 78.066406 18.667969 C 78.972656 18.101562 79.90625 17.582031 80.828125 17.042969 C 81.289062 16.785156 81.742188 16.5 82.21875 16.257812 C 82.691406 16.019531 83.175781 15.777344 83.652344 15.53125 C 84.132812 15.289062 84.605469 15.050781 85.09375 14.808594 L 85.816406 14.445312 L 86.5625 14.117188 C 87.609375 13.652344 88.457031 13.3125 89.273438 12.992188 C 89.683594 12.824219 90.097656 12.695312 90.519531 12.550781 C 90.835938 12.441406 91.160156 12.328125 91.5 12.203125 L 88.6875 13.871094 C 86.816406 15.113281 84.925781 16.308594 83.148438 17.667969 C 82.71875 17.980469 82.28125 18.300781 81.84375 18.621094 L 81.519531 18.859375 L 81.207031 19.117188 C 80.996094 19.285156 80.789062 19.457031 80.582031 19.628906 C 79.757812 20.304688 78.964844 20.964844 78.292969 21.558594 C 77.316406 22.492188 76.453125 23.378906 75.59375 24.25 C 75.15625 24.671875 74.765625 25.144531 74.347656 25.597656 C 73.941406 26.054688 73.515625 26.515625 73.082031 26.996094 C 72.847656 27.25 72.589844 27.53125 72.328125 27.824219 C 72.070312 28.125 71.800781 28.433594 71.539062 28.746094 C 71.007812 29.363281 70.476562 29.953125 70.027344 30.402344 C 65.921875 34.589844 62.398438 39.253906 59.382812 44.316406 C 59.300781 44.449219 59.207031 44.589844 59.121094 44.730469 C 59.035156 44.871094 58.960938 45.019531 58.878906 45.167969 C 58.699219 45.460938 58.53125 45.761719 58.355469 46.054688 C 58.011719 46.640625 57.671875 47.203125 57.371094 47.65625 C 54.933594 51.558594 53.253906 55.734375 51.746094 59.957031 C 51.601562 60.222656 51.464844 60.484375 51.324219 60.753906 C 51.070312 61.257812 50.851562 61.785156 50.601562 62.292969 C 50.367188 62.804688 50.128906 63.3125 49.894531 63.804688 C 49.785156 64.054688 49.664062 64.296875 49.550781 64.539062 C 49.429688 64.777344 49.320312 65.015625 49.21875 65.25 C 48.699219 66.421875 48.253906 67.511719 47.828125 68.570312 C 47.71875 68.832031 47.621094 69.097656 47.53125 69.367188 C 47.4375 69.636719 47.34375 69.902344 47.253906 70.171875 C 47.078125 70.703125 46.902344 71.234375 46.71875 71.78125 L 46.339844 72.925781 C 46.21875 73.304688 46.117188 73.695312 46.003906 74.082031 C 45.785156 74.851562 45.554688 75.625 45.328125 76.402344 C 45.085938 77.175781 44.902344 77.972656 44.695312 78.769531 C 44.488281 79.570312 44.273438 80.382812 44.0625 81.203125 C 42.789062 86.414062 42.003906 91.84375 41.984375 97.082031 C 41.984375 97.425781 41.964844 97.84375 41.949219 98.226562 C 41.929688 99.242188 41.929688 100.253906 41.917969 101.269531 C 41.917969 101.773438 41.898438 102.285156 41.914062 102.792969 C 41.933594 103.300781 41.957031 103.800781 41.980469 104.304688 C 42.003906 104.8125 42.023438 105.3125 42.046875 105.816406 C 42.078125 106.316406 42.085938 106.820312 42.144531 107.316406 C 42.25 108.316406 42.355469 109.308594 42.472656 110.292969 C 42.515625 110.632812 42.539062 110.980469 42.59375 111.324219 C 42.652344 111.671875 42.703125 112.019531 42.753906 112.367188 C 42.863281 113.066406 42.972656 113.765625 43.078125 114.460938 C 43.203125 115.34375 43.410156 116.214844 43.589844 117.09375 C 43.773438 117.96875 43.933594 118.847656 44.136719 119.730469 C 44.355469 120.605469 44.570312 121.492188 44.785156 122.382812 C 44.898438 122.832031 44.992188 123.28125 45.117188 123.734375 C 45.238281 124.183594 45.359375 124.636719 45.492188 125.089844 C 46.148438 127.597656 46.992188 129.964844 47.972656 132.289062 C 48.445312 133.304688 48.941406 134.507812 49.46875 135.753906 C 50.046875 136.972656 50.640625 138.242188 51.207031 139.445312 C 51.363281 139.265625 51.035156 138.304688 50.171875 136.398438 C 49.757812 135.535156 49.433594 134.640625 49.074219 133.757812 L 48.550781 132.421875 C 48.378906 131.976562 48.1875 131.539062 48.042969 131.078125 C 47.4375 129.273438 46.78125 127.476562 46.285156 125.632812 L 45.863281 124.128906 C 45.785156 123.878906 45.710938 123.632812 45.644531 123.378906 L 45.464844 122.617188 C 45.230469 121.609375 44.992188 120.601562 44.75 119.589844 C 44.539062 118.574219 44.375 117.546875 44.1875 116.53125 C 44.101562 116.019531 44.003906 115.511719 43.933594 114.996094 L 43.753906 113.453125 C 43.636719 112.300781 43.445312 111.070312 43.371094 109.824219 C 43.316406 109.203125 43.257812 108.582031 43.210938 107.972656 C 43.144531 107.367188 43.078125 106.773438 43.054688 106.195312 C 43.007812 105.359375 42.957031 104.519531 42.910156 103.679688 C 42.894531 103.261719 42.855469 102.839844 42.855469 102.421875 L 42.855469 101.160156 C 42.855469 100.320312 42.855469 99.480469 42.855469 98.640625 C 42.875 97.800781 42.933594 96.964844 42.960938 96.132812 C 42.992188 95.550781 43.015625 94.957031 43.042969 94.367188 C 43.078125 93.78125 43.152344 93.1875 43.203125 92.597656 C 43.253906 92.011719 43.308594 91.433594 43.351562 90.859375 C 43.378906 90.574219 43.398438 90.292969 43.429688 90.011719 C 43.460938 89.734375 43.496094 89.460938 43.527344 89.1875 C 43.65625 88.128906 43.792969 87.070312 43.9375 86.015625 C 44.105469 84.964844 44.335938 83.921875 44.535156 82.878906 C 44.644531 82.355469 44.730469 81.828125 44.867188 81.308594 C 45 80.792969 45.136719 80.277344 45.265625 79.75 C 45.398438 79.230469 45.539062 78.710938 45.675781 78.1875 L 45.886719 77.402344 L 46.128906 76.625 C 46.472656 75.535156 46.78125 74.671875 47.078125 73.847656 C 47.214844 73.433594 47.394531 73.035156 47.5625 72.625 C 47.734375 72.210938 47.910156 71.789062 48.085938 71.320312 L 48.742188 69.601562 C 48.964844 69.027344 49.222656 68.472656 49.460938 67.910156 L 50.1875 66.21875 L 50.265625 65.996094 C 50.085938 67.117188 49.921875 68.207031 49.800781 69.21875 C 49.777344 69.46875 49.855469 69.4375 49.964844 69.28125 C 50.023438 69.199219 50.085938 69.085938 50.152344 68.960938 C 50.222656 68.839844 50.292969 68.699219 50.363281 68.5625 C 50.625 68.027344 50.902344 67.398438 51.183594 66.699219 C 51.324219 66.34375 51.46875 65.96875 51.613281 65.578125 C 51.6875 65.382812 51.757812 65.183594 51.828125 64.976562 C 51.914062 64.773438 51.996094 64.566406 52.074219 64.355469 C 52.417969 63.507812 52.769531 62.585938 53.125 61.605469 C 53.210938 61.355469 53.296875 61.105469 53.398438 60.851562 C 53.503906 60.601562 53.605469 60.347656 53.707031 60.089844 C 53.910156 59.574219 54.125 59.042969 54.34375 58.5 C 54.84375 57.234375 55.386719 55.984375 55.953125 54.742188 C 57.320312 52.390625 58.777344 50.082031 60.285156 47.984375 C 60.632812 47.472656 60.996094 46.941406 61.359375 46.421875 C 61.730469 45.914062 62.117188 45.414062 62.464844 44.933594 C 63.179688 43.96875 63.757812 43.101562 64.144531 42.445312 C 63.507812 43.074219 62.910156 43.722656 62.265625 44.402344 C 61.953125 44.75 61.628906 45.097656 61.308594 45.453125 C 61.148438 45.632812 60.980469 45.804688 60.824219 45.992188 C 60.671875 46.179688 60.519531 46.375 60.363281 46.566406 C 60.179688 46.792969 59.996094 47.03125 59.800781 47.265625 C 60.40625 46.214844 61.023438 45.167969 61.652344 44.144531 C 62.085938 43.449219 62.519531 42.753906 62.949219 42.0625 C 63.410156 41.390625 63.871094 40.71875 64.324219 40.050781 C 65.210938 38.699219 66.183594 37.441406 67.082031 36.199219 C 68.910156 33.730469 70.695312 31.496094 72.160156 29.589844 C 72.558594 29.191406 72.902344 28.828125 73.226562 28.53125 C 73.550781 28.230469 73.839844 27.972656 74.089844 27.746094 C 74.597656 27.285156 74.964844 26.949219 75.285156 26.683594 C 75.597656 26.410156 75.855469 26.203125 76.125 26 C 76.398438 25.792969 76.695312 25.613281 77.078125 25.371094 C 77.683594 24.988281 78.257812 24.597656 78.925781 24.082031 C 79.085938 23.953125 79.257812 23.8125 79.433594 23.671875 C 79.605469 23.523438 79.800781 23.371094 80 23.214844 C 80.40625 22.902344 80.847656 22.546875 81.335938 22.128906 C 81.796875 21.75 82.289062 21.351562 82.800781 20.949219 C 83.316406 20.554688 83.871094 20.183594 84.390625 19.804688 L 85.671875 18.890625 L 86.316406 18.433594 C 86.53125 18.28125 86.753906 18.140625 86.972656 18 L 89.628906 16.289062 C 89.84375 16.144531 90.070312 16.007812 90.304688 15.882812 L 90.984375 15.488281 L 92.347656 14.703125 C 92.808594 14.449219 93.257812 14.183594 93.71875 13.9375 C 94.1875 13.695312 94.648438 13.464844 95.117188 13.230469 C 95.628906 12.976562 96.136719 12.71875 96.648438 12.464844 L 97.414062 12.082031 L 98.195312 11.738281 C 99.25 11.28125 100.292969 10.828125 101.335938 10.371094 C 102.398438 9.976562 103.457031 9.585938 104.496094 9.199219 C 104.753906 9.105469 105.007812 9.011719 105.273438 8.917969 C 105.53125 8.832031 105.792969 8.753906 106.058594 8.671875 C 106.570312 8.515625 107.089844 8.359375 107.597656 8.207031 C 108.28125 8.007812 108.9375 7.789062 109.597656 7.613281 C 110.253906 7.445312 110.890625 7.277344 111.527344 7.097656 C 112.160156 6.925781 112.785156 6.75 113.410156 6.5625 C 113.890625 6.4375 114.363281 6.316406 114.84375 6.183594 C 115.714844 6.066406 116.578125 5.960938 117.421875 5.878906 C 118.039062 5.804688 118.675781 5.730469 119.300781 5.660156 C 119.933594 5.609375 120.558594 5.558594 121.152344 5.507812 C 122.351562 5.40625 123.382812 5.269531 124.128906 5.125 C 123.238281 5.0625 122.359375 5.035156 121.414062 5.007812 C 120.949219 5 120.480469 4.988281 119.996094 4.980469 C 119.96875 4.980469 119.941406 4.980469 119.910156 4.976562 C 120.191406 4.917969 120.476562 4.863281 120.757812 4.804688 C 121.21875 4.710938 121.683594 4.609375 122.148438 4.523438 C 122.609375 4.449219 123.082031 4.375 123.542969 4.300781 C 124.46875 4.152344 125.394531 3.996094 126.308594 3.832031 C 127.410156 3.683594 128.582031 3.550781 129.800781 3.417969 C 130.105469 3.386719 130.402344 3.355469 130.71875 3.320312 C 131.027344 3.296875 131.339844 3.285156 131.652344 3.269531 C 132.277344 3.238281 132.917969 3.210938 133.566406 3.183594 C 134.203125 3.160156 134.855469 3.117188 135.496094 3.113281 C 136.152344 3.117188 136.804688 3.121094 137.460938 3.132812 C 138.113281 3.136719 138.765625 3.148438 139.417969 3.152344 C 139.742188 3.152344 140.070312 3.167969 140.386719 3.1875 C 140.707031 3.207031 141.027344 3.226562 141.351562 3.246094 C 147.859375 3.574219 154.484375 4.796875 160.683594 6.445312 C 163.292969 7.148438 165.992188 8.03125 168.410156 8.898438 C 168.953125 9.089844 169.503906 9.253906 170.03125 9.464844 C 170.5625 9.671875 171.085938 9.886719 171.617188 10.09375 C 172.671875 10.515625 173.734375 10.898438 174.753906 11.378906 C 175.777344 11.847656 176.8125 12.300781 177.832031 12.765625 C 178.835938 13.277344 179.835938 13.78125 180.839844 14.292969 C 181.09375 14.421875 181.351562 14.550781 181.609375 14.683594 C 181.863281 14.828125 182.105469 14.964844 182.34375 15.097656 C 182.824219 15.355469 183.273438 15.585938 183.601562 15.746094 C 185.269531 16.464844 187.148438 17.679688 189.140625 19.023438 C 190.101562 19.742188 191.085938 20.5 192.070312 21.273438 C 192.566406 21.652344 193.027344 22.082031 193.503906 22.496094 C 193.964844 22.90625 194.4375 23.324219 194.890625 23.730469 C 195.191406 24.003906 195.492188 24.265625 195.78125 24.546875 L 196.648438 25.402344 C 197.214844 25.972656 197.792969 26.542969 198.359375 27.113281 C 198.5 27.253906 198.648438 27.394531 198.789062 27.542969 L 199.195312 27.988281 C 199.464844 28.285156 199.734375 28.585938 200.003906 28.882812 C 200.539062 29.480469 201.074219 30.066406 201.605469 30.664062 C 202.109375 31.28125 202.601562 31.894531 203.09375 32.496094 C 203.582031 33.109375 204.085938 33.699219 204.535156 34.320312 C 204.980469 34.941406 205.425781 35.554688 205.859375 36.164062 C 206.078125 36.464844 206.296875 36.765625 206.507812 37.066406 C 206.613281 37.21875 206.71875 37.363281 206.820312 37.511719 C 206.925781 37.667969 207.015625 37.824219 207.117188 37.972656 C 207.730469 38.933594 208.351562 39.890625 208.980469 40.84375 C 209.429688 41.566406 209.863281 42.300781 210.300781 43.027344 C 210.097656 42.796875 209.882812 42.5625 209.679688 42.332031 L 208.617188 41.15625 C 208.261719 40.773438 207.882812 40.402344 207.515625 40.027344 C 206.765625 39.277344 206.042969 38.515625 205.277344 37.789062 C 204.496094 37.074219 203.71875 36.355469 202.941406 35.632812 C 202.757812 35.460938 202.570312 35.296875 202.386719 35.121094 C 202.199219 34.957031 202 34.796875 201.804688 34.632812 C 201.417969 34.296875 201.015625 33.960938 200.617188 33.621094 C 200.21875 33.277344 199.8125 32.9375 199.410156 32.582031 L 199.105469 32.324219 L 198.785156 32.074219 C 198.574219 31.910156 198.359375 31.738281 198.144531 31.574219 C 197.289062 30.910156 196.4375 30.230469 195.570312 29.570312 C 194.679688 28.941406 193.792969 28.3125 192.921875 27.699219 C 192.296875 27.199219 191.617188 26.75 190.929688 26.277344 C 190.242188 25.804688 189.535156 25.324219 188.816406 24.839844 C 188.082031 24.375 187.324219 23.929688 186.566406 23.46875 C 185.792969 23.011719 185.042969 22.527344 184.230469 22.113281 C 183.425781 21.691406 182.628906 21.257812 181.816406 20.828125 L 181.210938 20.503906 C 181.007812 20.402344 180.792969 20.308594 180.59375 20.207031 L 179.351562 19.621094 C 178.933594 19.425781 178.523438 19.230469 178.113281 19.039062 C 177.695312 18.84375 177.292969 18.632812 176.867188 18.46875 C 176.035156 18.117188 175.199219 17.773438 174.378906 17.433594 C 173.945312 17.25 173.503906 17.058594 173.054688 16.890625 C 172.609375 16.726562 172.15625 16.566406 171.699219 16.402344 C 170.792969 16.082031 169.878906 15.753906 168.953125 15.4375 C 168.019531 15.164062 167.066406 14.886719 166.125 14.605469 C 165.652344 14.472656 165.171875 14.328125 164.699219 14.199219 C 164.363281 14.125 164.027344 14.042969 163.695312 13.96875 C 159.714844 12.046875 155.652344 10.363281 151.503906 8.894531 C 150.597656 8.535156 149.492188 8.257812 148.476562 7.957031 C 147.445312 7.671875 146.273438 7.332031 145.421875 7.125 C 143.59375 6.632812 141.886719 6.214844 140.113281 5.996094 C 137.683594 5.597656 135.140625 5.386719 132.902344 5.226562 C 131.988281 5.203125 131.410156 5.296875 131.277344 5.386719 C 131.1875 5.457031 131.527344 5.527344 132.042969 5.597656 C 132.300781 5.636719 132.609375 5.671875 132.933594 5.703125 C 133.253906 5.75 133.585938 5.796875 133.90625 5.84375 C 134.761719 5.964844 135.621094 6.082031 136.476562 6.203125 C 136.90625 6.269531 137.339844 6.3125 137.757812 6.398438 C 138.183594 6.480469 138.613281 6.558594 139.039062 6.636719 C 139.898438 6.792969 140.757812 6.949219 141.621094 7.105469 C 142.488281 7.285156 143.347656 7.492188 144.234375 7.675781 C 145.105469 7.875 146 8.03125 146.871094 8.289062 C 147.75 8.527344 148.628906 8.769531 149.503906 9.015625 C 150.386719 9.242188 151.238281 9.566406 152.085938 9.863281 C 152.929688 10.171875 153.773438 10.472656 154.574219 10.816406 C 154.804688 10.921875 155.273438 11.082031 155.625 11.222656 C 157.246094 11.84375 158.847656 12.515625 160.425781 13.230469 C 160.398438 13.222656 160.371094 13.214844 160.339844 13.210938 C 159.359375 13.042969 158.382812 12.878906 157.402344 12.714844 C 156.90625 12.636719 156.425781 12.550781 155.925781 12.480469 C 155.441406 12.425781 154.945312 12.375 154.457031 12.320312 C 153.46875 12.21875 152.488281 12.117188 151.519531 12.019531 C 150.457031 11.96875 149.355469 11.910156 148.222656 11.839844 C 147.941406 11.820312 147.660156 11.800781 147.371094 11.785156 L 146.945312 11.757812 L 146.519531 11.75 C 145.960938 11.738281 145.394531 11.726562 144.820312 11.714844 C 144.257812 11.699219 143.683594 11.683594 143.117188 11.667969 L 142.6875 11.652344 L 142.46875 11.648438 L 142.214844 11.648438 L 142.023438 11.652344 C 141.429688 11.589844 140.84375 11.542969 140.257812 11.488281 L 138.75 11.351562 C 138.25 11.308594 137.746094 11.261719 137.246094 11.25 L 134.230469 11.128906 L 133.480469 11.101562 L 132.71875 11.109375 L 131.210938 11.121094 C 129.203125 11.097656 127.195312 11.261719 125.191406 11.367188 C 124.199219 11.445312 123.199219 11.570312 122.203125 11.667969 L 120.707031 11.824219 C 120.207031 11.890625 119.71875 11.972656 119.21875 12.046875 C 118.585938 12.144531 117.871094 12.257812 117.378906 12.355469 C 112.859375 13.339844 107.832031 14.597656 102.433594 16.441406 C 101.683594 16.703125 100.945312 16.96875 100.222656 17.230469 C 94.96875 19.273438 89.917969 21.675781 85.039062 24.398438 C 84.164062 24.84375 83.234375 25.488281 82.339844 26.058594 C 81.449219 26.636719 80.417969 27.296875 79.703125 27.800781 C 78.121094 28.84375 76.683594 29.855469 75.34375 31.050781 C 73.4375 32.601562 71.609375 34.378906 70.003906 35.953125 C 69.386719 36.621094 69.074219 37.121094 69.0625 37.28125 C 69.046875 37.390625 69.324219 37.183594 69.726562 36.839844 C 69.921875 36.667969 70.148438 36.464844 70.386719 36.25 C 70.636719 36.039062 70.886719 35.816406 71.136719 35.609375 C 71.792969 35.042969 72.449219 34.480469 73.105469 33.917969 C 73.4375 33.640625 73.753906 33.335938 74.097656 33.082031 C 74.441406 32.816406 74.777344 32.546875 75.125 32.277344 C 75.808594 31.738281 76.492188 31.195312 77.1875 30.648438 C 77.886719 30.121094 78.609375 29.609375 79.332031 29.070312 C 80.054688 28.546875 80.765625 27.976562 81.53125 27.488281 C 82.292969 26.988281 83.050781 26.488281 83.8125 25.988281 C 84.5625 25.476562 85.367188 25.054688 86.152344 24.613281 C 86.941406 24.183594 87.722656 23.753906 88.511719 23.375 C 88.742188 23.269531 89.175781 23.023438 89.507812 22.851562 C 95.011719 19.957031 100.824219 17.644531 106.804688 15.964844 C 107.632812 15.707031 108.480469 15.492188 109.328125 15.292969 C 75.285156 25.730469 50.535156 57.429688 50.535156 94.910156 C 50.535156 107.695312 53.425781 119.796875 58.570312 130.625 C 58.574219 130.632812 58.574219 130.640625 58.578125 130.648438 C 57.585938 128.734375 56.679688 126.753906 55.898438 124.703125 C 55.199219 122.738281 54.257812 120.496094 53.59375 118.308594 C 51.953125 113.277344 50.613281 108.5625 49.773438 103.507812 C 49.613281 102.457031 49.460938 101.425781 49.304688 100.421875 C 49.269531 100.171875 49.21875 99.921875 49.191406 99.667969 C 49.167969 99.421875 49.140625 99.167969 49.121094 98.925781 C 49.058594 98.429688 49 97.9375 48.949219 97.457031 C 48.894531 96.972656 48.839844 96.496094 48.78125 96.019531 C 48.75 95.785156 48.71875 95.550781 48.699219 95.316406 C 48.679688 95.082031 48.664062 94.851562 48.644531 94.621094 C 48.566406 93.691406 48.5 92.785156 48.429688 91.898438 C 48.410156 91.675781 48.386719 91.457031 48.367188 91.242188 L 48.355469 91.070312 L 48.347656 90.988281 L 48.347656 90.921875 C 48.34375 90.933594 48.347656 90.890625 48.34375 90.945312 L 48.34375 90.933594 L 48.328125 90.605469 C 48.308594 90.164062 48.289062 89.730469 48.269531 89.304688 C 48.222656 88.445312 48.171875 87.609375 48.121094 86.792969 C 48.085938 86.378906 48.09375 85.988281 48.085938 85.59375 C 48.070312 85.199219 48.0625 84.8125 48.050781 84.429688 C 48.027344 83.660156 47.996094 82.910156 47.960938 82.167969 C 47.71875 82.785156 47.449219 83.417969 47.253906 83.898438 C 47.195312 84.402344 47.132812 84.902344 47.074219 85.394531 C 47.015625 85.882812 46.941406 86.371094 46.921875 86.847656 C 46.84375 87.796875 46.777344 88.734375 46.710938 89.644531 C 46.675781 90.109375 46.632812 90.542969 46.613281 91.027344 C 46.605469 91.484375 46.59375 91.941406 46.589844 92.394531 C 46.574219 93.304688 46.558594 94.21875 46.546875 95.136719 C 46.613281 100.070312 47.023438 105.0625 48.039062 110.125 C 49.136719 115.53125 50.796875 120.871094 52.96875 126.015625 C 55.136719 131.167969 57.8125 136.105469 60.882812 140.757812 C 61.570312 141.792969 62.398438 142.804688 63.152344 143.839844 C 63.640625 144.527344 64.398438 145.355469 64.699219 145.796875 C 65.199219 146.542969 65.726562 147.273438 66.273438 147.976562 C 66.851562 148.664062 67.441406 149.339844 68.035156 150.011719 L 68.417969 150.441406 C 68.449219 150.488281 68.476562 150.535156 68.507812 150.585938 C 69.199219 151.617188 69.992188 152.636719 70.738281 153.671875 C 71.210938 154.359375 71.945312 155.195312 72.246094 155.621094 C 72.777344 156.339844 73.3125 157.054688 73.859375 157.753906 C 74.433594 158.433594 75.015625 159.101562 75.601562 159.769531 L 76.480469 160.761719 C 76.773438 161.09375 77.09375 161.402344 77.398438 161.726562 L 79.253906 163.632812 C 79.527344 163.929688 79.828125 164.199219 80.117188 164.476562 L 81 165.304688 C 81.585938 165.851562 82.167969 166.40625 82.761719 166.949219 L 84.59375 168.507812 L 85.511719 169.285156 C 85.675781 169.417969 85.820312 169.554688 85.976562 169.675781 L 86.457031 170.046875 C 87.09375 170.542969 87.730469 171.035156 88.367188 171.53125 L 89.3125 172.277344 L 90.304688 172.988281 C 90.96875 173.460938 91.628906 173.9375 92.28125 174.414062 L 92.546875 174.605469 C 92.207031 174.476562 91.867188 174.347656 91.535156 174.207031 L 90.21875 173.6875 L 88.910156 173.101562 L 86.316406 171.933594 C 85.46875 171.503906 84.625 171.078125 83.785156 170.648438 C 83.359375 170.433594 82.933594 170.234375 82.515625 170.003906 L 81.277344 169.304688 C 80.460938 168.839844 79.625 168.386719 78.816406 167.910156 C 78.011719 167.40625 77.210938 166.910156 76.414062 166.40625 C 76.011719 166.148438 75.605469 165.914062 75.21875 165.640625 L 74.058594 164.835938 L 72.894531 164.035156 C 72.507812 163.757812 72.113281 163.511719 71.742188 163.214844 C 70.832031 162.519531 69.929688 161.863281 69.03125 161.164062 C 65.03125 157.90625 61.339844 154.285156 58.058594 150.347656 C 57.78125 150.019531 57.484375 149.675781 57.179688 149.339844 C 56.878906 149.003906 56.597656 148.636719 56.316406 148.296875 C 55.9375 147.820312 55.558594 147.355469 55.175781 146.882812 C 54.796875 146.410156 54.394531 145.960938 54.050781 145.457031 C 53.007812 144.007812 51.902344 142.5625 50.949219 141.03125 C 50.457031 140.273438 49.953125 139.53125 49.484375 138.785156 C 49.023438 138.023438 48.574219 137.269531 48.132812 136.53125 C 47.378906 135.351562 46.734375 134.035156 46.050781 132.804688 C 45.339844 131.585938 44.773438 130.367188 44.214844 129.398438 C 43.199219 127.605469 43.007812 127.574219 43.878906 129.890625 C 44.117188 130.515625 44.390625 131.214844 44.667969 131.914062 C 44.980469 132.605469 45.292969 133.300781 45.578125 133.933594 C 45.84375 134.527344 46.113281 135.132812 46.402344 135.753906 C 46.695312 136.367188 47.035156 136.976562 47.371094 137.605469 C 47.71875 138.230469 48.058594 138.875 48.421875 139.523438 C 48.796875 140.164062 49.214844 140.796875 49.628906 141.453125 C 51.496094 144.464844 53.648438 147.304688 55.855469 150.0625 C 58.164062 152.75 60.542969 155.359375 63.144531 157.667969 C 63.886719 158.332031 64.65625 159.097656 65.457031 159.757812 C 71.804688 165.4375 78.976562 170.207031 86.683594 173.84375 L 89.457031 175.113281 C 90.390625 175.507812 91.335938 175.871094 92.285156 176.253906 L 93.703125 176.816406 L 95.140625 177.316406 C 96.097656 177.640625 97.054688 177.996094 98.03125 178.296875 C 98.324219 178.386719 98.625 178.46875 98.921875 178.558594 C 103.796875 181.21875 108.898438 183.398438 114.167969 185.339844 C 114.460938 185.445312 114.855469 185.585938 115.28125 185.71875 C 115.496094 185.789062 115.714844 185.859375 115.933594 185.933594 C 116.152344 185.992188 116.375 186.050781 116.578125 186.109375 C 118.621094 186.714844 120.695312 187.246094 122.773438 187.699219 C 121.167969 187.546875 119.539062 187.425781 117.9375 187.15625 C 117.046875 187.023438 116.152344 186.914062 115.273438 186.773438 C 114.40625 186.617188 113.539062 186.457031 112.695312 186.296875 C 111.324219 186.089844 109.894531 185.707031 108.515625 185.410156 C 107.140625 185.136719 105.851562 184.753906 104.746094 184.539062 C 102.734375 184.121094 102.578125 184.242188 104.890625 185.117188 C 105.519531 185.351562 106.222656 185.605469 106.9375 185.859375 C 107.65625 186.078125 108.390625 186.300781 109.054688 186.511719 C 109.675781 186.707031 110.3125 186.898438 110.964844 187.09375 C 111.621094 187.277344 112.300781 187.425781 113.003906 187.589844 C 113.695312 187.742188 114.410156 187.90625 115.132812 188.070312 C 115.867188 188.207031 116.617188 188.316406 117.375 188.4375 C 120.875 189.023438 124.433594 189.277344 127.960938 189.4375 C 129.832031 189.457031 131.695312 189.449219 133.550781 189.375 C 133.824219 189.402344 134.113281 189.4375 134.390625 189.457031 C 135.476562 189.539062 136.566406 189.613281 137.652344 189.695312 C 138.738281 189.742188 139.820312 189.757812 140.898438 189.785156 C 141.449219 189.789062 141.96875 189.816406 142.539062 189.8125 C 143.078125 189.796875 143.613281 189.78125 144.152344 189.765625 C 144.699219 189.75 145.242188 189.738281 145.78125 189.714844 C 146.316406 189.691406 146.855469 189.699219 147.390625 189.644531 C 148.464844 189.554688 149.527344 189.464844 150.59375 189.378906 L 151.382812 189.3125 L 152.171875 189.207031 C 152.691406 189.136719 153.21875 189.0625 153.738281 188.988281 C 155.828125 188.738281 157.851562 188.285156 159.839844 187.886719 C 160.113281 187.839844 160.398438 187.761719 160.671875 187.691406 C 160.953125 187.621094 161.234375 187.546875 161.519531 187.476562 C 162.089844 187.328125 162.660156 187.183594 163.238281 187.035156 C 164.398438 186.769531 165.558594 186.390625 166.726562 186.054688 C 167.304688 185.890625 167.859375 185.726562 168.414062 185.566406 C 168.96875 185.394531 169.496094 185.195312 170.023438 185.015625 C 170.546875 184.832031 171.058594 184.652344 171.574219 184.46875 C 171.828125 184.378906 172.082031 184.289062 172.335938 184.199219 L 172.710938 184.066406 L 173.082031 183.914062 C 174.058594 183.503906 175.019531 183.101562 175.976562 182.703125 L 176.695312 182.398438 L 177.394531 182.058594 C 177.859375 181.832031 178.328125 181.605469 178.800781 181.378906 C 179.460938 181.050781 180.136719 180.742188 180.796875 180.394531 C 181.457031 180.035156 182.121094 179.675781 182.789062 179.308594 C 183.128906 179.125 183.46875 178.945312 183.804688 178.765625 L 184.320312 178.480469 L 184.816406 178.183594 C 185.480469 177.785156 186.164062 177.375 186.847656 176.964844 C 187.191406 176.761719 187.535156 176.554688 187.878906 176.351562 C 188.214844 176.128906 188.554688 175.90625 188.894531 175.683594 C 189.582031 175.238281 190.269531 174.789062 190.96875 174.328125 C 191.144531 174.210938 191.3125 174.101562 191.492188 173.984375 C 191.660156 173.863281 191.832031 173.742188 192.007812 173.621094 C 192.351562 173.371094 192.691406 173.128906 193.042969 172.882812 C 193.738281 172.375 194.457031 171.894531 195.15625 171.367188 C 196.25 170.511719 197.359375 169.683594 198.4375 168.832031 C 199.492188 167.945312 200.539062 167.0625 201.554688 166.164062 C 204.828125 163.140625 207.785156 160.050781 210.570312 156.773438 C 211.238281 155.933594 211.914062 155.09375 212.589844 154.253906 C 212.933594 153.84375 213.242188 153.390625 213.558594 152.953125 C 213.878906 152.515625 214.199219 152.074219 214.511719 151.636719 C 214.835938 151.191406 215.160156 150.75 215.464844 150.300781 C 215.765625 149.839844 216.0625 149.375 216.363281 148.910156 C 216.664062 148.441406 216.964844 147.976562 217.269531 147.503906 C 217.414062 147.269531 217.5625 147.03125 217.714844 146.792969 C 217.847656 146.550781 217.992188 146.304688 218.128906 146.054688 C 218.667969 145.117188 219.21875 144.152344 219.777344 143.1875 C 220.289062 142.195312 220.816406 141.1875 221.332031 140.191406 L 221.722656 139.445312 C 221.847656 139.195312 221.957031 138.933594 222.070312 138.679688 C 222.304688 138.175781 222.535156 137.671875 222.761719 137.175781 C 222.988281 136.667969 223.214844 136.175781 223.429688 135.691406 C 223.644531 135.199219 223.824219 134.699219 224.003906 134.214844 C 224.226562 133.644531 224.445312 133.082031 224.664062 132.511719 C 224.878906 131.9375 225.105469 131.367188 225.289062 130.777344 C 225.664062 129.609375 226.050781 128.429688 226.433594 127.257812 C 226.761719 126.066406 227.089844 124.871094 227.410156 123.683594 C 227.59375 123.09375 227.703125 122.484375 227.835938 121.890625 C 227.964844 121.289062 228.09375 120.691406 228.222656 120.101562 C 228.511719 118.921875 228.671875 117.726562 228.871094 116.554688 C 228.957031 115.972656 229.050781 115.390625 229.148438 114.816406 C 229.238281 114.242188 229.277344 113.664062 229.339844 113.09375 C 229.398438 112.53125 229.460938 111.964844 229.511719 111.40625 C 229.539062 111.128906 229.570312 110.855469 229.59375 110.578125 L 229.636719 110.164062 L 229.65625 109.753906 C 229.699219 108.664062 229.738281 107.609375 229.78125 106.585938 C 229.785156 106.253906 229.832031 105.789062 229.820312 105.351562 C 229.828125 104.917969 229.828125 104.523438 229.8125 104.355469 C 229.738281 103.414062 229.644531 102.917969 229.570312 102.035156 C 229.410156 100.121094 229.136719 101.386719 228.898438 105.078125 C 228.890625 105.261719 228.875 105.441406 228.867188 105.628906 C 228.851562 105.8125 228.828125 105.988281 228.808594 106.167969 C 228.765625 106.53125 228.726562 106.890625 228.683594 107.261719 C 228.609375 107.992188 228.535156 108.734375 228.460938 109.488281 C 228.445312 109.679688 228.417969 109.863281 228.402344 110.058594 C 228.375 110.25 228.34375 110.441406 228.316406 110.628906 C 228.257812 111.015625 228.195312 111.398438 228.140625 111.792969 C 228.027344 112.570312 227.914062 113.355469 227.804688 114.152344 C 227.671875 114.941406 227.507812 115.734375 227.355469 116.542969 C 227.285156 116.945312 227.207031 117.347656 227.132812 117.757812 C 227.050781 118.160156 226.992188 118.574219 226.882812 118.976562 C 226.691406 119.785156 226.496094 120.605469 226.304688 121.425781 C 226.210938 121.839844 226.113281 122.246094 226.019531 122.664062 C 225.914062 123.074219 225.789062 123.480469 225.671875 123.894531 L 224.898438 126.628906 C 224.621094 127.53125 224.296875 128.425781 224 129.328125 L 223.554688 130.675781 C 223.402344 131.121094 223.222656 131.5625 223.050781 132.007812 C 222.703125 132.890625 222.363281 133.773438 222.019531 134.652344 C 221.714844 135.371094 221.378906 136.085938 221.0625 136.796875 C 220.742188 137.503906 220.445312 138.214844 220.117188 138.902344 C 219.78125 139.582031 219.449219 140.253906 219.128906 140.910156 C 218.972656 141.238281 218.808594 141.566406 218.664062 141.886719 C 218.585938 142.050781 218.511719 142.214844 218.441406 142.371094 C 218.359375 142.527344 218.28125 142.679688 218.199219 142.832031 C 217.863281 143.484375 217.386719 144.355469 216.859375 145.289062 C 216.734375 145.519531 216.601562 145.757812 216.464844 146 C 216.324219 146.238281 216.171875 146.46875 216.035156 146.703125 C 215.738281 147.167969 215.453125 147.632812 215.175781 148.070312 C 213.570312 150.714844 211.320312 153.671875 209.902344 155.578125 C 209.648438 155.917969 209.414062 156.277344 209.132812 156.605469 C 208.863281 156.941406 208.582031 157.277344 208.304688 157.621094 C 207.742188 158.296875 207.175781 158.988281 206.585938 159.679688 C 205.96875 160.34375 205.34375 161.015625 204.726562 161.679688 L 203.777344 162.691406 L 202.789062 163.652344 L 201.039062 165.351562 C 200.449219 165.90625 199.820312 166.429688 199.214844 166.976562 L 198.296875 167.785156 C 197.992188 168.054688 197.6875 168.324219 197.363281 168.582031 C 196.726562 169.085938 196.082031 169.597656 195.4375 170.105469 L 194.476562 170.871094 C 194.132812 171.113281 193.804688 171.351562 193.460938 171.585938 C 192.789062 172.070312 192.113281 172.546875 191.441406 173.027344 C 191.101562 173.269531 190.742188 173.496094 190.394531 173.71875 C 190.039062 173.941406 189.691406 174.164062 189.335938 174.386719 C 188.625 174.828125 187.921875 175.296875 187.183594 175.71875 C 181.65625 178.933594 175.574219 181.683594 169.324219 183.675781 C 168.949219 183.804688 168.574219 183.925781 168.203125 184.050781 C 167.816406 184.15625 167.4375 184.261719 167.054688 184.367188 C 166.292969 184.585938 165.527344 184.800781 164.757812 185.019531 C 163.996094 185.253906 163.203125 185.402344 162.425781 185.59375 C 161.648438 185.769531 160.863281 185.949219 160.089844 186.128906 C 159.320312 186.289062 158.296875 186.457031 157.824219 186.527344 C 157.011719 186.628906 156.277344 186.75 155.539062 186.882812 C 154.800781 186.980469 154.054688 187.09375 153.230469 187.222656 C 152.664062 187.304688 152.078125 187.394531 151.472656 187.484375 C 150.867188 187.570312 150.25 187.617188 149.636719 187.675781 C 149.023438 187.730469 148.417969 187.78125 147.839844 187.835938 C 147.546875 187.859375 147.269531 187.882812 146.992188 187.902344 C 146.808594 187.917969 146.628906 187.921875 146.445312 187.921875 C 153.222656 186.722656 159.855469 184.734375 166.167969 182 L 168.949219 180.757812 C 169.867188 180.3125 170.765625 179.839844 171.671875 179.386719 L 173.027344 178.695312 L 174.351562 177.941406 C 175.230469 177.433594 176.128906 176.949219 176.988281 176.421875 C 177.988281 175.792969 178.980469 175.164062 179.972656 174.539062 C 180.472656 174.238281 180.941406 173.882812 181.421875 173.550781 L 182.851562 172.53125 C 187.15625 169.375 191.1875 165.796875 194.808594 161.914062 C 195.265625 161.421875 195.71875 160.929688 196.171875 160.433594 C 196.613281 159.941406 197.089844 159.460938 197.503906 158.9375 C 198.359375 157.914062 199.226562 156.90625 200.074219 155.878906 C 200.886719 154.816406 201.691406 153.746094 202.507812 152.675781 C 203.289062 151.582031 204.03125 150.4375 204.792969 149.300781 C 206.898438 145.910156 208.929688 142.421875 210.613281 138.734375 L 211.257812 137.367188 C 211.480469 136.90625 211.65625 136.4375 211.855469 135.96875 L 213.027344 133.164062 C 213.378906 132.210938 213.714844 131.257812 214.0625 130.308594 C 214.066406 130.292969 214.078125 130.277344 214.082031 130.257812 C 214.132812 130.152344 214.191406 130.046875 214.242188 129.941406 L 214.632812 129.199219 C 214.765625 128.949219 214.878906 128.695312 214.996094 128.441406 C 215.226562 127.941406 215.457031 127.433594 215.691406 126.9375 C 215.914062 126.4375 216.136719 125.941406 216.355469 125.453125 C 216.566406 124.960938 216.738281 124.460938 216.921875 123.972656 C 217.132812 123.40625 217.347656 122.832031 217.554688 122.261719 C 217.765625 121.691406 217.984375 121.117188 218.15625 120.527344 C 218.527344 119.355469 218.894531 118.179688 219.269531 117 C 219.582031 115.804688 219.902344 114.609375 220.210938 113.421875 C 220.378906 112.832031 220.484375 112.226562 220.613281 111.628906 C 220.738281 111.027344 220.859375 110.433594 220.976562 109.835938 C 221.25 108.65625 221.394531 107.464844 221.566406 106.292969 C 221.652344 105.710938 221.734375 105.128906 221.8125 104.554688 C 221.890625 103.984375 221.917969 103.402344 221.972656 102.835938 C 222.011719 102.269531 222.054688 101.707031 222.09375 101.148438 C 222.113281 100.867188 222.128906 100.59375 222.148438 100.316406 L 222.179688 99.910156 L 222.1875 99.496094 C 222.195312 98.414062 222.203125 97.363281 222.1875 96.351562 C 222.179688 96.019531 222.21875 95.566406 222.203125 95.121094 C 222.195312 94.6875 222.1875 94.292969 222.15625 94.128906 C 221.992188 93.183594 221.792969 92.683594 221.621094 91.800781 C 221.25 89.878906 220.738281 91.140625 220.363281 94.832031 C 220.34375 95.015625 220.328125 95.195312 220.304688 95.382812 C 220.285156 95.566406 220.253906 95.730469 220.226562 95.90625 C 220.175781 96.257812 220.125 96.609375 220.078125 96.964844 C 219.976562 97.675781 219.882812 98.398438 219.78125 99.128906 C 219.761719 99.3125 219.734375 99.492188 219.714844 99.675781 C 219.679688 99.867188 219.648438 100.050781 219.617188 100.238281 C 219.554688 100.617188 219.488281 100.988281 219.429688 101.367188 C 219.3125 102.128906 219.1875 102.898438 219.058594 103.675781 C 218.972656 104.160156 218.867188 104.640625 218.769531 105.125 C 218.777344 104.972656 218.785156 104.824219 218.796875 104.667969 C 218.8125 104.410156 218.828125 104.160156 218.832031 103.902344 L 218.839844 103.140625 L 218.847656 101.605469 C 218.851562 101.09375 218.855469 100.585938 218.855469 100.074219 C 218.863281 99.5625 218.816406 99.058594 218.800781 98.546875 C 218.753906 97.535156 218.703125 96.519531 218.660156 95.515625 C 218.214844 89.6875 217.234375 83.847656 215.636719 78.25 C 215.414062 77.523438 215.199219 76.769531 214.984375 76.015625 C 211.621094 61.554688 204.5 48.542969 194.699219 38.0625 L 193.945312 37.136719 L 193.464844 36.550781 L 192.964844 35.988281 L 191.960938 34.867188 C 190.652344 33.335938 189.210938 31.945312 187.8125 30.507812 C 187.09375 29.804688 186.339844 29.140625 185.605469 28.460938 L 184.507812 27.4375 C 184.121094 27.109375 183.738281 26.792969 183.355469 26.464844 C 182.855469 26.054688 182.308594 25.59375 181.917969 25.289062 C 178.519531 22.785156 174.667969 20.117188 170.273438 17.519531 C 172.035156 18.082031 173.785156 18.691406 175.398438 19.3125 C 175.933594 19.515625 176.46875 19.695312 177 19.917969 C 177.523438 20.140625 178.046875 20.359375 178.566406 20.582031 C 179.605469 21.03125 180.65625 21.433594 181.660156 21.941406 C 182.667969 22.433594 183.679688 22.90625 184.6875 23.402344 C 185.664062 23.933594 186.648438 24.464844 187.636719 24.996094 C 187.886719 25.132812 188.136719 25.269531 188.390625 25.40625 C 188.636719 25.550781 188.878906 25.695312 189.113281 25.835938 C 189.578125 26.109375 190.003906 26.351562 190.324219 26.53125 C 191.910156 27.347656 193.738281 28.605469 195.691406 29.964844 C 196.628906 30.6875 197.605469 31.441406 198.582031 32.210938 C 199.078125 32.582031 199.53125 33.015625 200 33.410156 C 200.464844 33.824219 200.929688 34.226562 201.390625 34.632812 C 201.6875 34.898438 201.992188 35.152344 202.285156 35.429688 L 203.140625 36.265625 C 203.71875 36.820312 204.292969 37.382812 204.867188 37.945312 C 205.007812 38.082031 205.152344 38.21875 205.285156 38.359375 L 205.699219 38.800781 C 205.972656 39.09375 206.25 39.382812 206.515625 39.679688 C 207.050781 40.261719 207.589844 40.84375 208.125 41.417969 C 208.636719 42.023438 209.132812 42.621094 209.636719 43.214844 C 210.125 43.816406 210.640625 44.386719 211.097656 44.992188 C 211.558594 45.601562 212.007812 46.203125 212.449219 46.792969 C 212.507812 46.863281 212.558594 46.9375 212.617188 47.007812 L 213.34375 48.308594 C 213.625 48.8125 213.875 49.332031 214.136719 49.84375 L 214.921875 51.386719 C 215.175781 51.898438 215.457031 52.402344 215.6875 52.933594 C 216.164062 53.988281 216.652344 55.035156 217.132812 56.089844 C 218.011719 58.230469 218.921875 60.363281 219.644531 62.5625 C 219.839844 63.109375 220.027344 63.652344 220.21875 64.195312 C 220.414062 64.730469 220.558594 65.285156 220.734375 65.824219 C 220.902344 66.367188 221.0625 66.914062 221.230469 67.457031 L 221.480469 68.269531 L 221.609375 68.679688 L 221.714844 69.09375 C 221.992188 70.207031 222.261719 71.328125 222.535156 72.480469 C 222.679688 73.054688 222.757812 73.648438 222.863281 74.25 C 222.960938 74.847656 223.0625 75.457031 223.160156 76.074219 C 223.230469 76.488281 223.300781 76.917969 223.367188 77.347656 C 223.421875 77.785156 223.476562 78.222656 223.53125 78.671875 C 223.644531 79.558594 223.769531 80.464844 223.898438 81.378906 C 223.972656 81.832031 224.007812 82.292969 224.046875 82.753906 C 224.097656 83.214844 224.140625 83.675781 224.183594 84.132812 C 224.230469 84.597656 224.273438 85.050781 224.316406 85.507812 C 224.359375 85.960938 224.410156 86.414062 224.421875 86.863281 C 224.53125 89.464844 224.882812 91.375 225.125 90.886719 C 225.550781 89.976562 225.980469 88.941406 226.496094 87.726562 C 226.527344 84.84375 226.289062 81.171875 225.988281 77.796875 C 225.515625 73.105469 224.476562 68.945312 223.117188 64.929688 C 223.351562 65.441406 223.582031 65.953125 223.816406 66.464844 C 224.6875 68.601562 225.578125 70.730469 226.289062 72.925781 C 226.480469 73.472656 226.664062 74.011719 226.855469 74.550781 C 227.046875 75.085938 227.1875 75.636719 227.347656 76.175781 C 227.511719 76.71875 227.671875 77.257812 227.828125 77.800781 L 228.066406 78.617188 L 228.1875 79.023438 L 228.292969 79.4375 C 228.550781 80.542969 228.816406 81.660156 229.085938 82.808594 C 229.234375 83.378906 229.3125 83.96875 229.421875 84.5625 C 229.523438 85.152344 229.628906 85.757812 229.734375 86.375 C 229.804688 86.789062 229.875 87.210938 229.941406 87.640625 C 230 88.074219 230.058594 88.511719 230.113281 88.953125 C 230.234375 89.835938 230.347656 90.738281 230.472656 91.648438 C 230.539062 92.105469 230.570312 92.5625 230.605469 93.023438 C 230.648438 93.476562 230.6875 93.9375 230.726562 94.394531 C 230.761719 94.851562 230.800781 95.308594 230.84375 95.761719 C 230.882812 96.214844 230.933594 96.667969 230.9375 97.113281 C 231.023438 99.695312 231.226562 101.597656 231.332031 101.109375 C 231.542969 100.207031 231.746094 99.183594 231.984375 98 C 231.945312 95.128906 231.667969 91.527344 231.285156 88.226562 Z M 98.890625 176.457031 L 97.855469 175.871094 C 97.507812 175.675781 97.160156 175.480469 96.828125 175.261719 L 94.804688 173.984375 L 93.789062 173.347656 C 93.460938 173.128906 93.136719 172.890625 92.8125 172.667969 C 86.738281 168.515625 81.1875 163.582031 76.332031 158.035156 L 77.164062 158.726562 L 78.09375 159.503906 C 78.25 159.632812 78.398438 159.761719 78.5625 159.890625 L 79.046875 160.261719 C 79.683594 160.753906 80.328125 161.253906 80.976562 161.75 L 81.9375 162.496094 L 82.925781 163.210938 C 83.589844 163.691406 84.25 164.171875 84.90625 164.667969 L 85.394531 165.035156 L 85.910156 165.382812 C 86.246094 165.621094 86.585938 165.855469 86.925781 166.09375 C 87.519531 166.507812 88.378906 167.046875 89.113281 167.484375 L 91.253906 168.667969 C 91.976562 169.050781 92.683594 169.46875 93.425781 169.808594 L 95.621094 170.875 C 95.988281 171.058594 96.347656 171.238281 96.722656 171.414062 L 97.839844 171.902344 C 98.589844 172.230469 99.335938 172.5625 100.085938 172.894531 L 100.640625 173.144531 L 101.214844 173.371094 L 102.347656 173.835938 C 103.113281 174.144531 103.867188 174.46875 104.625 174.792969 C 105.394531 175.082031 106.164062 175.382812 106.929688 175.691406 C 107.222656 175.804688 107.617188 175.9375 108.046875 176.074219 C 108.261719 176.144531 108.484375 176.210938 108.707031 176.28125 C 108.929688 176.339844 109.144531 176.402344 109.355469 176.457031 C 115.210938 178.15625 121.210938 179.226562 127.308594 179.734375 C 128.40625 179.808594 129.503906 179.886719 130.59375 179.964844 C 131.691406 180.003906 132.765625 180.015625 133.84375 180.042969 L 134.292969 180.054688 L 134.039062 180.082031 C 133.464844 180.15625 132.894531 180.253906 132.324219 180.289062 C 131.171875 180.382812 130.035156 180.476562 128.882812 180.566406 C 128.546875 180.597656 128.210938 180.609375 127.875 180.613281 L 126.859375 180.640625 L 124.828125 180.6875 L 124.320312 180.703125 L 124.066406 180.707031 L 124 180.710938 L 123.96875 180.710938 L 123.839844 180.707031 L 122.808594 180.679688 L 120.75 180.617188 C 119.359375 180.613281 118.046875 180.453125 116.695312 180.359375 L 115.703125 180.28125 C 115.363281 180.253906 115.027344 180.230469 114.691406 180.179688 L 112.679688 179.917969 L 110.945312 179.691406 C 110.371094 179.605469 109.796875 179.484375 109.226562 179.382812 C 106.210938 178.839844 103.246094 178.128906 100.316406 177.277344 C 99.851562 176.996094 99.371094 176.726562 98.890625 176.457031 Z M 203.074219 149.070312 L 202.117188 150.5 C 201.789062 150.976562 201.492188 151.464844 201.140625 151.921875 C 200.449219 152.847656 199.765625 153.765625 199.082031 154.6875 C 198.886719 154.960938 198.671875 155.222656 198.449219 155.480469 L 197.800781 156.261719 L 196.492188 157.8125 L 196.167969 158.203125 L 196.007812 158.398438 L 195.964844 158.445312 L 195.957031 158.457031 L 195.953125 158.457031 L 195.945312 158.46875 L 195.863281 158.5625 L 195.160156 159.320312 L 193.757812 160.824219 C 192.832031 161.863281 191.851562 162.753906 190.890625 163.699219 L 190.171875 164.402344 C 189.925781 164.636719 189.691406 164.871094 189.429688 165.089844 L 187.90625 166.429688 L 186.585938 167.585938 C 186.140625 167.964844 185.671875 168.3125 185.214844 168.675781 C 180.394531 172.515625 175.15625 175.796875 169.648438 178.554688 L 168.378906 179.203125 L 167.078125 179.792969 L 164.488281 180.96875 C 163.613281 181.328125 162.730469 181.675781 161.847656 182.027344 C 161.410156 182.203125 160.980469 182.390625 160.535156 182.558594 L 159.195312 183.023438 C 158.300781 183.328125 157.40625 183.660156 156.515625 183.953125 C 155.609375 184.222656 154.703125 184.492188 153.800781 184.769531 C 153.339844 184.898438 152.898438 185.050781 152.441406 185.160156 L 151.070312 185.507812 L 149.695312 185.847656 C 149.238281 185.953125 148.785156 186.089844 148.320312 186.171875 C 147.207031 186.398438 146.113281 186.640625 144.988281 186.851562 C 142.367188 187.289062 139.714844 187.601562 137.0625 187.789062 C 136.320312 187.722656 135.585938 187.65625 134.867188 187.578125 C 134.660156 187.558594 134.382812 187.53125 134.074219 187.507812 C 133.757812 187.492188 133.398438 187.46875 133.019531 187.421875 C 132.269531 187.339844 131.445312 187.257812 130.75 187.175781 C 130.320312 187.128906 129.878906 187.078125 129.441406 187.027344 C 129.007812 186.988281 128.574219 186.894531 128.140625 186.835938 C 127.265625 186.683594 126.390625 186.539062 125.503906 186.390625 L 124.851562 186.273438 L 124.195312 186.125 L 122.890625 185.824219 L 121.59375 185.523438 C 121.15625 185.40625 120.714844 185.324219 120.296875 185.1875 C 118.386719 184.613281 116.515625 184.113281 114.726562 183.460938 C 114.277344 183.316406 113.832031 183.164062 113.378906 183.015625 C 112.933594 182.867188 112.480469 182.726562 112.054688 182.554688 C 111.179688 182.226562 110.304688 181.90625 109.4375 181.597656 C 109.148438 181.484375 108.710938 181.347656 108.289062 181.148438 C 107.871094 180.960938 107.449219 180.765625 107.160156 180.632812 C 107.117188 180.609375 107.074219 180.585938 107.027344 180.566406 C 111.535156 181.4375 116.128906 181.949219 120.691406 182.085938 C 121.359375 182.105469 122.023438 182.117188 122.695312 182.132812 C 123.363281 182.148438 124.035156 182.175781 124.703125 182.148438 C 126.039062 182.117188 127.371094 182.101562 128.699219 182.054688 C 130.035156 181.960938 131.367188 181.867188 132.714844 181.769531 C 134.054688 181.632812 135.394531 181.4375 136.757812 181.257812 C 140.105469 180.707031 143.46875 180.050781 146.785156 179.148438 C 148.875 178.875 150.894531 178.378906 152.875 177.929688 C 153.15625 177.871094 153.425781 177.789062 153.71875 177.710938 C 153.988281 177.632812 154.277344 177.550781 154.558594 177.46875 C 155.125 177.308594 155.703125 177.148438 156.277344 176.984375 C 157.433594 176.691406 158.585938 176.292969 159.765625 175.953125 C 160.339844 175.785156 160.898438 175.621094 161.449219 175.460938 C 161.996094 175.285156 162.527344 175.082031 163.058594 174.894531 C 163.578125 174.707031 164.089844 174.515625 164.601562 174.328125 C 164.855469 174.230469 165.101562 174.136719 165.355469 174.046875 L 165.730469 173.902344 L 166.097656 173.746094 C 167.066406 173.316406 168.019531 172.894531 168.96875 172.46875 L 169.679688 172.148438 L 170.371094 171.792969 C 170.835938 171.554688 171.296875 171.316406 171.757812 171.074219 C 172.40625 170.726562 173.078125 170.402344 173.726562 170.035156 C 174.378906 169.660156 175.035156 169.28125 175.699219 168.902344 C 176.03125 168.710938 176.359375 168.523438 176.695312 168.328125 L 177.195312 168.042969 L 177.691406 167.734375 C 178.351562 167.320312 179.015625 166.90625 179.6875 166.484375 C 180.027344 166.277344 180.367188 166.066406 180.71875 165.855469 C 181.046875 165.632812 181.378906 165.40625 181.722656 165.179688 C 182.394531 164.726562 183.078125 164.273438 183.773438 163.808594 C 183.945312 163.695312 184.117188 163.582031 184.296875 163.46875 C 184.460938 163.34375 184.632812 163.21875 184.800781 163.097656 C 185.148438 162.855469 185.488281 162.609375 185.839844 162.359375 C 186.53125 161.859375 187.25 161.378906 187.945312 160.855469 C 189.039062 160.011719 190.160156 159.207031 191.246094 158.367188 C 192.304688 157.492188 193.363281 156.625 194.375 155.722656 C 197.617188 152.699219 200.609375 149.65625 203.425781 146.414062 C 204.105469 145.589844 204.792969 144.757812 205.480469 143.929688 C 205.828125 143.519531 206.132812 143.074219 206.457031 142.640625 C 206.78125 142.207031 207.105469 141.765625 207.425781 141.328125 C 207.730469 140.90625 208.050781 140.480469 208.34375 140.050781 C 206.757812 143.15625 205.007812 146.167969 203.074219 149.070312 Z M 217.148438 103.960938 C 217.140625 104.175781 217.128906 104.390625 217.121094 104.605469 C 217.019531 108.503906 216.652344 112.402344 216.019531 116.261719 C 215.789062 117.003906 215.527344 117.742188 215.292969 118.488281 L 214.855469 119.808594 C 214.714844 120.246094 214.53125 120.675781 214.363281 121.113281 C 214.039062 121.976562 213.699219 122.84375 213.371094 123.707031 C 213.074219 124.417969 212.746094 125.113281 212.441406 125.8125 C 212.128906 126.503906 211.839844 127.207031 211.523438 127.882812 C 211.195312 128.550781 210.882812 129.214844 210.589844 129.871094 C 210.4375 130.199219 210.296875 130.523438 210.15625 130.839844 C 210.089844 131.003906 210.023438 131.167969 209.953125 131.324219 C 209.882812 131.480469 209.808594 131.636719 209.738281 131.792969 C 209.433594 132.445312 208.980469 133.3125 208.480469 134.238281 C 208.351562 134.46875 208.222656 134.707031 208.105469 134.941406 C 207.972656 135.175781 207.816406 135.40625 207.675781 135.636719 C 207.402344 136.09375 207.121094 136.554688 206.851562 136.988281 C 205.304688 139.609375 203.09375 142.507812 201.761719 144.4375 C 201.527344 144.785156 201.3125 145.144531 201.042969 145.476562 C 200.78125 145.816406 200.511719 146.15625 200.257812 146.5 C 199.71875 147.175781 199.167969 147.875 198.597656 148.558594 C 197.996094 149.21875 197.390625 149.886719 196.789062 150.558594 L 195.863281 151.558594 L 194.898438 152.519531 L 193.183594 154.207031 C 192.609375 154.765625 191.996094 155.289062 191.402344 155.828125 L 190.507812 156.628906 C 190.203125 156.894531 189.90625 157.167969 189.589844 157.417969 C 188.957031 157.921875 188.324219 158.429688 187.699219 158.933594 L 186.742188 159.691406 C 186.414062 159.933594 186.078125 160.167969 185.753906 160.402344 C 185.089844 160.875 184.417969 161.34375 183.75 161.820312 C 183.417969 162.058594 183.070312 162.28125 182.71875 162.496094 C 182.363281 162.714844 182.019531 162.929688 181.664062 163.148438 C 181.597656 163.1875 181.53125 163.226562 181.46875 163.265625 C 202.066406 148.890625 215.863281 125.464844 217.070312 98.738281 C 217.085938 98.960938 217.09375 99.171875 217.109375 99.390625 C 217.144531 100.257812 217.128906 101.132812 217.136719 102.003906 C 217.140625 102.441406 217.140625 102.878906 217.144531 103.316406 C 217.144531 103.523438 217.15625 103.742188 217.148438 103.960938 Z M 172.230469 19.65625 C 173.519531 20.441406 174.71875 21.363281 175.957031 22.21875 C 176.261719 22.441406 176.574219 22.65625 176.875 22.871094 C 177.171875 23.097656 177.476562 23.328125 177.769531 23.554688 C 178.367188 24.003906 178.953125 24.453125 179.554688 24.886719 C 179.878906 25.132812 180.210938 25.363281 180.515625 25.621094 C 180.820312 25.878906 181.113281 26.128906 181.390625 26.367188 C 181.542969 26.5 181.695312 26.632812 181.832031 26.761719 C 181.773438 26.722656 181.710938 26.683594 181.65625 26.640625 C 181.265625 26.378906 180.882812 26.121094 180.511719 25.878906 C 173.488281 21.121094 165.695312 17.425781 157.363281 14.980469 C 156.765625 14.789062 156.171875 14.597656 155.570312 14.410156 C 154.984375 14.210938 154.382812 14.070312 153.789062 13.90625 C 153.65625 13.871094 153.519531 13.839844 153.386719 13.804688 C 157.972656 14.355469 162.53125 15.28125 166.890625 16.46875 C 168.710938 17.46875 170.484375 18.527344 172.230469 19.65625 Z M 172.230469 19.65625 " fill-opacity="1" fill-rule="nonzero"/></g><g clip-path="url(#291f819829)"><path fill="#2b946f" d="M 37.953125 109.761719 C 37.820312 108.9375 37.6875 108.121094 37.554688 107.304688 C 37.445312 106.484375 37.371094 105.660156 37.273438 104.839844 C 37.210938 104.265625 37.140625 103.671875 37.074219 103.089844 C 37.007812 102.507812 36.988281 101.933594 36.929688 101.398438 C 36.851562 100.566406 36.773438 99.714844 36.695312 98.867188 C 36.648438 98.441406 36.640625 98.015625 36.621094 97.585938 C 36.605469 97.15625 36.59375 96.730469 36.574219 96.304688 C 36.535156 95.457031 36.496094 94.625 36.457031 93.796875 C 36.457031 92.960938 36.453125 92.132812 36.4375 91.328125 C 36.363281 88.925781 36.398438 88.414062 36.09375 89.292969 C 36.015625 89.542969 35.953125 89.90625 35.875 90.269531 C 35.855469 90.921875 35.847656 91.578125 35.824219 92.179688 C 35.800781 92.78125 35.761719 93.378906 35.742188 93.988281 L 35.746094 95.792969 C 35.753906 96.394531 35.753906 96.996094 35.753906 97.605469 C 35.761719 97.910156 35.753906 98.214844 35.769531 98.515625 C 35.789062 98.820312 35.808594 99.125 35.828125 99.429688 C 36 102.53125 36.371094 105.6875 37 108.351562 C 37.210938 109.199219 37.421875 110.097656 37.636719 111.003906 C 37.695312 111.230469 37.738281 111.457031 37.804688 111.691406 L 37.996094 112.367188 C 38.128906 112.820312 38.261719 113.269531 38.386719 113.71875 C 38.449219 113.402344 38.449219 113.019531 38.367188 112.414062 C 38.28125 111.816406 38.148438 110.984375 37.953125 109.761719 Z M 37.953125 109.761719 " fill-opacity="1" fill-rule="nonzero"/></g><path fill="#2b946f" d="M 88.152344 177.707031 C 87.632812 177.386719 86.917969 176.929688 85.875 176.269531 C 85.171875 175.824219 84.46875 175.390625 83.769531 174.949219 C 83.085938 174.488281 82.414062 174.003906 81.730469 173.53125 C 81.253906 173.203125 80.773438 172.863281 80.285156 172.527344 C 79.804688 172.195312 79.355469 171.828125 78.917969 171.523438 C 78.242188 171.023438 77.546875 170.527344 76.859375 170.019531 C 76.511719 169.777344 76.179688 169.507812 75.851562 169.238281 C 75.519531 168.96875 75.1875 168.699219 74.855469 168.429688 C 74.199219 167.902344 73.542969 167.378906 72.898438 166.863281 C 72.269531 166.308594 71.640625 165.765625 71.027344 165.25 C 69.175781 163.714844 68.8125 163.355469 69.273438 164.160156 C 69.417969 164.378906 69.644531 164.671875 69.863281 164.972656 C 70.34375 165.417969 70.828125 165.855469 71.261719 166.273438 C 71.699219 166.6875 72.125 167.117188 72.570312 167.527344 L 73.933594 168.71875 C 74.382812 169.113281 74.839844 169.511719 75.296875 169.90625 C 75.53125 170.101562 75.75 170.308594 75.988281 170.5 C 76.230469 170.683594 76.476562 170.871094 76.714844 171.058594 C 79.164062 172.976562 81.773438 174.78125 84.195312 176.0625 C 84.960938 176.46875 85.78125 176.898438 86.605469 177.339844 C 86.816406 177.445312 87.019531 177.5625 87.230469 177.667969 L 87.867188 177.96875 C 88.300781 178.167969 88.71875 178.367188 89.144531 178.566406 C 88.945312 178.304688 88.660156 178.050781 88.152344 177.707031 Z M 88.152344 177.707031 " fill-opacity="1" fill-rule="nonzero"/><g fill="#ffffff" fill-opacity="1"><g transform="translate(61.251538, 104.349494)"><g><path d="M 5.90625 26.828125 C 5.65625 26.828125 5.359375 26.707031 5.015625 26.46875 C 4.460938 26.0625 4.207031 25.632812 4.25 25.1875 C 4.300781 24.738281 4.476562 24.21875 4.78125 23.625 C 4.9375 23.269531 5.035156 23.019531 5.078125 22.875 C 5.972656 20.382812 7.019531 18.03125 8.21875 15.8125 C 9.414062 13.59375 10.539062 11.632812 11.59375 9.9375 C 13.332031 7.050781 13.675781 3.488281 12.625 -0.75 C 11.726562 -4.1875 9.6875 -6.898438 6.5 -8.890625 C 6.351562 -8.941406 6.128906 -9.066406 5.828125 -9.265625 C 5.285156 -9.566406 4.847656 -9.84375 4.515625 -10.09375 C 4.191406 -10.34375 4.03125 -10.691406 4.03125 -11.140625 C 4.03125 -11.679688 4.21875 -12.039062 4.59375 -12.21875 C 4.96875 -12.394531 5.429688 -12.554688 5.984375 -12.703125 L 6.421875 -12.78125 C 11.804688 -14.226562 16.914062 -14.953125 21.75 -14.953125 C 22.050781 -14.953125 22.453125 -14.953125 22.953125 -14.953125 C 23.453125 -14.953125 23.703125 -14.953125 23.703125 -14.953125 C 25.785156 -14.953125 27.453125 -15.847656 28.703125 -17.640625 C 29.753906 -19.179688 30.789062 -20.722656 31.8125 -22.265625 C 32.832031 -23.816406 33.835938 -25.363281 34.828125 -26.90625 C 37.972656 -31.695312 41.1875 -36.492188 44.46875 -41.296875 C 47.757812 -46.109375 51.300781 -50.707031 55.09375 -55.09375 C 55.789062 -55.882812 56.507812 -56.640625 57.25 -57.359375 C 58 -58.085938 58.875 -58.648438 59.875 -59.046875 C 60.375 -59.296875 60.820312 -59.421875 61.21875 -59.421875 C 62.3125 -59.421875 63.132812 -58.625 63.6875 -57.03125 C 64.1875 -55.539062 64.382812 -54.132812 64.28125 -52.8125 C 64.1875 -51.488281 64.039062 -50.179688 63.84375 -48.890625 C 62.738281 -42.359375 61.25 -36.023438 59.375 -29.890625 C 57.507812 -23.765625 55.609375 -17.738281 53.671875 -11.8125 C 53.171875 -10.46875 52.707031 -9.132812 52.28125 -7.8125 C 51.863281 -6.488281 51.429688 -5.15625 50.984375 -3.8125 C 49.835938 -0.320312 48.648438 3.140625 47.421875 6.578125 C 46.203125 10.015625 44.972656 13.476562 43.734375 16.96875 C 43.679688 17.113281 43.601562 17.335938 43.5 17.640625 C 43.457031 17.941406 43.375 18.238281 43.25 18.53125 C 43.125 18.832031 42.9375 18.984375 42.6875 18.984375 C 42.488281 18.984375 42.238281 18.910156 41.9375 18.765625 C 41.6875 18.609375 41.507812 18.457031 41.40625 18.3125 C 41.3125 18.113281 41.3125 17.875 41.40625 17.59375 C 41.507812 17.320312 41.609375 17.085938 41.703125 16.890625 C 41.804688 16.546875 41.882812 16.296875 41.9375 16.140625 C 43.175781 10.960938 44.601562 5.832031 46.21875 0.75 C 47.84375 -4.332031 49.476562 -9.316406 51.125 -14.203125 C 52.269531 -17.492188 53.390625 -20.820312 54.484375 -24.1875 C 55.585938 -27.550781 56.632812 -30.925781 57.625 -34.3125 C 57.832031 -34.957031 58.144531 -36.023438 58.5625 -37.515625 C 58.988281 -39.015625 59.4375 -40.710938 59.90625 -42.609375 C 60.382812 -44.503906 60.796875 -46.394531 61.140625 -48.28125 C 61.492188 -50.175781 61.734375 -51.832031 61.859375 -53.25 C 61.984375 -54.675781 61.894531 -55.664062 61.59375 -56.21875 C 61.445312 -56.414062 61.273438 -56.5625 61.078125 -56.65625 L 61 -56.65625 L 60.625 -56.734375 C 60.375 -56.734375 60.148438 -56.671875 59.953125 -56.546875 C 59.753906 -56.421875 59.628906 -56.332031 59.578125 -56.28125 C 58.972656 -55.832031 58.4375 -55.332031 57.96875 -54.78125 C 57.5 -54.238281 57.035156 -53.691406 56.578125 -53.140625 C 56.335938 -52.847656 56.09375 -52.550781 55.84375 -52.25 C 55.59375 -51.945312 55.34375 -51.648438 55.09375 -51.359375 C 53.34375 -49.410156 51.570312 -47.316406 49.78125 -45.078125 C 48.039062 -42.785156 46.375 -40.476562 44.78125 -38.15625 C 43.1875 -35.84375 41.691406 -33.640625 40.296875 -31.546875 L 38.578125 -28.859375 C 37.128906 -26.660156 35.671875 -24.453125 34.203125 -22.234375 C 32.734375 -20.015625 31.222656 -17.835938 29.671875 -15.703125 L 29.375 -15.25 L 30.046875 -15.25 C 32.785156 -15.101562 35.335938 -14.914062 37.703125 -14.6875 C 40.078125 -14.46875 42.4375 -14.082031 44.78125 -13.53125 C 44.875 -13.476562 44.992188 -13.453125 45.140625 -13.453125 C 45.296875 -13.453125 45.421875 -13.453125 45.515625 -13.453125 C 45.765625 -13.398438 45.988281 -13.363281 46.1875 -13.34375 C 46.394531 -13.320312 46.570312 -13.234375 46.71875 -13.078125 C 46.863281 -12.984375 46.960938 -12.757812 47.015625 -12.40625 C 47.066406 -11.90625 46.816406 -11.65625 46.265625 -11.65625 C 46.117188 -11.65625 45.957031 -11.664062 45.78125 -11.6875 C 45.601562 -11.71875 45.414062 -11.757812 45.21875 -11.8125 L 44.921875 -11.890625 C 44.523438 -11.984375 44.101562 -12.066406 43.65625 -12.140625 C 43.207031 -12.222656 42.757812 -12.335938 42.3125 -12.484375 C 41.707031 -12.578125 41.09375 -12.695312 40.46875 -12.84375 C 39.851562 -13 39.242188 -13.101562 38.640625 -13.15625 C 37.148438 -13.40625 35.804688 -13.53125 34.609375 -13.53125 C 29.828125 -13.53125 26.4375 -11.535156 24.4375 -7.546875 C 23.59375 -5.859375 22.722656 -4.203125 21.828125 -2.578125 C 20.929688 -0.960938 20.007812 0.644531 19.0625 2.25 C 17.414062 5.082031 15.796875 7.992188 14.203125 10.984375 C 12.609375 13.972656 11.238281 17.113281 10.09375 20.40625 C 9.789062 21.207031 9.425781 21.96875 9 22.6875 C 8.582031 23.40625 8.148438 24.09375 7.703125 24.75 C 7.597656 24.894531 7.472656 25.117188 7.328125 25.421875 C 7.171875 25.765625 6.976562 26.082031 6.75 26.375 C 6.53125 26.675781 6.25 26.828125 5.90625 26.828125 Z M 24.96875 -13.234375 C 23.820312 -13.328125 22.703125 -13.375 21.609375 -13.375 C 19.160156 -13.375 16.835938 -13.1875 14.640625 -12.8125 C 12.453125 -12.445312 10.3125 -12.039062 8.21875 -11.59375 C 7.769531 -11.488281 7.46875 -11.359375 7.3125 -11.203125 C 7.164062 -11.054688 7.09375 -10.910156 7.09375 -10.765625 C 7.09375 -10.617188 7.15625 -10.421875 7.28125 -10.171875 C 7.40625 -9.921875 7.691406 -9.617188 8.140625 -9.265625 C 11.984375 -6.273438 14.203125 -2.164062 14.796875 3.0625 L 14.875 4.03125 L 25.5625 -13.15625 Z M 24.96875 -13.234375 "/></g></g></g><g fill="#ffffff" fill-opacity="1"><g transform="translate(120.670819, 104.349494)"><g><path d="M 57.265625 -69.4375 C 58.253906 -70.632812 58.847656 -70.757812 59.046875 -69.8125 C 59.203125 -69.21875 59.191406 -68.359375 59.015625 -67.234375 C 58.835938 -66.117188 58.675781 -65.3125 58.53125 -64.8125 C 57.925781 -63.019531 57.023438 -60.675781 55.828125 -57.78125 C 54.640625 -54.894531 53.269531 -51.691406 51.71875 -48.171875 C 50.175781 -44.660156 48.554688 -41.035156 46.859375 -37.296875 C 45.171875 -33.554688 43.515625 -29.941406 41.890625 -26.453125 C 40.273438 -22.972656 38.796875 -19.820312 37.453125 -17 C 36.109375 -14.1875 35.007812 -11.929688 34.15625 -10.234375 L 33.9375 -9.859375 C 33.738281 -9.515625 33.5625 -9.179688 33.40625 -8.859375 C 33.257812 -8.535156 33.0625 -8.148438 32.8125 -7.703125 L 31.6875 -5.453125 L 32.4375 -5.75 C 35.875 -6.800781 39.363281 -7.820312 42.90625 -8.8125 C 46.445312 -9.8125 50.0625 -10.585938 53.75 -11.140625 C 54.445312 -11.234375 54.929688 -11.492188 55.203125 -11.921875 C 55.472656 -12.347656 55.707031 -12.8125 55.90625 -13.3125 C 55.957031 -13.40625 55.992188 -13.515625 56.015625 -13.640625 C 56.046875 -13.765625 56.085938 -13.878906 56.140625 -13.984375 C 58.929688 -20.054688 61.734375 -25.5 64.546875 -30.3125 C 67.359375 -35.125 70.335938 -39.5 73.484375 -43.4375 C 73.628906 -43.632812 73.828125 -43.957031 74.078125 -44.40625 C 74.421875 -44.851562 74.789062 -45.3125 75.1875 -45.78125 C 75.59375 -46.257812 75.992188 -46.5 76.390625 -46.5 C 76.640625 -46.5 76.863281 -46.421875 77.0625 -46.265625 C 77.414062 -45.972656 77.617188 -45.703125 77.671875 -45.453125 C 77.765625 -45.046875 77.675781 -44.644531 77.40625 -44.25 C 77.132812 -43.851562 76.820312 -43.476562 76.46875 -43.125 C 76.320312 -42.925781 76.171875 -42.738281 76.015625 -42.5625 C 75.867188 -42.394531 75.742188 -42.234375 75.640625 -42.078125 L 74.234375 -39.765625 C 71.890625 -35.878906 69.554688 -31.929688 67.234375 -27.921875 C 64.921875 -23.910156 62.789062 -19.8125 60.84375 -15.625 C 60.75 -15.476562 60.625 -15.28125 60.46875 -15.03125 C 60.269531 -14.675781 60.09375 -14.300781 59.9375 -13.90625 C 59.789062 -13.507812 59.820312 -12.984375 60.03125 -12.328125 L 60.546875 -12.328125 C 60.648438 -12.378906 61.050781 -12.414062 61.75 -12.4375 C 62.445312 -12.46875 63.226562 -12.503906 64.09375 -12.546875 C 64.96875 -12.597656 65.789062 -12.632812 66.5625 -12.65625 C 67.332031 -12.6875 67.867188 -12.703125 68.171875 -12.703125 C 68.421875 -12.703125 68.679688 -12.710938 68.953125 -12.734375 C 69.234375 -12.765625 69.492188 -12.78125 69.734375 -12.78125 C 70.085938 -12.78125 70.4375 -12.78125 70.78125 -12.78125 C 71.132812 -12.78125 71.484375 -12.78125 71.828125 -12.78125 C 72.429688 -12.78125 72.957031 -12.78125 73.40625 -12.78125 L 73.859375 -12.703125 C 74.203125 -12.703125 74.5625 -12.6875 74.9375 -12.65625 C 75.3125 -12.632812 75.625 -12.550781 75.875 -12.40625 C 76.125 -12.3125 76.25 -12.210938 76.25 -12.109375 C 76.25 -11.910156 76.070312 -11.710938 75.71875 -11.515625 C 75.375 -11.316406 75.078125 -11.191406 74.828125 -11.140625 C 74.222656 -11.035156 73.609375 -10.957031 72.984375 -10.90625 C 72.367188 -10.863281 71.757812 -10.84375 71.15625 -10.84375 L 69.4375 -10.84375 C 68.988281 -10.84375 68.566406 -10.84375 68.171875 -10.84375 C 67.023438 -10.789062 65.84375 -10.726562 64.625 -10.65625 C 63.40625 -10.582031 62.195312 -10.46875 61 -10.3125 C 59.101562 -10.007812 57.78125 -9.0625 57.03125 -7.46875 C 55.539062 -4.082031 54.160156 -0.632812 52.890625 2.875 C 51.617188 6.382812 50.382812 9.863281 49.1875 13.3125 C 48.382812 15.601562 47.5625 17.914062 46.71875 20.25 C 45.875 22.59375 45.003906 24.910156 44.109375 27.203125 C 43.898438 27.703125 43.671875 28.1875 43.421875 28.65625 C 43.179688 29.132812 42.8125 29.5 42.3125 29.75 C 42.15625 29.800781 42.03125 29.828125 41.9375 29.828125 C 41.832031 29.722656 41.753906 29.421875 41.703125 28.921875 C 41.660156 28.429688 41.8125 27.410156 42.15625 25.859375 L 42.234375 25.5625 C 42.578125 23.96875 42.960938 22.382812 43.390625 20.8125 C 43.816406 19.25 44.253906 17.691406 44.703125 16.140625 L 45.59375 13.15625 C 46.238281 11.113281 46.945312 9.054688 47.71875 6.984375 C 48.5 4.921875 49.285156 2.867188 50.078125 0.828125 L 51.578125 -3.0625 C 51.722656 -3.507812 51.894531 -3.984375 52.09375 -4.484375 C 52.300781 -4.984375 52.476562 -5.484375 52.625 -5.984375 C 52.675781 -6.078125 52.75 -6.273438 52.84375 -6.578125 C 52.894531 -6.878906 52.992188 -7.273438 53.140625 -7.765625 C 53.296875 -8.265625 53.421875 -8.539062 53.515625 -8.59375 L 53.21875 -9.1875 C 49.132812 -8.488281 45.320312 -7.628906 41.78125 -6.609375 C 38.25 -5.585938 35.007812 -4.554688 32.0625 -3.515625 C 30.71875 -3.066406 29.671875 -2.21875 28.921875 -0.96875 C 28.328125 0.0703125 27.726562 1.101562 27.125 2.125 C 26.53125 3.144531 25.9375 4.179688 25.34375 5.234375 C 24 7.421875 22.664062 9.660156 21.34375 11.953125 C 20.019531 14.253906 18.734375 16.550781 17.484375 18.84375 C 16.992188 19.738281 16.597656 20.671875 16.296875 21.640625 C 15.992188 22.609375 15.71875 23.566406 15.46875 24.515625 C 15.320312 25.066406 15.171875 25.585938 15.015625 26.078125 C 14.867188 26.578125 14.695312 27.101562 14.5 27.65625 C 14.15625 28.707031 13.707031 29.582031 13.15625 30.28125 L 12.9375 30.640625 C 12.6875 30.992188 12.398438 31.34375 12.078125 31.6875 C 11.753906 32.039062 11.390625 32.21875 10.984375 32.21875 C 10.585938 32.21875 10.191406 32.066406 9.796875 31.765625 C 9.046875 31.316406 8.679688 30.832031 8.703125 30.3125 C 8.734375 29.789062 8.894531 29.179688 9.1875 28.484375 L 9.34375 28.109375 C 10.539062 24.867188 11.8125 21.851562 13.15625 19.0625 C 14.195312 16.96875 14.269531 15.148438 13.375 13.609375 C 12.53125 12.054688 10.765625 10.882812 8.078125 10.09375 C 7.878906 9.988281 7.65625 9.921875 7.40625 9.890625 C 7.15625 9.867188 6.929688 9.859375 6.734375 9.859375 C 6.078125 9.816406 5.535156 9.71875 5.109375 9.5625 C 4.691406 9.414062 4.382812 9.019531 4.1875 8.375 C 3.9375 7.625 4 7.097656 4.375 6.796875 C 4.75 6.503906 5.207031 6.234375 5.75 5.984375 C 5.90625 5.929688 6.054688 5.867188 6.203125 5.796875 C 6.347656 5.722656 6.5 5.660156 6.65625 5.609375 C 9.394531 3.960938 12.171875 2.515625 14.984375 1.265625 C 17.796875 0.0234375 20.472656 -1.09375 23.015625 -2.09375 C 23.710938 -2.394531 24.382812 -2.726562 25.03125 -3.09375 C 25.6875 -3.46875 26.210938 -4.003906 26.609375 -4.703125 L 28.1875 -7.546875 C 28.832031 -8.742188 29.726562 -10.523438 30.875 -12.890625 C 32.019531 -15.253906 33.289062 -17.957031 34.6875 -21 C 36.082031 -24.039062 37.523438 -27.207031 39.015625 -30.5 C 40.515625 -33.789062 41.945312 -36.953125 43.3125 -39.984375 C 44.6875 -43.023438 45.929688 -45.742188 47.046875 -48.140625 C 48.171875 -50.535156 49.035156 -52.351562 49.640625 -53.59375 C 50.535156 -55.382812 51.394531 -57.191406 52.21875 -59.015625 C 53.039062 -60.835938 53.875 -62.671875 54.71875 -64.515625 C 55.113281 -65.304688 55.5 -66.148438 55.875 -67.046875 C 56.25 -67.941406 56.710938 -68.738281 57.265625 -69.4375 Z M 23.328125 0.96875 L 22.578125 1.125 C 19.878906 1.71875 17.332031 2.5625 14.9375 3.65625 C 12.550781 4.757812 9.9375 6.132812 7.09375 7.78125 L 6.5 8.078125 L 7.25 8.296875 C 9.039062 8.742188 10.570312 9.40625 11.84375 10.28125 C 13.113281 11.15625 14.300781 12.410156 15.40625 14.046875 L 15.703125 14.5 Z M 23.328125 0.96875 "/></g></g></g></svg>