<svg xmlns="http://www.w3.org/2000/svg" xmlns:xlink="http://www.w3.org/1999/xlink" width="200" zoomAndPan="magnify" viewBox="0 0 150 149.999998" height="200" preserveAspectRatio="xMidYMid meet" version="1.0"><defs><g/><clipPath id="9cbc0b085f"><path d="M 6 3.820312 L 148.441406 3.820312 L 148.441406 146.359375 L 6 146.359375 Z M 6 3.820312 " clip-rule="nonzero"/></clipPath><clipPath id="b12ac818f8"><path d="M 1.414062 70 L 4 70 L 4 90 L 1.414062 90 Z M 1.414062 70 " clip-rule="nonzero"/></clipPath></defs><g clip-path="url(#9cbc0b085f)"><path fill="#954386" d="M 148.046875 69.980469 C 147.566406 66.097656 146.695312 62.6875 145.574219 59.34375 C 145.339844 58.710938 145.113281 58.082031 144.878906 57.449219 C 144.765625 57.136719 144.644531 56.816406 144.527344 56.496094 C 144.398438 56.179688 144.265625 55.859375 144.125 55.53125 C 143.957031 55.097656 143.777344 54.667969 143.605469 54.238281 L 143.347656 53.589844 C 143.257812 53.371094 143.15625 53.164062 143.058594 52.953125 C 142.664062 52.105469 142.285156 51.253906 141.882812 50.410156 C 141.453125 49.582031 141.023438 48.75 140.59375 47.917969 C 140.492188 47.710938 140.375 47.503906 140.257812 47.304688 L 139.90625 46.699219 L 139.199219 45.480469 C 139.09375 45.289062 138.984375 45.101562 138.871094 44.914062 C 138.871094 44.90625 138.867188 44.898438 138.859375 44.894531 C 138.847656 44.871094 138.839844 44.851562 138.828125 44.832031 C 138.425781 43.972656 138.03125 43.105469 137.621094 42.25 C 137.179688 41.410156 136.734375 40.566406 136.296875 39.722656 C 136.191406 39.507812 136.074219 39.300781 135.949219 39.097656 L 135.589844 38.480469 L 134.875 37.246094 C 134.765625 37.054688 134.65625 36.863281 134.542969 36.671875 C 134.429688 36.480469 134.304688 36.296875 134.1875 36.113281 C 133.949219 35.746094 133.710938 35.382812 133.472656 35.019531 C 133.238281 34.660156 133 34.300781 132.765625 33.945312 C 132.523438 33.597656 132.261719 33.261719 132.015625 32.917969 C 131.761719 32.582031 131.515625 32.246094 131.261719 31.914062 C 131.011719 31.582031 130.78125 31.242188 130.507812 30.929688 C 129.972656 30.292969 129.449219 29.667969 128.929688 29.046875 C 128.675781 28.730469 128.394531 28.433594 128.121094 28.140625 C 127.847656 27.84375 127.574219 27.550781 127.300781 27.253906 L 126.476562 26.375 C 126.199219 26.089844 125.902344 25.8125 125.617188 25.53125 C 125.042969 24.976562 124.476562 24.40625 123.886719 23.863281 C 123.289062 23.332031 122.683594 22.796875 122.078125 22.257812 C 121.941406 22.132812 121.800781 22.003906 121.65625 21.878906 C 121.507812 21.753906 121.359375 21.628906 121.207031 21.507812 C 120.910156 21.257812 120.605469 21.003906 120.304688 20.746094 C 119.996094 20.488281 119.6875 20.230469 119.378906 19.96875 L 119.144531 19.769531 L 118.902344 19.585938 C 118.746094 19.457031 118.578125 19.335938 118.421875 19.207031 C 117.765625 18.703125 117.117188 18.183594 116.460938 17.683594 C 115.785156 17.210938 115.109375 16.734375 114.449219 16.269531 C 113.992188 15.875 113.488281 15.515625 112.976562 15.140625 C 112.457031 14.769531 111.929688 14.394531 111.394531 14.007812 C 110.847656 13.644531 110.273438 13.292969 109.699219 12.929688 C 109.128906 12.574219 108.554688 12.1875 107.945312 11.867188 C 107.339844 11.527344 106.738281 11.191406 106.125 10.855469 L 105.667969 10.601562 C 105.511719 10.523438 105.351562 10.445312 105.203125 10.367188 L 104.261719 9.902344 C 103.949219 9.75 103.640625 9.597656 103.320312 9.441406 C 103.007812 9.292969 102.707031 9.125 102.386719 8.996094 C 101.753906 8.714844 101.121094 8.441406 100.5 8.171875 C 100.171875 8.027344 99.839844 7.875 99.5 7.738281 C 99.164062 7.609375 98.820312 7.480469 98.46875 7.347656 C 97.78125 7.09375 97.085938 6.835938 96.378906 6.585938 C 95.664062 6.371094 94.945312 6.15625 94.226562 5.9375 C 93.863281 5.832031 93.5 5.722656 93.132812 5.621094 C 92.773438 5.535156 92.398438 5.449219 92.03125 5.363281 C 91.292969 5.195312 90.550781 5.023438 89.8125 4.867188 C 89.0625 4.746094 88.308594 4.625 87.5625 4.507812 C 87.1875 4.449219 86.8125 4.390625 86.4375 4.34375 C 86.0625 4.308594 85.683594 4.277344 85.304688 4.242188 C 84.5625 4.175781 83.808594 4.121094 83.066406 4.066406 C 82.246094 4.050781 81.398438 4.019531 80.535156 3.976562 C 80.3125 3.964844 80.097656 3.953125 79.882812 3.941406 L 79.554688 3.921875 L 79.238281 3.917969 C 78.816406 3.910156 78.390625 3.902344 77.964844 3.894531 C 77.535156 3.886719 77.105469 3.871094 76.679688 3.859375 L 76.359375 3.847656 L 76.199219 3.84375 L 76.164062 3.839844 L 75.992188 3.839844 L 75.328125 3.851562 C 74.449219 3.859375 73.574219 3.859375 72.71875 3.855469 C 71.972656 3.875 71.253906 3.925781 70.542969 3.972656 C 69.832031 4.023438 69.132812 4.054688 68.441406 4.164062 C 67.066406 4.355469 65.710938 4.519531 64.367188 4.832031 C 63.957031 4.921875 63.542969 5.007812 63.132812 5.09375 C 62.722656 5.179688 62.316406 5.261719 61.914062 5.378906 C 61.105469 5.59375 60.304688 5.808594 59.507812 6.023438 C 59.101562 6.121094 58.710938 6.257812 58.3125 6.382812 L 57.140625 6.761719 L 55.960938 7.144531 C 55.574219 7.292969 55.1875 7.4375 54.792969 7.582031 C 52.691406 8.339844 50.613281 9.230469 48.523438 10.226562 C 48.355469 10.273438 48.195312 10.320312 48.03125 10.367188 C 47.835938 10.414062 47.648438 10.46875 47.46875 10.53125 C 46.546875 10.820312 45.714844 11.101562 44.902344 11.382812 C 44.699219 11.453125 44.5 11.53125 44.308594 11.613281 C 44.113281 11.691406 43.914062 11.773438 43.722656 11.855469 C 43.339844 12.019531 42.945312 12.183594 42.550781 12.347656 L 41.71875 12.699219 C 41.441406 12.820312 41.171875 12.957031 40.90625 13.082031 C 40.355469 13.335938 39.808594 13.589844 39.257812 13.851562 C 38.703125 14.09375 38.164062 14.386719 37.613281 14.664062 C 37.054688 14.945312 36.496094 15.226562 35.929688 15.511719 C 32.363281 17.375 28.914062 19.617188 25.953125 22.203125 C 25.753906 22.371094 25.515625 22.566406 25.285156 22.742188 C 24.707031 23.234375 24.132812 23.738281 23.558594 24.230469 C 23.269531 24.480469 22.976562 24.726562 22.699219 24.984375 L 21.878906 25.769531 C 21.609375 26.03125 21.335938 26.296875 21.0625 26.558594 C 20.792969 26.820312 20.515625 27.074219 20.269531 27.355469 C 19.753906 27.90625 19.25 28.457031 18.75 29.011719 C 18.578125 29.207031 18.390625 29.390625 18.226562 29.59375 C 18.058594 29.792969 17.890625 29.996094 17.722656 30.199219 C 17.375 30.609375 17.035156 31.015625 16.699219 31.417969 C 16.261719 31.925781 15.871094 32.476562 15.464844 33.007812 C 15.066406 33.546875 14.648438 34.074219 14.253906 34.625 C 13.867188 35.179688 13.472656 35.734375 13.078125 36.300781 C 12.882812 36.585938 12.675781 36.867188 12.476562 37.152344 C 12.28125 37.449219 12.089844 37.746094 11.898438 38.042969 C 10.808594 39.65625 9.894531 41.300781 9.074219 43.003906 C 8.734375 43.773438 8.304688 44.644531 7.867188 45.558594 C 7.460938 46.488281 7.042969 47.457031 6.644531 48.367188 C 6.828125 48.367188 7.199219 47.699219 7.855469 46.273438 C 8.128906 45.613281 8.476562 44.984375 8.796875 44.347656 L 9.289062 43.390625 C 9.449219 43.070312 9.605469 42.75 9.789062 42.441406 C 10.507812 41.203125 11.195312 39.945312 11.992188 38.753906 L 12.625 37.769531 C 12.734375 37.605469 12.832031 37.4375 12.941406 37.277344 L 13.28125 36.800781 C 13.734375 36.167969 14.183594 35.53125 14.632812 34.898438 C 15.101562 34.277344 15.59375 33.675781 16.078125 33.070312 C 16.328125 32.765625 16.558594 32.457031 16.816406 32.164062 L 17.59375 31.296875 C 18.1875 30.660156 18.785156 29.945312 19.449219 29.285156 C 19.773438 28.945312 20.089844 28.609375 20.40625 28.277344 C 20.726562 27.941406 21.027344 27.609375 21.339844 27.308594 C 21.78125 26.871094 22.234375 26.429688 22.6875 25.984375 C 22.914062 25.769531 23.132812 25.542969 23.367188 25.328125 L 24.078125 24.707031 C 24.550781 24.292969 25.023438 23.875 25.5 23.464844 C 25.980469 23.054688 26.480469 22.675781 26.964844 22.277344 C 27.304688 22.003906 27.652344 21.726562 28 21.449219 C 28.355469 21.179688 28.71875 20.925781 29.074219 20.664062 C 29.429688 20.402344 29.78125 20.144531 30.132812 19.890625 C 30.304688 19.765625 30.476562 19.636719 30.644531 19.511719 C 30.816406 19.390625 30.992188 19.277344 31.15625 19.160156 C 31.820312 18.707031 32.480469 18.261719 33.148438 17.820312 C 33.828125 17.394531 34.527344 17.003906 35.21875 16.601562 C 35.566406 16.40625 35.90625 16.191406 36.261719 16.011719 C 36.617188 15.832031 36.980469 15.652344 37.335938 15.46875 C 37.695312 15.285156 38.054688 15.105469 38.417969 14.925781 L 38.960938 14.652344 L 39.519531 14.40625 C 40.304688 14.058594 40.941406 13.804688 41.550781 13.5625 C 41.859375 13.4375 42.167969 13.339844 42.488281 13.230469 C 42.722656 13.148438 42.96875 13.0625 43.222656 12.972656 L 41.113281 14.222656 C 39.710938 15.152344 38.292969 16.050781 36.957031 17.070312 C 36.636719 17.304688 36.308594 17.542969 35.980469 17.785156 L 35.738281 17.964844 L 35.503906 18.15625 C 35.34375 18.28125 35.191406 18.410156 35.035156 18.539062 C 34.414062 19.046875 33.820312 19.542969 33.316406 19.988281 C 32.585938 20.6875 31.9375 21.351562 31.292969 22.003906 C 30.964844 22.320312 30.671875 22.675781 30.359375 23.015625 C 30.054688 23.359375 29.738281 23.707031 29.410156 24.0625 C 29.238281 24.253906 29.042969 24.464844 28.84375 24.683594 C 28.652344 24.910156 28.449219 25.140625 28.253906 25.375 C 27.855469 25.839844 27.457031 26.28125 27.121094 26.617188 C 24.042969 29.757812 21.398438 33.257812 19.136719 37.054688 C 19.074219 37.152344 19.007812 37.257812 18.941406 37.363281 C 18.878906 37.46875 18.820312 37.582031 18.761719 37.691406 C 18.625 37.910156 18.5 38.136719 18.367188 38.359375 C 18.109375 38.796875 17.855469 39.214844 17.628906 39.558594 C 15.800781 42.484375 14.542969 45.613281 13.410156 48.78125 C 13.304688 48.980469 13.199219 49.179688 13.09375 49.378906 C 12.902344 49.757812 12.738281 50.152344 12.554688 50.535156 C 12.378906 50.917969 12.199219 51.296875 12.023438 51.667969 C 11.941406 51.851562 11.851562 52.035156 11.765625 52.21875 C 11.671875 52.398438 11.589844 52.574219 11.515625 52.75 C 11.125 53.628906 10.789062 54.445312 10.472656 55.242188 C 10.390625 55.4375 10.316406 55.636719 10.25 55.835938 C 10.179688 56.039062 10.109375 56.242188 10.042969 56.441406 C 9.910156 56.839844 9.777344 57.238281 9.640625 57.648438 L 9.359375 58.507812 C 9.265625 58.792969 9.191406 59.082031 9.105469 59.375 C 8.941406 59.953125 8.769531 60.53125 8.597656 61.113281 C 8.417969 61.695312 8.277344 62.292969 8.125 62.886719 C 7.96875 63.488281 7.808594 64.097656 7.648438 64.714844 C 6.695312 68.621094 6.105469 72.695312 6.089844 76.621094 C 6.089844 76.878906 6.078125 77.195312 6.066406 77.480469 C 6.050781 78.242188 6.050781 79 6.042969 79.761719 C 6.042969 80.140625 6.027344 80.523438 6.039062 80.90625 C 6.054688 81.285156 6.070312 81.660156 6.089844 82.039062 C 6.105469 82.417969 6.121094 82.792969 6.136719 83.171875 C 6.160156 83.546875 6.167969 83.921875 6.210938 84.296875 C 6.292969 85.042969 6.367188 85.789062 6.457031 86.527344 C 6.488281 86.785156 6.507812 87.042969 6.546875 87.300781 C 6.589844 87.5625 6.628906 87.824219 6.667969 88.085938 C 6.75 88.609375 6.832031 89.132812 6.914062 89.652344 C 7.003906 90.316406 7.160156 90.96875 7.292969 91.628906 C 7.433594 92.285156 7.554688 92.941406 7.703125 93.605469 C 7.867188 94.261719 8.03125 94.925781 8.191406 95.59375 C 8.273438 95.929688 8.34375 96.269531 8.441406 96.605469 C 8.53125 96.945312 8.621094 97.285156 8.722656 97.625 C 9.214844 99.503906 9.847656 101.28125 10.582031 103.023438 C 10.933594 103.785156 11.308594 104.6875 11.703125 105.621094 C 12.136719 106.535156 12.582031 107.488281 13.007812 108.390625 C 13.125 108.253906 12.878906 107.535156 12.230469 106.101562 C 11.921875 105.457031 11.675781 104.785156 11.410156 104.121094 L 11.015625 103.121094 C 10.886719 102.789062 10.742188 102.460938 10.636719 102.117188 C 10.179688 100.761719 9.6875 99.414062 9.316406 98.03125 L 9 96.902344 C 8.941406 96.714844 8.882812 96.53125 8.835938 96.34375 L 8.703125 95.769531 C 8.523438 95.015625 8.34375 94.257812 8.164062 93.5 C 8.007812 92.738281 7.882812 91.96875 7.742188 91.207031 C 7.675781 90.820312 7.605469 90.441406 7.554688 90.054688 L 7.417969 88.898438 C 7.332031 88.035156 7.1875 87.109375 7.128906 86.179688 C 7.089844 85.710938 7.042969 85.246094 7.007812 84.789062 C 6.960938 84.332031 6.914062 83.886719 6.894531 83.457031 C 6.859375 82.828125 6.820312 82.199219 6.785156 81.570312 C 6.773438 81.253906 6.746094 80.941406 6.746094 80.625 L 6.746094 79.679688 C 6.746094 79.050781 6.746094 78.421875 6.746094 77.789062 C 6.757812 77.160156 6.804688 76.535156 6.824219 75.910156 C 6.847656 75.472656 6.867188 75.027344 6.886719 74.585938 C 6.914062 74.144531 6.964844 73.699219 7.003906 73.257812 C 7.042969 72.820312 7.082031 72.386719 7.117188 71.957031 C 7.136719 71.742188 7.152344 71.53125 7.175781 71.320312 C 7.199219 71.109375 7.222656 70.90625 7.246094 70.703125 C 7.34375 69.90625 7.449219 69.113281 7.558594 68.324219 C 7.679688 67.535156 7.855469 66.753906 8.003906 65.96875 C 8.085938 65.578125 8.152344 65.183594 8.25 64.792969 C 8.351562 64.40625 8.453125 64.019531 8.550781 63.625 C 8.652344 63.234375 8.757812 62.84375 8.859375 62.453125 L 9.015625 61.863281 L 9.199219 61.28125 C 9.457031 60.464844 9.6875 59.816406 9.910156 59.199219 C 10.015625 58.886719 10.144531 58.589844 10.273438 58.28125 C 10.402344 57.972656 10.535156 57.652344 10.667969 57.304688 L 11.160156 56.015625 C 11.328125 55.585938 11.519531 55.167969 11.699219 54.746094 L 12.242188 53.476562 L 12.300781 53.308594 C 12.164062 54.152344 12.042969 54.96875 11.953125 55.726562 C 11.9375 55.914062 11.996094 55.890625 12.074219 55.773438 C 12.117188 55.710938 12.164062 55.628906 12.214844 55.535156 C 12.269531 55.441406 12.320312 55.335938 12.375 55.234375 C 12.570312 54.835938 12.777344 54.363281 12.988281 53.835938 C 13.09375 53.570312 13.203125 53.289062 13.3125 52.996094 C 13.367188 52.851562 13.417969 52.699219 13.472656 52.542969 C 13.535156 52.394531 13.597656 52.238281 13.65625 52.078125 C 13.917969 51.445312 14.179688 50.753906 14.445312 50.015625 C 14.511719 49.832031 14.574219 49.644531 14.648438 49.453125 C 14.726562 49.265625 14.804688 49.074219 14.882812 48.882812 C 15.035156 48.496094 15.195312 48.09375 15.359375 47.6875 C 15.734375 46.742188 16.140625 45.800781 16.566406 44.871094 C 17.589844 43.105469 18.683594 41.375 19.8125 39.800781 C 20.074219 39.417969 20.347656 39.023438 20.621094 38.632812 C 20.898438 38.25 21.1875 37.875 21.449219 37.515625 C 21.984375 36.792969 22.417969 36.140625 22.710938 35.648438 C 22.234375 36.121094 21.78125 36.605469 21.300781 37.117188 C 21.0625 37.378906 20.824219 37.640625 20.582031 37.902344 C 20.460938 38.039062 20.335938 38.167969 20.21875 38.308594 C 20.105469 38.453125 19.988281 38.597656 19.871094 38.738281 C 19.734375 38.910156 19.597656 39.089844 19.453125 39.265625 C 19.90625 38.476562 20.367188 37.691406 20.839844 36.925781 C 21.164062 36.402344 21.492188 35.882812 21.8125 35.363281 C 22.160156 34.859375 22.503906 34.355469 22.84375 33.855469 C 23.507812 32.839844 24.238281 31.898438 24.910156 30.964844 C 26.28125 29.113281 27.621094 27.441406 28.71875 26.007812 C 29.019531 25.710938 29.273438 25.4375 29.519531 25.214844 C 29.761719 24.992188 29.976562 24.796875 30.167969 24.625 C 30.546875 24.28125 30.824219 24.027344 31.0625 23.828125 C 31.296875 23.625 31.492188 23.46875 31.695312 23.316406 C 31.898438 23.164062 32.121094 23.027344 32.410156 22.847656 C 32.863281 22.558594 33.292969 22.265625 33.792969 21.878906 C 33.914062 21.785156 34.042969 21.675781 34.175781 21.570312 C 34.304688 21.460938 34.449219 21.34375 34.597656 21.230469 C 34.902344 20.996094 35.234375 20.726562 35.601562 20.414062 C 35.945312 20.128906 36.3125 19.832031 36.699219 19.53125 C 37.085938 19.234375 37.503906 18.957031 37.890625 18.671875 L 38.851562 17.988281 L 39.335938 17.644531 C 39.496094 17.527344 39.664062 17.425781 39.828125 17.320312 L 41.820312 16.035156 C 41.980469 15.925781 42.148438 15.824219 42.324219 15.730469 L 42.835938 15.4375 L 43.859375 14.847656 C 44.203125 14.65625 44.539062 14.457031 44.886719 14.269531 C 45.234375 14.089844 45.582031 13.917969 45.933594 13.742188 C 46.320312 13.550781 46.699219 13.359375 47.082031 13.167969 L 47.660156 12.882812 L 48.242188 12.621094 C 49.03125 12.28125 49.816406 11.941406 50.597656 11.597656 C 51.394531 11.300781 52.1875 11.011719 52.96875 10.71875 C 53.160156 10.648438 53.351562 10.578125 53.550781 10.507812 C 53.742188 10.445312 53.941406 10.386719 54.136719 10.324219 C 54.523438 10.207031 54.914062 10.089844 55.292969 9.972656 C 55.808594 9.824219 56.296875 9.664062 56.792969 9.53125 C 57.285156 9.402344 57.765625 9.277344 58.242188 9.144531 C 58.714844 9.015625 59.183594 8.882812 59.652344 8.742188 C 60.011719 8.648438 60.367188 8.554688 60.726562 8.457031 C 61.378906 8.371094 62.027344 8.289062 62.660156 8.230469 C 63.121094 8.171875 63.601562 8.117188 64.070312 8.0625 C 64.542969 8.027344 65.011719 7.988281 65.460938 7.949219 C 66.355469 7.875 67.128906 7.773438 67.691406 7.664062 C 67.023438 7.617188 66.363281 7.597656 65.652344 7.574219 C 65.304688 7.570312 64.953125 7.5625 64.589844 7.554688 C 64.570312 7.554688 64.550781 7.554688 64.527344 7.550781 C 64.738281 7.507812 64.949219 7.46875 65.160156 7.421875 C 65.507812 7.351562 65.855469 7.277344 66.203125 7.214844 C 66.550781 7.15625 66.902344 7.101562 67.25 7.046875 C 67.945312 6.933594 68.640625 6.816406 69.324219 6.691406 C 70.148438 6.585938 71.03125 6.484375 71.941406 6.382812 C 72.171875 6.359375 72.394531 6.335938 72.628906 6.308594 C 72.863281 6.292969 73.097656 6.285156 73.332031 6.273438 C 73.800781 6.25 74.28125 6.226562 74.765625 6.207031 C 75.242188 6.191406 75.734375 6.15625 76.214844 6.15625 C 76.707031 6.15625 77.195312 6.160156 77.6875 6.167969 C 78.179688 6.171875 78.667969 6.179688 79.15625 6.183594 C 79.398438 6.183594 79.644531 6.195312 79.882812 6.210938 C 80.125 6.226562 80.363281 6.238281 80.605469 6.253906 C 85.484375 6.5 90.453125 7.417969 95.101562 8.652344 C 97.058594 9.179688 99.082031 9.84375 100.894531 10.492188 C 101.300781 10.636719 101.71875 10.761719 102.113281 10.917969 C 102.507812 11.074219 102.902344 11.234375 103.300781 11.390625 C 104.09375 11.707031 104.890625 11.992188 105.65625 12.355469 C 106.417969 12.707031 107.195312 13.042969 107.960938 13.394531 C 108.714844 13.777344 109.464844 14.15625 110.214844 14.539062 C 110.40625 14.636719 110.601562 14.734375 110.792969 14.832031 C 110.984375 14.9375 111.167969 15.042969 111.347656 15.140625 C 111.707031 15.335938 112.039062 15.507812 112.289062 15.628906 C 113.539062 16.167969 114.949219 17.078125 116.441406 18.085938 C 117.160156 18.625 117.898438 19.195312 118.636719 19.773438 C 119.011719 20.054688 119.355469 20.378906 119.710938 20.6875 C 120.058594 20.996094 120.414062 21.308594 120.753906 21.617188 C 120.976562 21.820312 121.203125 22.015625 121.421875 22.226562 L 122.074219 22.871094 C 122.496094 23.296875 122.929688 23.726562 123.355469 24.152344 C 123.460938 24.257812 123.570312 24.363281 123.675781 24.472656 L 123.980469 24.808594 C 124.183594 25.03125 124.386719 25.257812 124.589844 25.480469 C 124.988281 25.925781 125.390625 26.367188 125.789062 26.816406 C 126.164062 27.277344 126.535156 27.738281 126.90625 28.191406 C 127.273438 28.648438 127.648438 29.089844 127.984375 29.554688 C 128.320312 30.023438 128.652344 30.484375 128.980469 30.9375 C 129.144531 31.164062 129.304688 31.390625 129.464844 31.617188 C 129.542969 31.730469 129.625 31.839844 129.699219 31.949219 C 129.78125 32.070312 129.847656 32.183594 129.921875 32.296875 C 130.382812 33.015625 130.847656 33.734375 131.320312 34.449219 C 131.65625 34.992188 131.980469 35.542969 132.308594 36.085938 C 132.15625 35.914062 131.996094 35.738281 131.84375 35.566406 L 131.046875 34.683594 C 130.78125 34.394531 130.496094 34.117188 130.222656 33.835938 C 129.660156 33.273438 129.117188 32.703125 128.542969 32.15625 C 127.957031 31.621094 127.371094 31.082031 126.789062 30.542969 C 126.65625 30.410156 126.511719 30.289062 126.375 30.160156 C 126.234375 30.035156 126.082031 29.914062 125.9375 29.789062 C 125.648438 29.539062 125.347656 29.289062 125.046875 29.03125 C 124.75 28.777344 124.445312 28.519531 124.140625 28.253906 L 123.914062 28.0625 L 123.671875 27.871094 C 123.515625 27.75 123.355469 27.621094 123.195312 27.5 C 122.550781 27 121.914062 26.488281 121.261719 25.996094 C 120.59375 25.523438 119.929688 25.054688 119.277344 24.589844 C 118.808594 24.21875 118.300781 23.878906 117.78125 23.527344 C 117.265625 23.171875 116.738281 22.8125 116.199219 22.449219 C 115.648438 22.097656 115.082031 21.765625 114.511719 21.417969 C 113.933594 21.078125 113.367188 20.710938 112.757812 20.402344 C 112.15625 20.085938 111.558594 19.761719 110.949219 19.4375 L 110.496094 19.195312 C 110.34375 19.121094 110.179688 19.050781 110.035156 18.972656 L 109.101562 18.535156 C 108.789062 18.386719 108.480469 18.242188 108.171875 18.097656 C 107.859375 17.953125 107.558594 17.792969 107.238281 17.667969 C 106.613281 17.40625 105.988281 17.148438 105.371094 16.894531 C 105.046875 16.757812 104.714844 16.613281 104.378906 16.488281 C 104.046875 16.363281 103.707031 16.242188 103.363281 16.121094 C 102.683594 15.878906 101.996094 15.632812 101.300781 15.398438 C 100.601562 15.191406 99.890625 14.984375 99.183594 14.773438 C 98.828125 14.675781 98.46875 14.566406 98.113281 14.46875 C 97.863281 14.410156 97.609375 14.351562 97.363281 14.292969 C 94.375 12.855469 91.328125 11.59375 88.21875 10.488281 C 87.539062 10.222656 86.710938 10.011719 85.945312 9.789062 C 85.175781 9.574219 84.296875 9.316406 83.65625 9.164062 C 82.285156 8.792969 81.007812 8.480469 79.675781 8.316406 C 77.855469 8.015625 75.945312 7.863281 74.269531 7.742188 C 73.585938 7.722656 73.152344 7.792969 73.050781 7.863281 C 72.984375 7.910156 73.238281 7.964844 73.625 8.015625 C 73.820312 8.046875 74.050781 8.074219 74.292969 8.097656 C 74.53125 8.132812 74.78125 8.167969 75.023438 8.203125 C 75.664062 8.292969 76.308594 8.382812 76.949219 8.472656 C 77.273438 8.523438 77.597656 8.554688 77.910156 8.617188 C 78.230469 8.679688 78.550781 8.738281 78.871094 8.796875 C 79.515625 8.914062 80.160156 9.03125 80.808594 9.148438 C 81.460938 9.28125 82.105469 9.4375 82.765625 9.578125 C 83.417969 9.726562 84.089844 9.84375 84.742188 10.035156 C 85.402344 10.214844 86.0625 10.398438 86.71875 10.582031 C 87.378906 10.75 88.019531 10.996094 88.652344 11.214844 C 89.285156 11.449219 89.917969 11.675781 90.519531 11.929688 C 90.695312 12.011719 91.042969 12.132812 91.308594 12.238281 C 92.523438 12.703125 93.722656 13.207031 94.90625 13.742188 C 94.886719 13.734375 94.867188 13.730469 94.847656 13.726562 C 94.109375 13.601562 93.378906 13.480469 92.640625 13.355469 C 92.269531 13.296875 91.910156 13.230469 91.535156 13.179688 C 91.171875 13.136719 90.800781 13.097656 90.429688 13.058594 C 89.691406 12.984375 88.957031 12.910156 88.230469 12.835938 C 87.433594 12.796875 86.605469 12.753906 85.757812 12.699219 C 85.546875 12.683594 85.335938 12.667969 85.121094 12.65625 L 84.800781 12.636719 L 84.480469 12.632812 C 84.058594 12.621094 83.636719 12.613281 83.207031 12.605469 C 82.785156 12.59375 82.355469 12.582031 81.929688 12.570312 L 81.605469 12.558594 L 81.445312 12.554688 L 81.253906 12.554688 L 81.109375 12.558594 C 80.664062 12.511719 80.222656 12.476562 79.785156 12.433594 L 78.65625 12.335938 C 78.28125 12.300781 77.902344 12.265625 77.527344 12.257812 L 75.265625 12.167969 L 74.703125 12.144531 L 74.132812 12.152344 L 73 12.160156 C 71.496094 12.144531 69.992188 12.265625 68.488281 12.347656 C 67.742188 12.402344 66.992188 12.496094 66.246094 12.570312 L 65.125 12.6875 C 64.75 12.738281 64.382812 12.800781 64.007812 12.855469 C 63.535156 12.929688 63 13.011719 62.628906 13.085938 C 59.238281 13.824219 55.46875 14.769531 51.421875 16.152344 C 50.859375 16.34375 50.304688 16.546875 49.761719 16.742188 C 45.820312 18.273438 42.035156 20.074219 38.375 22.117188 C 37.71875 22.453125 37.023438 22.933594 36.351562 23.359375 C 35.683594 23.796875 34.914062 24.289062 34.375 24.667969 C 33.1875 25.449219 32.113281 26.210938 31.109375 27.105469 C 29.679688 28.269531 28.304688 29.601562 27.101562 30.78125 C 26.640625 31.28125 26.40625 31.65625 26.398438 31.777344 C 26.386719 31.859375 26.59375 31.703125 26.894531 31.449219 C 27.042969 31.316406 27.210938 31.164062 27.386719 31.003906 C 27.578125 30.84375 27.765625 30.679688 27.953125 30.523438 C 28.445312 30.101562 28.9375 29.675781 29.425781 29.253906 C 29.679688 29.046875 29.914062 28.820312 30.171875 28.628906 C 30.429688 28.429688 30.679688 28.226562 30.941406 28.023438 C 31.457031 27.621094 31.96875 27.214844 32.488281 26.804688 C 33.015625 26.40625 33.554688 26.023438 34.097656 25.621094 C 34.640625 25.226562 35.171875 24.800781 35.746094 24.433594 C 36.316406 24.058594 36.886719 23.683594 37.457031 23.308594 C 38.019531 22.925781 38.625 22.609375 39.210938 22.277344 C 39.804688 21.953125 40.390625 21.632812 40.980469 21.347656 C 41.15625 21.273438 41.476562 21.085938 41.726562 20.957031 C 45.855469 18.785156 50.214844 17.050781 54.699219 15.792969 C 55.320312 15.597656 55.957031 15.4375 56.59375 15.289062 C 31.0625 23.117188 12.503906 46.886719 12.503906 74.992188 C 12.503906 84.578125 14.667969 93.65625 18.527344 101.773438 C 18.53125 101.78125 18.53125 101.785156 18.535156 101.792969 C 17.789062 100.355469 17.113281 98.871094 16.523438 97.332031 C 16 95.859375 15.292969 94.179688 14.796875 92.539062 C 13.566406 88.765625 12.5625 85.230469 11.933594 81.441406 C 11.8125 80.652344 11.699219 79.878906 11.578125 79.125 C 11.554688 78.9375 11.515625 78.75 11.496094 78.5625 C 11.476562 78.375 11.457031 78.183594 11.441406 78.003906 C 11.398438 77.632812 11.351562 77.265625 11.316406 76.902344 C 11.273438 76.539062 11.230469 76.179688 11.1875 75.824219 C 11.164062 75.648438 11.140625 75.472656 11.125 75.296875 C 11.113281 75.121094 11.101562 74.949219 11.085938 74.773438 C 11.027344 74.078125 10.976562 73.398438 10.921875 72.734375 C 10.910156 72.566406 10.890625 72.402344 10.875 72.242188 L 10.867188 72.113281 L 10.863281 72.050781 L 10.863281 72.003906 C 10.859375 72.011719 10.863281 71.980469 10.859375 72.019531 L 10.859375 72.011719 L 10.847656 71.765625 C 10.832031 71.433594 10.816406 71.109375 10.800781 70.789062 C 10.769531 70.144531 10.730469 69.519531 10.695312 68.90625 C 10.667969 68.59375 10.671875 68.304688 10.667969 68.007812 C 10.65625 67.710938 10.648438 67.421875 10.640625 67.132812 C 10.625 66.554688 10.601562 65.992188 10.574219 65.4375 C 10.390625 65.898438 10.1875 66.375 10.042969 66.734375 C 10 67.113281 9.953125 67.488281 9.90625 67.855469 C 9.863281 68.222656 9.808594 68.589844 9.792969 68.949219 C 9.734375 69.660156 9.683594 70.359375 9.632812 71.042969 C 9.609375 71.394531 9.574219 71.71875 9.5625 72.082031 C 9.554688 72.421875 9.546875 72.765625 9.542969 73.105469 C 9.53125 73.789062 9.519531 74.472656 9.511719 75.164062 C 9.5625 78.863281 9.871094 82.605469 10.632812 86.402344 C 11.453125 90.457031 12.699219 94.460938 14.328125 98.320312 C 15.953125 102.179688 17.960938 105.886719 20.265625 109.371094 C 20.777344 110.148438 21.398438 110.910156 21.964844 111.6875 C 22.328125 112.199219 22.898438 112.820312 23.125 113.152344 C 23.5 113.710938 23.894531 114.257812 24.304688 114.789062 C 24.738281 115.300781 25.179688 115.808594 25.625 116.3125 L 25.914062 116.636719 C 25.9375 116.671875 25.957031 116.707031 25.980469 116.746094 C 26.5 117.515625 27.09375 118.28125 27.652344 119.058594 C 28.007812 119.574219 28.558594 120.199219 28.78125 120.519531 C 29.183594 121.058594 29.582031 121.59375 29.992188 122.117188 C 30.425781 122.628906 30.859375 123.128906 31.300781 123.628906 L 31.957031 124.375 C 32.179688 124.621094 32.421875 124.855469 32.648438 125.097656 L 34.039062 126.527344 C 34.246094 126.75 34.46875 126.953125 34.6875 127.160156 L 35.347656 127.78125 C 35.785156 128.191406 36.226562 128.605469 36.667969 129.011719 L 38.042969 130.179688 L 38.734375 130.765625 C 38.851562 130.863281 38.960938 130.96875 39.078125 131.058594 L 39.4375 131.335938 C 39.917969 131.707031 40.394531 132.078125 40.871094 132.449219 L 41.582031 133.007812 L 42.324219 133.542969 C 42.824219 133.898438 43.316406 134.253906 43.808594 134.613281 L 44.007812 134.753906 C 43.753906 134.65625 43.496094 134.5625 43.25 134.457031 L 42.261719 134.066406 L 41.28125 133.628906 L 39.335938 132.75 C 38.699219 132.429688 38.066406 132.109375 37.4375 131.789062 C 37.117188 131.625 36.800781 131.476562 36.484375 131.304688 L 35.558594 130.78125 C 34.945312 130.429688 34.320312 130.09375 33.710938 129.734375 C 33.105469 129.355469 32.503906 128.984375 31.910156 128.605469 C 31.609375 128.414062 31.300781 128.238281 31.015625 128.03125 L 30.144531 127.429688 L 29.269531 126.828125 C 28.980469 126.621094 28.683594 126.433594 28.40625 126.214844 C 27.722656 125.695312 27.046875 125.199219 26.371094 124.675781 C 23.375 122.234375 20.605469 119.515625 18.144531 116.566406 C 17.9375 116.316406 17.714844 116.0625 17.484375 115.808594 C 17.257812 115.554688 17.050781 115.28125 16.839844 115.027344 C 16.554688 114.667969 16.269531 114.320312 15.980469 113.964844 C 15.699219 113.613281 15.394531 113.273438 15.140625 112.898438 C 14.359375 111.808594 13.527344 110.726562 12.8125 109.578125 C 12.445312 109.011719 12.066406 108.453125 11.714844 107.894531 C 11.371094 107.320312 11.03125 106.757812 10.703125 106.203125 C 10.136719 105.320312 9.652344 104.332031 9.140625 103.410156 C 8.605469 102.496094 8.183594 101.582031 7.761719 100.855469 C 7 99.511719 6.859375 99.488281 7.511719 101.222656 C 7.6875 101.691406 7.894531 102.214844 8.105469 102.742188 C 8.335938 103.261719 8.570312 103.78125 8.785156 104.253906 C 8.984375 104.703125 9.1875 105.15625 9.40625 105.621094 C 9.621094 106.078125 9.878906 106.539062 10.132812 107.011719 C 10.390625 107.476562 10.648438 107.960938 10.917969 108.449219 C 11.199219 108.929688 11.511719 109.402344 11.824219 109.894531 C 13.226562 112.152344 14.835938 114.28125 16.492188 116.351562 C 18.222656 118.367188 20.007812 120.324219 21.957031 122.054688 C 22.515625 122.550781 23.09375 123.128906 23.691406 123.621094 C 28.453125 127.878906 33.828125 131.457031 39.609375 134.183594 L 41.691406 135.136719 C 42.390625 135.429688 43.101562 135.703125 43.8125 135.992188 L 44.875 136.414062 L 45.953125 136.789062 C 46.667969 137.03125 47.386719 137.296875 48.121094 137.523438 C 48.339844 137.589844 48.566406 137.652344 48.789062 137.722656 C 52.441406 139.714844 56.269531 141.347656 60.222656 142.804688 C 60.441406 142.886719 60.734375 142.988281 61.058594 143.089844 C 61.214844 143.140625 61.378906 143.195312 61.546875 143.25 C 61.710938 143.292969 61.875 143.339844 62.027344 143.382812 C 63.5625 143.835938 65.113281 144.234375 66.675781 144.574219 C 65.472656 144.460938 64.25 144.367188 63.046875 144.167969 C 62.378906 144.066406 61.710938 143.984375 61.050781 143.878906 C 60.402344 143.761719 59.75 143.640625 59.117188 143.523438 C 58.085938 143.367188 57.015625 143.078125 55.984375 142.859375 C 54.949219 142.652344 53.984375 142.363281 53.15625 142.207031 C 51.644531 141.890625 51.53125 141.980469 53.265625 142.636719 C 53.734375 142.816406 54.261719 143.003906 54.796875 143.195312 C 55.339844 143.359375 55.890625 143.527344 56.386719 143.683594 C 56.851562 143.828125 57.328125 143.972656 57.820312 144.121094 C 58.3125 144.257812 58.820312 144.367188 59.347656 144.492188 C 59.863281 144.605469 60.402344 144.730469 60.945312 144.851562 C 61.496094 144.953125 62.058594 145.035156 62.625 145.128906 C 65.25 145.566406 67.917969 145.757812 70.566406 145.878906 C 71.964844 145.894531 73.363281 145.886719 74.753906 145.832031 C 74.960938 145.851562 75.175781 145.878906 75.386719 145.894531 C 76.199219 145.953125 77.015625 146.011719 77.832031 146.074219 C 78.644531 146.105469 79.457031 146.117188 80.265625 146.136719 C 80.679688 146.140625 81.066406 146.160156 81.496094 146.15625 C 81.902344 146.144531 82.300781 146.132812 82.707031 146.121094 C 83.117188 146.109375 83.523438 146.101562 83.929688 146.085938 C 84.328125 146.070312 84.730469 146.074219 85.132812 146.035156 C 85.9375 145.964844 86.734375 145.898438 87.535156 145.835938 L 88.128906 145.785156 L 88.71875 145.703125 C 89.109375 145.652344 89.503906 145.59375 89.894531 145.539062 C 91.460938 145.355469 92.976562 145.011719 94.46875 144.714844 C 94.675781 144.679688 94.886719 144.621094 95.09375 144.570312 C 95.304688 144.515625 95.515625 144.460938 95.730469 144.40625 C 96.15625 144.296875 96.585938 144.1875 97.019531 144.078125 C 97.890625 143.878906 98.757812 143.589844 99.632812 143.339844 C 100.066406 143.21875 100.484375 143.09375 100.898438 142.972656 C 101.3125 142.847656 101.710938 142.695312 102.105469 142.5625 C 102.496094 142.421875 102.882812 142.289062 103.269531 142.152344 C 103.460938 142.085938 103.652344 142.015625 103.839844 141.949219 L 104.121094 141.847656 L 104.398438 141.734375 C 105.132812 141.429688 105.851562 141.125 106.570312 140.828125 L 107.109375 140.597656 L 107.632812 140.347656 C 107.984375 140.175781 108.332031 140.003906 108.6875 139.832031 C 109.183594 139.589844 109.6875 139.355469 110.183594 139.09375 C 110.679688 138.828125 111.179688 138.554688 111.679688 138.28125 C 111.933594 138.144531 112.1875 138.007812 112.441406 137.875 L 112.828125 137.660156 L 113.199219 137.4375 C 113.699219 137.140625 114.210938 136.832031 114.722656 136.527344 C 114.980469 136.371094 115.238281 136.21875 115.496094 136.0625 C 115.75 135.898438 116 135.730469 116.257812 135.5625 C 116.773438 135.230469 117.289062 134.894531 117.8125 134.546875 C 117.945312 134.460938 118.070312 134.378906 118.207031 134.289062 C 118.332031 134.199219 118.457031 134.105469 118.589844 134.015625 C 118.851562 133.832031 119.101562 133.648438 119.367188 133.460938 C 119.890625 133.082031 120.425781 132.722656 120.953125 132.328125 C 121.773438 131.683594 122.605469 131.0625 123.414062 130.425781 C 124.203125 129.761719 124.988281 129.097656 125.75 128.425781 C 128.207031 126.160156 130.425781 123.839844 132.511719 121.382812 C 133.015625 120.753906 133.519531 120.121094 134.027344 119.492188 C 134.285156 119.1875 134.515625 118.84375 134.753906 118.519531 C 134.992188 118.1875 135.234375 117.859375 135.46875 117.53125 C 135.710938 117.199219 135.953125 116.863281 136.183594 116.53125 C 136.40625 116.183594 136.628906 115.835938 136.855469 115.488281 C 137.082031 115.136719 137.308594 114.789062 137.535156 114.429688 C 137.644531 114.253906 137.753906 114.078125 137.871094 113.898438 C 137.96875 113.714844 138.078125 113.535156 138.179688 113.34375 C 138.585938 112.640625 138.996094 111.917969 139.417969 111.195312 C 139.800781 110.449219 140.195312 109.695312 140.582031 108.949219 L 140.875 108.390625 C 140.96875 108.203125 141.050781 108.003906 141.136719 107.816406 C 141.3125 107.4375 141.484375 107.058594 141.652344 106.6875 C 141.824219 106.304688 141.992188 105.9375 142.152344 105.574219 C 142.316406 105.207031 142.453125 104.828125 142.585938 104.46875 C 142.75 104.039062 142.917969 103.617188 143.082031 103.191406 C 143.242188 102.761719 143.410156 102.332031 143.550781 101.890625 C 143.832031 101.011719 144.121094 100.128906 144.410156 99.25 C 144.652344 98.355469 144.898438 97.460938 145.140625 96.570312 C 145.277344 96.128906 145.359375 95.671875 145.457031 95.222656 C 145.554688 94.773438 145.652344 94.328125 145.75 93.882812 C 145.964844 93 146.085938 92.101562 146.234375 91.226562 C 146.300781 90.785156 146.371094 90.351562 146.441406 89.921875 C 146.507812 89.488281 146.539062 89.054688 146.585938 88.628906 C 146.628906 88.207031 146.675781 87.78125 146.714844 87.363281 C 146.734375 87.15625 146.757812 86.949219 146.777344 86.742188 L 146.808594 86.429688 L 146.824219 86.125 C 146.855469 85.308594 146.886719 84.515625 146.917969 83.746094 C 146.921875 83.5 146.957031 83.148438 146.949219 82.824219 C 146.953125 82.496094 146.953125 82.203125 146.941406 82.074219 C 146.886719 81.371094 146.816406 81 146.757812 80.335938 C 146.640625 78.898438 146.433594 79.851562 146.257812 82.617188 C 146.25 82.753906 146.238281 82.890625 146.234375 83.03125 C 146.222656 83.167969 146.203125 83.300781 146.1875 83.433594 C 146.15625 83.707031 146.125 83.976562 146.09375 84.257812 C 146.039062 84.804688 145.984375 85.359375 145.925781 85.925781 C 145.914062 86.070312 145.894531 86.207031 145.882812 86.351562 C 145.863281 86.496094 145.839844 86.640625 145.816406 86.78125 C 145.777344 87.070312 145.730469 87.359375 145.6875 87.652344 C 145.601562 88.234375 145.519531 88.824219 145.433594 89.421875 C 145.335938 90.015625 145.210938 90.609375 145.101562 91.214844 C 145.046875 91.515625 144.988281 91.820312 144.933594 92.125 C 144.871094 92.429688 144.824219 92.738281 144.742188 93.039062 C 144.597656 93.648438 144.457031 94.261719 144.3125 94.875 C 144.242188 95.1875 144.167969 95.492188 144.097656 95.804688 C 144.015625 96.113281 143.921875 96.417969 143.835938 96.726562 L 143.253906 98.777344 C 143.046875 99.457031 142.804688 100.125 142.582031 100.804688 L 142.25 101.8125 C 142.132812 102.148438 142 102.476562 141.871094 102.808594 C 141.609375 103.472656 141.355469 104.132812 141.097656 104.792969 C 140.867188 105.335938 140.617188 105.871094 140.378906 106.402344 C 140.136719 106.933594 139.917969 107.464844 139.671875 107.980469 C 139.421875 108.492188 139.171875 108.996094 138.929688 109.488281 C 138.8125 109.734375 138.691406 109.980469 138.582031 110.21875 C 138.523438 110.34375 138.464844 110.464844 138.414062 110.582031 C 138.351562 110.699219 138.292969 110.816406 138.230469 110.929688 C 137.980469 111.417969 137.621094 112.070312 137.226562 112.773438 C 137.132812 112.945312 137.035156 113.121094 136.929688 113.304688 C 136.828125 113.484375 136.710938 113.65625 136.609375 113.832031 C 136.386719 114.179688 136.175781 114.527344 135.964844 114.859375 C 134.761719 116.839844 133.074219 119.058594 132.011719 120.488281 C 131.820312 120.742188 131.644531 121.011719 131.433594 121.257812 C 131.230469 121.507812 131.023438 121.761719 130.8125 122.019531 C 130.390625 122.527344 129.964844 123.046875 129.523438 123.5625 C 129.0625 124.058594 128.59375 124.5625 128.128906 125.0625 L 127.417969 125.820312 L 126.679688 126.542969 L 125.367188 127.816406 C 124.921875 128.234375 124.449219 128.625 123.996094 129.035156 L 123.308594 129.640625 C 123.078125 129.84375 122.851562 130.046875 122.609375 130.238281 C 122.132812 130.617188 121.644531 131 121.164062 131.382812 L 120.441406 131.957031 C 120.1875 132.136719 119.9375 132.316406 119.683594 132.492188 C 119.175781 132.851562 118.671875 133.210938 118.167969 133.570312 C 117.910156 133.753906 117.644531 133.925781 117.382812 134.089844 C 117.117188 134.257812 116.855469 134.425781 116.585938 134.59375 C 116.054688 134.921875 115.527344 135.273438 114.972656 135.589844 C 110.828125 138 106.269531 140.0625 101.582031 141.558594 C 101.300781 141.652344 101.019531 141.742188 100.738281 141.835938 C 100.453125 141.917969 100.167969 141.996094 99.882812 142.074219 C 99.308594 142.242188 98.734375 142.398438 98.15625 142.566406 C 97.585938 142.742188 96.992188 142.851562 96.410156 142.996094 C 95.824219 143.125 95.238281 143.261719 94.65625 143.398438 C 94.082031 143.519531 93.3125 143.640625 92.957031 143.695312 C 92.347656 143.769531 91.796875 143.863281 91.242188 143.960938 C 90.691406 144.035156 90.132812 144.121094 89.511719 144.214844 C 89.089844 144.277344 88.648438 144.34375 88.195312 144.414062 C 87.742188 144.476562 87.277344 144.511719 86.816406 144.558594 C 86.359375 144.597656 85.90625 144.636719 85.46875 144.675781 C 85.253906 144.695312 85.042969 144.710938 84.835938 144.726562 C 84.695312 144.738281 84.5625 144.742188 84.425781 144.742188 C 89.507812 143.839844 94.480469 142.351562 99.214844 140.300781 L 101.300781 139.367188 C 101.988281 139.035156 102.660156 138.679688 103.339844 138.339844 L 104.359375 137.820312 L 105.351562 137.253906 C 106.011719 136.875 106.683594 136.515625 107.328125 136.117188 C 108.078125 135.644531 108.824219 135.175781 109.566406 134.703125 C 109.941406 134.480469 110.292969 134.214844 110.65625 133.964844 L 111.726562 133.199219 C 114.953125 130.832031 117.976562 128.152344 120.691406 125.238281 C 121.035156 124.871094 121.375 124.5 121.714844 124.128906 C 122.046875 123.761719 122.402344 123.398438 122.714844 123.007812 C 123.355469 122.238281 124.007812 121.484375 124.640625 120.710938 C 125.25 119.917969 125.855469 119.113281 126.464844 118.308594 C 127.050781 117.488281 127.609375 116.632812 128.179688 115.78125 C 129.757812 113.238281 131.28125 110.621094 132.542969 107.855469 L 133.027344 106.832031 C 133.191406 106.484375 133.324219 106.132812 133.476562 105.78125 L 134.351562 103.679688 C 134.617188 102.964844 134.871094 102.25 135.128906 101.535156 C 135.132812 101.523438 135.140625 101.511719 135.144531 101.5 C 135.183594 101.421875 135.226562 101.34375 135.265625 101.261719 L 135.558594 100.707031 C 135.65625 100.519531 135.742188 100.328125 135.828125 100.136719 C 136.003906 99.761719 136.175781 99.382812 136.351562 99.007812 C 136.519531 98.632812 136.6875 98.265625 136.851562 97.894531 C 137.007812 97.527344 137.136719 97.152344 137.273438 96.785156 C 137.433594 96.363281 137.59375 95.929688 137.75 95.503906 C 137.90625 95.078125 138.074219 94.644531 138.199219 94.203125 C 138.480469 93.324219 138.753906 92.441406 139.035156 91.558594 C 139.269531 90.664062 139.507812 89.765625 139.742188 88.875 C 139.867188 88.433594 139.945312 87.980469 140.042969 87.527344 C 140.136719 87.078125 140.226562 86.632812 140.316406 86.1875 C 140.519531 85.300781 140.628906 84.40625 140.757812 83.53125 C 140.820312 83.089844 140.882812 82.65625 140.941406 82.226562 C 141 81.796875 141.019531 81.359375 141.0625 80.9375 C 141.089844 80.511719 141.125 80.089844 141.152344 79.671875 C 141.167969 79.460938 141.179688 79.253906 141.195312 79.046875 L 141.21875 78.742188 L 141.222656 78.433594 C 141.230469 77.621094 141.234375 76.832031 141.222656 76.074219 C 141.21875 75.824219 141.246094 75.484375 141.234375 75.152344 C 141.230469 74.824219 141.222656 74.53125 141.199219 74.40625 C 141.078125 73.699219 140.925781 73.324219 140.796875 72.660156 C 140.519531 71.21875 140.136719 72.167969 139.855469 74.933594 C 139.839844 75.070312 139.828125 75.207031 139.8125 75.347656 C 139.796875 75.484375 139.773438 75.605469 139.753906 75.738281 C 139.714844 76.003906 139.675781 76.265625 139.640625 76.535156 C 139.5625 77.066406 139.492188 77.609375 139.421875 78.15625 C 139.40625 78.292969 139.386719 78.429688 139.371094 78.566406 C 139.34375 78.710938 139.320312 78.847656 139.296875 78.988281 C 139.25 79.269531 139.199219 79.550781 139.15625 79.835938 C 139.066406 80.40625 138.972656 80.984375 138.875 81.566406 C 138.8125 81.929688 138.734375 82.289062 138.660156 82.652344 C 138.667969 82.539062 138.671875 82.425781 138.679688 82.3125 C 138.691406 82.117188 138.707031 81.929688 138.707031 81.738281 L 138.714844 81.164062 L 138.71875 80.011719 C 138.722656 79.628906 138.726562 79.246094 138.726562 78.863281 C 138.730469 78.480469 138.695312 78.101562 138.683594 77.71875 C 138.648438 76.960938 138.609375 76.199219 138.578125 75.445312 C 138.242188 71.074219 137.511719 66.695312 136.308594 62.5 C 136.144531 61.957031 135.984375 61.390625 135.820312 60.824219 C 133.300781 49.980469 127.960938 40.222656 120.609375 32.363281 L 120.042969 31.667969 L 119.6875 31.230469 L 119.308594 30.808594 L 118.554688 29.96875 C 117.574219 28.820312 116.496094 27.773438 115.445312 26.699219 C 114.90625 26.171875 114.339844 25.675781 113.792969 25.160156 L 112.96875 24.398438 C 112.679688 24.148438 112.390625 23.910156 112.101562 23.667969 C 111.730469 23.359375 111.320312 23.015625 111.023438 22.785156 C 108.476562 20.90625 105.589844 18.90625 102.292969 16.957031 C 103.617188 17.382812 104.929688 17.835938 106.136719 18.300781 C 106.539062 18.457031 106.941406 18.589844 107.339844 18.753906 C 107.730469 18.921875 108.125 19.089844 108.511719 19.253906 C 109.292969 19.589844 110.082031 19.894531 110.832031 20.273438 C 111.585938 20.640625 112.347656 20.996094 113.101562 21.367188 C 113.835938 21.769531 114.574219 22.167969 115.3125 22.5625 C 115.5 22.667969 115.691406 22.769531 115.878906 22.871094 C 116.0625 22.980469 116.246094 23.089844 116.421875 23.191406 C 116.769531 23.398438 117.089844 23.582031 117.328125 23.71875 C 118.515625 24.328125 119.890625 25.269531 121.355469 26.292969 C 122.058594 26.832031 122.789062 27.398438 123.519531 27.976562 C 123.894531 28.253906 124.234375 28.578125 124.585938 28.875 C 124.933594 29.183594 125.28125 29.488281 125.628906 29.792969 C 125.851562 29.992188 126.078125 30.183594 126.296875 30.386719 L 126.941406 31.015625 C 127.371094 31.433594 127.804688 31.855469 128.234375 32.273438 C 128.339844 32.378906 128.449219 32.480469 128.550781 32.585938 L 128.859375 32.917969 C 129.066406 33.136719 129.269531 33.355469 129.46875 33.574219 C 129.875 34.011719 130.277344 34.449219 130.675781 34.878906 C 131.0625 35.332031 131.433594 35.78125 131.808594 36.226562 C 132.179688 36.675781 132.5625 37.105469 132.90625 37.558594 C 133.253906 38.015625 133.589844 38.464844 133.921875 38.910156 C 133.964844 38.964844 134.003906 39.019531 134.046875 39.074219 L 134.589844 40.046875 C 134.804688 40.421875 134.988281 40.816406 135.183594 41.199219 L 135.773438 42.355469 C 135.964844 42.738281 136.175781 43.117188 136.347656 43.515625 C 136.707031 44.304688 137.070312 45.089844 137.433594 45.882812 C 138.09375 47.484375 138.777344 49.085938 139.316406 50.734375 C 139.460938 51.148438 139.601562 51.554688 139.746094 51.960938 C 139.894531 52.363281 140.003906 52.777344 140.132812 53.179688 C 140.257812 53.589844 140.378906 54 140.507812 54.40625 L 140.695312 55.015625 L 140.789062 55.324219 L 140.867188 55.632812 C 141.078125 56.46875 141.28125 57.308594 141.484375 58.175781 C 141.59375 58.605469 141.652344 59.046875 141.730469 59.5 C 141.804688 59.949219 141.878906 60.40625 141.953125 60.867188 C 142.003906 61.179688 142.058594 61.5 142.105469 61.824219 C 142.148438 62.148438 142.1875 62.480469 142.230469 62.816406 C 142.316406 63.480469 142.410156 64.160156 142.507812 64.84375 C 142.5625 65.1875 142.589844 65.53125 142.617188 65.875 C 142.65625 66.222656 142.6875 66.566406 142.71875 66.910156 C 142.753906 67.257812 142.785156 67.601562 142.820312 67.941406 C 142.851562 68.28125 142.890625 68.621094 142.898438 68.960938 C 142.980469 70.910156 143.246094 72.339844 143.425781 71.976562 C 143.746094 71.292969 144.066406 70.515625 144.457031 69.605469 C 144.480469 67.445312 144.300781 64.691406 144.074219 62.160156 C 143.71875 58.640625 142.941406 55.523438 141.921875 52.507812 C 142.09375 52.894531 142.269531 53.277344 142.445312 53.664062 C 143.097656 55.265625 143.765625 56.863281 144.300781 58.507812 C 144.445312 58.914062 144.578125 59.320312 144.722656 59.726562 C 144.867188 60.125 144.972656 60.539062 145.09375 60.945312 C 145.214844 61.351562 145.335938 61.753906 145.453125 62.160156 L 145.632812 62.773438 L 145.722656 63.078125 L 145.804688 63.390625 C 145.996094 64.21875 146.195312 65.058594 146.398438 65.917969 C 146.507812 66.347656 146.566406 66.789062 146.648438 67.230469 C 146.722656 67.675781 146.804688 68.128906 146.882812 68.589844 C 146.9375 68.902344 146.988281 69.21875 147.039062 69.542969 C 147.082031 69.867188 147.125 70.195312 147.164062 70.523438 C 147.257812 71.1875 147.34375 71.863281 147.4375 72.546875 C 147.488281 72.886719 147.511719 73.234375 147.535156 73.578125 C 147.570312 73.917969 147.597656 74.261719 147.628906 74.605469 C 147.652344 74.949219 147.683594 75.292969 147.714844 75.628906 C 147.742188 75.972656 147.78125 76.3125 147.785156 76.644531 C 147.847656 78.582031 148 80.007812 148.082031 79.640625 C 148.238281 78.964844 148.390625 78.195312 148.570312 77.3125 C 148.539062 75.15625 148.332031 72.457031 148.046875 69.980469 Z M 48.765625 136.144531 L 47.988281 135.703125 C 47.726562 135.558594 47.46875 135.410156 47.21875 135.25 L 45.703125 134.289062 L 44.9375 133.8125 C 44.691406 133.648438 44.449219 133.46875 44.207031 133.304688 C 39.652344 130.1875 35.488281 126.488281 31.847656 122.328125 L 32.46875 122.847656 L 33.167969 123.429688 C 33.285156 123.527344 33.398438 123.625 33.519531 123.722656 L 33.882812 124 C 34.359375 124.371094 34.84375 124.742188 35.332031 125.113281 L 36.050781 125.675781 L 36.792969 126.210938 C 37.289062 126.570312 37.785156 126.933594 38.277344 127.304688 L 38.644531 127.578125 L 39.03125 127.839844 C 39.28125 128.019531 39.535156 128.195312 39.792969 128.371094 C 40.238281 128.683594 40.882812 129.085938 41.429688 129.417969 L 43.039062 130.300781 C 43.578125 130.589844 44.109375 130.902344 44.664062 131.160156 L 46.3125 131.957031 C 46.585938 132.09375 46.859375 132.230469 47.136719 132.363281 L 47.976562 132.726562 C 48.539062 132.972656 49.097656 133.222656 49.660156 133.472656 L 50.078125 133.660156 L 50.507812 133.832031 L 51.355469 134.175781 C 51.929688 134.410156 52.496094 134.652344 53.0625 134.894531 C 53.640625 135.113281 54.21875 135.335938 54.792969 135.570312 C 55.011719 135.65625 55.308594 135.753906 55.628906 135.859375 C 55.792969 135.90625 55.960938 135.957031 56.125 136.011719 C 56.292969 136.054688 56.453125 136.101562 56.613281 136.144531 C 61.003906 137.417969 65.503906 138.222656 70.074219 138.601562 C 70.898438 138.65625 71.722656 138.714844 72.539062 138.773438 C 73.359375 138.804688 74.167969 138.8125 74.976562 138.832031 L 75.3125 138.84375 L 75.121094 138.863281 C 74.691406 138.917969 74.265625 138.992188 73.835938 139.019531 C 72.972656 139.089844 72.117188 139.15625 71.257812 139.222656 C 71.003906 139.25 70.75 139.257812 70.5 139.261719 L 69.738281 139.28125 L 68.214844 139.316406 L 67.835938 139.328125 L 67.644531 139.332031 L 67.472656 139.332031 L 66.699219 139.308594 L 65.15625 139.261719 C 64.113281 139.261719 63.128906 139.140625 62.117188 139.070312 L 61.371094 139.011719 C 61.117188 138.992188 60.867188 138.972656 60.613281 138.9375 L 59.105469 138.738281 L 57.804688 138.566406 C 57.371094 138.503906 56.941406 138.414062 56.515625 138.339844 C 54.253906 137.929688 52.03125 137.398438 49.832031 136.757812 C 49.484375 136.546875 49.125 136.347656 48.765625 136.144531 Z M 126.890625 115.605469 L 126.171875 116.679688 C 125.925781 117.035156 125.703125 117.402344 125.4375 117.746094 C 124.921875 118.441406 124.410156 119.128906 123.898438 119.820312 C 123.75 120.023438 123.589844 120.21875 123.421875 120.414062 L 122.933594 121 L 121.953125 122.164062 L 121.710938 122.457031 L 121.589844 122.601562 L 121.558594 122.636719 L 121.554688 122.644531 L 121.550781 122.644531 L 121.546875 122.652344 L 121.484375 122.722656 L 120.953125 123.292969 L 119.902344 124.421875 C 119.210938 125.199219 118.472656 125.867188 117.753906 126.578125 L 117.214844 127.101562 C 117.03125 127.28125 116.855469 127.457031 116.65625 127.621094 L 115.515625 128.625 L 114.527344 129.492188 C 114.191406 129.773438 113.839844 130.039062 113.496094 130.308594 C 109.882812 133.1875 105.953125 135.648438 101.824219 137.71875 L 100.871094 138.203125 L 99.898438 138.644531 L 97.957031 139.527344 C 97.300781 139.796875 96.636719 140.058594 95.976562 140.320312 C 95.644531 140.453125 95.324219 140.59375 94.988281 140.71875 L 93.988281 141.066406 C 93.316406 141.296875 92.644531 141.546875 91.976562 141.765625 C 91.296875 141.96875 90.617188 142.171875 89.941406 142.375 C 89.597656 142.472656 89.261719 142.589844 88.921875 142.671875 L 87.890625 142.929688 L 86.863281 143.183594 C 86.519531 143.265625 86.179688 143.367188 85.832031 143.429688 C 84.996094 143.597656 84.175781 143.78125 83.332031 143.9375 C 81.367188 144.265625 79.378906 144.5 77.390625 144.640625 C 76.832031 144.59375 76.28125 144.542969 75.742188 144.484375 C 75.589844 144.46875 75.378906 144.449219 75.148438 144.429688 C 74.910156 144.417969 74.640625 144.402344 74.359375 144.367188 C 73.796875 144.304688 73.179688 144.242188 72.652344 144.183594 C 72.332031 144.148438 72 144.109375 71.675781 144.070312 C 71.347656 144.042969 71.023438 143.972656 70.699219 143.925781 C 70.042969 143.8125 69.386719 143.703125 68.722656 143.589844 L 68.230469 143.507812 L 67.738281 143.394531 L 66.761719 143.167969 L 65.789062 142.941406 C 65.460938 142.855469 65.128906 142.792969 64.816406 142.691406 C 63.382812 142.261719 61.980469 141.886719 60.640625 141.394531 C 60.304688 141.289062 59.96875 141.171875 59.628906 141.0625 C 59.292969 140.953125 58.957031 140.847656 58.636719 140.714844 C 57.980469 140.46875 57.324219 140.230469 56.671875 140 C 56.457031 139.914062 56.128906 139.808594 55.8125 139.664062 C 55.496094 139.523438 55.183594 139.375 54.964844 139.273438 C 54.933594 139.257812 54.902344 139.238281 54.863281 139.222656 C 58.246094 139.878906 61.691406 140.261719 65.113281 140.367188 C 65.613281 140.378906 66.113281 140.386719 66.617188 140.398438 C 67.117188 140.410156 67.621094 140.429688 68.121094 140.410156 C 69.121094 140.386719 70.121094 140.375 71.117188 140.34375 C 72.117188 140.273438 73.121094 140.203125 74.128906 140.128906 C 75.132812 140.023438 76.136719 139.878906 77.160156 139.742188 C 79.667969 139.332031 82.191406 138.839844 84.679688 138.164062 C 86.246094 137.957031 87.761719 137.585938 89.246094 137.246094 C 89.457031 137.203125 89.660156 137.144531 89.878906 137.085938 C 90.082031 137.027344 90.300781 136.964844 90.507812 136.902344 C 90.933594 136.78125 91.367188 136.660156 91.796875 136.539062 C 92.664062 136.320312 93.53125 136.019531 94.414062 135.765625 C 94.84375 135.640625 95.265625 135.515625 95.675781 135.394531 C 96.085938 135.265625 96.484375 135.113281 96.882812 134.972656 C 97.273438 134.832031 97.65625 134.6875 98.039062 134.546875 C 98.230469 134.476562 98.414062 134.402344 98.605469 134.335938 L 98.886719 134.226562 L 99.164062 134.109375 C 99.890625 133.789062 100.601562 133.472656 101.3125 133.152344 L 101.847656 132.914062 L 102.367188 132.648438 C 102.714844 132.46875 103.0625 132.289062 103.40625 132.105469 C 103.890625 131.847656 104.394531 131.601562 104.882812 131.328125 C 105.371094 131.046875 105.863281 130.765625 106.359375 130.476562 C 106.609375 130.335938 106.859375 130.191406 107.109375 130.050781 L 107.484375 129.835938 L 107.855469 129.601562 C 108.351562 129.292969 108.847656 128.980469 109.355469 128.664062 C 109.605469 128.511719 109.863281 128.351562 110.125 128.195312 C 110.371094 128.027344 110.621094 127.855469 110.878906 127.6875 C 111.382812 127.347656 111.894531 127.007812 112.417969 126.660156 C 112.546875 126.574219 112.671875 126.488281 112.808594 126.402344 C 112.933594 126.3125 113.0625 126.21875 113.1875 126.125 C 113.445312 125.945312 113.703125 125.757812 113.964844 125.574219 C 114.484375 125.195312 115.023438 124.835938 115.546875 124.445312 C 116.367188 123.8125 117.207031 123.207031 118.019531 122.578125 C 118.816406 121.921875 119.609375 121.269531 120.367188 120.597656 C 122.800781 118.328125 125.042969 116.046875 127.15625 113.617188 C 127.664062 112.996094 128.179688 112.371094 128.695312 111.75 C 128.957031 111.445312 129.183594 111.109375 129.425781 110.785156 C 129.671875 110.457031 129.914062 110.128906 130.152344 109.800781 C 130.382812 109.484375 130.621094 109.167969 130.84375 108.84375 C 129.652344 111.171875 128.339844 113.429688 126.890625 115.605469 Z M 137.445312 81.777344 C 137.441406 81.941406 137.429688 82.101562 137.425781 82.265625 C 137.347656 85.1875 137.070312 88.109375 136.597656 91.003906 C 136.425781 91.558594 136.230469 92.113281 136.054688 92.671875 L 135.722656 93.664062 C 135.617188 93.992188 135.484375 94.316406 135.355469 94.640625 C 135.113281 95.289062 134.859375 95.9375 134.613281 96.585938 C 134.386719 97.117188 134.144531 97.644531 133.914062 98.167969 C 133.683594 98.683594 133.464844 99.210938 133.226562 99.71875 C 132.980469 100.222656 132.746094 100.71875 132.523438 101.210938 C 132.414062 101.457031 132.308594 101.699219 132.203125 101.9375 C 132.152344 102.058594 132.101562 102.179688 132.046875 102.296875 C 131.996094 102.417969 131.941406 102.535156 131.886719 102.652344 C 131.660156 103.140625 131.320312 103.789062 130.945312 104.484375 C 130.847656 104.660156 130.75 104.835938 130.664062 105.011719 C 130.5625 105.1875 130.449219 105.359375 130.339844 105.53125 C 130.136719 105.875 129.925781 106.222656 129.722656 106.546875 C 128.5625 108.511719 126.90625 110.683594 125.90625 112.132812 C 125.730469 112.390625 125.570312 112.664062 125.367188 112.914062 C 125.171875 113.167969 124.96875 113.421875 124.777344 113.679688 C 124.375 114.1875 123.960938 114.710938 123.53125 115.222656 C 123.082031 115.71875 122.628906 116.21875 122.179688 116.722656 L 121.484375 117.472656 L 120.761719 118.191406 L 119.472656 119.457031 C 119.042969 119.878906 118.582031 120.269531 118.136719 120.671875 L 117.46875 121.273438 C 117.238281 121.472656 117.015625 121.679688 116.777344 121.867188 C 116.304688 122.246094 115.832031 122.625 115.359375 123.003906 L 114.640625 123.570312 C 114.398438 123.753906 114.144531 123.929688 113.902344 124.105469 C 113.402344 124.457031 112.898438 124.8125 112.398438 125.167969 C 112.148438 125.347656 111.890625 125.515625 111.625 125.675781 C 111.359375 125.835938 111.101562 126 110.835938 126.164062 C 110.785156 126.195312 110.738281 126.222656 110.691406 126.253906 C 126.132812 115.472656 136.480469 97.90625 137.386719 77.863281 C 137.398438 78.027344 137.40625 78.1875 137.417969 78.351562 C 137.441406 79.003906 137.429688 79.660156 137.4375 80.3125 C 137.441406 80.640625 137.441406 80.96875 137.441406 81.296875 C 137.441406 81.453125 137.453125 81.617188 137.445312 81.777344 Z M 103.757812 18.5625 C 104.726562 19.148438 105.628906 19.839844 106.554688 20.484375 C 106.785156 20.648438 107.015625 20.808594 107.242188 20.972656 C 107.46875 21.140625 107.695312 21.3125 107.914062 21.484375 C 108.363281 21.820312 108.804688 22.15625 109.253906 22.484375 C 109.496094 22.667969 109.746094 22.839844 109.976562 23.035156 C 110.203125 23.226562 110.421875 23.414062 110.632812 23.59375 C 110.746094 23.695312 110.859375 23.792969 110.960938 23.886719 C 110.917969 23.859375 110.871094 23.828125 110.828125 23.800781 C 110.535156 23.601562 110.25 23.40625 109.972656 23.226562 C 104.703125 19.660156 98.859375 16.886719 92.613281 15.054688 C 92.164062 14.910156 91.71875 14.769531 91.265625 14.625 C 90.828125 14.476562 90.378906 14.371094 89.929688 14.25 C 89.832031 14.222656 89.730469 14.199219 89.632812 14.171875 C 93.070312 14.585938 96.488281 15.28125 99.757812 16.171875 C 101.121094 16.917969 102.453125 17.714844 103.757812 18.5625 Z M 103.757812 18.5625 " fill-opacity="1" fill-rule="nonzero"/></g><g clip-path="url(#b12ac818f8)"><path fill="#954386" d="M 3.070312 86.128906 C 2.96875 85.511719 2.867188 84.902344 2.769531 84.289062 C 2.6875 83.671875 2.628906 83.050781 2.558594 82.4375 C 2.511719 82.007812 2.460938 81.5625 2.410156 81.128906 C 2.359375 80.691406 2.34375 80.261719 2.300781 79.859375 C 2.242188 79.234375 2.183594 78.59375 2.125 77.957031 C 2.089844 77.640625 2.082031 77.320312 2.070312 77 C 2.058594 76.679688 2.046875 76.359375 2.035156 76.039062 C 2.003906 75.402344 1.972656 74.777344 1.945312 74.15625 C 1.945312 73.53125 1.941406 72.910156 1.929688 72.304688 C 1.875 70.503906 1.902344 70.121094 1.675781 70.78125 C 1.617188 70.964844 1.566406 71.238281 1.507812 71.515625 C 1.496094 72.003906 1.488281 72.492188 1.472656 72.945312 C 1.453125 73.398438 1.425781 73.84375 1.410156 74.300781 L 1.414062 75.65625 C 1.417969 76.105469 1.417969 76.558594 1.417969 77.015625 C 1.425781 77.242188 1.417969 77.46875 1.429688 77.695312 C 1.445312 77.925781 1.460938 78.152344 1.472656 78.382812 C 1.605469 80.707031 1.878906 83.074219 2.355469 85.070312 C 2.511719 85.707031 2.667969 86.378906 2.832031 87.0625 C 2.875 87.230469 2.90625 87.402344 2.957031 87.574219 L 3.101562 88.085938 C 3.199219 88.421875 3.296875 88.761719 3.394531 89.097656 C 3.441406 88.859375 3.441406 88.574219 3.378906 88.121094 C 3.3125 87.667969 3.214844 87.046875 3.070312 86.128906 Z M 3.070312 86.128906 " fill-opacity="1" fill-rule="nonzero"/></g><path fill="#954386" d="M 40.710938 137.082031 C 40.320312 136.839844 39.785156 136.5 39.003906 136.003906 C 38.476562 135.667969 37.949219 135.34375 37.425781 135.011719 C 36.910156 134.667969 36.40625 134.304688 35.894531 133.949219 C 35.539062 133.703125 35.179688 133.449219 34.8125 133.199219 C 34.449219 132.949219 34.117188 132.675781 33.785156 132.445312 C 33.28125 132.070312 32.757812 131.695312 32.242188 131.316406 C 31.980469 131.136719 31.734375 130.933594 31.488281 130.730469 C 31.238281 130.527344 30.992188 130.324219 30.738281 130.125 C 30.25 129.726562 29.757812 129.335938 29.273438 128.949219 C 28.800781 128.535156 28.328125 128.128906 27.871094 127.738281 C 26.480469 126.589844 26.207031 126.320312 26.554688 126.921875 C 26.664062 127.085938 26.832031 127.304688 26.996094 127.53125 C 27.355469 127.867188 27.722656 128.195312 28.042969 128.507812 C 28.375 128.820312 28.691406 129.140625 29.027344 129.449219 L 30.046875 130.339844 C 30.386719 130.636719 30.726562 130.933594 31.074219 131.230469 C 31.246094 131.378906 31.410156 131.53125 31.589844 131.675781 C 31.773438 131.816406 31.957031 131.957031 32.136719 132.09375 C 33.972656 133.53125 35.929688 134.886719 37.742188 135.847656 C 38.316406 136.152344 38.933594 136.476562 39.550781 136.804688 C 39.710938 136.886719 39.863281 136.972656 40.023438 137.054688 L 40.5 137.277344 C 40.820312 137.425781 41.136719 137.578125 41.453125 137.726562 C 41.308594 137.53125 41.09375 137.339844 40.710938 137.082031 Z M 40.710938 137.082031 " fill-opacity="1" fill-rule="nonzero"/><g fill="#ffffff" fill-opacity="1"><g transform="translate(20.539129, 82.071144)"><g><path d="M 4.421875 20.125 C 4.242188 20.125 4.019531 20.03125 3.75 19.84375 C 3.34375 19.539062 3.15625 19.222656 3.1875 18.890625 C 3.226562 18.554688 3.363281 18.164062 3.59375 17.71875 C 3.695312 17.457031 3.769531 17.269531 3.8125 17.15625 C 4.488281 15.289062 5.273438 13.523438 6.171875 11.859375 C 7.066406 10.191406 7.90625 8.722656 8.6875 7.453125 C 10 5.285156 10.257812 2.613281 9.46875 -0.5625 C 8.800781 -3.132812 7.269531 -5.171875 4.875 -6.671875 C 4.757812 -6.710938 4.59375 -6.804688 4.375 -6.953125 C 3.957031 -7.171875 3.628906 -7.375 3.390625 -7.5625 C 3.148438 -7.75 3.03125 -8.015625 3.03125 -8.359375 C 3.03125 -8.765625 3.171875 -9.03125 3.453125 -9.15625 C 3.734375 -9.289062 4.078125 -9.414062 4.484375 -9.53125 L 4.828125 -9.59375 C 8.859375 -10.675781 12.6875 -11.21875 16.3125 -11.21875 C 16.539062 -11.21875 16.835938 -11.21875 17.203125 -11.21875 C 17.578125 -11.21875 17.765625 -11.21875 17.765625 -11.21875 C 19.335938 -11.21875 20.59375 -11.890625 21.53125 -13.234375 C 22.3125 -14.390625 23.082031 -15.546875 23.84375 -16.703125 C 24.613281 -17.859375 25.375 -19.019531 26.125 -20.1875 C 28.476562 -23.769531 30.890625 -27.363281 33.359375 -30.96875 C 35.828125 -34.582031 38.476562 -38.03125 41.3125 -41.3125 C 41.84375 -41.914062 42.382812 -42.488281 42.9375 -43.03125 C 43.5 -43.570312 44.15625 -43.992188 44.90625 -44.296875 C 45.28125 -44.472656 45.617188 -44.5625 45.921875 -44.5625 C 46.742188 -44.5625 47.359375 -43.96875 47.765625 -42.78125 C 48.140625 -41.65625 48.289062 -40.597656 48.21875 -39.609375 C 48.144531 -38.617188 48.03125 -37.640625 47.875 -36.671875 C 47.050781 -31.773438 45.9375 -27.023438 44.53125 -22.421875 C 43.132812 -17.828125 41.707031 -13.304688 40.25 -8.859375 C 39.875 -7.847656 39.523438 -6.847656 39.203125 -5.859375 C 38.890625 -4.867188 38.566406 -3.867188 38.234375 -2.859375 C 37.367188 -0.242188 36.476562 2.347656 35.5625 4.921875 C 34.65625 7.503906 33.734375 10.101562 32.796875 12.71875 C 32.753906 12.832031 32.695312 13.003906 32.625 13.234375 C 32.59375 13.453125 32.53125 13.671875 32.4375 13.890625 C 32.34375 14.117188 32.203125 14.234375 32.015625 14.234375 C 31.859375 14.234375 31.671875 14.179688 31.453125 14.078125 C 31.265625 13.960938 31.132812 13.847656 31.0625 13.734375 C 30.988281 13.585938 30.988281 13.410156 31.0625 13.203125 C 31.132812 12.992188 31.207031 12.816406 31.28125 12.671875 C 31.351562 12.410156 31.410156 12.222656 31.453125 12.109375 C 32.390625 8.222656 33.460938 4.375 34.671875 0.5625 C 35.890625 -3.25 37.113281 -6.988281 38.34375 -10.65625 C 39.207031 -13.125 40.050781 -15.617188 40.875 -18.140625 C 41.695312 -20.660156 42.476562 -23.191406 43.21875 -25.734375 C 43.375 -26.222656 43.609375 -27.023438 43.921875 -28.140625 C 44.242188 -29.265625 44.582031 -30.535156 44.9375 -31.953125 C 45.289062 -33.378906 45.597656 -34.800781 45.859375 -36.21875 C 46.117188 -37.632812 46.296875 -38.875 46.390625 -39.9375 C 46.484375 -41.007812 46.421875 -41.75 46.203125 -42.15625 C 46.085938 -42.3125 45.953125 -42.425781 45.796875 -42.5 L 45.75 -42.5 L 45.46875 -42.546875 C 45.28125 -42.546875 45.109375 -42.5 44.953125 -42.40625 C 44.804688 -42.3125 44.71875 -42.25 44.6875 -42.21875 C 44.238281 -41.875 43.832031 -41.5 43.46875 -41.09375 C 43.113281 -40.6875 42.769531 -40.273438 42.4375 -39.859375 C 42.25 -39.640625 42.0625 -39.414062 41.875 -39.1875 C 41.6875 -38.957031 41.5 -38.734375 41.3125 -38.515625 C 40.007812 -37.054688 38.6875 -35.488281 37.34375 -33.8125 C 36.03125 -32.09375 34.773438 -30.363281 33.578125 -28.625 C 32.378906 -26.882812 31.257812 -25.226562 30.21875 -23.65625 L 28.921875 -21.640625 C 27.835938 -19.992188 26.742188 -18.335938 25.640625 -16.671875 C 24.546875 -15.015625 23.414062 -13.378906 22.25 -11.765625 L 22.03125 -11.4375 L 22.53125 -11.4375 C 24.59375 -11.320312 26.507812 -11.179688 28.28125 -11.015625 C 30.0625 -10.847656 31.828125 -10.554688 33.578125 -10.140625 C 33.648438 -10.109375 33.742188 -10.09375 33.859375 -10.09375 C 33.972656 -10.09375 34.066406 -10.09375 34.140625 -10.09375 C 34.328125 -10.050781 34.492188 -10.019531 34.640625 -10 C 34.796875 -9.988281 34.925781 -9.925781 35.03125 -9.8125 C 35.144531 -9.738281 35.222656 -9.570312 35.265625 -9.3125 C 35.296875 -8.9375 35.109375 -8.75 34.703125 -8.75 C 34.585938 -8.75 34.460938 -8.753906 34.328125 -8.765625 C 34.203125 -8.785156 34.066406 -8.816406 33.921875 -8.859375 L 33.6875 -8.90625 C 33.394531 -8.988281 33.078125 -9.054688 32.734375 -9.109375 C 32.398438 -9.160156 32.066406 -9.242188 31.734375 -9.359375 C 31.285156 -9.429688 30.828125 -9.523438 30.359375 -9.640625 C 29.890625 -9.753906 29.429688 -9.828125 28.984375 -9.859375 C 27.859375 -10.046875 26.847656 -10.140625 25.953125 -10.140625 C 22.367188 -10.140625 19.828125 -8.644531 18.328125 -5.65625 C 17.691406 -4.382812 17.035156 -3.140625 16.359375 -1.921875 C 15.691406 -0.710938 15.003906 0.488281 14.296875 1.6875 C 13.066406 3.8125 11.851562 5.992188 10.65625 8.234375 C 9.457031 10.484375 8.425781 12.84375 7.5625 15.3125 C 7.34375 15.90625 7.070312 16.472656 6.75 17.015625 C 6.4375 17.554688 6.113281 18.070312 5.78125 18.5625 C 5.695312 18.664062 5.601562 18.832031 5.5 19.0625 C 5.382812 19.320312 5.242188 19.5625 5.078125 19.78125 C 4.910156 20.007812 4.691406 20.125 4.421875 20.125 Z M 18.71875 -9.921875 C 17.863281 -9.992188 17.023438 -10.03125 16.203125 -10.03125 C 14.367188 -10.03125 12.628906 -9.890625 10.984375 -9.609375 C 9.335938 -9.328125 7.734375 -9.019531 6.171875 -8.6875 C 5.828125 -8.613281 5.597656 -8.519531 5.484375 -8.40625 C 5.378906 -8.289062 5.328125 -8.179688 5.328125 -8.078125 C 5.328125 -7.960938 5.375 -7.8125 5.46875 -7.625 C 5.5625 -7.4375 5.773438 -7.210938 6.109375 -6.953125 C 8.984375 -4.710938 10.644531 -1.628906 11.09375 2.296875 L 11.15625 3.03125 L 19.171875 -9.859375 Z M 18.71875 -9.921875 "/></g></g></g><g fill="#ffffff" fill-opacity="1"><g transform="translate(65.096991, 82.071144)"><g><path d="M 42.9375 -52.078125 C 43.6875 -52.972656 44.140625 -53.066406 44.296875 -52.359375 C 44.398438 -51.910156 44.382812 -51.265625 44.25 -50.421875 C 44.125 -49.585938 44.003906 -48.984375 43.890625 -48.609375 C 43.441406 -47.265625 42.769531 -45.503906 41.875 -43.328125 C 40.976562 -41.160156 39.953125 -38.757812 38.796875 -36.125 C 37.640625 -33.5 36.425781 -30.78125 35.15625 -27.96875 C 33.882812 -25.164062 32.640625 -22.457031 31.421875 -19.84375 C 30.203125 -17.226562 29.085938 -14.863281 28.078125 -12.75 C 27.078125 -10.644531 26.257812 -8.957031 25.625 -7.6875 L 25.453125 -7.40625 C 25.304688 -7.132812 25.175781 -6.878906 25.0625 -6.640625 C 24.945312 -6.398438 24.796875 -6.113281 24.609375 -5.78125 L 23.765625 -4.09375 L 24.328125 -4.3125 C 26.910156 -5.101562 29.523438 -5.867188 32.171875 -6.609375 C 34.828125 -7.359375 37.539062 -7.941406 40.3125 -8.359375 C 40.832031 -8.429688 41.191406 -8.625 41.390625 -8.9375 C 41.597656 -9.257812 41.78125 -9.609375 41.9375 -9.984375 C 41.96875 -10.054688 41.992188 -10.140625 42.015625 -10.234375 C 42.035156 -10.328125 42.066406 -10.410156 42.109375 -10.484375 C 44.203125 -15.046875 46.300781 -19.128906 48.40625 -22.734375 C 50.519531 -26.335938 52.753906 -29.617188 55.109375 -32.578125 C 55.222656 -32.722656 55.375 -32.960938 55.5625 -33.296875 C 55.820312 -33.640625 56.097656 -33.988281 56.390625 -34.34375 C 56.691406 -34.695312 56.992188 -34.875 57.296875 -34.875 C 57.484375 -34.875 57.648438 -34.816406 57.796875 -34.703125 C 58.054688 -34.472656 58.207031 -34.269531 58.25 -34.09375 C 58.320312 -33.789062 58.253906 -33.488281 58.046875 -33.1875 C 57.847656 -32.882812 57.617188 -32.601562 57.359375 -32.34375 C 57.242188 -32.195312 57.128906 -32.054688 57.015625 -31.921875 C 56.898438 -31.796875 56.804688 -31.675781 56.734375 -31.5625 L 55.671875 -29.828125 C 53.910156 -26.910156 52.160156 -23.945312 50.421875 -20.9375 C 48.691406 -17.925781 47.097656 -14.851562 45.640625 -11.71875 C 45.554688 -11.601562 45.460938 -11.453125 45.359375 -11.265625 C 45.203125 -11.003906 45.066406 -10.722656 44.953125 -10.421875 C 44.847656 -10.128906 44.867188 -9.738281 45.015625 -9.25 L 45.40625 -9.25 C 45.476562 -9.289062 45.773438 -9.316406 46.296875 -9.328125 C 46.828125 -9.347656 47.414062 -9.375 48.0625 -9.40625 C 48.71875 -9.445312 49.335938 -9.476562 49.921875 -9.5 C 50.503906 -9.519531 50.90625 -9.53125 51.125 -9.53125 C 51.3125 -9.53125 51.507812 -9.539062 51.71875 -9.5625 C 51.925781 -9.582031 52.125 -9.59375 52.3125 -9.59375 C 52.570312 -9.59375 52.832031 -9.59375 53.09375 -9.59375 C 53.351562 -9.59375 53.613281 -9.59375 53.875 -9.59375 C 54.320312 -9.59375 54.710938 -9.59375 55.046875 -9.59375 L 55.390625 -9.53125 C 55.648438 -9.53125 55.921875 -9.519531 56.203125 -9.5 C 56.484375 -9.476562 56.71875 -9.414062 56.90625 -9.3125 C 57.09375 -9.226562 57.1875 -9.148438 57.1875 -9.078125 C 57.1875 -8.929688 57.054688 -8.78125 56.796875 -8.625 C 56.535156 -8.476562 56.3125 -8.390625 56.125 -8.359375 C 55.675781 -8.273438 55.21875 -8.210938 54.75 -8.171875 C 54.28125 -8.140625 53.820312 -8.125 53.375 -8.125 L 52.078125 -8.125 C 51.742188 -8.125 51.425781 -8.125 51.125 -8.125 C 50.269531 -8.09375 49.382812 -8.046875 48.46875 -7.984375 C 47.550781 -7.929688 46.644531 -7.847656 45.75 -7.734375 C 44.320312 -7.515625 43.332031 -6.804688 42.78125 -5.609375 C 41.65625 -3.066406 40.613281 -0.476562 39.65625 2.15625 C 38.707031 4.789062 37.785156 7.398438 36.890625 9.984375 C 36.285156 11.703125 35.664062 13.4375 35.03125 15.1875 C 34.40625 16.945312 33.753906 18.6875 33.078125 20.40625 C 32.929688 20.78125 32.765625 21.144531 32.578125 21.5 C 32.390625 21.851562 32.109375 22.125 31.734375 22.3125 C 31.617188 22.351562 31.523438 22.375 31.453125 22.375 C 31.378906 22.289062 31.320312 22.0625 31.28125 21.6875 C 31.25 21.320312 31.363281 20.554688 31.625 19.390625 L 31.671875 19.171875 C 31.929688 17.972656 32.21875 16.785156 32.53125 15.609375 C 32.851562 14.429688 33.1875 13.265625 33.53125 12.109375 L 34.203125 9.859375 C 34.679688 8.328125 35.210938 6.785156 35.796875 5.234375 C 36.378906 3.691406 36.96875 2.148438 37.5625 0.609375 L 38.6875 -2.296875 C 38.789062 -2.628906 38.914062 -2.984375 39.0625 -3.359375 C 39.21875 -3.734375 39.351562 -4.109375 39.46875 -4.484375 C 39.507812 -4.554688 39.566406 -4.707031 39.640625 -4.9375 C 39.671875 -5.15625 39.742188 -5.453125 39.859375 -5.828125 C 39.972656 -6.203125 40.066406 -6.410156 40.140625 -6.453125 L 39.921875 -6.890625 C 36.847656 -6.367188 33.984375 -5.722656 31.328125 -4.953125 C 28.679688 -4.191406 26.253906 -3.421875 24.046875 -2.640625 C 23.035156 -2.296875 22.253906 -1.660156 21.703125 -0.734375 C 21.242188 0.0546875 20.789062 0.832031 20.34375 1.59375 C 19.894531 2.363281 19.445312 3.140625 19 3.921875 C 17.988281 5.566406 16.988281 7.25 16 8.96875 C 15.007812 10.6875 14.050781 12.40625 13.125 14.125 C 12.75 14.800781 12.445312 15.503906 12.21875 16.234375 C 12 16.960938 11.796875 17.679688 11.609375 18.390625 C 11.492188 18.796875 11.378906 19.1875 11.265625 19.5625 C 11.148438 19.9375 11.019531 20.332031 10.875 20.75 C 10.613281 21.53125 10.273438 22.179688 9.859375 22.703125 L 9.703125 22.984375 C 9.515625 23.242188 9.296875 23.503906 9.046875 23.765625 C 8.804688 24.023438 8.535156 24.15625 8.234375 24.15625 C 7.941406 24.15625 7.644531 24.046875 7.34375 23.828125 C 6.78125 23.492188 6.507812 23.128906 6.53125 22.734375 C 6.550781 22.335938 6.671875 21.878906 6.890625 21.359375 L 7 21.078125 C 7.90625 18.648438 8.859375 16.390625 9.859375 14.296875 C 10.648438 12.722656 10.707031 11.359375 10.03125 10.203125 C 9.394531 9.046875 8.070312 8.164062 6.0625 7.5625 C 5.90625 7.488281 5.734375 7.441406 5.546875 7.421875 C 5.359375 7.410156 5.191406 7.40625 5.046875 7.40625 C 4.554688 7.363281 4.148438 7.285156 3.828125 7.171875 C 3.515625 7.054688 3.285156 6.757812 3.140625 6.28125 C 2.953125 5.71875 3 5.320312 3.28125 5.09375 C 3.5625 4.875 3.90625 4.671875 4.3125 4.484375 C 4.425781 4.441406 4.539062 4.394531 4.65625 4.34375 C 4.769531 4.289062 4.878906 4.242188 4.984375 4.203125 C 7.046875 2.972656 9.128906 1.890625 11.234375 0.953125 C 13.347656 0.015625 15.359375 -0.820312 17.265625 -1.5625 C 17.785156 -1.789062 18.289062 -2.046875 18.78125 -2.328125 C 19.269531 -2.609375 19.660156 -3.007812 19.953125 -3.53125 L 21.140625 -5.65625 C 21.617188 -6.550781 22.285156 -7.882812 23.140625 -9.65625 C 24.003906 -11.4375 24.957031 -13.46875 26 -15.75 C 27.050781 -18.03125 28.140625 -20.40625 29.265625 -22.875 C 30.390625 -25.34375 31.460938 -27.710938 32.484375 -29.984375 C 33.515625 -32.265625 34.445312 -34.300781 35.28125 -36.09375 C 36.125 -37.894531 36.769531 -39.265625 37.21875 -40.203125 C 37.894531 -41.546875 38.539062 -42.898438 39.15625 -44.265625 C 39.769531 -45.628906 40.394531 -47 41.03125 -48.375 C 41.332031 -48.976562 41.625 -49.613281 41.90625 -50.28125 C 42.1875 -50.957031 42.53125 -51.554688 42.9375 -52.078125 Z M 17.484375 0.734375 L 16.9375 0.84375 C 14.914062 1.289062 13.003906 1.925781 11.203125 2.75 C 9.410156 3.570312 7.453125 4.597656 5.328125 5.828125 L 4.875 6.0625 L 5.4375 6.21875 C 6.78125 6.5625 7.925781 7.054688 8.875 7.703125 C 9.832031 8.359375 10.722656 9.304688 11.546875 10.546875 L 11.765625 10.875 Z M 17.484375 0.734375 "/></g></g></g></svg>