<svg xmlns="http://www.w3.org/2000/svg" xmlns:xlink="http://www.w3.org/1999/xlink" width="100" zoomAndPan="magnify" viewBox="0 0 75 74.999997" height="100" preserveAspectRatio="xMidYMid meet" version="1.0"><defs><g/><clipPath id="d7f126e4d8"><path d="M 3 1.910156 L 74.21875 1.910156 L 74.21875 73.179688 L 3 73.179688 Z M 3 1.910156 " clip-rule="nonzero"/></clipPath><clipPath id="365d42751d"><path d="M 0.707031 35 L 2 35 L 2 45 L 0.707031 45 Z M 0.707031 35 " clip-rule="nonzero"/></clipPath></defs><g clip-path="url(#d7f126e4d8)"><path fill="#2b946f" d="M 74.023438 34.992188 C 73.78125 33.046875 73.347656 31.34375 72.785156 29.671875 C 72.671875 29.355469 72.554688 29.042969 72.441406 28.726562 C 72.382812 28.566406 72.320312 28.410156 72.261719 28.25 C 72.199219 28.089844 72.132812 27.929688 72.0625 27.765625 C 71.980469 27.550781 71.890625 27.335938 71.800781 27.117188 L 71.671875 26.792969 C 71.628906 26.6875 71.578125 26.582031 71.527344 26.476562 C 71.332031 26.054688 71.144531 25.625 70.941406 25.207031 C 70.726562 24.789062 70.511719 24.375 70.296875 23.960938 C 70.246094 23.855469 70.1875 23.75 70.128906 23.652344 L 69.953125 23.347656 L 69.601562 22.742188 C 69.546875 22.644531 69.492188 22.550781 69.4375 22.457031 C 69.433594 22.453125 69.433594 22.449219 69.429688 22.445312 C 69.425781 22.433594 69.421875 22.425781 69.414062 22.414062 C 69.210938 21.984375 69.015625 21.554688 68.808594 21.125 C 68.589844 20.703125 68.367188 20.28125 68.148438 19.863281 C 68.097656 19.753906 68.039062 19.652344 67.976562 19.546875 L 67.796875 19.242188 L 67.4375 18.625 C 67.382812 18.527344 67.328125 18.429688 67.269531 18.335938 C 67.214844 18.238281 67.152344 18.148438 67.09375 18.054688 C 66.976562 17.871094 66.855469 17.691406 66.738281 17.511719 C 66.617188 17.332031 66.5 17.152344 66.382812 16.972656 C 66.261719 16.796875 66.132812 16.628906 66.007812 16.460938 C 65.882812 16.289062 65.757812 16.121094 65.632812 15.957031 C 65.507812 15.792969 65.390625 15.621094 65.253906 15.464844 C 64.988281 15.148438 64.726562 14.832031 64.464844 14.523438 C 64.339844 14.367188 64.195312 14.21875 64.058594 14.070312 C 63.921875 13.921875 63.785156 13.777344 63.648438 13.628906 L 63.238281 13.1875 C 63.097656 13.042969 62.953125 12.90625 62.808594 12.765625 C 62.519531 12.488281 62.238281 12.203125 61.945312 11.933594 C 61.644531 11.664062 61.34375 11.398438 61.039062 11.128906 C 60.96875 11.066406 60.898438 11.003906 60.828125 10.9375 C 60.753906 10.878906 60.679688 10.816406 60.605469 10.753906 C 60.453125 10.628906 60.300781 10.5 60.152344 10.375 C 59.996094 10.246094 59.84375 10.113281 59.691406 9.984375 L 59.570312 9.886719 L 59.453125 9.792969 C 59.371094 9.730469 59.289062 9.667969 59.210938 9.601562 C 58.882812 9.351562 58.558594 9.09375 58.230469 8.84375 C 57.894531 8.605469 57.554688 8.367188 57.226562 8.132812 C 56.996094 7.9375 56.746094 7.757812 56.488281 7.570312 C 56.230469 7.386719 55.964844 7.195312 55.699219 7.003906 C 55.421875 6.820312 55.136719 6.648438 54.851562 6.464844 C 54.566406 6.285156 54.277344 6.09375 53.972656 5.933594 C 53.671875 5.765625 53.367188 5.597656 53.0625 5.425781 L 52.835938 5.300781 C 52.753906 5.261719 52.675781 5.222656 52.601562 5.183594 L 52.132812 4.953125 C 51.972656 4.875 51.820312 4.796875 51.660156 4.722656 C 51.503906 4.644531 51.355469 4.5625 51.191406 4.496094 C 50.875 4.355469 50.558594 4.21875 50.25 4.085938 C 50.085938 4.015625 49.917969 3.9375 49.75 3.867188 C 49.582031 3.804688 49.410156 3.738281 49.234375 3.675781 C 48.890625 3.546875 48.542969 3.417969 48.191406 3.292969 C 47.832031 3.183594 47.472656 3.078125 47.113281 2.96875 C 46.929688 2.914062 46.75 2.859375 46.566406 2.8125 C 46.386719 2.765625 46.199219 2.722656 46.015625 2.679688 C 45.648438 2.597656 45.277344 2.511719 44.90625 2.433594 C 44.53125 2.371094 44.15625 2.3125 43.78125 2.253906 C 43.59375 2.226562 43.40625 2.195312 43.21875 2.171875 C 43.03125 2.15625 42.84375 2.136719 42.652344 2.121094 C 42.28125 2.089844 41.902344 2.058594 41.53125 2.035156 C 41.121094 2.023438 40.699219 2.007812 40.265625 1.988281 C 40.15625 1.984375 40.046875 1.976562 39.941406 1.972656 L 39.777344 1.960938 L 39.617188 1.960938 C 39.410156 1.957031 39.195312 1.953125 38.980469 1.945312 C 38.769531 1.941406 38.554688 1.933594 38.339844 1.929688 L 38.179688 1.921875 L 37.996094 1.921875 L 37.664062 1.925781 C 37.226562 1.929688 36.789062 1.929688 36.359375 1.929688 C 35.988281 1.9375 35.625 1.964844 35.273438 1.984375 C 34.917969 2.011719 34.566406 2.027344 34.222656 2.082031 C 33.53125 2.179688 32.855469 2.261719 32.183594 2.417969 C 31.980469 2.460938 31.773438 2.503906 31.566406 2.546875 C 31.359375 2.589844 31.15625 2.628906 30.957031 2.6875 C 30.550781 2.796875 30.152344 2.90625 29.753906 3.011719 C 29.550781 3.058594 29.355469 3.128906 29.15625 3.191406 L 28.570312 3.382812 L 27.980469 3.574219 C 27.789062 3.648438 27.59375 3.71875 27.398438 3.789062 C 26.34375 4.167969 25.304688 4.613281 24.261719 5.113281 C 24.179688 5.136719 24.097656 5.160156 24.015625 5.183594 C 23.917969 5.207031 23.824219 5.234375 23.734375 5.265625 C 23.273438 5.410156 22.855469 5.550781 22.449219 5.691406 C 22.351562 5.726562 22.25 5.765625 22.15625 5.808594 C 22.058594 5.847656 21.957031 5.886719 21.863281 5.925781 C 21.667969 6.007812 21.472656 6.09375 21.273438 6.175781 L 20.859375 6.351562 C 20.71875 6.410156 20.585938 6.476562 20.453125 6.539062 C 20.179688 6.667969 19.902344 6.796875 19.628906 6.925781 C 19.351562 7.046875 19.082031 7.191406 18.804688 7.332031 C 18.527344 7.472656 18.25 7.613281 17.964844 7.757812 C 16.179688 8.6875 14.457031 9.808594 12.976562 11.101562 C 12.878906 11.183594 12.757812 11.285156 12.640625 11.371094 C 12.355469 11.617188 12.066406 11.867188 11.78125 12.117188 C 11.636719 12.242188 11.488281 12.363281 11.351562 12.492188 L 10.941406 12.886719 C 10.804688 13.015625 10.667969 13.148438 10.53125 13.277344 C 10.398438 13.410156 10.257812 13.539062 10.136719 13.679688 C 9.878906 13.953125 9.625 14.230469 9.375 14.503906 C 9.289062 14.601562 9.195312 14.695312 9.113281 14.796875 C 9.03125 14.898438 8.945312 15 8.859375 15.101562 C 8.6875 15.304688 8.519531 15.507812 8.351562 15.710938 C 8.128906 15.964844 7.933594 16.238281 7.730469 16.503906 C 7.535156 16.773438 7.324219 17.035156 7.128906 17.3125 C 6.933594 17.589844 6.734375 17.867188 6.539062 18.148438 C 6.441406 18.292969 6.335938 18.433594 6.238281 18.578125 C 6.140625 18.722656 6.046875 18.871094 5.949219 19.019531 C 5.40625 19.828125 4.949219 20.648438 4.539062 21.503906 C 4.367188 21.886719 4.152344 22.324219 3.933594 22.777344 C 3.730469 23.246094 3.519531 23.726562 3.324219 24.183594 C 3.414062 24.183594 3.601562 23.851562 3.925781 23.136719 C 4.0625 22.808594 4.238281 22.492188 4.398438 22.171875 L 4.644531 21.695312 C 4.722656 21.535156 4.800781 21.375 4.894531 21.222656 C 5.253906 20.601562 5.597656 19.972656 5.996094 19.378906 L 6.3125 18.882812 C 6.367188 18.804688 6.414062 18.71875 6.472656 18.640625 L 6.640625 18.398438 C 6.867188 18.085938 7.09375 17.765625 7.316406 17.449219 C 7.550781 17.136719 7.796875 16.835938 8.039062 16.535156 C 8.164062 16.382812 8.28125 16.230469 8.410156 16.082031 L 8.796875 15.648438 C 9.09375 15.332031 9.394531 14.972656 9.722656 14.640625 C 9.886719 14.472656 10.046875 14.304688 10.203125 14.136719 C 10.363281 13.972656 10.511719 13.804688 10.667969 13.65625 C 10.890625 13.4375 11.117188 13.214844 11.34375 12.992188 C 11.457031 12.882812 11.566406 12.769531 11.683594 12.664062 L 12.039062 12.355469 C 12.277344 12.148438 12.511719 11.9375 12.75 11.730469 C 12.988281 11.527344 13.238281 11.335938 13.480469 11.140625 C 13.652344 11.003906 13.828125 10.863281 14 10.726562 C 14.175781 10.589844 14.359375 10.464844 14.539062 10.332031 C 14.714844 10.203125 14.890625 10.070312 15.066406 9.945312 C 15.152344 9.882812 15.238281 9.816406 15.320312 9.757812 C 15.410156 9.695312 15.496094 9.636719 15.578125 9.578125 C 15.910156 9.351562 16.242188 9.128906 16.574219 8.910156 C 16.914062 8.699219 17.265625 8.503906 17.609375 8.300781 C 17.78125 8.203125 17.953125 8.097656 18.128906 8.007812 C 18.308594 7.917969 18.488281 7.824219 18.667969 7.734375 C 18.847656 7.644531 19.027344 7.554688 19.207031 7.460938 L 19.480469 7.328125 L 19.757812 7.203125 C 20.152344 7.03125 20.46875 6.902344 20.777344 6.78125 C 20.929688 6.71875 21.085938 6.671875 21.242188 6.617188 C 21.363281 6.574219 21.484375 6.53125 21.613281 6.488281 L 20.558594 7.113281 C 19.855469 7.578125 19.144531 8.027344 18.480469 8.535156 C 18.320312 8.652344 18.152344 8.773438 17.992188 8.890625 L 17.867188 8.980469 L 17.753906 9.078125 C 17.671875 9.140625 17.59375 9.207031 17.515625 9.269531 C 17.207031 9.523438 16.910156 9.769531 16.660156 9.996094 C 16.292969 10.34375 15.96875 10.675781 15.648438 11.003906 C 15.484375 11.160156 15.335938 11.335938 15.179688 11.507812 C 15.027344 11.679688 14.867188 11.851562 14.703125 12.03125 C 14.617188 12.128906 14.519531 12.230469 14.421875 12.34375 C 14.324219 12.457031 14.226562 12.570312 14.125 12.6875 C 13.929688 12.917969 13.726562 13.140625 13.558594 13.308594 C 12.019531 14.878906 10.699219 16.628906 9.566406 18.527344 C 9.539062 18.578125 9.503906 18.628906 9.472656 18.679688 C 9.4375 18.734375 9.410156 18.789062 9.378906 18.847656 C 9.3125 18.953125 9.25 19.070312 9.183594 19.179688 C 9.054688 19.398438 8.925781 19.609375 8.816406 19.777344 C 7.902344 21.242188 7.273438 22.808594 6.703125 24.390625 C 6.652344 24.492188 6.601562 24.589844 6.546875 24.6875 C 6.453125 24.878906 6.371094 25.074219 6.277344 25.265625 C 6.1875 25.457031 6.097656 25.648438 6.011719 25.832031 C 5.972656 25.925781 5.925781 26.019531 5.882812 26.109375 C 5.835938 26.199219 5.796875 26.285156 5.757812 26.375 C 5.5625 26.816406 5.394531 27.222656 5.238281 27.621094 C 5.195312 27.71875 5.160156 27.820312 5.125 27.917969 C 5.089844 28.019531 5.054688 28.121094 5.023438 28.21875 C 4.957031 28.421875 4.890625 28.621094 4.820312 28.824219 L 4.679688 29.253906 C 4.632812 29.394531 4.59375 29.542969 4.550781 29.6875 C 4.46875 29.976562 4.382812 30.265625 4.300781 30.558594 C 4.207031 30.847656 4.140625 31.144531 4.0625 31.445312 C 3.984375 31.746094 3.902344 32.050781 3.824219 32.355469 C 3.347656 34.308594 3.054688 36.347656 3.046875 38.3125 C 3.046875 38.4375 3.039062 38.597656 3.03125 38.738281 C 3.023438 39.121094 3.023438 39.5 3.019531 39.882812 C 3.019531 40.070312 3.011719 40.261719 3.019531 40.453125 C 3.027344 40.640625 3.035156 40.832031 3.042969 41.019531 C 3.054688 41.207031 3.058594 41.398438 3.070312 41.585938 C 3.082031 41.773438 3.082031 41.960938 3.105469 42.148438 C 3.144531 42.523438 3.183594 42.894531 3.226562 43.265625 C 3.246094 43.390625 3.253906 43.519531 3.273438 43.652344 C 3.296875 43.78125 3.316406 43.910156 3.335938 44.042969 C 3.375 44.304688 3.417969 44.566406 3.457031 44.828125 C 3.5 45.15625 3.578125 45.484375 3.648438 45.8125 C 3.714844 46.140625 3.777344 46.472656 3.851562 46.800781 C 3.933594 47.128906 4.015625 47.464844 4.097656 47.796875 C 4.136719 47.964844 4.171875 48.132812 4.21875 48.304688 C 4.265625 48.472656 4.3125 48.640625 4.359375 48.8125 C 4.605469 49.753906 4.921875 50.640625 5.289062 51.511719 C 5.46875 51.890625 5.65625 52.34375 5.851562 52.808594 C 6.066406 53.269531 6.292969 53.742188 6.503906 54.195312 C 6.5625 54.128906 6.4375 53.765625 6.113281 53.050781 C 5.960938 52.726562 5.839844 52.390625 5.703125 52.0625 L 5.507812 51.5625 C 5.441406 51.394531 5.371094 51.230469 5.316406 51.058594 C 5.089844 50.382812 4.84375 49.707031 4.660156 49.015625 L 4.5 48.453125 C 4.46875 48.359375 4.441406 48.265625 4.417969 48.171875 L 4.351562 47.886719 C 4.261719 47.507812 4.171875 47.128906 4.082031 46.75 C 4.003906 46.367188 3.941406 45.984375 3.871094 45.601562 C 3.839844 45.410156 3.800781 45.222656 3.777344 45.027344 L 3.710938 44.449219 C 3.664062 44.015625 3.59375 43.554688 3.566406 43.089844 C 3.542969 42.855469 3.523438 42.621094 3.503906 42.394531 C 3.480469 42.167969 3.457031 41.945312 3.449219 41.726562 C 3.429688 41.414062 3.410156 41.097656 3.394531 40.785156 C 3.386719 40.628906 3.371094 40.46875 3.371094 40.3125 L 3.371094 39.839844 C 3.371094 39.523438 3.371094 39.210938 3.371094 38.894531 C 3.378906 38.582031 3.402344 38.265625 3.410156 37.957031 C 3.421875 37.734375 3.433594 37.515625 3.441406 37.292969 C 3.457031 37.074219 3.484375 36.851562 3.5 36.628906 C 3.519531 36.410156 3.542969 36.191406 3.558594 35.976562 C 3.566406 35.871094 3.574219 35.765625 3.585938 35.660156 C 3.597656 35.554688 3.613281 35.453125 3.625 35.351562 C 3.671875 34.953125 3.722656 34.554688 3.777344 34.160156 C 3.839844 33.769531 3.925781 33.375 4.003906 32.984375 C 4.042969 32.789062 4.074219 32.59375 4.125 32.394531 C 4.175781 32.203125 4.226562 32.007812 4.277344 31.8125 C 4.324219 31.617188 4.378906 31.421875 4.429688 31.226562 L 4.507812 30.933594 L 4.597656 30.640625 C 4.730469 30.230469 4.84375 29.90625 4.957031 29.597656 C 5.007812 29.441406 5.074219 29.292969 5.136719 29.140625 C 5.203125 28.984375 5.265625 28.828125 5.332031 28.652344 L 5.578125 28.007812 C 5.664062 27.792969 5.757812 27.582031 5.847656 27.371094 L 6.121094 26.738281 L 6.148438 26.65625 C 6.082031 27.074219 6.023438 27.484375 5.976562 27.863281 C 5.96875 27.957031 5.996094 27.945312 6.035156 27.886719 C 6.058594 27.855469 6.082031 27.8125 6.109375 27.765625 C 6.132812 27.722656 6.160156 27.667969 6.1875 27.617188 C 6.285156 27.417969 6.386719 27.183594 6.496094 26.917969 C 6.546875 26.785156 6.601562 26.644531 6.65625 26.5 C 6.683594 26.425781 6.710938 26.351562 6.734375 26.273438 C 6.769531 26.199219 6.800781 26.121094 6.828125 26.039062 C 6.957031 25.722656 7.089844 25.375 7.222656 25.007812 C 7.253906 24.914062 7.289062 24.820312 7.324219 24.726562 C 7.363281 24.632812 7.402344 24.539062 7.441406 24.441406 C 7.515625 24.246094 7.597656 24.046875 7.679688 23.84375 C 7.867188 23.371094 8.070312 22.902344 8.28125 22.433594 C 8.796875 21.554688 9.339844 20.6875 9.90625 19.902344 C 10.039062 19.710938 10.171875 19.511719 10.308594 19.316406 C 10.449219 19.125 10.59375 18.9375 10.726562 18.757812 C 10.992188 18.394531 11.207031 18.070312 11.355469 17.824219 C 11.117188 18.058594 10.890625 18.304688 10.648438 18.558594 C 10.53125 18.6875 10.410156 18.820312 10.289062 18.953125 C 10.230469 19.019531 10.167969 19.085938 10.109375 19.15625 C 10.050781 19.226562 9.996094 19.296875 9.9375 19.371094 C 9.867188 19.457031 9.800781 19.546875 9.726562 19.632812 C 9.953125 19.238281 10.183594 18.847656 10.421875 18.460938 C 10.582031 18.203125 10.746094 17.941406 10.90625 17.679688 C 11.078125 17.429688 11.25 17.175781 11.421875 16.925781 C 11.753906 16.417969 12.117188 15.949219 12.457031 15.484375 C 13.140625 14.558594 13.808594 13.71875 14.359375 13.003906 C 14.507812 12.855469 14.636719 12.71875 14.757812 12.609375 C 14.882812 12.496094 14.988281 12.398438 15.082031 12.3125 C 15.273438 12.140625 15.410156 12.015625 15.53125 11.914062 C 15.648438 11.8125 15.746094 11.734375 15.847656 11.660156 C 15.949219 11.582031 16.058594 11.515625 16.203125 11.421875 C 16.429688 11.277344 16.644531 11.132812 16.894531 10.941406 C 16.957031 10.890625 17.019531 10.839844 17.085938 10.785156 C 17.152344 10.730469 17.222656 10.671875 17.300781 10.613281 C 17.453125 10.496094 17.617188 10.363281 17.800781 10.207031 C 17.972656 10.066406 18.15625 9.917969 18.351562 9.765625 C 18.542969 9.617188 18.75 9.476562 18.945312 9.335938 L 19.425781 8.992188 L 19.667969 8.820312 C 19.746094 8.765625 19.832031 8.710938 19.914062 8.660156 L 20.910156 8.019531 C 20.992188 7.964844 21.074219 7.914062 21.164062 7.863281 L 21.417969 7.71875 L 21.929688 7.421875 C 22.101562 7.328125 22.269531 7.226562 22.441406 7.136719 C 22.617188 7.046875 22.792969 6.957031 22.96875 6.871094 C 23.160156 6.777344 23.347656 6.679688 23.539062 6.582031 L 23.828125 6.441406 L 24.121094 6.3125 C 24.515625 6.140625 24.90625 5.96875 25.300781 5.800781 C 25.699219 5.652344 26.09375 5.503906 26.484375 5.359375 C 26.582031 5.324219 26.675781 5.289062 26.773438 5.253906 C 26.871094 5.222656 26.96875 5.191406 27.070312 5.164062 C 27.261719 5.101562 27.457031 5.042969 27.648438 4.988281 C 27.902344 4.910156 28.148438 4.832031 28.394531 4.765625 C 28.640625 4.703125 28.882812 4.636719 29.121094 4.570312 C 29.355469 4.507812 29.589844 4.441406 29.828125 4.371094 C 30.007812 4.324219 30.183594 4.277344 30.363281 4.230469 C 30.691406 4.183594 31.015625 4.144531 31.332031 4.113281 C 31.5625 4.085938 31.800781 4.058594 32.035156 4.03125 C 32.273438 4.011719 32.507812 3.992188 32.730469 3.976562 C 33.179688 3.9375 33.566406 3.886719 33.84375 3.832031 C 33.511719 3.808594 33.179688 3.796875 32.828125 3.789062 C 32.652344 3.785156 32.476562 3.78125 32.296875 3.777344 C 32.285156 3.777344 32.273438 3.777344 32.261719 3.777344 C 32.367188 3.753906 32.476562 3.734375 32.582031 3.710938 C 32.753906 3.675781 32.929688 3.636719 33.101562 3.605469 C 33.277344 3.578125 33.453125 3.550781 33.625 3.523438 C 33.972656 3.46875 34.320312 3.410156 34.664062 3.347656 C 35.074219 3.292969 35.515625 3.242188 35.972656 3.191406 C 36.085938 3.179688 36.199219 3.167969 36.316406 3.15625 C 36.429688 3.144531 36.550781 3.140625 36.664062 3.136719 C 36.902344 3.125 37.140625 3.113281 37.382812 3.105469 C 37.621094 3.09375 37.867188 3.078125 38.109375 3.078125 C 38.351562 3.078125 38.597656 3.082031 38.84375 3.085938 C 39.089844 3.085938 39.332031 3.089844 39.578125 3.09375 C 39.699219 3.09375 39.820312 3.097656 39.941406 3.105469 C 40.0625 3.113281 40.179688 3.121094 40.304688 3.128906 C 42.742188 3.25 45.226562 3.707031 47.550781 4.328125 C 48.53125 4.589844 49.542969 4.921875 50.449219 5.246094 C 50.652344 5.316406 50.859375 5.378906 51.054688 5.460938 C 51.253906 5.539062 51.453125 5.617188 51.648438 5.695312 C 52.046875 5.855469 52.445312 5.996094 52.828125 6.175781 C 53.210938 6.351562 53.597656 6.523438 53.980469 6.695312 C 54.359375 6.886719 54.734375 7.078125 55.109375 7.269531 C 55.203125 7.316406 55.300781 7.367188 55.394531 7.417969 C 55.492188 7.46875 55.582031 7.519531 55.671875 7.570312 C 55.851562 7.667969 56.019531 7.753906 56.144531 7.8125 C 56.769531 8.085938 57.472656 8.539062 58.222656 9.042969 C 58.582031 9.3125 58.949219 9.597656 59.320312 9.886719 C 59.507812 10.027344 59.679688 10.191406 59.855469 10.34375 C 60.03125 10.5 60.207031 10.65625 60.378906 10.808594 C 60.488281 10.910156 60.601562 11.007812 60.710938 11.113281 L 61.035156 11.433594 C 61.25 11.648438 61.464844 11.863281 61.679688 12.078125 C 61.730469 12.128906 61.785156 12.183594 61.839844 12.238281 L 61.992188 12.40625 C 62.089844 12.515625 62.191406 12.628906 62.292969 12.738281 C 62.496094 12.964844 62.695312 13.183594 62.894531 13.40625 C 63.082031 13.640625 63.269531 13.867188 63.453125 14.09375 C 63.636719 14.324219 63.824219 14.546875 63.992188 14.777344 C 64.160156 15.011719 64.328125 15.242188 64.488281 15.46875 C 64.570312 15.582031 64.652344 15.695312 64.730469 15.808594 C 64.773438 15.863281 64.8125 15.917969 64.851562 15.976562 C 64.890625 16.035156 64.921875 16.089844 64.960938 16.148438 C 65.191406 16.507812 65.425781 16.867188 65.660156 17.226562 C 65.828125 17.496094 65.992188 17.769531 66.15625 18.042969 C 66.078125 17.957031 65.996094 17.871094 65.921875 17.78125 L 65.523438 17.339844 C 65.390625 17.199219 65.25 17.058594 65.109375 16.917969 C 64.828125 16.636719 64.558594 16.351562 64.273438 16.078125 C 63.980469 15.8125 63.6875 15.542969 63.394531 15.269531 C 63.328125 15.207031 63.257812 15.144531 63.1875 15.078125 C 63.117188 15.019531 63.042969 14.957031 62.96875 14.894531 C 62.824219 14.769531 62.675781 14.644531 62.523438 14.515625 C 62.375 14.386719 62.222656 14.261719 62.070312 14.128906 L 61.957031 14.03125 L 61.835938 13.9375 C 61.757812 13.875 61.679688 13.8125 61.597656 13.75 C 61.277344 13.5 60.957031 13.246094 60.632812 12.996094 C 60.296875 12.761719 59.964844 12.527344 59.636719 12.296875 C 59.40625 12.109375 59.148438 11.941406 58.890625 11.761719 C 58.632812 11.585938 58.367188 11.40625 58.097656 11.222656 C 57.824219 11.050781 57.539062 10.882812 57.257812 10.710938 C 56.964844 10.539062 56.683594 10.355469 56.378906 10.203125 C 56.078125 10.042969 55.777344 9.882812 55.472656 9.71875 L 55.246094 9.597656 C 55.171875 9.558594 55.089844 9.523438 55.015625 9.488281 L 54.550781 9.265625 C 54.394531 9.195312 54.238281 9.121094 54.085938 9.046875 C 53.929688 8.976562 53.78125 8.898438 53.617188 8.835938 C 53.308594 8.703125 52.992188 8.574219 52.6875 8.445312 C 52.523438 8.378906 52.359375 8.304688 52.191406 8.242188 C 52.023438 8.179688 51.851562 8.121094 51.679688 8.0625 C 51.339844 7.941406 51 7.816406 50.652344 7.699219 C 50.300781 7.597656 49.945312 7.492188 49.589844 7.386719 C 49.414062 7.335938 49.234375 7.28125 49.054688 7.234375 C 48.929688 7.207031 48.804688 7.175781 48.679688 7.148438 C 47.1875 6.425781 45.664062 5.796875 44.109375 5.246094 C 43.769531 5.109375 43.355469 5.007812 42.972656 4.894531 C 42.589844 4.785156 42.148438 4.660156 41.828125 4.582031 C 41.144531 4.398438 40.503906 4.242188 39.835938 4.160156 C 38.925781 4.007812 37.972656 3.929688 37.136719 3.871094 C 36.792969 3.863281 36.574219 3.898438 36.527344 3.929688 C 36.492188 3.957031 36.617188 3.980469 36.8125 4.007812 C 36.910156 4.023438 37.023438 4.035156 37.148438 4.046875 C 37.265625 4.066406 37.390625 4.082031 37.511719 4.101562 C 37.832031 4.148438 38.15625 4.191406 38.476562 4.238281 C 38.636719 4.261719 38.800781 4.277344 38.953125 4.308594 C 39.117188 4.339844 39.277344 4.367188 39.4375 4.398438 C 39.757812 4.457031 40.082031 4.515625 40.40625 4.574219 C 40.730469 4.640625 41.050781 4.71875 41.382812 4.789062 C 41.710938 4.863281 42.046875 4.921875 42.371094 5.019531 C 42.703125 5.109375 43.03125 5.199219 43.359375 5.289062 C 43.691406 5.375 44.007812 5.496094 44.328125 5.609375 C 44.644531 5.722656 44.960938 5.835938 45.261719 5.964844 C 45.347656 6.003906 45.523438 6.066406 45.652344 6.117188 C 46.261719 6.351562 46.863281 6.601562 47.453125 6.871094 C 47.445312 6.867188 47.433594 6.863281 47.421875 6.863281 C 47.054688 6.800781 46.6875 6.738281 46.320312 6.679688 C 46.136719 6.648438 45.953125 6.617188 45.769531 6.589844 C 45.585938 6.570312 45.398438 6.550781 45.214844 6.527344 C 44.847656 6.492188 44.480469 6.453125 44.113281 6.417969 C 43.714844 6.398438 43.304688 6.375 42.878906 6.351562 C 42.773438 6.34375 42.667969 6.335938 42.558594 6.328125 L 42.398438 6.320312 L 42.242188 6.316406 C 42.03125 6.3125 41.820312 6.308594 41.605469 6.300781 C 41.390625 6.296875 41.175781 6.289062 40.964844 6.285156 L 40.804688 6.277344 L 40.554688 6.277344 C 40.332031 6.253906 40.113281 6.238281 39.890625 6.21875 L 39.328125 6.167969 C 39.140625 6.152344 38.949219 6.132812 38.765625 6.128906 L 37.632812 6.082031 L 37.351562 6.074219 L 37.066406 6.074219 L 36.5 6.082031 C 35.746094 6.070312 34.996094 6.132812 34.242188 6.171875 C 33.871094 6.199219 33.496094 6.25 33.121094 6.285156 L 32.5625 6.34375 C 32.375 6.367188 32.191406 6.398438 32.003906 6.425781 C 31.765625 6.464844 31.5 6.503906 31.3125 6.542969 C 29.617188 6.910156 27.734375 7.382812 25.710938 8.074219 C 25.429688 8.171875 25.152344 8.273438 24.882812 8.371094 C 22.910156 9.136719 21.015625 10.035156 19.1875 11.058594 C 18.859375 11.226562 18.511719 11.46875 18.175781 11.679688 C 17.84375 11.898438 17.457031 12.144531 17.1875 12.332031 C 16.59375 12.726562 16.054688 13.105469 15.554688 13.550781 C 14.839844 14.136719 14.152344 14.800781 13.550781 15.390625 C 13.320312 15.640625 13.203125 15.828125 13.199219 15.890625 C 13.191406 15.929688 13.296875 15.851562 13.445312 15.722656 C 13.519531 15.660156 13.605469 15.582031 13.695312 15.5 C 13.789062 15.421875 13.882812 15.339844 13.976562 15.261719 C 14.222656 15.050781 14.46875 14.839844 14.714844 14.628906 C 14.839844 14.523438 14.957031 14.410156 15.085938 14.3125 C 15.214844 14.214844 15.339844 14.113281 15.472656 14.011719 C 15.726562 13.8125 15.984375 13.605469 16.242188 13.402344 C 16.507812 13.203125 16.777344 13.011719 17.050781 12.808594 C 17.320312 12.613281 17.585938 12.398438 17.871094 12.21875 C 18.160156 12.027344 18.445312 11.84375 18.730469 11.652344 C 19.011719 11.460938 19.3125 11.304688 19.605469 11.140625 C 19.902344 10.976562 20.195312 10.816406 20.492188 10.675781 C 20.578125 10.636719 20.738281 10.542969 20.863281 10.476562 C 22.925781 9.390625 25.109375 8.527344 27.351562 7.894531 C 27.660156 7.800781 27.976562 7.71875 28.296875 7.644531 C 15.53125 11.558594 6.25 23.441406 6.25 37.496094 C 6.25 42.289062 7.335938 46.828125 9.265625 50.886719 C 9.265625 50.890625 9.265625 50.894531 9.265625 50.894531 C 8.894531 50.179688 8.554688 49.4375 8.261719 48.667969 C 8 47.929688 7.648438 47.089844 7.398438 46.269531 C 6.78125 44.382812 6.28125 42.613281 5.964844 40.71875 C 5.90625 40.324219 5.847656 39.9375 5.789062 39.5625 C 5.777344 39.46875 5.757812 39.375 5.746094 39.28125 C 5.738281 39.1875 5.726562 39.09375 5.71875 39 C 5.699219 38.816406 5.675781 38.632812 5.65625 38.449219 C 5.636719 38.269531 5.617188 38.089844 5.59375 37.914062 C 5.582031 37.824219 5.570312 37.734375 5.5625 37.648438 C 5.554688 37.5625 5.550781 37.472656 5.542969 37.386719 C 5.511719 37.039062 5.488281 36.699219 5.460938 36.367188 C 5.453125 36.285156 5.445312 36.203125 5.4375 36.121094 L 5.433594 36.058594 L 5.429688 36.027344 L 5.429688 36 C 5.429688 36.003906 5.429688 35.988281 5.429688 36.011719 L 5.429688 36.003906 L 5.421875 35.882812 C 5.417969 35.71875 5.410156 35.554688 5.402344 35.394531 C 5.386719 35.074219 5.367188 34.757812 5.347656 34.453125 C 5.332031 34.296875 5.335938 34.152344 5.332031 34.003906 C 5.328125 33.855469 5.324219 33.710938 5.320312 33.566406 C 5.3125 33.277344 5.300781 32.996094 5.285156 32.71875 C 5.195312 32.949219 5.09375 33.1875 5.023438 33.367188 C 5 33.558594 4.976562 33.742188 4.953125 33.929688 C 4.933594 34.113281 4.902344 34.292969 4.898438 34.472656 C 4.867188 34.828125 4.84375 35.179688 4.816406 35.523438 C 4.804688 35.695312 4.789062 35.859375 4.78125 36.039062 C 4.777344 36.210938 4.773438 36.382812 4.773438 36.554688 C 4.765625 36.894531 4.761719 37.238281 4.753906 37.582031 C 4.78125 39.429688 4.933594 41.300781 5.316406 43.199219 C 5.726562 45.226562 6.347656 47.230469 7.164062 49.160156 C 7.976562 51.089844 8.980469 52.941406 10.132812 54.6875 C 10.390625 55.074219 10.699219 55.453125 10.980469 55.84375 C 11.164062 56.101562 11.449219 56.410156 11.5625 56.574219 C 11.75 56.855469 11.949219 57.128906 12.152344 57.394531 C 12.371094 57.652344 12.589844 57.90625 12.8125 58.15625 L 12.957031 58.316406 C 12.96875 58.335938 12.980469 58.351562 12.992188 58.371094 C 13.25 58.757812 13.546875 59.140625 13.828125 59.527344 C 14.003906 59.785156 14.28125 60.101562 14.390625 60.261719 C 14.589844 60.53125 14.792969 60.796875 14.996094 61.058594 C 15.210938 61.3125 15.429688 61.566406 15.648438 61.816406 L 15.980469 62.1875 C 16.089844 62.3125 16.210938 62.425781 16.324219 62.546875 L 17.019531 63.261719 C 17.121094 63.375 17.234375 63.476562 17.34375 63.578125 L 17.675781 63.890625 C 17.894531 64.097656 18.113281 64.304688 18.335938 64.507812 L 19.023438 65.089844 L 19.367188 65.382812 C 19.425781 65.433594 19.480469 65.484375 19.539062 65.527344 L 19.71875 65.667969 C 19.960938 65.855469 20.199219 66.039062 20.4375 66.226562 L 20.789062 66.503906 L 21.164062 66.769531 C 21.410156 66.949219 21.660156 67.128906 21.90625 67.304688 L 22.003906 67.378906 C 21.875 67.328125 21.75 67.28125 21.625 67.230469 L 21.128906 67.03125 L 20.640625 66.8125 L 19.667969 66.375 C 19.351562 66.214844 19.035156 66.054688 18.71875 65.894531 C 18.558594 65.8125 18.398438 65.738281 18.242188 65.652344 L 17.777344 65.390625 C 17.472656 65.214844 17.160156 65.046875 16.855469 64.867188 C 16.554688 64.679688 16.253906 64.492188 15.953125 64.304688 C 15.804688 64.207031 15.652344 64.121094 15.507812 64.015625 L 14.632812 63.414062 C 14.488281 63.308594 14.339844 63.21875 14.203125 63.105469 C 13.863281 62.847656 13.523438 62.597656 13.1875 62.335938 C 11.6875 61.117188 10.300781 59.757812 9.074219 58.28125 C 8.96875 58.160156 8.859375 58.03125 8.742188 57.90625 C 8.628906 57.777344 8.523438 57.640625 8.417969 57.511719 C 8.277344 57.335938 8.136719 57.160156 7.992188 56.984375 C 7.851562 56.808594 7.699219 56.636719 7.570312 56.449219 C 7.179688 55.90625 6.765625 55.363281 6.40625 54.789062 C 6.222656 54.503906 6.03125 54.226562 5.859375 53.945312 C 5.683594 53.660156 5.515625 53.378906 5.351562 53.101562 C 5.070312 52.660156 4.824219 52.164062 4.570312 51.707031 C 4.304688 51.246094 4.09375 50.789062 3.882812 50.429688 C 3.5 49.753906 3.429688 49.742188 3.757812 50.613281 C 3.84375 50.847656 3.949219 51.109375 4.050781 51.371094 C 4.167969 51.628906 4.285156 51.890625 4.394531 52.128906 C 4.492188 52.351562 4.59375 52.578125 4.703125 52.808594 C 4.8125 53.039062 4.9375 53.269531 5.066406 53.503906 C 5.195312 53.738281 5.324219 53.980469 5.457031 54.222656 C 5.601562 54.464844 5.757812 54.699219 5.910156 54.945312 C 6.613281 56.078125 7.417969 57.140625 8.246094 58.175781 C 9.113281 59.183594 10.003906 60.160156 10.980469 61.027344 C 11.257812 61.273438 11.546875 61.5625 11.847656 61.8125 C 14.226562 63.941406 16.914062 65.726562 19.804688 67.089844 L 20.84375 67.570312 C 21.195312 67.714844 21.550781 67.851562 21.90625 67.996094 L 22.4375 68.207031 L 22.976562 68.394531 C 23.335938 68.515625 23.695312 68.648438 24.058594 68.761719 C 24.171875 68.796875 24.28125 68.828125 24.394531 68.859375 C 26.222656 69.859375 28.132812 70.675781 30.109375 71.402344 C 30.222656 71.441406 30.367188 71.496094 30.527344 71.542969 C 30.609375 71.570312 30.691406 71.597656 30.773438 71.625 C 30.855469 71.648438 30.9375 71.667969 31.015625 71.691406 C 31.78125 71.917969 32.558594 72.117188 33.335938 72.289062 C 32.734375 72.230469 32.125 72.183594 31.523438 72.085938 C 31.1875 72.035156 30.855469 71.992188 30.527344 71.941406 C 30.199219 71.882812 29.875 71.820312 29.558594 71.761719 C 29.042969 71.683594 28.507812 71.539062 27.992188 71.429688 C 27.476562 71.328125 26.992188 71.183594 26.578125 71.101562 C 25.824219 70.945312 25.765625 70.992188 26.632812 71.320312 C 26.867188 71.40625 27.132812 71.5 27.398438 71.597656 C 27.667969 71.679688 27.945312 71.761719 28.191406 71.839844 C 28.425781 71.914062 28.664062 71.988281 28.910156 72.0625 C 29.15625 72.128906 29.410156 72.183594 29.671875 72.246094 C 29.933594 72.304688 30.203125 72.363281 30.472656 72.425781 C 30.746094 72.476562 31.027344 72.519531 31.3125 72.5625 C 32.625 72.78125 33.960938 72.878906 35.28125 72.9375 C 35.984375 72.945312 36.683594 72.945312 37.378906 72.914062 C 37.480469 72.925781 37.589844 72.9375 37.691406 72.945312 C 38.101562 72.976562 38.507812 73.003906 38.914062 73.035156 C 39.324219 73.050781 39.730469 73.058594 40.132812 73.070312 C 40.339844 73.070312 40.535156 73.082031 40.746094 73.078125 C 40.949219 73.074219 41.148438 73.066406 41.351562 73.0625 C 41.558594 73.054688 41.761719 73.050781 41.964844 73.042969 C 42.164062 73.035156 42.367188 73.039062 42.566406 73.015625 C 42.96875 72.984375 43.367188 72.949219 43.769531 72.917969 L 44.0625 72.890625 L 44.359375 72.851562 C 44.554688 72.824219 44.753906 72.796875 44.945312 72.769531 C 45.730469 72.675781 46.488281 72.507812 47.234375 72.359375 C 47.335938 72.339844 47.445312 72.3125 47.546875 72.285156 C 47.652344 72.257812 47.757812 72.230469 47.863281 72.203125 C 48.078125 72.148438 48.292969 72.09375 48.507812 72.039062 C 48.945312 71.9375 49.378906 71.796875 49.816406 71.671875 C 50.03125 71.609375 50.242188 71.546875 50.449219 71.488281 C 50.65625 71.421875 50.855469 71.347656 51.054688 71.28125 C 51.25 71.210938 51.441406 71.144531 51.632812 71.078125 C 51.730469 71.042969 51.824219 71.007812 51.917969 70.976562 L 52.0625 70.925781 L 52.199219 70.867188 C 52.566406 70.714844 52.925781 70.5625 53.285156 70.414062 L 53.554688 70.300781 L 53.816406 70.171875 C 53.992188 70.085938 54.167969 70.003906 54.34375 69.917969 C 54.589844 69.792969 54.84375 69.679688 55.09375 69.546875 C 55.339844 69.414062 55.589844 69.277344 55.839844 69.140625 C 55.96875 69.070312 56.09375 69.003906 56.21875 68.9375 L 56.414062 68.832031 L 56.601562 68.71875 C 56.847656 68.570312 57.105469 68.414062 57.359375 68.261719 C 57.488281 68.1875 57.617188 68.109375 57.746094 68.03125 C 57.875 67.949219 58 67.867188 58.128906 67.78125 C 58.386719 67.617188 58.644531 67.445312 58.90625 67.273438 C 58.972656 67.230469 59.035156 67.1875 59.101562 67.144531 C 59.167969 67.097656 59.230469 67.054688 59.296875 67.007812 C 59.425781 66.914062 59.550781 66.824219 59.683594 66.730469 C 59.945312 66.542969 60.214844 66.363281 60.476562 66.164062 C 60.886719 65.84375 61.300781 65.53125 61.707031 65.210938 C 62.101562 64.878906 62.496094 64.550781 62.875 64.210938 C 64.101562 63.078125 65.210938 61.917969 66.253906 60.691406 C 66.507812 60.375 66.761719 60.0625 67.011719 59.746094 C 67.140625 59.59375 67.257812 59.421875 67.375 59.257812 C 67.496094 59.09375 67.617188 58.929688 67.734375 58.765625 C 67.855469 58.597656 67.976562 58.433594 68.089844 58.265625 C 68.203125 58.089844 68.316406 57.917969 68.429688 57.742188 C 68.539062 57.566406 68.652344 57.394531 68.765625 57.214844 C 68.820312 57.128906 68.878906 57.039062 68.933594 56.949219 C 68.984375 56.859375 69.039062 56.765625 69.089844 56.671875 C 69.292969 56.320312 69.5 55.960938 69.707031 55.597656 C 69.898438 55.226562 70.097656 54.847656 70.292969 54.472656 L 70.4375 54.195312 C 70.484375 54.101562 70.523438 54.003906 70.566406 53.90625 C 70.65625 53.71875 70.742188 53.53125 70.828125 53.34375 C 70.914062 53.152344 70.996094 52.96875 71.078125 52.785156 C 71.15625 52.601562 71.226562 52.414062 71.292969 52.234375 C 71.375 52.019531 71.457031 51.808594 71.539062 51.59375 C 71.621094 51.378906 71.707031 51.164062 71.773438 50.945312 C 71.914062 50.507812 72.058594 50.066406 72.203125 49.625 C 72.328125 49.175781 72.449219 48.730469 72.570312 48.285156 C 72.636719 48.0625 72.679688 47.835938 72.730469 47.613281 C 72.777344 47.386719 72.828125 47.164062 72.875 46.941406 C 72.984375 46.5 73.042969 46.050781 73.117188 45.613281 C 73.148438 45.394531 73.1875 45.175781 73.222656 44.960938 C 73.253906 44.746094 73.269531 44.527344 73.292969 44.316406 C 73.316406 44.101562 73.339844 43.890625 73.359375 43.683594 C 73.367188 43.578125 73.378906 43.472656 73.386719 43.371094 L 73.40625 43.214844 L 73.414062 43.0625 C 73.429688 42.652344 73.441406 42.257812 73.460938 41.875 C 73.460938 41.75 73.476562 41.574219 73.472656 41.410156 C 73.476562 41.25 73.476562 41.101562 73.472656 41.039062 C 73.441406 40.683594 73.40625 40.5 73.378906 40.167969 C 73.320312 39.449219 73.214844 39.925781 73.128906 41.308594 C 73.125 41.378906 73.121094 41.445312 73.117188 41.515625 C 73.109375 41.582031 73.101562 41.648438 73.09375 41.71875 C 73.078125 41.851562 73.0625 41.988281 73.046875 42.128906 C 73.019531 42.402344 72.992188 42.679688 72.964844 42.960938 C 72.957031 43.035156 72.945312 43.105469 72.941406 43.175781 C 72.929688 43.246094 72.917969 43.320312 72.910156 43.390625 C 72.886719 43.535156 72.863281 43.679688 72.84375 43.824219 C 72.800781 44.117188 72.757812 44.410156 72.71875 44.710938 C 72.667969 45.007812 72.605469 45.304688 72.550781 45.609375 C 72.523438 45.757812 72.492188 45.910156 72.464844 46.0625 C 72.433594 46.214844 72.414062 46.367188 72.371094 46.519531 C 72.300781 46.824219 72.226562 47.128906 72.15625 47.4375 C 72.121094 47.59375 72.082031 47.746094 72.046875 47.902344 C 72.007812 48.054688 71.960938 48.210938 71.917969 48.363281 L 71.628906 49.390625 C 71.523438 49.726562 71.402344 50.0625 71.292969 50.402344 L 71.125 50.90625 C 71.066406 51.074219 71 51.238281 70.9375 51.40625 C 70.804688 51.734375 70.675781 52.066406 70.546875 52.398438 C 70.433594 52.667969 70.308594 52.933594 70.191406 53.203125 C 70.070312 53.464844 69.957031 53.734375 69.835938 53.992188 C 69.710938 54.246094 69.585938 54.5 69.464844 54.742188 C 69.40625 54.867188 69.34375 54.988281 69.289062 55.109375 C 69.261719 55.171875 69.234375 55.230469 69.207031 55.292969 C 69.175781 55.351562 69.148438 55.40625 69.117188 55.464844 C 68.992188 55.710938 68.8125 56.035156 68.613281 56.386719 C 68.566406 56.472656 68.515625 56.5625 68.464844 56.652344 C 68.414062 56.742188 68.355469 56.828125 68.304688 56.914062 C 68.191406 57.089844 68.085938 57.265625 67.984375 57.429688 C 67.382812 58.417969 66.535156 59.527344 66.003906 60.242188 C 65.910156 60.371094 65.824219 60.503906 65.714844 60.628906 C 65.613281 60.753906 65.511719 60.882812 65.40625 61.007812 C 65.195312 61.261719 64.984375 61.523438 64.761719 61.78125 C 64.53125 62.03125 64.296875 62.28125 64.0625 62.53125 L 63.707031 62.910156 L 63.339844 63.269531 L 62.683594 63.90625 C 62.460938 64.117188 62.226562 64.3125 62 64.515625 L 61.652344 64.820312 C 61.539062 64.921875 61.425781 65.023438 61.304688 65.117188 C 61.066406 65.308594 60.824219 65.5 60.582031 65.691406 L 60.222656 65.976562 C 60.09375 66.066406 59.96875 66.15625 59.839844 66.246094 C 59.589844 66.425781 59.335938 66.605469 59.082031 66.785156 C 58.957031 66.875 58.820312 66.960938 58.691406 67.042969 C 58.558594 67.128906 58.425781 67.210938 58.292969 67.296875 C 58.027344 67.460938 57.765625 67.636719 57.488281 67.796875 C 55.414062 69 53.136719 70.03125 50.789062 70.777344 C 50.648438 70.824219 50.511719 70.871094 50.371094 70.917969 C 50.226562 70.957031 50.082031 71 49.941406 71.039062 C 49.65625 71.121094 49.367188 71.199219 49.078125 71.28125 C 48.792969 71.371094 48.496094 71.425781 48.203125 71.496094 C 47.914062 71.5625 47.617188 71.632812 47.328125 71.699219 C 47.039062 71.757812 46.65625 71.820312 46.476562 71.847656 C 46.171875 71.886719 45.898438 71.929688 45.621094 71.980469 C 45.34375 72.019531 45.066406 72.0625 44.757812 72.109375 C 44.542969 72.136719 44.324219 72.171875 44.097656 72.207031 C 43.871094 72.238281 43.636719 72.257812 43.410156 72.277344 C 43.179688 72.300781 42.953125 72.316406 42.734375 72.339844 C 42.625 72.347656 42.523438 72.355469 42.417969 72.363281 C 42.347656 72.371094 42.28125 72.371094 42.210938 72.371094 C 44.753906 71.921875 47.242188 71.175781 49.609375 70.152344 L 50.648438 69.683594 C 50.992188 69.519531 51.332031 69.339844 51.671875 69.171875 L 52.179688 68.910156 L 52.675781 68.628906 C 53.003906 68.4375 53.34375 68.257812 53.664062 68.058594 C 54.039062 67.824219 54.410156 67.585938 54.78125 67.351562 C 54.972656 67.242188 55.144531 67.105469 55.328125 66.984375 L 55.863281 66.601562 C 57.476562 65.414062 58.988281 64.074219 60.347656 62.617188 C 60.515625 62.433594 60.6875 62.25 60.855469 62.0625 C 61.023438 61.878906 61.199219 61.699219 61.355469 61.503906 C 61.679688 61.121094 62.003906 60.742188 62.320312 60.355469 C 62.625 59.957031 62.925781 59.558594 63.234375 59.15625 C 63.527344 58.746094 63.804688 58.316406 64.089844 57.890625 C 64.878906 56.617188 65.640625 55.308594 66.269531 53.929688 L 66.515625 53.414062 C 66.597656 53.242188 66.664062 53.066406 66.738281 52.890625 L 67.175781 51.839844 C 67.308594 51.480469 67.433594 51.125 67.566406 50.769531 C 67.566406 50.761719 67.570312 50.757812 67.570312 50.75 C 67.589844 50.710938 67.613281 50.671875 67.632812 50.632812 L 67.78125 50.351562 C 67.828125 50.257812 67.871094 50.164062 67.914062 50.070312 C 68 49.882812 68.089844 49.691406 68.175781 49.503906 C 68.257812 49.316406 68.34375 49.132812 68.425781 48.949219 C 68.503906 48.765625 68.566406 48.574219 68.636719 48.394531 C 68.71875 48.179688 68.796875 47.964844 68.875 47.75 C 68.953125 47.539062 69.035156 47.320312 69.097656 47.101562 C 69.238281 46.660156 69.378906 46.222656 69.515625 45.777344 C 69.636719 45.332031 69.753906 44.882812 69.871094 44.4375 C 69.933594 44.214844 69.972656 43.988281 70.023438 43.765625 C 70.066406 43.539062 70.113281 43.316406 70.15625 43.09375 C 70.261719 42.652344 70.316406 42.203125 70.378906 41.765625 C 70.410156 41.546875 70.441406 41.328125 70.472656 41.113281 C 70.5 40.898438 70.511719 40.679688 70.53125 40.46875 C 70.546875 40.253906 70.5625 40.042969 70.578125 39.835938 C 70.585938 39.730469 70.589844 39.625 70.597656 39.523438 L 70.609375 39.371094 L 70.613281 39.214844 C 70.613281 38.808594 70.617188 38.414062 70.613281 38.035156 C 70.609375 37.914062 70.625 37.742188 70.617188 37.574219 C 70.613281 37.414062 70.613281 37.265625 70.601562 37.203125 C 70.539062 36.847656 70.464844 36.660156 70.398438 36.332031 C 70.261719 35.609375 70.066406 36.082031 69.929688 37.464844 C 69.921875 37.535156 69.914062 37.605469 69.90625 37.675781 C 69.898438 37.742188 69.886719 37.804688 69.875 37.871094 C 69.855469 38.003906 69.839844 38.132812 69.820312 38.265625 C 69.78125 38.535156 69.746094 38.804688 69.710938 39.078125 C 69.703125 39.148438 69.691406 39.214844 69.683594 39.285156 C 69.671875 39.355469 69.660156 39.421875 69.648438 39.496094 C 69.625 39.636719 69.601562 39.773438 69.578125 39.917969 C 69.535156 40.203125 69.488281 40.492188 69.4375 40.785156 C 69.40625 40.964844 69.367188 41.144531 69.332031 41.328125 C 69.332031 41.269531 69.335938 41.210938 69.339844 41.15625 C 69.347656 41.058594 69.351562 40.964844 69.355469 40.867188 L 69.355469 40.582031 L 69.359375 40.007812 C 69.363281 39.816406 69.363281 39.625 69.363281 39.433594 C 69.367188 39.242188 69.347656 39.050781 69.34375 38.859375 C 69.324219 38.480469 69.304688 38.097656 69.289062 37.722656 C 69.121094 35.539062 68.753906 33.347656 68.15625 31.25 C 68.074219 30.976562 67.992188 30.695312 67.910156 30.410156 C 66.648438 24.988281 63.980469 20.113281 60.304688 16.179688 L 60.023438 15.835938 L 59.84375 15.613281 L 59.65625 15.40625 L 59.277344 14.984375 C 58.789062 14.410156 58.246094 13.886719 57.722656 13.347656 C 57.453125 13.085938 57.171875 12.835938 56.894531 12.582031 L 56.484375 12.199219 C 56.339844 12.074219 56.195312 11.957031 56.050781 11.832031 C 55.863281 11.679688 55.660156 11.507812 55.511719 11.390625 C 54.238281 10.453125 52.796875 9.453125 51.148438 8.480469 C 51.808594 8.691406 52.464844 8.917969 53.070312 9.152344 C 53.269531 9.226562 53.46875 9.296875 53.667969 9.378906 C 53.863281 9.460938 54.0625 9.542969 54.257812 9.628906 C 54.644531 9.796875 55.039062 9.945312 55.414062 10.136719 C 55.792969 10.320312 56.171875 10.5 56.550781 10.683594 C 56.917969 10.882812 57.285156 11.082031 57.65625 11.28125 C 57.75 11.332031 57.84375 11.382812 57.9375 11.4375 C 58.03125 11.492188 58.121094 11.546875 58.210938 11.597656 C 58.386719 11.699219 58.546875 11.789062 58.664062 11.859375 C 59.257812 12.164062 59.945312 12.636719 60.675781 13.144531 C 61.027344 13.417969 61.394531 13.699219 61.761719 13.988281 C 61.945312 14.128906 62.117188 14.289062 62.292969 14.4375 C 62.464844 14.59375 62.640625 14.742188 62.8125 14.894531 C 62.925781 14.996094 63.039062 15.089844 63.148438 15.195312 L 63.46875 15.507812 C 63.6875 15.714844 63.902344 15.925781 64.117188 16.136719 C 64.171875 16.1875 64.226562 16.242188 64.273438 16.292969 L 64.429688 16.457031 C 64.53125 16.570312 64.636719 16.675781 64.734375 16.789062 C 64.9375 17.003906 65.136719 17.226562 65.339844 17.441406 C 65.53125 17.667969 65.714844 17.890625 65.90625 18.113281 C 66.089844 18.339844 66.28125 18.554688 66.453125 18.78125 C 66.625 19.007812 66.796875 19.234375 66.960938 19.457031 C 66.980469 19.480469 67 19.511719 67.023438 19.535156 L 67.296875 20.023438 C 67.402344 20.210938 67.496094 20.40625 67.59375 20.597656 L 67.886719 21.175781 C 67.984375 21.371094 68.089844 21.558594 68.175781 21.757812 C 68.351562 22.152344 68.535156 22.546875 68.71875 22.941406 C 69.046875 23.742188 69.386719 24.542969 69.660156 25.367188 C 69.730469 25.574219 69.800781 25.777344 69.875 25.980469 C 69.945312 26.179688 70 26.386719 70.066406 26.589844 C 70.128906 26.792969 70.191406 27 70.253906 27.203125 L 70.394531 27.660156 L 70.433594 27.816406 C 70.539062 28.234375 70.640625 28.65625 70.742188 29.085938 C 70.796875 29.300781 70.824219 29.523438 70.863281 29.75 C 70.902344 29.972656 70.941406 30.203125 70.976562 30.433594 C 71.003906 30.589844 71.027344 30.75 71.054688 30.910156 C 71.074219 31.074219 71.09375 31.238281 71.117188 31.40625 C 71.15625 31.738281 71.203125 32.078125 71.253906 32.421875 C 71.28125 32.59375 71.292969 32.765625 71.308594 32.9375 C 71.328125 33.113281 71.34375 33.285156 71.359375 33.457031 C 71.378906 33.628906 71.394531 33.800781 71.410156 33.96875 C 71.425781 34.140625 71.445312 34.3125 71.449219 34.480469 C 71.492188 35.457031 71.621094 36.171875 71.710938 35.988281 C 71.871094 35.648438 72.035156 35.257812 72.226562 34.804688 C 72.238281 33.722656 72.148438 32.34375 72.035156 31.078125 C 71.859375 29.320312 71.46875 27.761719 70.960938 26.253906 C 71.046875 26.449219 71.132812 26.640625 71.222656 26.832031 C 71.550781 27.632812 71.882812 28.429688 72.148438 29.253906 C 72.222656 29.457031 72.289062 29.660156 72.363281 29.863281 C 72.433594 30.0625 72.488281 30.269531 72.546875 30.472656 C 72.605469 30.675781 72.667969 30.878906 72.726562 31.082031 L 72.816406 31.386719 L 72.863281 31.539062 L 72.902344 31.695312 C 72.996094 32.109375 73.097656 32.527344 73.199219 32.957031 C 73.253906 33.171875 73.28125 33.394531 73.324219 33.617188 C 73.363281 33.839844 73.402344 34.066406 73.441406 34.296875 C 73.46875 34.453125 73.496094 34.609375 73.519531 34.769531 C 73.542969 34.933594 73.5625 35.097656 73.582031 35.261719 C 73.628906 35.59375 73.671875 35.933594 73.71875 36.273438 C 73.742188 36.445312 73.753906 36.617188 73.769531 36.789062 C 73.785156 36.960938 73.800781 37.132812 73.8125 37.304688 C 73.828125 37.472656 73.839844 37.644531 73.859375 37.816406 C 73.871094 37.984375 73.890625 38.15625 73.890625 38.324219 C 73.925781 39.292969 74 40.003906 74.039062 39.820312 C 74.121094 39.484375 74.195312 39.097656 74.285156 38.65625 C 74.269531 37.578125 74.167969 36.226562 74.023438 34.992188 Z M 24.382812 68.070312 L 23.992188 67.851562 C 23.863281 67.777344 23.734375 67.707031 23.609375 67.625 L 22.851562 67.144531 L 22.46875 66.90625 C 22.347656 66.824219 22.226562 66.734375 22.101562 66.652344 C 19.824219 65.09375 17.746094 63.242188 15.921875 61.164062 L 16.234375 61.425781 L 16.582031 61.714844 C 16.644531 61.765625 16.699219 61.8125 16.761719 61.859375 L 16.941406 62 C 17.179688 62.183594 17.421875 62.371094 17.664062 62.558594 L 18.027344 62.839844 L 18.398438 63.105469 C 18.644531 63.285156 18.894531 63.464844 19.136719 63.652344 L 19.320312 63.789062 L 19.515625 63.917969 C 19.640625 64.007812 19.769531 64.097656 19.894531 64.1875 C 20.117188 64.339844 20.441406 64.542969 20.714844 64.707031 L 21.519531 65.152344 C 21.789062 65.296875 22.054688 65.449219 22.332031 65.578125 L 23.15625 65.980469 C 23.292969 66.046875 23.429688 66.113281 23.570312 66.179688 L 23.988281 66.363281 C 24.269531 66.488281 24.546875 66.613281 24.828125 66.734375 L 25.039062 66.828125 L 25.253906 66.914062 L 25.679688 67.089844 C 25.964844 67.203125 26.25 67.324219 26.53125 67.449219 C 26.820312 67.558594 27.109375 67.667969 27.394531 67.785156 C 27.507812 67.828125 27.65625 67.878906 27.816406 67.929688 C 27.894531 67.953125 27.980469 67.980469 28.0625 68.003906 C 28.144531 68.027344 28.226562 68.050781 28.304688 68.070312 C 30.5 68.707031 32.75 69.109375 35.035156 69.300781 C 35.449219 69.328125 35.859375 69.359375 36.269531 69.386719 C 36.679688 69.402344 37.082031 69.40625 37.488281 69.417969 L 37.65625 69.421875 L 37.558594 69.429688 C 37.34375 69.460938 37.132812 69.496094 36.917969 69.507812 C 36.484375 69.542969 36.058594 69.578125 35.628906 69.613281 C 35.5 69.625 35.375 69.628906 35.25 69.628906 L 34.867188 69.640625 L 34.105469 69.65625 L 33.917969 69.664062 L 33.820312 69.664062 L 33.796875 69.667969 L 33.785156 69.667969 L 33.734375 69.664062 L 33.351562 69.65625 L 32.578125 69.632812 C 32.058594 69.628906 31.5625 69.570312 31.058594 69.535156 L 30.6875 69.507812 C 30.558594 69.496094 30.433594 69.488281 30.304688 69.46875 L 29.554688 69.371094 L 28.902344 69.285156 C 28.6875 69.25 28.472656 69.207031 28.257812 69.167969 C 27.125 68.964844 26.015625 68.699219 24.917969 68.378906 C 24.742188 68.273438 24.5625 68.171875 24.382812 68.070312 Z M 63.445312 57.804688 L 63.085938 58.339844 C 62.964844 58.519531 62.851562 58.703125 62.71875 58.871094 C 62.460938 59.21875 62.203125 59.5625 61.949219 59.910156 C 61.875 60.011719 61.792969 60.109375 61.710938 60.207031 L 61.46875 60.5 L 60.976562 61.082031 L 60.855469 61.226562 L 60.796875 61.300781 L 60.78125 61.316406 L 60.777344 61.324219 L 60.773438 61.328125 L 60.742188 61.363281 L 60.476562 61.644531 L 59.953125 62.210938 C 59.605469 62.597656 59.238281 62.933594 58.878906 63.289062 L 58.605469 63.550781 C 58.515625 63.640625 58.425781 63.726562 58.328125 63.808594 L 57.757812 64.3125 L 57.261719 64.746094 C 57.097656 64.886719 56.921875 65.019531 56.75 65.152344 C 54.941406 66.59375 52.976562 67.824219 50.914062 68.859375 L 50.4375 69.101562 L 49.949219 69.324219 L 48.976562 69.765625 C 48.648438 69.898438 48.320312 70.027344 47.988281 70.160156 C 47.824219 70.226562 47.664062 70.296875 47.496094 70.359375 L 46.992188 70.535156 C 46.65625 70.648438 46.324219 70.773438 45.988281 70.882812 C 45.648438 70.984375 45.308594 71.085938 44.96875 71.1875 C 44.796875 71.238281 44.632812 71.292969 44.460938 71.335938 L 43.429688 71.59375 C 43.261719 71.632812 43.089844 71.683594 42.917969 71.714844 C 42.5 71.796875 42.085938 71.890625 41.667969 71.96875 C 40.683594 72.132812 39.6875 72.25 38.695312 72.320312 C 38.417969 72.296875 38.140625 72.269531 37.871094 72.242188 C 37.792969 72.234375 37.691406 72.222656 37.574219 72.214844 C 37.457031 72.210938 37.320312 72.199219 37.179688 72.183594 C 36.898438 72.152344 36.589844 72.121094 36.328125 72.089844 C 36.167969 72.074219 36 72.054688 35.835938 72.035156 C 35.675781 72.019531 35.511719 71.984375 35.347656 71.964844 C 35.019531 71.90625 34.691406 71.851562 34.363281 71.796875 L 34.117188 71.753906 L 33.871094 71.695312 L 32.894531 71.46875 C 32.730469 71.429688 32.566406 71.398438 32.410156 71.34375 C 31.691406 71.128906 30.992188 70.941406 30.320312 70.699219 C 30.152344 70.644531 29.984375 70.585938 29.816406 70.53125 C 29.648438 70.476562 29.476562 70.421875 29.316406 70.359375 C 28.988281 70.234375 28.660156 70.117188 28.335938 70 C 28.230469 69.957031 28.0625 69.90625 27.90625 69.832031 C 27.75 69.761719 27.589844 69.6875 27.484375 69.636719 C 27.464844 69.628906 27.449219 69.621094 27.433594 69.613281 C 29.125 69.9375 30.847656 70.132812 32.554688 70.183594 C 32.804688 70.1875 33.054688 70.195312 33.308594 70.199219 C 33.558594 70.207031 33.808594 70.214844 34.058594 70.207031 C 34.5625 70.195312 35.058594 70.1875 35.558594 70.171875 C 36.058594 70.136719 36.558594 70.101562 37.0625 70.0625 C 37.566406 70.011719 38.070312 69.9375 38.578125 69.871094 C 39.835938 69.664062 41.097656 69.417969 42.339844 69.082031 C 43.125 68.976562 43.882812 68.792969 44.621094 68.625 C 44.730469 68.601562 44.832031 68.570312 44.9375 68.542969 C 45.039062 68.511719 45.148438 68.480469 45.253906 68.453125 C 45.46875 68.390625 45.683594 68.332031 45.898438 68.269531 C 46.332031 68.160156 46.765625 68.011719 47.207031 67.882812 C 47.421875 67.820312 47.632812 67.757812 47.835938 67.699219 C 48.042969 67.632812 48.242188 67.558594 48.441406 67.484375 C 48.636719 67.414062 48.828125 67.34375 49.019531 67.273438 C 49.113281 67.238281 49.207031 67.203125 49.304688 67.167969 L 49.441406 67.113281 L 49.582031 67.054688 C 49.945312 66.894531 50.300781 66.734375 50.65625 66.578125 L 50.921875 66.457031 L 51.183594 66.324219 C 51.359375 66.234375 51.53125 66.144531 51.703125 66.054688 C 51.945312 65.921875 52.199219 65.800781 52.441406 65.664062 C 52.6875 65.523438 52.933594 65.382812 53.179688 65.238281 C 53.304688 65.167969 53.429688 65.097656 53.554688 65.023438 L 53.742188 64.917969 L 53.929688 64.800781 C 54.175781 64.644531 54.425781 64.492188 54.675781 64.332031 C 54.804688 64.253906 54.929688 64.175781 55.0625 64.097656 C 55.1875 64.011719 55.3125 63.929688 55.4375 63.84375 C 55.691406 63.671875 55.949219 63.503906 56.207031 63.328125 C 56.273438 63.285156 56.335938 63.242188 56.40625 63.203125 C 56.464844 63.15625 56.53125 63.109375 56.59375 63.0625 C 56.722656 62.972656 56.851562 62.878906 56.984375 62.785156 C 57.242188 62.597656 57.511719 62.417969 57.773438 62.222656 C 58.183594 61.90625 58.601562 61.601562 59.011719 61.289062 C 59.40625 60.960938 59.804688 60.636719 60.183594 60.296875 C 61.398438 59.164062 62.519531 58.023438 63.578125 56.808594 C 63.832031 56.496094 64.089844 56.1875 64.347656 55.875 C 64.476562 55.722656 64.59375 55.554688 64.714844 55.394531 C 64.835938 55.230469 64.957031 55.066406 65.078125 54.902344 C 65.191406 54.742188 65.3125 54.582031 65.421875 54.421875 C 64.828125 55.585938 64.171875 56.714844 63.445312 57.804688 Z M 68.722656 40.890625 C 68.71875 40.96875 68.714844 41.050781 68.710938 41.132812 C 68.675781 42.59375 68.535156 44.054688 68.300781 45.503906 C 68.210938 45.78125 68.113281 46.058594 68.027344 46.335938 L 67.863281 46.832031 C 67.808594 46.996094 67.742188 47.15625 67.679688 47.320312 C 67.554688 47.644531 67.429688 47.96875 67.304688 48.292969 C 67.195312 48.558594 67.070312 48.820312 66.957031 49.082031 C 66.839844 49.34375 66.730469 49.605469 66.613281 49.859375 C 66.492188 50.109375 66.371094 50.359375 66.261719 50.605469 C 66.207031 50.726562 66.152344 50.847656 66.101562 50.96875 C 66.074219 51.03125 66.050781 51.089844 66.023438 51.148438 C 65.996094 51.207031 65.96875 51.265625 65.945312 51.324219 C 65.828125 51.570312 65.660156 51.894531 65.472656 52.242188 C 65.425781 52.328125 65.375 52.417969 65.332031 52.503906 C 65.28125 52.59375 65.222656 52.679688 65.171875 52.765625 C 65.066406 52.9375 64.960938 53.109375 64.863281 53.273438 C 64.28125 54.257812 63.453125 55.34375 62.953125 56.066406 C 62.863281 56.195312 62.785156 56.332031 62.683594 56.457031 C 62.585938 56.582031 62.484375 56.710938 62.386719 56.839844 C 62.1875 57.09375 61.980469 57.355469 61.765625 57.613281 C 61.539062 57.859375 61.3125 58.109375 61.089844 58.363281 L 60.742188 58.734375 L 60.378906 59.097656 L 59.738281 59.730469 C 59.519531 59.9375 59.292969 60.136719 59.070312 60.335938 L 58.734375 60.636719 C 58.617188 60.738281 58.507812 60.839844 58.390625 60.933594 C 58.152344 61.121094 57.914062 61.3125 57.679688 61.5 L 57.320312 61.785156 C 57.199219 61.878906 57.074219 61.964844 56.953125 62.050781 C 56.703125 62.230469 56.449219 62.40625 56.199219 62.582031 C 56.074219 62.671875 55.945312 62.757812 55.8125 62.839844 C 55.679688 62.917969 55.550781 63 55.417969 63.082031 C 55.390625 63.097656 55.367188 63.113281 55.34375 63.125 C 63.066406 57.738281 68.238281 48.953125 68.695312 38.933594 C 68.699219 39.015625 68.703125 39.09375 68.707031 39.175781 C 68.722656 39.5 68.714844 39.828125 68.71875 40.15625 C 68.71875 40.320312 68.71875 40.484375 68.722656 40.648438 C 68.722656 40.726562 68.726562 40.808594 68.722656 40.890625 Z M 51.878906 9.28125 C 52.363281 9.574219 52.8125 9.921875 53.277344 10.242188 C 53.390625 10.324219 53.507812 10.40625 53.621094 10.484375 C 53.734375 10.570312 53.847656 10.65625 53.957031 10.742188 C 54.179688 10.910156 54.402344 11.078125 54.625 11.242188 C 54.746094 11.332031 54.871094 11.421875 54.988281 11.515625 C 55.101562 11.613281 55.210938 11.707031 55.316406 11.796875 C 55.371094 11.847656 55.429688 11.898438 55.480469 11.945312 C 55.457031 11.929688 55.433594 11.914062 55.414062 11.898438 C 55.269531 11.800781 55.125 11.703125 54.984375 11.613281 C 52.351562 9.828125 49.429688 8.445312 46.304688 7.527344 C 46.082031 7.453125 45.859375 7.382812 45.632812 7.3125 C 45.414062 7.238281 45.1875 7.183594 44.964844 7.125 C 44.914062 7.113281 44.867188 7.101562 44.816406 7.085938 C 46.535156 7.292969 48.242188 7.640625 49.878906 8.085938 C 50.5625 8.460938 51.226562 8.855469 51.878906 9.28125 Z M 51.878906 9.28125 " fill-opacity="1" fill-rule="nonzero"/></g><g clip-path="url(#365d42751d)"><path fill="#2b946f" d="M 1.535156 43.066406 C 1.484375 42.757812 1.433594 42.449219 1.382812 42.144531 C 1.34375 41.835938 1.316406 41.527344 1.277344 41.21875 C 1.253906 41.003906 1.230469 40.78125 1.203125 40.5625 C 1.179688 40.34375 1.171875 40.128906 1.152344 39.929688 C 1.121094 39.617188 1.089844 39.296875 1.0625 38.980469 C 1.042969 38.820312 1.042969 38.660156 1.035156 38.5 C 1.027344 38.339844 1.023438 38.179688 1.015625 38.019531 C 1 37.703125 0.988281 37.390625 0.972656 37.078125 C 0.972656 36.765625 0.972656 36.453125 0.964844 36.152344 C 0.9375 35.253906 0.949219 35.0625 0.835938 35.390625 C 0.808594 35.484375 0.785156 35.621094 0.753906 35.757812 C 0.746094 36 0.746094 36.246094 0.734375 36.472656 C 0.726562 36.699219 0.710938 36.921875 0.703125 37.148438 L 0.707031 37.828125 C 0.710938 38.050781 0.710938 38.277344 0.710938 38.507812 C 0.710938 38.621094 0.710938 38.734375 0.714844 38.847656 C 0.722656 38.964844 0.730469 39.078125 0.738281 39.191406 C 0.800781 40.355469 0.941406 41.535156 1.175781 42.535156 C 1.253906 42.851562 1.335938 43.191406 1.414062 43.53125 C 1.4375 43.617188 1.453125 43.699219 1.480469 43.789062 L 1.550781 44.042969 C 1.597656 44.210938 1.648438 44.378906 1.695312 44.546875 C 1.71875 44.429688 1.71875 44.285156 1.6875 44.058594 C 1.65625 43.835938 1.605469 43.523438 1.535156 43.066406 Z M 1.535156 43.066406 " fill-opacity="1" fill-rule="nonzero"/></g><path fill="#2b946f" d="M 20.355469 68.542969 C 20.160156 68.421875 19.894531 68.25 19.5 68 C 19.238281 67.835938 18.976562 67.671875 18.714844 67.507812 C 18.457031 67.332031 18.203125 67.152344 17.949219 66.976562 C 17.769531 66.851562 17.589844 66.722656 17.40625 66.597656 C 17.226562 66.472656 17.058594 66.335938 16.894531 66.222656 C 16.640625 66.035156 16.378906 65.847656 16.121094 65.660156 C 15.992188 65.566406 15.867188 65.464844 15.742188 65.367188 C 15.617188 65.265625 15.496094 65.164062 15.371094 65.0625 C 15.125 64.863281 14.878906 64.667969 14.636719 64.472656 C 14.402344 64.265625 14.164062 64.0625 13.933594 63.871094 C 13.242188 63.292969 13.105469 63.160156 13.277344 63.460938 C 13.332031 63.542969 13.417969 63.652344 13.5 63.765625 C 13.679688 63.933594 13.859375 64.097656 14.023438 64.253906 C 14.1875 64.410156 14.347656 64.570312 14.515625 64.722656 L 15.023438 65.171875 C 15.195312 65.320312 15.363281 65.46875 15.535156 65.617188 C 15.625 65.691406 15.707031 65.765625 15.796875 65.839844 C 15.886719 65.90625 15.976562 65.976562 16.066406 66.046875 C 16.984375 66.765625 17.964844 67.445312 18.871094 67.925781 C 19.160156 68.074219 19.464844 68.238281 19.777344 68.402344 C 19.855469 68.441406 19.929688 68.488281 20.011719 68.527344 L 20.25 68.636719 C 20.410156 68.714844 20.570312 68.789062 20.726562 68.863281 C 20.652344 68.765625 20.546875 68.667969 20.355469 68.542969 Z M 20.355469 68.542969 " fill-opacity="1" fill-rule="nonzero"/><g fill="#ffffff" fill-opacity="1"><g transform="translate(10.269565, 41.035569)"><g><path d="M 2.21875 10.0625 C 2.125 10.0625 2.007812 10.015625 1.875 9.921875 C 1.664062 9.773438 1.570312 9.613281 1.59375 9.4375 C 1.613281 9.269531 1.679688 9.078125 1.796875 8.859375 C 1.847656 8.722656 1.882812 8.628906 1.90625 8.578125 C 2.238281 7.640625 2.628906 6.753906 3.078125 5.921875 C 3.523438 5.097656 3.945312 4.367188 4.34375 3.734375 C 5 2.648438 5.128906 1.3125 4.734375 -0.28125 C 4.398438 -1.570312 3.632812 -2.585938 2.4375 -3.328125 C 2.382812 -3.347656 2.300781 -3.394531 2.1875 -3.46875 C 1.976562 -3.582031 1.8125 -3.6875 1.6875 -3.78125 C 1.570312 -3.875 1.515625 -4.003906 1.515625 -4.171875 C 1.515625 -4.378906 1.582031 -4.515625 1.71875 -4.578125 C 1.863281 -4.648438 2.039062 -4.710938 2.25 -4.765625 L 2.40625 -4.796875 C 4.425781 -5.335938 6.34375 -5.609375 8.15625 -5.609375 C 8.269531 -5.609375 8.421875 -5.609375 8.609375 -5.609375 C 8.796875 -5.609375 8.890625 -5.609375 8.890625 -5.609375 C 9.671875 -5.609375 10.296875 -5.941406 10.765625 -6.609375 C 11.160156 -7.191406 11.546875 -7.769531 11.921875 -8.34375 C 12.304688 -8.925781 12.6875 -9.507812 13.0625 -10.09375 C 14.238281 -11.882812 15.441406 -13.679688 16.671875 -15.484375 C 17.910156 -17.285156 19.238281 -19.007812 20.65625 -20.65625 C 20.914062 -20.957031 21.1875 -21.242188 21.46875 -21.515625 C 21.75 -21.785156 22.078125 -21.992188 22.453125 -22.140625 C 22.640625 -22.234375 22.804688 -22.28125 22.953125 -22.28125 C 23.367188 -22.28125 23.675781 -21.984375 23.875 -21.390625 C 24.0625 -20.828125 24.132812 -20.296875 24.09375 -19.796875 C 24.0625 -19.304688 24.007812 -18.816406 23.9375 -18.328125 C 23.53125 -15.878906 22.972656 -13.503906 22.265625 -11.203125 C 21.566406 -8.910156 20.851562 -6.648438 20.125 -4.421875 C 19.9375 -3.921875 19.765625 -3.421875 19.609375 -2.921875 C 19.453125 -2.429688 19.289062 -1.929688 19.125 -1.421875 C 18.6875 -0.117188 18.238281 1.175781 17.78125 2.46875 C 17.320312 3.757812 16.859375 5.054688 16.390625 6.359375 C 16.378906 6.421875 16.351562 6.503906 16.3125 6.609375 C 16.289062 6.722656 16.253906 6.835938 16.203125 6.953125 C 16.160156 7.066406 16.09375 7.125 16 7.125 C 15.925781 7.125 15.832031 7.09375 15.71875 7.03125 C 15.625 6.976562 15.5625 6.925781 15.53125 6.875 C 15.488281 6.789062 15.484375 6.695312 15.515625 6.59375 C 15.554688 6.5 15.597656 6.410156 15.640625 6.328125 C 15.679688 6.203125 15.707031 6.113281 15.71875 6.0625 C 16.1875 4.113281 16.722656 2.1875 17.328125 0.28125 C 17.941406 -1.625 18.554688 -3.492188 19.171875 -5.328125 C 19.597656 -6.554688 20.015625 -7.800781 20.421875 -9.0625 C 20.835938 -10.320312 21.234375 -11.585938 21.609375 -12.859375 C 21.679688 -13.109375 21.796875 -13.507812 21.953125 -14.0625 C 22.117188 -14.625 22.289062 -15.257812 22.46875 -15.96875 C 22.644531 -16.6875 22.796875 -17.398438 22.921875 -18.109375 C 23.054688 -18.816406 23.144531 -19.4375 23.1875 -19.96875 C 23.238281 -20.5 23.207031 -20.867188 23.09375 -21.078125 C 23.039062 -21.148438 22.976562 -21.207031 22.90625 -21.25 L 22.875 -21.25 L 22.734375 -21.28125 C 22.640625 -21.28125 22.554688 -21.253906 22.484375 -21.203125 C 22.410156 -21.160156 22.363281 -21.128906 22.34375 -21.109375 C 22.113281 -20.941406 21.910156 -20.753906 21.734375 -20.546875 C 21.554688 -20.335938 21.382812 -20.132812 21.21875 -19.9375 C 21.125 -19.820312 21.03125 -19.707031 20.9375 -19.59375 C 20.84375 -19.476562 20.75 -19.363281 20.65625 -19.25 C 20 -18.53125 19.335938 -17.75 18.671875 -16.90625 C 18.015625 -16.039062 17.382812 -15.171875 16.78125 -14.296875 C 16.1875 -13.429688 15.628906 -12.609375 15.109375 -11.828125 L 14.46875 -10.8125 C 13.925781 -10 13.378906 -9.175781 12.828125 -8.34375 C 12.273438 -7.507812 11.707031 -6.691406 11.125 -5.890625 L 11.015625 -5.71875 L 11.265625 -5.71875 C 12.296875 -5.664062 13.253906 -5.59375 14.140625 -5.5 C 15.023438 -5.414062 15.910156 -5.273438 16.796875 -5.078125 C 16.828125 -5.054688 16.867188 -5.046875 16.921875 -5.046875 C 16.984375 -5.046875 17.035156 -5.046875 17.078125 -5.046875 C 17.171875 -5.023438 17.253906 -5.007812 17.328125 -5 C 17.398438 -4.988281 17.460938 -4.957031 17.515625 -4.90625 C 17.578125 -4.863281 17.613281 -4.78125 17.625 -4.65625 C 17.644531 -4.46875 17.550781 -4.375 17.34375 -4.375 C 17.289062 -4.375 17.234375 -4.378906 17.171875 -4.390625 C 17.109375 -4.398438 17.035156 -4.410156 16.953125 -4.421875 L 16.84375 -4.453125 C 16.695312 -4.492188 16.539062 -4.523438 16.375 -4.546875 C 16.207031 -4.578125 16.035156 -4.625 15.859375 -4.6875 C 15.640625 -4.71875 15.410156 -4.757812 15.171875 -4.8125 C 14.941406 -4.875 14.71875 -4.914062 14.5 -4.9375 C 13.9375 -5.03125 13.429688 -5.078125 12.984375 -5.078125 C 11.179688 -5.078125 9.910156 -4.328125 9.171875 -2.828125 C 8.847656 -2.191406 8.519531 -1.570312 8.1875 -0.96875 C 7.851562 -0.363281 7.503906 0.238281 7.140625 0.84375 C 6.523438 1.90625 5.914062 2.992188 5.3125 4.109375 C 4.71875 5.234375 4.207031 6.414062 3.78125 7.65625 C 3.664062 7.945312 3.53125 8.226562 3.375 8.5 C 3.21875 8.769531 3.054688 9.03125 2.890625 9.28125 C 2.847656 9.332031 2.800781 9.414062 2.75 9.53125 C 2.6875 9.664062 2.613281 9.785156 2.53125 9.890625 C 2.445312 10.003906 2.34375 10.0625 2.21875 10.0625 Z M 9.359375 -4.96875 C 8.929688 -5 8.507812 -5.015625 8.09375 -5.015625 C 7.1875 -5.015625 6.320312 -4.941406 5.5 -4.796875 C 4.675781 -4.660156 3.867188 -4.507812 3.078125 -4.34375 C 2.910156 -4.300781 2.796875 -4.253906 2.734375 -4.203125 C 2.679688 -4.148438 2.65625 -4.09375 2.65625 -4.03125 C 2.65625 -3.976562 2.675781 -3.90625 2.71875 -3.8125 C 2.769531 -3.71875 2.882812 -3.601562 3.0625 -3.46875 C 4.5 -2.351562 5.328125 -0.8125 5.546875 1.15625 L 5.578125 1.515625 L 9.59375 -4.9375 Z M 9.359375 -4.96875 "/></g></g></g><g fill="#ffffff" fill-opacity="1"><g transform="translate(32.548496, 41.035569)"><g><path d="M 21.46875 -26.046875 C 21.84375 -26.492188 22.066406 -26.539062 22.140625 -26.1875 C 22.203125 -25.957031 22.195312 -25.628906 22.125 -25.203125 C 22.0625 -24.785156 22.003906 -24.484375 21.953125 -24.296875 C 21.722656 -23.628906 21.382812 -22.753906 20.9375 -21.671875 C 20.488281 -20.585938 19.972656 -19.382812 19.390625 -18.0625 C 18.816406 -16.75 18.210938 -15.390625 17.578125 -13.984375 C 16.941406 -12.585938 16.316406 -11.234375 15.703125 -9.921875 C 15.097656 -8.609375 14.539062 -7.425781 14.03125 -6.375 C 13.53125 -5.320312 13.125 -4.476562 12.8125 -3.84375 L 12.71875 -3.703125 C 12.644531 -3.566406 12.582031 -3.4375 12.53125 -3.3125 C 12.476562 -3.195312 12.40625 -3.054688 12.3125 -2.890625 L 11.890625 -2.046875 L 12.171875 -2.15625 C 13.453125 -2.550781 14.753906 -2.9375 16.078125 -3.3125 C 17.410156 -3.6875 18.769531 -3.972656 20.15625 -4.171875 C 20.414062 -4.210938 20.597656 -4.3125 20.703125 -4.46875 C 20.804688 -4.625 20.894531 -4.796875 20.96875 -4.984375 C 20.988281 -5.023438 21.003906 -5.066406 21.015625 -5.109375 C 21.023438 -5.160156 21.035156 -5.203125 21.046875 -5.234375 C 22.097656 -7.515625 23.148438 -9.554688 24.203125 -11.359375 C 25.253906 -13.171875 26.375 -14.8125 27.5625 -16.28125 C 27.613281 -16.351562 27.6875 -16.476562 27.78125 -16.65625 C 27.90625 -16.820312 28.039062 -16.992188 28.1875 -17.171875 C 28.34375 -17.347656 28.492188 -17.4375 28.640625 -17.4375 C 28.734375 -17.4375 28.820312 -17.40625 28.90625 -17.34375 C 29.03125 -17.238281 29.101562 -17.140625 29.125 -17.046875 C 29.164062 -16.890625 29.132812 -16.738281 29.03125 -16.59375 C 28.925781 -16.445312 28.804688 -16.304688 28.671875 -16.171875 C 28.617188 -16.097656 28.5625 -16.023438 28.5 -15.953125 C 28.445312 -15.890625 28.40625 -15.832031 28.375 -15.78125 L 27.828125 -14.90625 C 26.953125 -13.445312 26.078125 -11.96875 25.203125 -10.46875 C 24.335938 -8.96875 23.539062 -7.429688 22.8125 -5.859375 C 22.78125 -5.804688 22.734375 -5.734375 22.671875 -5.640625 C 22.597656 -5.503906 22.53125 -5.359375 22.46875 -5.203125 C 22.414062 -5.054688 22.429688 -4.863281 22.515625 -4.625 L 22.703125 -4.625 C 22.742188 -4.644531 22.894531 -4.660156 23.15625 -4.671875 C 23.414062 -4.679688 23.707031 -4.691406 24.03125 -4.703125 C 24.363281 -4.722656 24.671875 -4.738281 24.953125 -4.75 C 25.242188 -4.757812 25.445312 -4.765625 25.5625 -4.765625 C 25.65625 -4.765625 25.753906 -4.769531 25.859375 -4.78125 C 25.960938 -4.789062 26.0625 -4.796875 26.15625 -4.796875 C 26.28125 -4.796875 26.40625 -4.796875 26.53125 -4.796875 C 26.664062 -4.796875 26.800781 -4.796875 26.9375 -4.796875 C 27.164062 -4.796875 27.363281 -4.796875 27.53125 -4.796875 L 27.6875 -4.765625 C 27.820312 -4.765625 27.957031 -4.757812 28.09375 -4.75 C 28.238281 -4.738281 28.359375 -4.707031 28.453125 -4.65625 C 28.546875 -4.613281 28.59375 -4.578125 28.59375 -4.546875 C 28.59375 -4.460938 28.523438 -4.382812 28.390625 -4.3125 C 28.265625 -4.238281 28.15625 -4.191406 28.0625 -4.171875 C 27.832031 -4.140625 27.597656 -4.113281 27.359375 -4.09375 C 27.128906 -4.070312 26.90625 -4.0625 26.6875 -4.0625 L 26.046875 -4.0625 C 25.867188 -4.0625 25.707031 -4.0625 25.5625 -4.0625 C 25.132812 -4.039062 24.691406 -4.015625 24.234375 -3.984375 C 23.773438 -3.960938 23.320312 -3.925781 22.875 -3.875 C 22.164062 -3.757812 21.671875 -3.398438 21.390625 -2.796875 C 20.828125 -1.523438 20.304688 -0.234375 19.828125 1.078125 C 19.359375 2.398438 18.894531 3.703125 18.4375 4.984375 C 18.144531 5.847656 17.835938 6.71875 17.515625 7.59375 C 17.203125 8.46875 16.875 9.335938 16.53125 10.203125 C 16.457031 10.390625 16.375 10.570312 16.28125 10.75 C 16.1875 10.925781 16.046875 11.0625 15.859375 11.15625 C 15.804688 11.175781 15.757812 11.1875 15.71875 11.1875 C 15.6875 11.144531 15.660156 11.03125 15.640625 10.84375 C 15.617188 10.65625 15.675781 10.273438 15.8125 9.703125 L 15.84375 9.59375 C 15.96875 8.988281 16.109375 8.390625 16.265625 7.796875 C 16.429688 7.210938 16.597656 6.632812 16.765625 6.0625 L 17.09375 4.9375 C 17.34375 4.164062 17.609375 3.390625 17.890625 2.609375 C 18.179688 1.835938 18.476562 1.070312 18.78125 0.3125 L 19.34375 -1.15625 C 19.394531 -1.320312 19.457031 -1.5 19.53125 -1.6875 C 19.613281 -1.875 19.679688 -2.0625 19.734375 -2.25 C 19.753906 -2.28125 19.78125 -2.351562 19.8125 -2.46875 C 19.832031 -2.582031 19.867188 -2.734375 19.921875 -2.921875 C 19.984375 -3.109375 20.035156 -3.207031 20.078125 -3.21875 L 19.953125 -3.453125 C 18.421875 -3.191406 16.988281 -2.867188 15.65625 -2.484375 C 14.332031 -2.097656 13.125 -1.707031 12.03125 -1.3125 C 11.519531 -1.144531 11.125 -0.828125 10.84375 -0.359375 C 10.625 0.0234375 10.398438 0.410156 10.171875 0.796875 C 9.953125 1.179688 9.726562 1.570312 9.5 1.96875 C 9 2.789062 8.5 3.628906 8 4.484375 C 7.507812 5.347656 7.03125 6.207031 6.5625 7.0625 C 6.375 7.394531 6.222656 7.742188 6.109375 8.109375 C 5.992188 8.472656 5.890625 8.832031 5.796875 9.1875 C 5.742188 9.394531 5.6875 9.59375 5.625 9.78125 C 5.570312 9.96875 5.507812 10.164062 5.4375 10.375 C 5.300781 10.757812 5.132812 11.085938 4.9375 11.359375 L 4.84375 11.5 C 4.75 11.625 4.640625 11.75 4.515625 11.875 C 4.398438 12.007812 4.269531 12.078125 4.125 12.078125 C 3.96875 12.078125 3.816406 12.019531 3.671875 11.90625 C 3.390625 11.738281 3.253906 11.554688 3.265625 11.359375 C 3.273438 11.171875 3.335938 10.945312 3.453125 10.6875 L 3.5 10.546875 C 3.945312 9.328125 4.425781 8.191406 4.9375 7.140625 C 5.320312 6.359375 5.347656 5.679688 5.015625 5.109375 C 4.703125 4.523438 4.039062 4.082031 3.03125 3.78125 C 2.957031 3.75 2.875 3.726562 2.78125 3.71875 C 2.6875 3.707031 2.597656 3.703125 2.515625 3.703125 C 2.273438 3.679688 2.078125 3.640625 1.921875 3.578125 C 1.765625 3.523438 1.644531 3.378906 1.5625 3.140625 C 1.46875 2.859375 1.488281 2.660156 1.625 2.546875 C 1.769531 2.429688 1.945312 2.332031 2.15625 2.25 C 2.21875 2.226562 2.273438 2.203125 2.328125 2.171875 C 2.378906 2.140625 2.4375 2.117188 2.5 2.109375 C 3.519531 1.484375 4.554688 0.9375 5.609375 0.46875 C 6.671875 0.0078125 7.679688 -0.40625 8.640625 -0.78125 C 8.898438 -0.894531 9.148438 -1.019531 9.390625 -1.15625 C 9.628906 -1.300781 9.828125 -1.503906 9.984375 -1.765625 L 10.5625 -2.828125 C 10.8125 -3.273438 11.148438 -3.941406 11.578125 -4.828125 C 12.003906 -5.722656 12.476562 -6.738281 13 -7.875 C 13.53125 -9.019531 14.070312 -10.207031 14.625 -11.4375 C 15.1875 -12.664062 15.722656 -13.847656 16.234375 -14.984375 C 16.753906 -16.128906 17.222656 -17.148438 17.640625 -18.046875 C 18.066406 -18.941406 18.390625 -19.625 18.609375 -20.09375 C 18.953125 -20.769531 19.273438 -21.445312 19.578125 -22.125 C 19.890625 -22.8125 20.203125 -23.5 20.515625 -24.1875 C 20.671875 -24.488281 20.816406 -24.804688 20.953125 -25.140625 C 21.085938 -25.484375 21.257812 -25.785156 21.46875 -26.046875 Z M 8.75 0.359375 L 8.46875 0.421875 C 7.457031 0.640625 6.503906 0.953125 5.609375 1.359375 C 4.710938 1.773438 3.726562 2.296875 2.65625 2.921875 L 2.4375 3.03125 L 2.71875 3.109375 C 3.394531 3.273438 3.96875 3.519531 4.4375 3.84375 C 4.914062 4.175781 5.363281 4.648438 5.78125 5.265625 L 5.890625 5.4375 Z M 8.75 0.359375 "/></g></g></g></svg>