<svg width="36" height="38" viewBox="0 0 36 38" fill="none" xmlns="http://www.w3.org/2000/svg">
<path d="M28.7078 22.6427L24.9263 18.8612V12.3485C24.9263 11.0536 23.8728 10 22.5778 10H12.3485C11.0536 10 10 11.0536 10 12.3485V34.3727C10 35.6677 11.0536 36.7213 12.3485 36.7213H28.3187C28.6916 36.7213 29.0128 36.4582 29.0862 36.0926L30.545 28.8305C31.0008 26.562 30.3139 24.2489 28.7078 22.6427ZM12.3485 11.5657H22.5778C23.0094 11.5657 23.3606 11.9169 23.3606 12.3485V22.4462C22.4004 21.4992 20.8579 21.5044 19.9042 22.458C18.9485 23.4121 18.9439 24.9609 19.8978 25.9213L22.8965 29.0387C22.2464 29.5239 21.4042 30.3707 20.7995 31.7632H11.5657V12.3485C11.5657 11.9169 11.9168 11.5657 12.3485 11.5657ZM11.5657 34.3727V33.3289H20.2934C20.1693 33.8778 20.0815 34.4848 20.0428 35.1556H12.3485C11.9168 35.1556 11.5657 34.8044 11.5657 34.3727ZM29.01 28.5221L27.6775 35.1556C26.4186 35.1556 22.9046 35.1556 21.6122 35.1556C21.725 33.4927 22.2037 32.0992 23.0133 31.0934C23.6844 30.2594 24.3678 29.9604 24.4222 29.9376C24.9345 29.7542 25.1176 29.0893 24.7077 28.6632C21.0062 24.815 21.0176 24.8266 21.0109 24.8201C20.6671 24.4762 20.6616 23.9143 21.0109 23.5656C21.356 23.2205 21.917 23.2196 22.2633 23.563C23.9183 25.2559 23.1135 24.4435 26.0097 27.3397C26.3154 27.6454 26.8111 27.6455 27.1168 27.3397C27.4226 27.034 27.4226 26.5383 27.1168 26.2326L24.9263 24.0421V21.0754L27.6007 23.7498C28.8354 24.9845 29.3623 26.7686 29.01 28.5221Z" fill="black" stroke="black"/>
<path d="M1.35714 27.8571C2.34179 27.8571 3.14286 28.6582 3.14286 29.6429C3.14286 29.8401 3.30275 30 3.5 30C3.69725 30 3.85714 29.8401 3.85714 29.6429C3.85714 28.6582 4.65821 27.8571 5.64286 27.8571C5.84011 27.8571 6 27.6972 6 27.5C6 27.3028 5.84011 27.1429 5.64286 27.1429C4.65821 27.1429 3.85714 26.3418 3.85714 25.3571C3.85714 25.1599 3.69725 25 3.5 25C3.30275 25 3.14286 25.1599 3.14286 25.3571C3.14286 26.3418 2.34179 27.1429 1.35714 27.1429C1.15989 27.1429 1 27.3028 1 27.5C1 27.6972 1.15989 27.8571 1.35714 27.8571ZM3.5 26.6437C3.71118 26.9941 4.00593 27.2889 4.35625 27.5C4.00589 27.7111 3.71114 28.0059 3.5 28.3563C3.28882 28.0059 2.99407 27.7111 2.64375 27.5C2.99407 27.2889 3.28882 26.9941 3.5 26.6437Z" fill="black" stroke="black"/>
<path d="M25.5 6.5C27.7056 6.5 29.5 8.2944 29.5 10.5C29.5 10.7761 29.7239 11 30 11C30.2761 11 30.5 10.7761 30.5 10.5C30.5 8.2944 32.2944 6.5 34.5 6.5C34.7761 6.5 35 6.2761 35 6C35 5.7239 34.7761 5.5 34.5 5.5C32.2944 5.5 30.5 3.7056 30.5 1.5C30.5 1.2239 30.2761 1 30 1C29.7239 1 29.5 1.2239 29.5 1.5C29.5 3.7056 27.7056 5.5 25.5 5.5C25.2239 5.5 25 5.7239 25 6C25 6.2761 25.2239 6.5 25.5 6.5ZM30 3.67855C30.4908 4.68825 31.3117 5.50915 32.3214 6C31.3117 6.4908 30.4908 7.3117 30 8.32145C29.5092 7.31175 28.6883 6.49085 27.6786 6C28.6883 5.5092 29.5092 4.6883 30 3.67855Z" fill="black" stroke="black"/>
</svg>
