<svg width="28" height="21" viewBox="0 0 28 21" fill="none" xmlns="http://www.w3.org/2000/svg">
<path d="M24.5625 1H3.43752C2.09339 1 1 2.06535 1 3.37501V17.625C1 18.9347 2.09339 20 3.43752 20H24.5625C25.9066 20 27 18.9347 27 17.625V3.37501C27 2.06535 25.9066 1 24.5625 1ZM24.5625 2.58332C24.6729 2.58332 24.7779 2.60564 24.8739 2.64461L14 11.8274L3.12604 2.64461C3.22205 2.60569 3.32707 2.58332 3.43746 2.58332H24.5625ZM24.5625 18.4166H3.43752C2.98922 18.4166 2.62499 18.0618 2.62499 17.6249V4.31741L13.4676 13.4734C13.6207 13.6025 13.8104 13.6666 14 13.6666C14.1896 13.6666 14.3793 13.6025 14.5324 13.4734L25.375 4.31741V17.625C25.375 18.0618 25.0108 18.4166 24.5625 18.4166Z" fill="black" stroke="black"/>
</svg>
