<svg width="26" height="28" viewBox="0 0 26 28" fill="none" xmlns="http://www.w3.org/2000/svg">
<path d="M20.9795 6.41492C20.5512 6.01575 19.8812 6.10197 19.5216 6.564C19.1618 7.02614 19.2497 7.68863 19.6704 8.09611C21.9387 10.2933 23.0231 13.4739 22.5256 16.6326C22.1207 19.2082 20.7368 21.4719 18.6291 23.0072C16.5207 24.5416 13.9417 25.1653 11.3661 24.7583C6.04923 23.9211 2.40364 18.9146 3.23941 13.5973C3.64434 11.0215 5.02869 8.75759 7.13665 7.22275C8.97706 5.88298 11.1763 5.23951 13.419 5.36714L12.2339 6.61041C11.876 6.98591 11.8901 7.58041 12.2654 7.93854C12.641 8.29706 13.2363 8.28286 13.5945 7.90684L15.8393 5.5501L15.84 5.55121L17.1363 4.18999L15.7775 2.8937L13.4207 0.648375C13.0448 0.290271 12.4498 0.304634 12.0916 0.680458C11.7333 1.0564 11.7478 1.65163 12.1238 2.00981L13.4215 3.24581C10.7318 3.11859 8.09726 3.901 5.88885 5.50899C3.32316 7.37714 1.63852 10.1325 1.14525 13.2682C0.127785 19.7399 4.56469 25.8346 11.0364 26.853C11.6619 26.9517 12.2871 27 12.9083 27C15.4011 27 17.8233 26.2165 19.8769 24.7209C22.4429 22.8525 24.1272 20.0972 24.6205 16.9621C25.2381 13.0416 23.8529 9.0927 20.9795 6.41492Z" fill="black" stroke="black" stroke-width="0.5"/>
<path d="M13.1054 21.1762C13.6254 21.1762 14.047 20.7547 14.0471 20.2347L14.0471 19.9556C15.4939 19.7941 16.9015 18.8802 16.9015 17.1451C16.9015 14.7876 14.7094 14.5173 13.1082 14.3201C12.0845 14.1978 11.301 14.0558 11.301 13.4356C11.301 12.5733 12.5163 12.4804 13.039 12.4804C13.8147 12.4804 14.6424 12.845 14.9235 13.3104L15.0052 13.4457L16.6135 12.7015L16.5339 12.5393C15.9346 11.3141 14.8606 10.9596 14.0467 10.8165V10.6838C14.0467 10.1638 13.6251 9.74219 13.1051 9.74219C12.585 9.74219 12.1635 10.1638 12.1635 10.6838V10.8119C10.4103 11.0705 9.36913 12.0435 9.36913 13.4356C9.36913 15.7054 11.4301 15.9358 12.9338 16.1044C14.2738 16.2624 14.8976 16.5934 14.8976 17.1451C14.8976 18.1989 13.4382 18.2813 12.9907 18.2813C11.9949 18.2813 11.0347 17.7844 10.757 17.1246L10.688 16.9617L8.9408 17.7025L9.01047 17.8654C9.52784 19.0764 10.6442 19.8352 12.1638 20.0147V20.2346C12.1638 20.7546 12.5853 21.1762 13.1054 21.1762Z" fill="black" stroke="black" stroke-width="0.5"/>
</svg>
